999
DXF created by Inkscape
  0
SECTION
  2
HEADER
  9
$ACADVER
  1
AC1014
  9
$HANDSEED
  5
FFFF
  9
$MEASUREMENT
 70
     1
  0
ENDSEC
  0
SECTION
  2
TABLES
  0
TABLE
  2
VPORT
  5
8
330
0
100
AcDbSymbolTable
 70
     4
  0
VPORT
  5
2E
330
8
100
AcDbSymbolTableRecord
100
AcDbViewportTableRecord
  2
*ACTIVE
 70
     0
 10
0.0
 20
0.0
 11
1.0
 21
1.0
 12
210.0
 22
148.5
 13
0.0
 23
0.0
 14
10.0
 24
10.0
 15
10.0
 25
10.0
 16
0.0
 26
0.0
 36
1.0
 17
0.0
 27
0.0
 37
0.0
 40
341.0
 41
1.24
 42
50.0
 43
0.0
 44
0.0
 50
0.0
 51
0.0
 71
     0
 72
   100
 73
     1
 74
     3
 75
     0
 76
     0
 77
     0
 78
     0
  0
ENDTAB
  0
TABLE
  2
LTYPE
  5
5
330
0
100
AcDbSymbolTable
 70
     1
  0
LTYPE
  5
14
330
5
100
AcDbSymbolTableRecord
100
AcDbLinetypeTableRecord
  2
BYBLOCK
 70
     0
  3

 72
    65
 73
     0
 40
0.0
  0
LTYPE
  5
15
330
5
100
AcDbSymbolTableRecord
100
AcDbLinetypeTableRecord
  2
BYLAYER
 70
     0
  3

 72
    65
 73
     0
 40
0.0
  0
LTYPE
  5
16
330
5
100
AcDbSymbolTableRecord
100
AcDbLinetypeTableRecord
  2
CONTINUOUS
 70
     0
  3
Solid line
 72
    65
 73
     0
 40
0.0
  0
ENDTAB
  0
TABLE
  2
LAYER
  5
2
330
0
100
AcDbSymbolTable
 70
1
  0
LAYER
  5
10
330
2
100
AcDbSymbolTableRecord
100
AcDbLayerTableRecord
  2
0
 70
     0
 62
     7
  6
CONTINUOUS
  0
ENDTAB
  0
TABLE
  2
STYLE
  5
3
330
0
100
AcDbSymbolTable
 70
     1
  0
STYLE
  5
11
330
3
100
AcDbSymbolTableRecord
100
AcDbTextStyleTableRecord
  2
STANDARD
 70
     0
 40
0.0
 41
1.0
 50
0.0
 71
     0
 42
2.5
  3
txt
  4

  0
ENDTAB
  0
TABLE
  2
VIEW
  5
6
330
0
100
AcDbSymbolTable
 70
     0
  0
ENDTAB
  0
TABLE
  2
UCS
  5
7
330
0
100
AcDbSymbolTable
 70
     0
  0
ENDTAB
  0
TABLE
  2
APPID
  5
9
330
0
100
AcDbSymbolTable
 70
     2
  0
APPID
  5
12
330
9
100
AcDbSymbolTableRecord
100
AcDbRegAppTableRecord
  2
ACAD
 70
     0
  0
ENDTAB
  0
TABLE
  2
DIMSTYLE
  5
A
330
0
100
AcDbSymbolTable
 70
     1
  0
DIMSTYLE
105
27
330
A
100
AcDbSymbolTableRecord
100
AcDbDimStyleTableRecord
  2
ISO-25
 70
     0
  3

  4

  5

  6

  7

 40
1.0
 41
2.5
 42
0.625
 43
3.75
 44
1.25
 45
0.0
 46
0.0
 47
0.0
 48
0.0
140
2.5
141
2.5
142
0.0
143
0.03937007874016
144
1.0
145
0.0
146
1.0
147
0.625
 71
     0
 72
     0
 73
     0
 74
     0
 75
     0
 76
     0
 77
     1
 78
     8
170
     0
171
     3
172
     1
173
     0
174
     0
175
     0
176
     0
177
     0
178
     0
270
     2
271
     2
272
     2
273
     2
274
     3
340
11
275
     0
280
     0
281
     0
282
     0
283
     0
284
     8
285
     0
286
     0
287
     3
288
     0
  0
ENDTAB
  0
TABLE
  2
BLOCK_RECORD
  5
1
330
0
100
AcDbSymbolTable
 70
     1
  0
BLOCK_RECORD
  5
1F
330
1
100
AcDbSymbolTableRecord
100
AcDbBlockTableRecord
  2
*MODEL_SPACE
  0
BLOCK_RECORD
  5
1B
330
1
100
AcDbSymbolTableRecord
100
AcDbBlockTableRecord
  2
*PAPER_SPACE
  0
ENDTAB
  0
ENDSEC
  0
SECTION
  2
BLOCKS
  0
BLOCK
  5
20
330
1F
100
AcDbEntity
  8
0
100
AcDbBlockBegin
  2
*MODEL_SPACE
 70
     0
 10
0.0
 20
0.0
 30
0.0
  3
*MODEL_SPACE
  1

  0
ENDBLK
  5
21
330
1F
100
AcDbEntity
  8
0
100
AcDbBlockEnd
  0
BLOCK
  5
1C
330
1B
100
AcDbEntity
 67
     1
  8
0
100
AcDbBlockBegin
  2
*PAPER_SPACE
  1

  0
ENDBLK
  5
1D
330
1B
100
AcDbEntity
 67
     1
  8
0
100
AcDbBlockEnd
  0
ENDSEC
  0
SECTION
  2
ENTITIES
  0
LWPOLYLINE
  5
100
100
AcDbEntity
  8
0
 62
7
100
AcDbPolyline
 90
2
 70
0
 10
0.846667
 20
305.646667
 30
0.0
 10
-0.846667
 20
303.953333
 30
0.0
  0
LWPOLYLINE
  5
101
100
AcDbEntity
  8
0
 62
7
100
AcDbPolyline
 90
2
 70
0
 10
0.000000
 20
306.211111
 30
0.0
 10
0.000000
 20
303.388889
 30
0.0
  0
LWPOLYLINE
  5
102
100
AcDbEntity
  8
0
 62
7
100
AcDbPolyline
 90
29
 70
0
 10
-54.943138
 20
167.338132
 30
0.0
 10
-54.943138
 20
186.388132
 30
0.0
 10
-51.768138
 20
186.388132
 30
0.0
 10
-51.768138
 20
211.788132
 30
0.0
 10
-54.943138
 20
211.788132
 30
0.0
 10
-54.943138
 20
230.838132
 30
0.0
 10
-51.768138
 20
230.838132
 30
0.0
 10
-51.768138
 20
243.538132
 30
0.0
 10
-39.068138
 20
243.538132
 30
0.0
 10
-39.068138
 20
240.363132
 30
0.0
 10
-26.368138
 20
240.363132
 30
0.0
 10
-26.368138
 20
243.538132
 30
0.0
 10
-13.668138
 20
243.538132
 30
0.0
 10
-13.668138
 20
230.838132
 30
0.0
 10
-10.493138
 20
230.838132
 30
0.0
 10
-10.493138
 20
211.788132
 30
0.0
 10
-13.668138
 20
211.788132
 30
0.0
 10
-13.668138
 20
186.388132
 30
0.0
 10
-10.493138
 20
186.388132
 30
0.0
 10
-10.493138
 20
167.338132
 30
0.0
 10
-13.668138
 20
167.338132
 30
0.0
 10
-13.668138
 20
154.638132
 30
0.0
 10
-26.368138
 20
154.638132
 30
0.0
 10
-26.368138
 20
157.813132
 30
0.0
 10
-39.068138
 20
157.813132
 30
0.0
 10
-39.068138
 20
154.638132
 30
0.0
 10
-51.768138
 20
154.638132
 30
0.0
 10
-51.768138
 20
167.338132
 30
0.0
 10
-54.943138
 20
167.338132
 30
0.0
  0
LWPOLYLINE
  5
103
100
AcDbEntity
  8
0
 62
7
100
AcDbPolyline
 90
37
 70
0
 10
7.286862
 20
277.193131
 30
0.0
 10
7.286862
 20
289.893131
 30
0.0
 10
10.461862
 20
289.893131
 30
0.0
 10
10.461862
 20
302.593131
 30
0.0
 10
39.036862
 20
302.593131
 30
0.0
 10
39.036862
 20
305.768131
 30
0.0
 10
58.086862
 20
305.768131
 30
0.0
 10
58.086862
 20
302.593131
 30
0.0
 10
96.186862
 20
302.593131
 30
0.0
 10
96.186862
 20
305.768131
 30
0.0
 10
115.236862
 20
305.768131
 30
0.0
 10
115.236862
 20
302.593131
 30
0.0
 10
153.336862
 20
302.593131
 30
0.0
 10
153.336862
 20
305.768131
 30
0.0
 10
172.386862
 20
305.768131
 30
0.0
 10
172.386862
 20
302.593131
 30
0.0
 10
200.961862
 20
302.593131
 30
0.0
 10
200.961862
 20
289.893131
 30
0.0
 10
204.136862
 20
289.893131
 30
0.0
 10
204.136862
 20
277.193131
 30
0.0
 10
200.961862
 20
277.193131
 30
0.0
 10
200.961862
 20
264.493132
 30
0.0
 10
172.386862
 20
264.493132
 30
0.0
 10
172.386862
 20
261.318132
 30
0.0
 10
153.336862
 20
261.318132
 30
0.0
 10
153.336862
 20
264.493132
 30
0.0
 10
115.236862
 20
264.493132
 30
0.0
 10
115.236862
 20
261.318132
 30
0.0
 10
96.186862
 20
261.318132
 30
0.0
 10
96.186862
 20
264.493132
 30
0.0
 10
58.086862
 20
264.493132
 30
0.0
 10
58.086862
 20
261.318132
 30
0.0
 10
39.036862
 20
261.318132
 30
0.0
 10
39.036862
 20
264.493132
 30
0.0
 10
10.461862
 20
264.493132
 30
0.0
 10
10.461862
 20
277.193131
 30
0.0
 10
7.286862
 20
277.193131
 30
0.0
  0
LWPOLYLINE
  5
104
100
AcDbEntity
  8
0
 62
7
100
AcDbPolyline
 90
61
 70
0
 10
2.206862
 20
155.908132
 30
0.0
 10
2.206862
 20
242.268132
 30
0.0
 10
2.256862
 20
243.064132
 30
0.0
 10
2.405862
 20
243.847132
 30
0.0
 10
2.652862
 20
244.606132
 30
0.0
 10
2.991862
 20
245.327130
 30
0.0
 10
3.419862
 20
246.000132
 30
0.0
 10
3.927862
 20
246.615131
 30
0.0
 10
4.508862
 20
247.161132
 30
0.0
 10
5.154862
 20
247.629132
 30
0.0
 10
5.852862
 20
248.014132
 30
0.0
 10
6.594862
 20
248.307132
 30
0.0
 10
7.366862
 20
248.506132
 30
0.0
 10
8.157862
 20
248.605130
 30
0.0
 10
8.556862
 20
248.605130
 30
0.0
 10
8.556862
 20
248.618141
 30
0.0
 10
202.866862
 20
248.618132
 30
0.0
 10
202.866862
 20
248.605122
 30
0.0
 10
203.265862
 20
248.605130
 30
0.0
 10
204.056863
 20
248.506132
 30
0.0
 10
204.828862
 20
248.307132
 30
0.0
 10
205.570861
 20
248.014132
 30
0.0
 10
206.268862
 20
247.629132
 30
0.0
 10
206.914863
 20
247.161132
 30
0.0
 10
207.495862
 20
246.615131
 30
0.0
 10
208.003862
 20
246.000132
 30
0.0
 10
208.431861
 20
245.327130
 30
0.0
 10
208.770863
 20
244.606132
 30
0.0
 10
209.017862
 20
243.847132
 30
0.0
 10
209.166864
 20
243.064132
 30
0.0
 10
209.216862
 20
242.268132
 30
0.0
 10
209.216862
 20
155.908132
 30
0.0
 10
209.166864
 20
155.112133
 30
0.0
 10
209.017862
 20
154.329133
 30
0.0
 10
208.770863
 20
153.570133
 30
0.0
 10
208.431861
 20
152.849131
 30
0.0
 10
208.003862
 20
152.176133
 30
0.0
 10
207.495862
 20
151.561131
 30
0.0
 10
206.914863
 20
151.015133
 30
0.0
 10
206.268862
 20
150.547132
 30
0.0
 10
205.570861
 20
150.162133
 30
0.0
 10
204.828862
 20
149.869133
 30
0.0
 10
204.056863
 20
149.670132
 30
0.0
 10
203.265862
 20
149.571131
 30
0.0
 10
202.866862
 20
149.571131
 30
0.0
 10
202.866862
 20
149.558121
 30
0.0
 10
8.556862
 20
149.558132
 30
0.0
 10
8.556862
 20
149.571143
 30
0.0
 10
8.157862
 20
149.571131
 30
0.0
 10
7.366862
 20
149.670132
 30
0.0
 10
6.594862
 20
149.869133
 30
0.0
 10
5.852862
 20
150.162133
 30
0.0
 10
5.154862
 20
150.547132
 30
0.0
 10
4.508862
 20
151.015133
 30
0.0
 10
3.927862
 20
151.561131
 30
0.0
 10
3.419862
 20
152.176133
 30
0.0
 10
2.991862
 20
152.849131
 30
0.0
 10
2.652862
 20
153.570133
 30
0.0
 10
2.405862
 20
154.329133
 30
0.0
 10
2.256862
 20
155.112133
 30
0.0
 10
2.206862
 20
155.908132
 30
0.0
  0
LWPOLYLINE
  5
105
100
AcDbEntity
  8
0
 62
7
100
AcDbPolyline
 90
5
 70
0
 10
7.286862
 20
167.338132
 30
0.0
 10
7.286862
 20
186.388132
 30
0.0
 10
10.461862
 20
186.388132
 30
0.0
 10
10.461862
 20
167.338132
 30
0.0
 10
7.286862
 20
167.338132
 30
0.0
  0
LWPOLYLINE
  5
106
100
AcDbEntity
  8
0
 62
7
100
AcDbPolyline
 90
5
 70
0
 10
7.286862
 20
211.788132
 30
0.0
 10
7.286862
 20
230.838132
 30
0.0
 10
10.461862
 20
230.838132
 30
0.0
 10
10.461862
 20
211.788132
 30
0.0
 10
7.286862
 20
211.788132
 30
0.0
  0
LWPOLYLINE
  5
107
100
AcDbEntity
  8
0
 62
7
100
AcDbPolyline
 90
51
 70
0
 10
13.433862
 20
162.258132
 30
0.0
 10
13.444863
 20
162.443132
 30
0.0
 10
13.479862
 20
162.624132
 30
0.0
 10
13.536862
 20
162.800132
 30
0.0
 10
13.615862
 20
162.968133
 30
0.0
 10
13.714862
 20
163.124131
 30
0.0
 10
13.832862
 20
163.266131
 30
0.0
 10
13.967862
 20
163.393131
 30
0.0
 10
14.117862
 20
163.502131
 30
0.0
 10
14.279862
 20
163.591133
 30
0.0
 10
14.451862
 20
163.659131
 30
0.0
 10
14.630862
 20
163.705131
 30
0.0
 10
14.813862
 20
163.728132
 30
0.0
 10
14.999862
 20
163.728132
 30
0.0
 10
15.182862
 20
163.705131
 30
0.0
 10
15.361862
 20
163.659131
 30
0.0
 10
15.533862
 20
163.591133
 30
0.0
 10
15.695862
 20
163.502131
 30
0.0
 10
15.845862
 20
163.393131
 30
0.0
 10
15.980862
 20
163.266131
 30
0.0
 10
16.098862
 20
163.124131
 30
0.0
 10
16.197862
 20
162.968133
 30
0.0
 10
16.276862
 20
162.800132
 30
0.0
 10
16.333862
 20
162.624132
 30
0.0
 10
16.368862
 20
162.443132
 30
0.0
 10
16.379863
 20
162.258132
 30
0.0
 10
16.368861
 20
162.073133
 30
0.0
 10
16.333862
 20
161.892132
 30
0.0
 10
16.276862
 20
161.716133
 30
0.0
 10
16.197862
 20
161.548132
 30
0.0
 10
16.098862
 20
161.392131
 30
0.0
 10
15.980862
 20
161.250130
 30
0.0
 10
15.845862
 20
161.123130
 30
0.0
 10
15.695862
 20
161.014131
 30
0.0
 10
15.533862
 20
160.925132
 30
0.0
 10
15.361862
 20
160.857130
 30
0.0
 10
15.182862
 20
160.811131
 30
0.0
 10
14.999862
 20
160.788130
 30
0.0
 10
14.813862
 20
160.788133
 30
0.0
 10
14.630862
 20
160.811134
 30
0.0
 10
14.451862
 20
160.857130
 30
0.0
 10
14.279862
 20
160.925132
 30
0.0
 10
14.117862
 20
161.014131
 30
0.0
 10
13.967862
 20
161.123130
 30
0.0
 10
13.832862
 20
161.250130
 30
0.0
 10
13.714862
 20
161.392131
 30
0.0
 10
13.615862
 20
161.548132
 30
0.0
 10
13.536862
 20
161.716133
 30
0.0
 10
13.479862
 20
161.892132
 30
0.0
 10
13.444862
 20
162.073133
 30
0.0
 10
13.433861
 20
162.258132
 30
0.0
  0
LWPOLYLINE
  5
108
100
AcDbEntity
  8
0
 62
7
100
AcDbPolyline
 90
51
 70
0
 10
13.433862
 20
235.918132
 30
0.0
 10
13.444863
 20
236.103132
 30
0.0
 10
13.479862
 20
236.284132
 30
0.0
 10
13.536862
 20
236.460132
 30
0.0
 10
13.615862
 20
236.628133
 30
0.0
 10
13.714862
 20
236.784131
 30
0.0
 10
13.832862
 20
236.926131
 30
0.0
 10
13.967862
 20
237.053131
 30
0.0
 10
14.117862
 20
237.162131
 30
0.0
 10
14.279862
 20
237.251133
 30
0.0
 10
14.451862
 20
237.319131
 30
0.0
 10
14.630862
 20
237.365131
 30
0.0
 10
14.813862
 20
237.388132
 30
0.0
 10
14.999862
 20
237.388132
 30
0.0
 10
15.182862
 20
237.365131
 30
0.0
 10
15.361862
 20
237.319131
 30
0.0
 10
15.533862
 20
237.251133
 30
0.0
 10
15.695862
 20
237.162131
 30
0.0
 10
15.845862
 20
237.053131
 30
0.0
 10
15.980862
 20
236.926131
 30
0.0
 10
16.098862
 20
236.784131
 30
0.0
 10
16.197862
 20
236.628133
 30
0.0
 10
16.276862
 20
236.460132
 30
0.0
 10
16.333862
 20
236.284132
 30
0.0
 10
16.368862
 20
236.103132
 30
0.0
 10
16.379863
 20
235.918132
 30
0.0
 10
16.368861
 20
235.733133
 30
0.0
 10
16.333862
 20
235.552132
 30
0.0
 10
16.276862
 20
235.376133
 30
0.0
 10
16.197862
 20
235.208132
 30
0.0
 10
16.098862
 20
235.052131
 30
0.0
 10
15.980862
 20
234.910130
 30
0.0
 10
15.845862
 20
234.783130
 30
0.0
 10
15.695862
 20
234.674131
 30
0.0
 10
15.533862
 20
234.585132
 30
0.0
 10
15.361862
 20
234.517130
 30
0.0
 10
15.182862
 20
234.471131
 30
0.0
 10
14.999862
 20
234.448130
 30
0.0
 10
14.813862
 20
234.448133
 30
0.0
 10
14.630862
 20
234.471134
 30
0.0
 10
14.451862
 20
234.517130
 30
0.0
 10
14.279862
 20
234.585132
 30
0.0
 10
14.117862
 20
234.674131
 30
0.0
 10
13.967862
 20
234.783130
 30
0.0
 10
13.832862
 20
234.910130
 30
0.0
 10
13.714862
 20
235.052131
 30
0.0
 10
13.615862
 20
235.208132
 30
0.0
 10
13.536862
 20
235.376133
 30
0.0
 10
13.479862
 20
235.552132
 30
0.0
 10
13.444862
 20
235.733133
 30
0.0
 10
13.433861
 20
235.918132
 30
0.0
  0
LWPOLYLINE
  5
109
100
AcDbEntity
  8
0
 62
7
100
AcDbPolyline
 90
51
 70
0
 10
24.812862
 20
164.163132
 30
0.0
 10
24.824862
 20
164.354132
 30
0.0
 10
24.860862
 20
164.542131
 30
0.0
 10
24.919862
 20
164.724131
 30
0.0
 10
25.001862
 20
164.897133
 30
0.0
 10
25.103862
 20
165.059131
 30
0.0
 10
25.225862
 20
165.206132
 30
0.0
 10
25.365862
 20
165.337132
 30
0.0
 10
25.519862
 20
165.450131
 30
0.0
 10
25.687862
 20
165.542132
 30
0.0
 10
25.865862
 20
165.612132
 30
0.0
 10
26.050862
 20
165.660132
 30
0.0
 10
26.240862
 20
165.684121
 30
0.0
 10
26.432862
 20
165.684132
 30
0.0
 10
26.622862
 20
165.660143
 30
0.0
 10
26.807862
 20
165.612132
 30
0.0
 10
26.985862
 20
165.542132
 30
0.0
 10
27.153862
 20
165.450131
 30
0.0
 10
27.307862
 20
165.337132
 30
0.0
 10
27.447862
 20
165.206132
 30
0.0
 10
27.569862
 20
165.059131
 30
0.0
 10
27.671862
 20
164.897133
 30
0.0
 10
27.753862
 20
164.724131
 30
0.0
 10
27.812862
 20
164.542131
 30
0.0
 10
27.848862
 20
164.354132
 30
0.0
 10
27.860862
 20
164.163132
 30
0.0
 10
27.848862
 20
163.972133
 30
0.0
 10
27.812862
 20
163.784130
 30
0.0
 10
27.753862
 20
163.602131
 30
0.0
 10
27.671862
 20
163.429132
 30
0.0
 10
27.569862
 20
163.267130
 30
0.0
 10
27.447862
 20
163.120132
 30
0.0
 10
27.307862
 20
162.989133
 30
0.0
 10
27.153862
 20
162.876131
 30
0.0
 10
26.985862
 20
162.784132
 30
0.0
 10
26.807862
 20
162.714133
 30
0.0
 10
26.622862
 20
162.666132
 30
0.0
 10
26.432862
 20
162.642144
 30
0.0
 10
26.240862
 20
162.642132
 30
0.0
 10
26.050862
 20
162.666121
 30
0.0
 10
25.865862
 20
162.714133
 30
0.0
 10
25.687862
 20
162.784132
 30
0.0
 10
25.519862
 20
162.876131
 30
0.0
 10
25.365862
 20
162.989133
 30
0.0
 10
25.225862
 20
163.120132
 30
0.0
 10
25.103862
 20
163.267130
 30
0.0
 10
25.001862
 20
163.429132
 30
0.0
 10
24.919862
 20
163.602131
 30
0.0
 10
24.860862
 20
163.784130
 30
0.0
 10
24.824862
 20
163.972133
 30
0.0
 10
24.812862
 20
164.163132
 30
0.0
  0
LWPOLYLINE
  5
10a
100
AcDbEntity
  8
0
 62
7
100
AcDbPolyline
 90
51
 70
0
 10
24.812862
 20
234.013132
 30
0.0
 10
24.824862
 20
234.204132
 30
0.0
 10
24.860862
 20
234.392131
 30
0.0
 10
24.919862
 20
234.574131
 30
0.0
 10
25.001862
 20
234.747133
 30
0.0
 10
25.103862
 20
234.909131
 30
0.0
 10
25.225862
 20
235.056132
 30
0.0
 10
25.365862
 20
235.187132
 30
0.0
 10
25.519862
 20
235.300131
 30
0.0
 10
25.687862
 20
235.392132
 30
0.0
 10
25.865862
 20
235.462132
 30
0.0
 10
26.050862
 20
235.510132
 30
0.0
 10
26.240862
 20
235.534121
 30
0.0
 10
26.432862
 20
235.534132
 30
0.0
 10
26.622862
 20
235.510143
 30
0.0
 10
26.807862
 20
235.462132
 30
0.0
 10
26.985862
 20
235.392132
 30
0.0
 10
27.153862
 20
235.300131
 30
0.0
 10
27.307862
 20
235.187132
 30
0.0
 10
27.447862
 20
235.056132
 30
0.0
 10
27.569862
 20
234.909131
 30
0.0
 10
27.671862
 20
234.747133
 30
0.0
 10
27.753862
 20
234.574131
 30
0.0
 10
27.812862
 20
234.392131
 30
0.0
 10
27.848862
 20
234.204132
 30
0.0
 10
27.860862
 20
234.013132
 30
0.0
 10
27.848862
 20
233.822133
 30
0.0
 10
27.812862
 20
233.634130
 30
0.0
 10
27.753862
 20
233.452131
 30
0.0
 10
27.671862
 20
233.279132
 30
0.0
 10
27.569862
 20
233.117130
 30
0.0
 10
27.447862
 20
232.970132
 30
0.0
 10
27.307862
 20
232.839133
 30
0.0
 10
27.153862
 20
232.726131
 30
0.0
 10
26.985862
 20
232.634132
 30
0.0
 10
26.807862
 20
232.564133
 30
0.0
 10
26.622862
 20
232.516132
 30
0.0
 10
26.432862
 20
232.492144
 30
0.0
 10
26.240862
 20
232.492132
 30
0.0
 10
26.050862
 20
232.516121
 30
0.0
 10
25.865862
 20
232.564133
 30
0.0
 10
25.687862
 20
232.634132
 30
0.0
 10
25.519862
 20
232.726131
 30
0.0
 10
25.365862
 20
232.839133
 30
0.0
 10
25.225862
 20
232.970132
 30
0.0
 10
25.103862
 20
233.117130
 30
0.0
 10
25.001862
 20
233.279132
 30
0.0
 10
24.919862
 20
233.452131
 30
0.0
 10
24.860862
 20
233.634130
 30
0.0
 10
24.824862
 20
233.822133
 30
0.0
 10
24.812862
 20
234.013132
 30
0.0
  0
LWPOLYLINE
  5
10b
100
AcDbEntity
  8
0
 62
7
100
AcDbPolyline
 90
5
 70
0
 10
39.036862
 20
154.638132
 30
0.0
 10
39.036862
 20
157.813132
 30
0.0
 10
58.086862
 20
157.813132
 30
0.0
 10
58.086862
 20
154.638132
 30
0.0
 10
39.036862
 20
154.638132
 30
0.0
  0
LWPOLYLINE
  5
10c
100
AcDbEntity
  8
0
 62
7
100
AcDbPolyline
 90
5
 70
0
 10
39.036862
 20
240.363132
 30
0.0
 10
39.036862
 20
243.538132
 30
0.0
 10
58.086862
 20
243.538132
 30
0.0
 10
58.086862
 20
240.363132
 30
0.0
 10
39.036862
 20
240.363132
 30
0.0
  0
LWPOLYLINE
  5
10d
100
AcDbEntity
  8
0
 62
7
100
AcDbPolyline
 90
51
 70
0
 10
75.612862
 20
164.163132
 30
0.0
 10
75.624857
 20
164.354132
 30
0.0
 10
75.660862
 20
164.542131
 30
0.0
 10
75.719861
 20
164.724131
 30
0.0
 10
75.801863
 20
164.897133
 30
0.0
 10
75.903861
 20
165.059131
 30
0.0
 10
76.025863
 20
165.206132
 30
0.0
 10
76.165862
 20
165.337132
 30
0.0
 10
76.319863
 20
165.450131
 30
0.0
 10
76.487861
 20
165.542132
 30
0.0
 10
76.665861
 20
165.612132
 30
0.0
 10
76.850861
 20
165.660132
 30
0.0
 10
77.040861
 20
165.684121
 30
0.0
 10
77.232863
 20
165.684132
 30
0.0
 10
77.422863
 20
165.660143
 30
0.0
 10
77.607863
 20
165.612132
 30
0.0
 10
77.785863
 20
165.542132
 30
0.0
 10
77.953862
 20
165.450131
 30
0.0
 10
78.107862
 20
165.337132
 30
0.0
 10
78.247861
 20
165.206132
 30
0.0
 10
78.369863
 20
165.059131
 30
0.0
 10
78.471863
 20
164.897133
 30
0.0
 10
78.553863
 20
164.724131
 30
0.0
 10
78.612862
 20
164.542131
 30
0.0
 10
78.648862
 20
164.354132
 30
0.0
 10
78.660856
 20
164.163132
 30
0.0
 10
78.648868
 20
163.972133
 30
0.0
 10
78.612862
 20
163.784130
 30
0.0
 10
78.553863
 20
163.602131
 30
0.0
 10
78.471863
 20
163.429132
 30
0.0
 10
78.369863
 20
163.267130
 30
0.0
 10
78.247861
 20
163.120132
 30
0.0
 10
78.107862
 20
162.989133
 30
0.0
 10
77.953862
 20
162.876131
 30
0.0
 10
77.785863
 20
162.784132
 30
0.0
 10
77.607863
 20
162.714133
 30
0.0
 10
77.422863
 20
162.666132
 30
0.0
 10
77.232863
 20
162.642144
 30
0.0
 10
77.040861
 20
162.642132
 30
0.0
 10
76.850861
 20
162.666121
 30
0.0
 10
76.665861
 20
162.714133
 30
0.0
 10
76.487861
 20
162.784132
 30
0.0
 10
76.319863
 20
162.876131
 30
0.0
 10
76.165862
 20
162.989133
 30
0.0
 10
76.025863
 20
163.120132
 30
0.0
 10
75.903861
 20
163.267130
 30
0.0
 10
75.801863
 20
163.429132
 30
0.0
 10
75.719861
 20
163.602131
 30
0.0
 10
75.660862
 20
163.784130
 30
0.0
 10
75.624862
 20
163.972133
 30
0.0
 10
75.612868
 20
164.163132
 30
0.0
  0
LWPOLYLINE
  5
10e
100
AcDbEntity
  8
0
 62
7
100
AcDbPolyline
 90
51
 70
0
 10
75.612862
 20
234.013132
 30
0.0
 10
75.624857
 20
234.204132
 30
0.0
 10
75.660862
 20
234.392131
 30
0.0
 10
75.719861
 20
234.574131
 30
0.0
 10
75.801863
 20
234.747133
 30
0.0
 10
75.903861
 20
234.909131
 30
0.0
 10
76.025863
 20
235.056132
 30
0.0
 10
76.165862
 20
235.187132
 30
0.0
 10
76.319863
 20
235.300131
 30
0.0
 10
76.487861
 20
235.392132
 30
0.0
 10
76.665861
 20
235.462132
 30
0.0
 10
76.850861
 20
235.510132
 30
0.0
 10
77.040861
 20
235.534121
 30
0.0
 10
77.232863
 20
235.534132
 30
0.0
 10
77.422863
 20
235.510143
 30
0.0
 10
77.607863
 20
235.462132
 30
0.0
 10
77.785863
 20
235.392132
 30
0.0
 10
77.953862
 20
235.300131
 30
0.0
 10
78.107862
 20
235.187132
 30
0.0
 10
78.247861
 20
235.056132
 30
0.0
 10
78.369863
 20
234.909131
 30
0.0
 10
78.471863
 20
234.747133
 30
0.0
 10
78.553863
 20
234.574131
 30
0.0
 10
78.612862
 20
234.392131
 30
0.0
 10
78.648862
 20
234.204132
 30
0.0
 10
78.660856
 20
234.013132
 30
0.0
 10
78.648868
 20
233.822133
 30
0.0
 10
78.612862
 20
233.634130
 30
0.0
 10
78.553863
 20
233.452131
 30
0.0
 10
78.471863
 20
233.279132
 30
0.0
 10
78.369863
 20
233.117130
 30
0.0
 10
78.247861
 20
232.970132
 30
0.0
 10
78.107862
 20
232.839133
 30
0.0
 10
77.953862
 20
232.726131
 30
0.0
 10
77.785863
 20
232.634132
 30
0.0
 10
77.607863
 20
232.564133
 30
0.0
 10
77.422863
 20
232.516132
 30
0.0
 10
77.232863
 20
232.492144
 30
0.0
 10
77.040861
 20
232.492132
 30
0.0
 10
76.850861
 20
232.516121
 30
0.0
 10
76.665861
 20
232.564133
 30
0.0
 10
76.487861
 20
232.634132
 30
0.0
 10
76.319863
 20
232.726131
 30
0.0
 10
76.165862
 20
232.839133
 30
0.0
 10
76.025863
 20
232.970132
 30
0.0
 10
75.903861
 20
233.117130
 30
0.0
 10
75.801863
 20
233.279132
 30
0.0
 10
75.719861
 20
233.452131
 30
0.0
 10
75.660862
 20
233.634130
 30
0.0
 10
75.624862
 20
233.822133
 30
0.0
 10
75.612868
 20
234.013132
 30
0.0
  0
LWPOLYLINE
  5
10f
100
AcDbEntity
  8
0
 62
7
100
AcDbPolyline
 90
5
 70
0
 10
96.186862
 20
154.638132
 30
0.0
 10
96.186862
 20
157.813132
 30
0.0
 10
115.236862
 20
157.813132
 30
0.0
 10
115.236862
 20
154.638132
 30
0.0
 10
96.186862
 20
154.638132
 30
0.0
  0
LWPOLYLINE
  5
110
100
AcDbEntity
  8
0
 62
7
100
AcDbPolyline
 90
5
 70
0
 10
96.186862
 20
240.363132
 30
0.0
 10
96.186862
 20
243.538132
 30
0.0
 10
115.236862
 20
243.538132
 30
0.0
 10
115.236862
 20
240.363132
 30
0.0
 10
96.186862
 20
240.363132
 30
0.0
  0
LWPOLYLINE
  5
111
100
AcDbEntity
  8
0
 62
7
100
AcDbPolyline
 90
51
 70
0
 10
110.537862
 20
164.163132
 30
0.0
 10
110.549857
 20
164.354132
 30
0.0
 10
110.585862
 20
164.542131
 30
0.0
 10
110.644861
 20
164.724131
 30
0.0
 10
110.726863
 20
164.897133
 30
0.0
 10
110.828861
 20
165.059131
 30
0.0
 10
110.950863
 20
165.206132
 30
0.0
 10
111.090862
 20
165.337132
 30
0.0
 10
111.244863
 20
165.450131
 30
0.0
 10
111.412861
 20
165.542132
 30
0.0
 10
111.590861
 20
165.612132
 30
0.0
 10
111.775861
 20
165.660132
 30
0.0
 10
111.965861
 20
165.684121
 30
0.0
 10
112.157863
 20
165.684132
 30
0.0
 10
112.347863
 20
165.660143
 30
0.0
 10
112.532863
 20
165.612132
 30
0.0
 10
112.710863
 20
165.542132
 30
0.0
 10
112.878862
 20
165.450131
 30
0.0
 10
113.032862
 20
165.337132
 30
0.0
 10
113.172861
 20
165.206132
 30
0.0
 10
113.294863
 20
165.059131
 30
0.0
 10
113.396863
 20
164.897133
 30
0.0
 10
113.478863
 20
164.724131
 30
0.0
 10
113.537862
 20
164.542131
 30
0.0
 10
113.573862
 20
164.354132
 30
0.0
 10
113.585856
 20
164.163132
 30
0.0
 10
113.573868
 20
163.972133
 30
0.0
 10
113.537862
 20
163.784130
 30
0.0
 10
113.478863
 20
163.602131
 30
0.0
 10
113.396863
 20
163.429132
 30
0.0
 10
113.294863
 20
163.267130
 30
0.0
 10
113.172861
 20
163.120132
 30
0.0
 10
113.032862
 20
162.989133
 30
0.0
 10
112.878862
 20
162.876131
 30
0.0
 10
112.710863
 20
162.784132
 30
0.0
 10
112.532863
 20
162.714133
 30
0.0
 10
112.347863
 20
162.666132
 30
0.0
 10
112.157863
 20
162.642144
 30
0.0
 10
111.965861
 20
162.642132
 30
0.0
 10
111.775861
 20
162.666121
 30
0.0
 10
111.590861
 20
162.714133
 30
0.0
 10
111.412861
 20
162.784132
 30
0.0
 10
111.244863
 20
162.876131
 30
0.0
 10
111.090862
 20
162.989133
 30
0.0
 10
110.950863
 20
163.120132
 30
0.0
 10
110.828861
 20
163.267130
 30
0.0
 10
110.726863
 20
163.429132
 30
0.0
 10
110.644861
 20
163.602131
 30
0.0
 10
110.585862
 20
163.784130
 30
0.0
 10
110.549862
 20
163.972133
 30
0.0
 10
110.537868
 20
164.163132
 30
0.0
  0
LWPOLYLINE
  5
112
100
AcDbEntity
  8
0
 62
7
100
AcDbPolyline
 90
51
 70
0
 10
110.537862
 20
189.563132
 30
0.0
 10
110.549857
 20
189.754132
 30
0.0
 10
110.585862
 20
189.942131
 30
0.0
 10
110.644861
 20
190.124131
 30
0.0
 10
110.726863
 20
190.297133
 30
0.0
 10
110.828861
 20
190.459131
 30
0.0
 10
110.950863
 20
190.606132
 30
0.0
 10
111.090862
 20
190.737132
 30
0.0
 10
111.244863
 20
190.850131
 30
0.0
 10
111.412861
 20
190.942132
 30
0.0
 10
111.590861
 20
191.012132
 30
0.0
 10
111.775861
 20
191.060132
 30
0.0
 10
111.965861
 20
191.084121
 30
0.0
 10
112.157863
 20
191.084132
 30
0.0
 10
112.347863
 20
191.060143
 30
0.0
 10
112.532863
 20
191.012132
 30
0.0
 10
112.710863
 20
190.942132
 30
0.0
 10
112.878862
 20
190.850131
 30
0.0
 10
113.032862
 20
190.737132
 30
0.0
 10
113.172861
 20
190.606132
 30
0.0
 10
113.294863
 20
190.459131
 30
0.0
 10
113.396863
 20
190.297133
 30
0.0
 10
113.478863
 20
190.124131
 30
0.0
 10
113.537862
 20
189.942131
 30
0.0
 10
113.573862
 20
189.754132
 30
0.0
 10
113.585856
 20
189.563132
 30
0.0
 10
113.573868
 20
189.372133
 30
0.0
 10
113.537862
 20
189.184130
 30
0.0
 10
113.478863
 20
189.002131
 30
0.0
 10
113.396863
 20
188.829132
 30
0.0
 10
113.294863
 20
188.667130
 30
0.0
 10
113.172861
 20
188.520132
 30
0.0
 10
113.032862
 20
188.389133
 30
0.0
 10
112.878862
 20
188.276131
 30
0.0
 10
112.710863
 20
188.184132
 30
0.0
 10
112.532863
 20
188.114133
 30
0.0
 10
112.347863
 20
188.066132
 30
0.0
 10
112.157863
 20
188.042144
 30
0.0
 10
111.965861
 20
188.042132
 30
0.0
 10
111.775861
 20
188.066121
 30
0.0
 10
111.590861
 20
188.114133
 30
0.0
 10
111.412861
 20
188.184132
 30
0.0
 10
111.244863
 20
188.276131
 30
0.0
 10
111.090862
 20
188.389133
 30
0.0
 10
110.950863
 20
188.520132
 30
0.0
 10
110.828861
 20
188.667130
 30
0.0
 10
110.726863
 20
188.829132
 30
0.0
 10
110.644861
 20
189.002131
 30
0.0
 10
110.585862
 20
189.184130
 30
0.0
 10
110.549862
 20
189.372133
 30
0.0
 10
110.537868
 20
189.563132
 30
0.0
  0
LWPOLYLINE
  5
113
100
AcDbEntity
  8
0
 62
7
100
AcDbPolyline
 90
5
 70
0
 10
153.336862
 20
154.638132
 30
0.0
 10
153.336862
 20
157.813132
 30
0.0
 10
172.386862
 20
157.813132
 30
0.0
 10
172.386862
 20
154.638132
 30
0.0
 10
153.336862
 20
154.638132
 30
0.0
  0
LWPOLYLINE
  5
114
100
AcDbEntity
  8
0
 62
7
100
AcDbPolyline
 90
5
 70
0
 10
153.336862
 20
240.363132
 30
0.0
 10
153.336862
 20
243.538132
 30
0.0
 10
172.386862
 20
243.538132
 30
0.0
 10
172.386862
 20
240.363132
 30
0.0
 10
153.336862
 20
240.363132
 30
0.0
  0
LWPOLYLINE
  5
115
100
AcDbEntity
  8
0
 62
7
100
AcDbPolyline
 90
51
 70
0
 10
161.337862
 20
164.163132
 30
0.0
 10
161.349857
 20
164.354132
 30
0.0
 10
161.385862
 20
164.542131
 30
0.0
 10
161.444861
 20
164.724131
 30
0.0
 10
161.526863
 20
164.897133
 30
0.0
 10
161.628861
 20
165.059131
 30
0.0
 10
161.750863
 20
165.206132
 30
0.0
 10
161.890862
 20
165.337132
 30
0.0
 10
162.044863
 20
165.450131
 30
0.0
 10
162.212861
 20
165.542132
 30
0.0
 10
162.390861
 20
165.612132
 30
0.0
 10
162.575861
 20
165.660132
 30
0.0
 10
162.765861
 20
165.684121
 30
0.0
 10
162.957863
 20
165.684132
 30
0.0
 10
163.147863
 20
165.660143
 30
0.0
 10
163.332863
 20
165.612132
 30
0.0
 10
163.510863
 20
165.542132
 30
0.0
 10
163.678862
 20
165.450131
 30
0.0
 10
163.832862
 20
165.337132
 30
0.0
 10
163.972861
 20
165.206132
 30
0.0
 10
164.094863
 20
165.059131
 30
0.0
 10
164.196863
 20
164.897133
 30
0.0
 10
164.278863
 20
164.724131
 30
0.0
 10
164.337862
 20
164.542131
 30
0.0
 10
164.373862
 20
164.354132
 30
0.0
 10
164.385856
 20
164.163132
 30
0.0
 10
164.373868
 20
163.972133
 30
0.0
 10
164.337862
 20
163.784130
 30
0.0
 10
164.278863
 20
163.602131
 30
0.0
 10
164.196863
 20
163.429132
 30
0.0
 10
164.094863
 20
163.267130
 30
0.0
 10
163.972861
 20
163.120132
 30
0.0
 10
163.832862
 20
162.989133
 30
0.0
 10
163.678862
 20
162.876131
 30
0.0
 10
163.510863
 20
162.784132
 30
0.0
 10
163.332863
 20
162.714133
 30
0.0
 10
163.147863
 20
162.666132
 30
0.0
 10
162.957863
 20
162.642144
 30
0.0
 10
162.765861
 20
162.642132
 30
0.0
 10
162.575861
 20
162.666121
 30
0.0
 10
162.390861
 20
162.714133
 30
0.0
 10
162.212861
 20
162.784132
 30
0.0
 10
162.044863
 20
162.876131
 30
0.0
 10
161.890862
 20
162.989133
 30
0.0
 10
161.750863
 20
163.120132
 30
0.0
 10
161.628861
 20
163.267130
 30
0.0
 10
161.526863
 20
163.429132
 30
0.0
 10
161.444861
 20
163.602131
 30
0.0
 10
161.385862
 20
163.784130
 30
0.0
 10
161.349862
 20
163.972133
 30
0.0
 10
161.337868
 20
164.163132
 30
0.0
  0
LWPOLYLINE
  5
116
100
AcDbEntity
  8
0
 62
7
100
AcDbPolyline
 90
51
 70
0
 10
161.337862
 20
189.563132
 30
0.0
 10
161.349857
 20
189.754132
 30
0.0
 10
161.385862
 20
189.942131
 30
0.0
 10
161.444861
 20
190.124131
 30
0.0
 10
161.526863
 20
190.297133
 30
0.0
 10
161.628861
 20
190.459131
 30
0.0
 10
161.750863
 20
190.606132
 30
0.0
 10
161.890862
 20
190.737132
 30
0.0
 10
162.044863
 20
190.850131
 30
0.0
 10
162.212861
 20
190.942132
 30
0.0
 10
162.390861
 20
191.012132
 30
0.0
 10
162.575861
 20
191.060132
 30
0.0
 10
162.765861
 20
191.084121
 30
0.0
 10
162.957863
 20
191.084132
 30
0.0
 10
163.147863
 20
191.060143
 30
0.0
 10
163.332863
 20
191.012132
 30
0.0
 10
163.510863
 20
190.942132
 30
0.0
 10
163.678862
 20
190.850131
 30
0.0
 10
163.832862
 20
190.737132
 30
0.0
 10
163.972861
 20
190.606132
 30
0.0
 10
164.094863
 20
190.459131
 30
0.0
 10
164.196863
 20
190.297133
 30
0.0
 10
164.278863
 20
190.124131
 30
0.0
 10
164.337862
 20
189.942131
 30
0.0
 10
164.373862
 20
189.754132
 30
0.0
 10
164.385856
 20
189.563132
 30
0.0
 10
164.373868
 20
189.372133
 30
0.0
 10
164.337862
 20
189.184130
 30
0.0
 10
164.278863
 20
189.002131
 30
0.0
 10
164.196863
 20
188.829132
 30
0.0
 10
164.094863
 20
188.667130
 30
0.0
 10
163.972861
 20
188.520132
 30
0.0
 10
163.832862
 20
188.389133
 30
0.0
 10
163.678862
 20
188.276131
 30
0.0
 10
163.510863
 20
188.184132
 30
0.0
 10
163.332863
 20
188.114133
 30
0.0
 10
163.147863
 20
188.066132
 30
0.0
 10
162.957863
 20
188.042144
 30
0.0
 10
162.765861
 20
188.042132
 30
0.0
 10
162.575861
 20
188.066121
 30
0.0
 10
162.390861
 20
188.114133
 30
0.0
 10
162.212861
 20
188.184132
 30
0.0
 10
162.044863
 20
188.276131
 30
0.0
 10
161.890862
 20
188.389133
 30
0.0
 10
161.750863
 20
188.520132
 30
0.0
 10
161.628861
 20
188.667130
 30
0.0
 10
161.526863
 20
188.829132
 30
0.0
 10
161.444861
 20
189.002131
 30
0.0
 10
161.385862
 20
189.184130
 30
0.0
 10
161.349862
 20
189.372133
 30
0.0
 10
161.337868
 20
189.563132
 30
0.0
  0
LWPOLYLINE
  5
117
100
AcDbEntity
  8
0
 62
7
100
AcDbPolyline
 90
51
 70
0
 10
195.043862
 20
162.258132
 30
0.0
 10
195.054869
 20
162.443132
 30
0.0
 10
195.089862
 20
162.624132
 30
0.0
 10
195.146862
 20
162.800132
 30
0.0
 10
195.225862
 20
162.968133
 30
0.0
 10
195.324863
 20
163.124131
 30
0.0
 10
195.442863
 20
163.266131
 30
0.0
 10
195.577864
 20
163.393131
 30
0.0
 10
195.727862
 20
163.502131
 30
0.0
 10
195.889863
 20
163.591133
 30
0.0
 10
196.061863
 20
163.659131
 30
0.0
 10
196.240863
 20
163.705131
 30
0.0
 10
196.423861
 20
163.728132
 30
0.0
 10
196.609863
 20
163.728132
 30
0.0
 10
196.792861
 20
163.705131
 30
0.0
 10
196.971864
 20
163.659131
 30
0.0
 10
197.143861
 20
163.591133
 30
0.0
 10
197.305862
 20
163.502131
 30
0.0
 10
197.455863
 20
163.393131
 30
0.0
 10
197.590862
 20
163.266131
 30
0.0
 10
197.708861
 20
163.124131
 30
0.0
 10
197.807862
 20
162.968133
 30
0.0
 10
197.886862
 20
162.800132
 30
0.0
 10
197.943862
 20
162.624132
 30
0.0
 10
197.978863
 20
162.443132
 30
0.0
 10
197.989870
 20
162.258132
 30
0.0
 10
197.978855
 20
162.073133
 30
0.0
 10
197.943862
 20
161.892132
 30
0.0
 10
197.886862
 20
161.716133
 30
0.0
 10
197.807862
 20
161.548132
 30
0.0
 10
197.708861
 20
161.392131
 30
0.0
 10
197.590862
 20
161.250130
 30
0.0
 10
197.455863
 20
161.123130
 30
0.0
 10
197.305862
 20
161.014131
 30
0.0
 10
197.143861
 20
160.925132
 30
0.0
 10
196.971864
 20
160.857130
 30
0.0
 10
196.792861
 20
160.811131
 30
0.0
 10
196.609863
 20
160.788130
 30
0.0
 10
196.423861
 20
160.788133
 30
0.0
 10
196.240863
 20
160.811134
 30
0.0
 10
196.061863
 20
160.857130
 30
0.0
 10
195.889863
 20
160.925132
 30
0.0
 10
195.727862
 20
161.014131
 30
0.0
 10
195.577864
 20
161.123130
 30
0.0
 10
195.442863
 20
161.250130
 30
0.0
 10
195.324863
 20
161.392131
 30
0.0
 10
195.225862
 20
161.548132
 30
0.0
 10
195.146862
 20
161.716133
 30
0.0
 10
195.089862
 20
161.892132
 30
0.0
 10
195.054863
 20
162.073133
 30
0.0
 10
195.043857
 20
162.258132
 30
0.0
  0
LWPOLYLINE
  5
118
100
AcDbEntity
  8
0
 62
7
100
AcDbPolyline
 90
51
 70
0
 10
195.043862
 20
235.918132
 30
0.0
 10
195.054869
 20
236.103132
 30
0.0
 10
195.089862
 20
236.284132
 30
0.0
 10
195.146862
 20
236.460132
 30
0.0
 10
195.225862
 20
236.628133
 30
0.0
 10
195.324863
 20
236.784131
 30
0.0
 10
195.442863
 20
236.926131
 30
0.0
 10
195.577864
 20
237.053131
 30
0.0
 10
195.727862
 20
237.162131
 30
0.0
 10
195.889863
 20
237.251133
 30
0.0
 10
196.061863
 20
237.319131
 30
0.0
 10
196.240863
 20
237.365131
 30
0.0
 10
196.423861
 20
237.388132
 30
0.0
 10
196.609863
 20
237.388132
 30
0.0
 10
196.792861
 20
237.365131
 30
0.0
 10
196.971864
 20
237.319131
 30
0.0
 10
197.143861
 20
237.251133
 30
0.0
 10
197.305862
 20
237.162131
 30
0.0
 10
197.455863
 20
237.053131
 30
0.0
 10
197.590862
 20
236.926131
 30
0.0
 10
197.708861
 20
236.784131
 30
0.0
 10
197.807862
 20
236.628133
 30
0.0
 10
197.886862
 20
236.460132
 30
0.0
 10
197.943862
 20
236.284132
 30
0.0
 10
197.978863
 20
236.103132
 30
0.0
 10
197.989870
 20
235.918132
 30
0.0
 10
197.978855
 20
235.733133
 30
0.0
 10
197.943862
 20
235.552132
 30
0.0
 10
197.886862
 20
235.376133
 30
0.0
 10
197.807862
 20
235.208132
 30
0.0
 10
197.708861
 20
235.052131
 30
0.0
 10
197.590862
 20
234.910130
 30
0.0
 10
197.455863
 20
234.783130
 30
0.0
 10
197.305862
 20
234.674131
 30
0.0
 10
197.143861
 20
234.585132
 30
0.0
 10
196.971864
 20
234.517130
 30
0.0
 10
196.792861
 20
234.471131
 30
0.0
 10
196.609863
 20
234.448130
 30
0.0
 10
196.423861
 20
234.448133
 30
0.0
 10
196.240863
 20
234.471134
 30
0.0
 10
196.061863
 20
234.517130
 30
0.0
 10
195.889863
 20
234.585132
 30
0.0
 10
195.727862
 20
234.674131
 30
0.0
 10
195.577864
 20
234.783130
 30
0.0
 10
195.442863
 20
234.910130
 30
0.0
 10
195.324863
 20
235.052131
 30
0.0
 10
195.225862
 20
235.208132
 30
0.0
 10
195.146862
 20
235.376133
 30
0.0
 10
195.089862
 20
235.552132
 30
0.0
 10
195.054863
 20
235.733133
 30
0.0
 10
195.043857
 20
235.918132
 30
0.0
  0
LWPOLYLINE
  5
119
100
AcDbEntity
  8
0
 62
7
100
AcDbPolyline
 90
5
 70
0
 10
200.961862
 20
167.338132
 30
0.0
 10
200.961862
 20
186.388132
 30
0.0
 10
204.136862
 20
186.388132
 30
0.0
 10
204.136862
 20
167.338132
 30
0.0
 10
200.961862
 20
167.338132
 30
0.0
  0
LWPOLYLINE
  5
11a
100
AcDbEntity
  8
0
 62
7
100
AcDbPolyline
 90
5
 70
0
 10
200.961862
 20
211.788132
 30
0.0
 10
200.961862
 20
230.838132
 30
0.0
 10
204.136862
 20
230.838132
 30
0.0
 10
204.136862
 20
211.788132
 30
0.0
 10
200.961862
 20
211.788132
 30
0.0
  0
LWPOLYLINE
  5
11b
100
AcDbEntity
  8
0
 62
7
100
AcDbPolyline
 90
29
 70
0
 10
215.687732
 20
232.744010
 30
0.0
 10
215.687732
 20
251.794010
 30
0.0
 10
218.862732
 20
251.794010
 30
0.0
 10
218.862732
 20
277.194010
 30
0.0
 10
215.687732
 20
277.194010
 30
0.0
 10
215.687732
 20
296.244010
 30
0.0
 10
218.862732
 20
296.244010
 30
0.0
 10
218.862732
 20
308.944010
 30
0.0
 10
231.562732
 20
308.944010
 30
0.0
 10
231.562732
 20
305.769010
 30
0.0
 10
244.262732
 20
305.769010
 30
0.0
 10
244.262732
 20
308.944010
 30
0.0
 10
256.962732
 20
308.944010
 30
0.0
 10
256.962732
 20
296.244010
 30
0.0
 10
260.137732
 20
296.244010
 30
0.0
 10
260.137732
 20
277.194010
 30
0.0
 10
256.962732
 20
277.194010
 30
0.0
 10
256.962732
 20
251.794010
 30
0.0
 10
260.137732
 20
251.794010
 30
0.0
 10
260.137732
 20
232.744010
 30
0.0
 10
256.962732
 20
232.744010
 30
0.0
 10
256.962732
 20
220.044010
 30
0.0
 10
244.262732
 20
220.044010
 30
0.0
 10
244.262732
 20
223.219010
 30
0.0
 10
231.562732
 20
223.219010
 30
0.0
 10
231.562732
 20
220.044010
 30
0.0
 10
218.862732
 20
220.044010
 30
0.0
 10
218.862732
 20
232.744010
 30
0.0
 10
215.687732
 20
232.744010
 30
0.0
  0
LWPOLYLINE
  5
11c
100
AcDbEntity
  8
0
 62
7
100
AcDbPolyline
 90
37
 70
0
 10
7.286862
 20
108.283132
 30
0.0
 10
7.286862
 20
120.983132
 30
0.0
 10
10.461862
 20
120.983132
 30
0.0
 10
10.461862
 20
133.683132
 30
0.0
 10
39.036862
 20
133.683132
 30
0.0
 10
39.036862
 20
136.858132
 30
0.0
 10
58.086862
 20
136.858132
 30
0.0
 10
58.086862
 20
133.683132
 30
0.0
 10
96.186862
 20
133.683132
 30
0.0
 10
96.186862
 20
136.858132
 30
0.0
 10
115.236862
 20
136.858132
 30
0.0
 10
115.236862
 20
133.683132
 30
0.0
 10
153.336862
 20
133.683132
 30
0.0
 10
153.336862
 20
136.858132
 30
0.0
 10
172.386862
 20
136.858132
 30
0.0
 10
172.386862
 20
133.683132
 30
0.0
 10
200.961862
 20
133.683132
 30
0.0
 10
200.961862
 20
120.983132
 30
0.0
 10
204.136862
 20
120.983132
 30
0.0
 10
204.136862
 20
108.283132
 30
0.0
 10
200.961862
 20
108.283132
 30
0.0
 10
200.961862
 20
95.583132
 30
0.0
 10
172.386862
 20
95.583132
 30
0.0
 10
172.386862
 20
92.408132
 30
0.0
 10
153.336862
 20
92.408132
 30
0.0
 10
153.336862
 20
95.583132
 30
0.0
 10
115.236862
 20
95.583132
 30
0.0
 10
115.236862
 20
92.408132
 30
0.0
 10
96.186862
 20
92.408132
 30
0.0
 10
96.186862
 20
95.583132
 30
0.0
 10
58.086862
 20
95.583132
 30
0.0
 10
58.086862
 20
92.408132
 30
0.0
 10
39.036862
 20
92.408132
 30
0.0
 10
39.036862
 20
95.583132
 30
0.0
 10
10.461862
 20
95.583132
 30
0.0
 10
10.461862
 20
108.283132
 30
0.0
 10
7.286862
 20
108.283132
 30
0.0
  0
LWPOLYLINE
  5
11d
100
AcDbEntity
  8
0
 62
7
100
AcDbPolyline
 90
61
 70
0
 10
32.036862
 20
108.363131
 30
0.0
 10
32.036862
 20
118.363131
 30
0.0
 10
32.044877
 20
118.488133
 30
0.0
 10
32.067864
 20
118.612133
 30
0.0
 10
32.106862
 20
118.731132
 30
0.0
 10
32.160862
 20
118.845132
 30
0.0
 10
32.227861
 20
118.951132
 30
0.0
 10
32.307863
 20
119.048132
 30
0.0
 10
32.399862
 20
119.134131
 30
0.0
 10
32.500864
 20
119.207130
 30
0.0
 10
32.610862
 20
119.268133
 30
0.0
 10
32.727863
 20
119.314132
 30
0.0
 10
32.849862
 20
119.345131
 30
0.0
 10
32.973862
 20
119.361133
 30
0.0
 10
33.036863
 20
119.361131
 30
0.0
 10
33.036863
 20
119.363106
 30
0.0
 10
45.036861
 20
119.363132
 30
0.0
 10
45.036861
 20
119.361156
 30
0.0
 10
45.099862
 20
119.361131
 30
0.0
 10
45.223862
 20
119.345129
 30
0.0
 10
45.345861
 20
119.314132
 30
0.0
 10
45.462862
 20
119.268133
 30
0.0
 10
45.572863
 20
119.207130
 30
0.0
 10
45.673862
 20
119.134131
 30
0.0
 10
45.765861
 20
119.048132
 30
0.0
 10
45.845863
 20
118.951132
 30
0.0
 10
45.912862
 20
118.845132
 30
0.0
 10
45.966863
 20
118.731132
 30
0.0
 10
46.005863
 20
118.612133
 30
0.0
 10
46.028864
 20
118.488133
 30
0.0
 10
46.036848
 20
118.363131
 30
0.0
 10
46.036862
 20
108.363131
 30
0.0
 10
46.028875
 20
108.238132
 30
0.0
 10
46.005860
 20
108.114132
 30
0.0
 10
45.966863
 20
107.995133
 30
0.0
 10
45.912862
 20
107.881132
 30
0.0
 10
45.845863
 20
107.775132
 30
0.0
 10
45.765861
 20
107.678133
 30
0.0
 10
45.673862
 20
107.592131
 30
0.0
 10
45.572863
 20
107.519131
 30
0.0
 10
45.462862
 20
107.458132
 30
0.0
 10
45.345861
 20
107.412132
 30
0.0
 10
45.223862
 20
107.381130
 30
0.0
 10
45.099862
 20
107.365128
 30
0.0
 10
45.036861
 20
107.365131
 30
0.0
 10
45.036861
 20
107.363156
 30
0.0
 10
33.036863
 20
107.363133
 30
0.0
 10
33.036863
 20
107.365109
 30
0.0
 10
32.973862
 20
107.365131
 30
0.0
 10
32.849862
 20
107.381133
 30
0.0
 10
32.727863
 20
107.412132
 30
0.0
 10
32.610862
 20
107.458132
 30
0.0
 10
32.500864
 20
107.519131
 30
0.0
 10
32.399862
 20
107.592131
 30
0.0
 10
32.307863
 20
107.678133
 30
0.0
 10
32.227861
 20
107.775132
 30
0.0
 10
32.160862
 20
107.881132
 30
0.0
 10
32.106862
 20
107.995133
 30
0.0
 10
32.067861
 20
108.114132
 30
0.0
 10
32.044860
 20
108.238132
 30
0.0
 10
32.036848
 20
108.363131
 30
0.0
  0
LWPOLYLINE
  5
11e
100
AcDbEntity
  8
0
 62
7
100
AcDbPolyline
 90
51
 70
0
 10
57.436862
 20
114.887132
 30
0.0
 10
57.491861
 20
115.764132
 30
0.0
 10
57.656863
 20
116.628133
 30
0.0
 10
57.928863
 20
117.464132
 30
0.0
 10
58.302861
 20
118.259132
 30
0.0
 10
58.773862
 20
119.001131
 30
0.0
 10
59.333861
 20
119.679133
 30
0.0
 10
59.974861
 20
120.281133
 30
0.0
 10
60.685863
 20
120.797131
 30
0.0
 10
61.456864
 20
121.221130
 30
0.0
 10
62.273863
 20
121.544131
 30
0.0
 10
63.124862
 20
121.763132
 30
0.0
 10
63.996864
 20
121.873131
 30
0.0
 10
64.876863
 20
121.873131
 30
0.0
 10
65.748862
 20
121.763132
 30
0.0
 10
66.599861
 20
121.544131
 30
0.0
 10
67.416863
 20
121.221130
 30
0.0
 10
68.187864
 20
120.797131
 30
0.0
 10
68.898863
 20
120.281133
 30
0.0
 10
69.539863
 20
119.679133
 30
0.0
 10
70.099863
 20
119.001131
 30
0.0
 10
70.570863
 20
118.259132
 30
0.0
 10
70.944861
 20
117.464132
 30
0.0
 10
71.216861
 20
116.628133
 30
0.0
 10
71.381863
 20
115.764132
 30
0.0
 10
71.436862
 20
114.887132
 30
0.0
 10
71.381863
 20
114.010132
 30
0.0
 10
71.216861
 20
113.146132
 30
0.0
 10
70.944861
 20
112.310133
 30
0.0
 10
70.570863
 20
111.515133
 30
0.0
 10
70.099863
 20
110.773131
 30
0.0
 10
69.539863
 20
110.095132
 30
0.0
 10
68.898863
 20
109.493132
 30
0.0
 10
68.187864
 20
108.977131
 30
0.0
 10
67.416863
 20
108.553131
 30
0.0
 10
66.599861
 20
108.230131
 30
0.0
 10
65.748862
 20
108.011132
 30
0.0
 10
64.876863
 20
107.901130
 30
0.0
 10
63.996864
 20
107.901130
 30
0.0
 10
63.124862
 20
108.011132
 30
0.0
 10
62.273863
 20
108.230131
 30
0.0
 10
61.456864
 20
108.553131
 30
0.0
 10
60.685863
 20
108.977131
 30
0.0
 10
59.974861
 20
109.493132
 30
0.0
 10
59.333861
 20
110.095132
 30
0.0
 10
58.773862
 20
110.773131
 30
0.0
 10
58.302861
 20
111.515133
 30
0.0
 10
57.928863
 20
112.310133
 30
0.0
 10
57.656863
 20
113.146132
 30
0.0
 10
57.491861
 20
114.010132
 30
0.0
 10
57.436862
 20
114.887132
 30
0.0
  0
LWPOLYLINE
  5
11f
100
AcDbEntity
  8
0
 62
7
100
AcDbPolyline
 90
51
 70
0
 10
92.361862
 20
113.363132
 30
0.0
 10
92.416861
 20
114.240132
 30
0.0
 10
92.581863
 20
115.104133
 30
0.0
 10
92.853863
 20
115.940132
 30
0.0
 10
93.227861
 20
116.735132
 30
0.0
 10
93.698862
 20
117.477131
 30
0.0
 10
94.258861
 20
118.155133
 30
0.0
 10
94.899861
 20
118.757133
 30
0.0
 10
95.610863
 20
119.273131
 30
0.0
 10
96.381864
 20
119.697130
 30
0.0
 10
97.198863
 20
120.020131
 30
0.0
 10
98.049862
 20
120.239132
 30
0.0
 10
98.921864
 20
120.349131
 30
0.0
 10
99.801863
 20
120.349131
 30
0.0
 10
100.673862
 20
120.239132
 30
0.0
 10
101.524861
 20
120.020131
 30
0.0
 10
102.341863
 20
119.697130
 30
0.0
 10
103.112864
 20
119.273131
 30
0.0
 10
103.823863
 20
118.757133
 30
0.0
 10
104.464863
 20
118.155133
 30
0.0
 10
105.024863
 20
117.477131
 30
0.0
 10
105.495863
 20
116.735132
 30
0.0
 10
105.869861
 20
115.940132
 30
0.0
 10
106.141861
 20
115.104133
 30
0.0
 10
106.306863
 20
114.240132
 30
0.0
 10
106.361862
 20
113.363132
 30
0.0
 10
106.306863
 20
112.486132
 30
0.0
 10
106.141861
 20
111.622132
 30
0.0
 10
105.869861
 20
110.786133
 30
0.0
 10
105.495863
 20
109.991133
 30
0.0
 10
105.024863
 20
109.249131
 30
0.0
 10
104.464863
 20
108.571132
 30
0.0
 10
103.823863
 20
107.969132
 30
0.0
 10
103.112864
 20
107.453131
 30
0.0
 10
102.341863
 20
107.029131
 30
0.0
 10
101.524861
 20
106.706131
 30
0.0
 10
100.673862
 20
106.487132
 30
0.0
 10
99.801863
 20
106.377130
 30
0.0
 10
98.921864
 20
106.377130
 30
0.0
 10
98.049862
 20
106.487132
 30
0.0
 10
97.198863
 20
106.706131
 30
0.0
 10
96.381864
 20
107.029131
 30
0.0
 10
95.610863
 20
107.453131
 30
0.0
 10
94.899861
 20
107.969132
 30
0.0
 10
94.258861
 20
108.571132
 30
0.0
 10
93.698862
 20
109.249131
 30
0.0
 10
93.227861
 20
109.991133
 30
0.0
 10
92.853863
 20
110.786133
 30
0.0
 10
92.581863
 20
111.622132
 30
0.0
 10
92.416861
 20
112.486132
 30
0.0
 10
92.361862
 20
113.363132
 30
0.0
  0
LWPOLYLINE
  5
120
100
AcDbEntity
  8
0
 62
7
100
AcDbPolyline
 90
51
 70
0
 10
117.761862
 20
113.363132
 30
0.0
 10
117.816861
 20
114.240132
 30
0.0
 10
117.981863
 20
115.104133
 30
0.0
 10
118.253863
 20
115.940132
 30
0.0
 10
118.627861
 20
116.735132
 30
0.0
 10
119.098862
 20
117.477131
 30
0.0
 10
119.658861
 20
118.155133
 30
0.0
 10
120.299861
 20
118.757133
 30
0.0
 10
121.010863
 20
119.273131
 30
0.0
 10
121.781864
 20
119.697130
 30
0.0
 10
122.598863
 20
120.020131
 30
0.0
 10
123.449862
 20
120.239132
 30
0.0
 10
124.321864
 20
120.349131
 30
0.0
 10
125.201863
 20
120.349131
 30
0.0
 10
126.073862
 20
120.239132
 30
0.0
 10
126.924861
 20
120.020131
 30
0.0
 10
127.741863
 20
119.697130
 30
0.0
 10
128.512864
 20
119.273131
 30
0.0
 10
129.223863
 20
118.757133
 30
0.0
 10
129.864863
 20
118.155133
 30
0.0
 10
130.424863
 20
117.477131
 30
0.0
 10
130.895863
 20
116.735132
 30
0.0
 10
131.269861
 20
115.940132
 30
0.0
 10
131.541861
 20
115.104133
 30
0.0
 10
131.706863
 20
114.240132
 30
0.0
 10
131.761862
 20
113.363132
 30
0.0
 10
131.706863
 20
112.486132
 30
0.0
 10
131.541861
 20
111.622132
 30
0.0
 10
131.269861
 20
110.786133
 30
0.0
 10
130.895863
 20
109.991133
 30
0.0
 10
130.424863
 20
109.249131
 30
0.0
 10
129.864863
 20
108.571132
 30
0.0
 10
129.223863
 20
107.969132
 30
0.0
 10
128.512864
 20
107.453131
 30
0.0
 10
127.741863
 20
107.029131
 30
0.0
 10
126.924861
 20
106.706131
 30
0.0
 10
126.073862
 20
106.487132
 30
0.0
 10
125.201863
 20
106.377130
 30
0.0
 10
124.321864
 20
106.377130
 30
0.0
 10
123.449862
 20
106.487132
 30
0.0
 10
122.598863
 20
106.706131
 30
0.0
 10
121.781864
 20
107.029131
 30
0.0
 10
121.010863
 20
107.453131
 30
0.0
 10
120.299861
 20
107.969132
 30
0.0
 10
119.658861
 20
108.571132
 30
0.0
 10
119.098862
 20
109.249131
 30
0.0
 10
118.627861
 20
109.991133
 30
0.0
 10
118.253863
 20
110.786133
 30
0.0
 10
117.981863
 20
111.622132
 30
0.0
 10
117.816861
 20
112.486132
 30
0.0
 10
117.761862
 20
113.363132
 30
0.0
  0
LWPOLYLINE
  5
121
100
AcDbEntity
  8
0
 62
7
100
AcDbPolyline
 90
51
 70
0
 10
143.161862
 20
113.363132
 30
0.0
 10
143.216861
 20
114.240132
 30
0.0
 10
143.381863
 20
115.104133
 30
0.0
 10
143.653863
 20
115.940132
 30
0.0
 10
144.027861
 20
116.735132
 30
0.0
 10
144.498862
 20
117.477131
 30
0.0
 10
145.058861
 20
118.155133
 30
0.0
 10
145.699861
 20
118.757133
 30
0.0
 10
146.410863
 20
119.273131
 30
0.0
 10
147.181864
 20
119.697130
 30
0.0
 10
147.998863
 20
120.020131
 30
0.0
 10
148.849862
 20
120.239132
 30
0.0
 10
149.721864
 20
120.349131
 30
0.0
 10
150.601863
 20
120.349131
 30
0.0
 10
151.473862
 20
120.239132
 30
0.0
 10
152.324861
 20
120.020131
 30
0.0
 10
153.141863
 20
119.697130
 30
0.0
 10
153.912864
 20
119.273131
 30
0.0
 10
154.623863
 20
118.757133
 30
0.0
 10
155.264863
 20
118.155133
 30
0.0
 10
155.824863
 20
117.477131
 30
0.0
 10
156.295863
 20
116.735132
 30
0.0
 10
156.669861
 20
115.940132
 30
0.0
 10
156.941861
 20
115.104133
 30
0.0
 10
157.106863
 20
114.240132
 30
0.0
 10
157.161862
 20
113.363132
 30
0.0
 10
157.106863
 20
112.486132
 30
0.0
 10
156.941861
 20
111.622132
 30
0.0
 10
156.669861
 20
110.786133
 30
0.0
 10
156.295863
 20
109.991133
 30
0.0
 10
155.824863
 20
109.249131
 30
0.0
 10
155.264863
 20
108.571132
 30
0.0
 10
154.623863
 20
107.969132
 30
0.0
 10
153.912864
 20
107.453131
 30
0.0
 10
153.141863
 20
107.029131
 30
0.0
 10
152.324861
 20
106.706131
 30
0.0
 10
151.473862
 20
106.487132
 30
0.0
 10
150.601863
 20
106.377130
 30
0.0
 10
149.721864
 20
106.377130
 30
0.0
 10
148.849862
 20
106.487132
 30
0.0
 10
147.998863
 20
106.706131
 30
0.0
 10
147.181864
 20
107.029131
 30
0.0
 10
146.410863
 20
107.453131
 30
0.0
 10
145.699861
 20
107.969132
 30
0.0
 10
145.058861
 20
108.571132
 30
0.0
 10
144.498862
 20
109.249131
 30
0.0
 10
144.027861
 20
109.991133
 30
0.0
 10
143.653863
 20
110.786133
 30
0.0
 10
143.381863
 20
111.622132
 30
0.0
 10
143.216861
 20
112.486132
 30
0.0
 10
143.161862
 20
113.363132
 30
0.0
  0
LWPOLYLINE
  5
122
100
AcDbEntity
  8
0
 62
7
100
AcDbPolyline
 90
51
 70
0
 10
168.561862
 20
113.363132
 30
0.0
 10
168.616861
 20
114.240132
 30
0.0
 10
168.781863
 20
115.104133
 30
0.0
 10
169.053863
 20
115.940132
 30
0.0
 10
169.427861
 20
116.735132
 30
0.0
 10
169.898862
 20
117.477131
 30
0.0
 10
170.458861
 20
118.155133
 30
0.0
 10
171.099861
 20
118.757133
 30
0.0
 10
171.810863
 20
119.273131
 30
0.0
 10
172.581864
 20
119.697130
 30
0.0
 10
173.398863
 20
120.020131
 30
0.0
 10
174.249862
 20
120.239132
 30
0.0
 10
175.121864
 20
120.349131
 30
0.0
 10
176.001863
 20
120.349131
 30
0.0
 10
176.873862
 20
120.239132
 30
0.0
 10
177.724861
 20
120.020131
 30
0.0
 10
178.541863
 20
119.697130
 30
0.0
 10
179.312864
 20
119.273131
 30
0.0
 10
180.023863
 20
118.757133
 30
0.0
 10
180.664863
 20
118.155133
 30
0.0
 10
181.224863
 20
117.477131
 30
0.0
 10
181.695863
 20
116.735132
 30
0.0
 10
182.069861
 20
115.940132
 30
0.0
 10
182.341861
 20
115.104133
 30
0.0
 10
182.506863
 20
114.240132
 30
0.0
 10
182.561862
 20
113.363132
 30
0.0
 10
182.506863
 20
112.486132
 30
0.0
 10
182.341861
 20
111.622132
 30
0.0
 10
182.069861
 20
110.786133
 30
0.0
 10
181.695863
 20
109.991133
 30
0.0
 10
181.224863
 20
109.249131
 30
0.0
 10
180.664863
 20
108.571132
 30
0.0
 10
180.023863
 20
107.969132
 30
0.0
 10
179.312864
 20
107.453131
 30
0.0
 10
178.541863
 20
107.029131
 30
0.0
 10
177.724861
 20
106.706131
 30
0.0
 10
176.873862
 20
106.487132
 30
0.0
 10
176.001863
 20
106.377130
 30
0.0
 10
175.121864
 20
106.377130
 30
0.0
 10
174.249862
 20
106.487132
 30
0.0
 10
173.398863
 20
106.706131
 30
0.0
 10
172.581864
 20
107.029131
 30
0.0
 10
171.810863
 20
107.453131
 30
0.0
 10
171.099861
 20
107.969132
 30
0.0
 10
170.458861
 20
108.571132
 30
0.0
 10
169.898862
 20
109.249131
 30
0.0
 10
169.427861
 20
109.991133
 30
0.0
 10
169.053863
 20
110.786133
 30
0.0
 10
168.781863
 20
111.622132
 30
0.0
 10
168.616861
 20
112.486132
 30
0.0
 10
168.561862
 20
113.363132
 30
0.0
  0
LWPOLYLINE
  5
123
100
AcDbEntity
  8
0
 62
7
100
AcDbPolyline
 90
61
 70
0
 10
2.206862
 20
-13.001865
 30
0.0
 10
2.206862
 20
73.358132
 30
0.0
 10
2.256862
 20
74.154132
 30
0.0
 10
2.405862
 20
74.937132
 30
0.0
 10
2.652862
 20
75.696132
 30
0.0
 10
2.991862
 20
76.417130
 30
0.0
 10
3.419862
 20
77.090132
 30
0.0
 10
3.927862
 20
77.705131
 30
0.0
 10
4.508862
 20
78.251132
 30
0.0
 10
5.154862
 20
78.719132
 30
0.0
 10
5.852862
 20
79.104132
 30
0.0
 10
6.594862
 20
79.397132
 30
0.0
 10
7.366862
 20
79.596132
 30
0.0
 10
8.157862
 20
79.695130
 30
0.0
 10
8.556862
 20
79.695130
 30
0.0
 10
8.556862
 20
79.708141
 30
0.0
 10
202.866862
 20
79.708132
 30
0.0
 10
202.866862
 20
79.695122
 30
0.0
 10
203.265862
 20
79.695130
 30
0.0
 10
204.056863
 20
79.596132
 30
0.0
 10
204.828862
 20
79.397132
 30
0.0
 10
205.570861
 20
79.104132
 30
0.0
 10
206.268862
 20
78.719132
 30
0.0
 10
206.914863
 20
78.251132
 30
0.0
 10
207.495862
 20
77.705131
 30
0.0
 10
208.003862
 20
77.090132
 30
0.0
 10
208.431861
 20
76.417130
 30
0.0
 10
208.770863
 20
75.696132
 30
0.0
 10
209.017862
 20
74.937132
 30
0.0
 10
209.166864
 20
74.154132
 30
0.0
 10
209.216862
 20
73.358132
 30
0.0
 10
209.216862
 20
-13.001865
 30
0.0
 10
209.166864
 20
-13.797873
 30
0.0
 10
209.017862
 20
-14.580870
 30
0.0
 10
208.770863
 20
-15.339878
 30
0.0
 10
208.431861
 20
-16.060872
 30
0.0
 10
208.003862
 20
-16.733859
 30
0.0
 10
207.495862
 20
-17.348877
 30
0.0
 10
206.914863
 20
-17.894864
 30
0.0
 10
206.268862
 20
-18.362874
 30
0.0
 10
205.570861
 20
-18.747881
 30
0.0
 10
204.828862
 20
-19.040856
 30
0.0
 10
204.056863
 20
-19.239879
 30
0.0
 10
203.265862
 20
-19.338854
 30
0.0
 10
202.866862
 20
-19.338854
 30
0.0
 10
202.866862
 20
-19.351837
 30
0.0
 10
8.556862
 20
-19.351865
 30
0.0
 10
8.556862
 20
-19.338883
 30
0.0
 10
8.157862
 20
-19.338854
 30
0.0
 10
7.366862
 20
-19.239879
 30
0.0
 10
6.594862
 20
-19.040856
 30
0.0
 10
5.852862
 20
-18.747881
 30
0.0
 10
5.154862
 20
-18.362874
 30
0.0
 10
4.508862
 20
-17.894864
 30
0.0
 10
3.927862
 20
-17.348877
 30
0.0
 10
3.419862
 20
-16.733859
 30
0.0
 10
2.991862
 20
-16.060872
 30
0.0
 10
2.652862
 20
-15.339878
 30
0.0
 10
2.405862
 20
-14.580870
 30
0.0
 10
2.256862
 20
-13.797873
 30
0.0
 10
2.206862
 20
-13.001865
 30
0.0
  0
LWPOLYLINE
  5
124
100
AcDbEntity
  8
0
 62
7
100
AcDbPolyline
 90
5
 70
0
 10
7.286862
 20
-1.571865
 30
0.0
 10
7.286862
 20
17.478135
 30
0.0
 10
10.461862
 20
17.478135
 30
0.0
 10
10.461862
 20
-1.571865
 30
0.0
 10
7.286862
 20
-1.571865
 30
0.0
  0
LWPOLYLINE
  5
125
100
AcDbEntity
  8
0
 62
7
100
AcDbPolyline
 90
5
 70
0
 10
7.286862
 20
42.878132
 30
0.0
 10
7.286862
 20
61.928132
 30
0.0
 10
10.461862
 20
61.928132
 30
0.0
 10
10.461862
 20
42.878132
 30
0.0
 10
7.286862
 20
42.878132
 30
0.0
  0
LWPOLYLINE
  5
126
100
AcDbEntity
  8
0
 62
7
100
AcDbPolyline
 90
13
 70
0
 10
13.433862
 20
-6.651865
 30
0.0
 10
13.444863
 20
-6.466868
 30
0.0
 10
13.479862
 20
-6.285879
 30
0.0
 10
13.536862
 20
-6.109857
 30
0.0
 10
13.615862
 20
-5.941878
 30
0.0
 10
13.714862
 20
-5.785866
 30
0.0
 10
13.832862
 20
-5.643880
 30
0.0
 10
13.967862
 20
-5.516880
 30
0.0
 10
14.117862
 20
-5.407858
 30
0.0
 10
14.279862
 20
-5.318873
 30
0.0
 10
14.451862
 20
-5.250857
 30
0.0
 10
14.630862
 20
-5.204855
 30
0.0
 10
14.813862
 20
-5.181995
 30
0.0
  0
LWPOLYLINE
  5
127
100
AcDbEntity
  8
0
 62
7
100
AcDbPolyline
 90
3
 70
0
 10
14.813862
 20
-5.181882
 30
0.0
 10
14.999862
 20
-5.181882
 30
0.0
 10
15.182862
 20
-5.204742
 30
0.0
  0
LWPOLYLINE
  5
128
100
AcDbEntity
  8
0
 62
7
100
AcDbPolyline
 90
24
 70
0
 10
15.182862
 20
-5.204855
 30
0.0
 10
15.361862
 20
-5.250857
 30
0.0
 10
15.533862
 20
-5.318873
 30
0.0
 10
15.695862
 20
-5.407858
 30
0.0
 10
15.845862
 20
-5.516880
 30
0.0
 10
15.980862
 20
-5.643880
 30
0.0
 10
16.098862
 20
-5.785866
 30
0.0
 10
16.197862
 20
-5.941878
 30
0.0
 10
16.276862
 20
-6.109857
 30
0.0
 10
16.333862
 20
-6.285879
 30
0.0
 10
16.368862
 20
-6.466868
 30
0.0
 10
16.379863
 20
-6.651865
 30
0.0
 10
16.368861
 20
-6.836862
 30
0.0
 10
16.333862
 20
-7.017879
 30
0.0
 10
16.276862
 20
-7.193873
 30
0.0
 10
16.197862
 20
-7.361880
 30
0.0
 10
16.098862
 20
-7.517864
 30
0.0
 10
15.980862
 20
-7.659878
 30
0.0
 10
15.845862
 20
-7.786878
 30
0.0
 10
15.695862
 20
-7.895872
 30
0.0
 10
15.533862
 20
-7.984857
 30
0.0
 10
15.361862
 20
-8.052872
 30
0.0
 10
15.182862
 20
-8.098875
 30
0.0
 10
14.999862
 20
-8.122017
 30
0.0
  0
LWPOLYLINE
  5
129
100
AcDbEntity
  8
0
 62
7
100
AcDbPolyline
 90
3
 70
0
 10
14.999862
 20
-8.121876
 30
0.0
 10
14.813862
 20
-8.121876
 30
0.0
 10
14.630862
 20
-8.098734
 30
0.0
  0
LWPOLYLINE
  5
12a
100
AcDbEntity
  8
0
 62
7
100
AcDbPolyline
 90
12
 70
0
 10
14.630862
 20
-8.098875
 30
0.0
 10
14.451862
 20
-8.052872
 30
0.0
 10
14.279862
 20
-7.984857
 30
0.0
 10
14.117862
 20
-7.895872
 30
0.0
 10
13.967862
 20
-7.786878
 30
0.0
 10
13.832862
 20
-7.659878
 30
0.0
 10
13.714862
 20
-7.517864
 30
0.0
 10
13.615862
 20
-7.361880
 30
0.0
 10
13.536862
 20
-7.193873
 30
0.0
 10
13.479862
 20
-7.017879
 30
0.0
 10
13.444862
 20
-6.836862
 30
0.0
 10
13.433861
 20
-6.651865
 30
0.0
  0
LWPOLYLINE
  5
12b
100
AcDbEntity
  8
0
 62
7
100
AcDbPolyline
 90
51
 70
0
 10
13.433862
 20
67.008132
 30
0.0
 10
13.444863
 20
67.193132
 30
0.0
 10
13.479862
 20
67.374132
 30
0.0
 10
13.536862
 20
67.550132
 30
0.0
 10
13.615862
 20
67.718133
 30
0.0
 10
13.714862
 20
67.874131
 30
0.0
 10
13.832862
 20
68.016131
 30
0.0
 10
13.967862
 20
68.143131
 30
0.0
 10
14.117862
 20
68.252131
 30
0.0
 10
14.279862
 20
68.341133
 30
0.0
 10
14.451862
 20
68.409131
 30
0.0
 10
14.630862
 20
68.455131
 30
0.0
 10
14.813862
 20
68.478132
 30
0.0
 10
14.999862
 20
68.478132
 30
0.0
 10
15.182862
 20
68.455131
 30
0.0
 10
15.361862
 20
68.409131
 30
0.0
 10
15.533862
 20
68.341133
 30
0.0
 10
15.695862
 20
68.252131
 30
0.0
 10
15.845862
 20
68.143131
 30
0.0
 10
15.980862
 20
68.016131
 30
0.0
 10
16.098862
 20
67.874131
 30
0.0
 10
16.197862
 20
67.718133
 30
0.0
 10
16.276862
 20
67.550132
 30
0.0
 10
16.333862
 20
67.374132
 30
0.0
 10
16.368862
 20
67.193132
 30
0.0
 10
16.379863
 20
67.008132
 30
0.0
 10
16.368861
 20
66.823133
 30
0.0
 10
16.333862
 20
66.642132
 30
0.0
 10
16.276862
 20
66.466133
 30
0.0
 10
16.197862
 20
66.298132
 30
0.0
 10
16.098862
 20
66.142131
 30
0.0
 10
15.980862
 20
66.000130
 30
0.0
 10
15.845862
 20
65.873130
 30
0.0
 10
15.695862
 20
65.764131
 30
0.0
 10
15.533862
 20
65.675132
 30
0.0
 10
15.361862
 20
65.607130
 30
0.0
 10
15.182862
 20
65.561131
 30
0.0
 10
14.999862
 20
65.538130
 30
0.0
 10
14.813862
 20
65.538133
 30
0.0
 10
14.630862
 20
65.561134
 30
0.0
 10
14.451862
 20
65.607130
 30
0.0
 10
14.279862
 20
65.675132
 30
0.0
 10
14.117862
 20
65.764131
 30
0.0
 10
13.967862
 20
65.873130
 30
0.0
 10
13.832862
 20
66.000130
 30
0.0
 10
13.714862
 20
66.142131
 30
0.0
 10
13.615862
 20
66.298132
 30
0.0
 10
13.536862
 20
66.466133
 30
0.0
 10
13.479862
 20
66.642132
 30
0.0
 10
13.444862
 20
66.823133
 30
0.0
 10
13.433861
 20
67.008132
 30
0.0
  0
LWPOLYLINE
  5
12c
100
AcDbEntity
  8
0
 62
7
100
AcDbPolyline
 90
5
 70
0
 10
39.036862
 20
-14.271865
 30
0.0
 10
39.036862
 20
-11.096865
 30
0.0
 10
58.086862
 20
-11.096865
 30
0.0
 10
58.086862
 20
-14.271865
 30
0.0
 10
39.036862
 20
-14.271865
 30
0.0
  0
LWPOLYLINE
  5
12d
100
AcDbEntity
  8
0
 62
7
100
AcDbPolyline
 90
5
 70
0
 10
39.036862
 20
71.453132
 30
0.0
 10
39.036862
 20
74.628132
 30
0.0
 10
58.086862
 20
74.628132
 30
0.0
 10
58.086862
 20
71.453132
 30
0.0
 10
39.036862
 20
71.453132
 30
0.0
  0
LWPOLYLINE
  5
12e
100
AcDbEntity
  8
0
 62
7
100
AcDbPolyline
 90
5
 70
0
 10
96.186862
 20
-14.271865
 30
0.0
 10
96.186862
 20
-11.096865
 30
0.0
 10
115.236862
 20
-11.096865
 30
0.0
 10
115.236862
 20
-14.271865
 30
0.0
 10
96.186862
 20
-14.271865
 30
0.0
  0
LWPOLYLINE
  5
12f
100
AcDbEntity
  8
0
 62
7
100
AcDbPolyline
 90
5
 70
0
 10
96.186862
 20
71.453132
 30
0.0
 10
96.186862
 20
74.628132
 30
0.0
 10
115.236862
 20
74.628132
 30
0.0
 10
115.236862
 20
71.453132
 30
0.0
 10
96.186862
 20
71.453132
 30
0.0
  0
LWPOLYLINE
  5
130
100
AcDbEntity
  8
0
 62
7
100
AcDbPolyline
 90
5
 70
0
 10
153.336862
 20
-14.271865
 30
0.0
 10
153.336862
 20
-11.096865
 30
0.0
 10
172.386862
 20
-11.096865
 30
0.0
 10
172.386862
 20
-14.271865
 30
0.0
 10
153.336862
 20
-14.271865
 30
0.0
  0
LWPOLYLINE
  5
131
100
AcDbEntity
  8
0
 62
7
100
AcDbPolyline
 90
5
 70
0
 10
153.336862
 20
71.453132
 30
0.0
 10
153.336862
 20
74.628132
 30
0.0
 10
172.386862
 20
74.628132
 30
0.0
 10
172.386862
 20
71.453132
 30
0.0
 10
153.336862
 20
71.453132
 30
0.0
  0
LWPOLYLINE
  5
132
100
AcDbEntity
  8
0
 62
7
100
AcDbPolyline
 90
13
 70
0
 10
195.043862
 20
-6.651865
 30
0.0
 10
195.054869
 20
-6.466868
 30
0.0
 10
195.089862
 20
-6.285879
 30
0.0
 10
195.146862
 20
-6.109857
 30
0.0
 10
195.225862
 20
-5.941878
 30
0.0
 10
195.324863
 20
-5.785866
 30
0.0
 10
195.442863
 20
-5.643880
 30
0.0
 10
195.577864
 20
-5.516880
 30
0.0
 10
195.727862
 20
-5.407858
 30
0.0
 10
195.889863
 20
-5.318873
 30
0.0
 10
196.061863
 20
-5.250857
 30
0.0
 10
196.240863
 20
-5.204855
 30
0.0
 10
196.423861
 20
-5.181995
 30
0.0
  0
LWPOLYLINE
  5
133
100
AcDbEntity
  8
0
 62
7
100
AcDbPolyline
 90
3
 70
0
 10
196.423861
 20
-5.181882
 30
0.0
 10
196.609863
 20
-5.181882
 30
0.0
 10
196.792861
 20
-5.204742
 30
0.0
  0
LWPOLYLINE
  5
134
100
AcDbEntity
  8
0
 62
7
100
AcDbPolyline
 90
24
 70
0
 10
196.792861
 20
-5.204855
 30
0.0
 10
196.971864
 20
-5.250857
 30
0.0
 10
197.143861
 20
-5.318873
 30
0.0
 10
197.305862
 20
-5.407858
 30
0.0
 10
197.455863
 20
-5.516880
 30
0.0
 10
197.590862
 20
-5.643880
 30
0.0
 10
197.708861
 20
-5.785866
 30
0.0
 10
197.807862
 20
-5.941878
 30
0.0
 10
197.886862
 20
-6.109857
 30
0.0
 10
197.943862
 20
-6.285879
 30
0.0
 10
197.978863
 20
-6.466868
 30
0.0
 10
197.989870
 20
-6.651865
 30
0.0
 10
197.978855
 20
-6.836862
 30
0.0
 10
197.943862
 20
-7.017879
 30
0.0
 10
197.886862
 20
-7.193873
 30
0.0
 10
197.807862
 20
-7.361880
 30
0.0
 10
197.708861
 20
-7.517864
 30
0.0
 10
197.590862
 20
-7.659878
 30
0.0
 10
197.455863
 20
-7.786878
 30
0.0
 10
197.305862
 20
-7.895872
 30
0.0
 10
197.143861
 20
-7.984857
 30
0.0
 10
196.971864
 20
-8.052872
 30
0.0
 10
196.792861
 20
-8.098875
 30
0.0
 10
196.609863
 20
-8.122017
 30
0.0
  0
LWPOLYLINE
  5
135
100
AcDbEntity
  8
0
 62
7
100
AcDbPolyline
 90
3
 70
0
 10
196.609863
 20
-8.121876
 30
0.0
 10
196.423861
 20
-8.121876
 30
0.0
 10
196.240863
 20
-8.098734
 30
0.0
  0
LWPOLYLINE
  5
136
100
AcDbEntity
  8
0
 62
7
100
AcDbPolyline
 90
12
 70
0
 10
196.240863
 20
-8.098875
 30
0.0
 10
196.061863
 20
-8.052872
 30
0.0
 10
195.889863
 20
-7.984857
 30
0.0
 10
195.727862
 20
-7.895872
 30
0.0
 10
195.577864
 20
-7.786878
 30
0.0
 10
195.442863
 20
-7.659878
 30
0.0
 10
195.324863
 20
-7.517864
 30
0.0
 10
195.225862
 20
-7.361880
 30
0.0
 10
195.146862
 20
-7.193873
 30
0.0
 10
195.089862
 20
-7.017879
 30
0.0
 10
195.054863
 20
-6.836862
 30
0.0
 10
195.043857
 20
-6.651865
 30
0.0
  0
LWPOLYLINE
  5
137
100
AcDbEntity
  8
0
 62
7
100
AcDbPolyline
 90
51
 70
0
 10
195.043862
 20
67.008132
 30
0.0
 10
195.054869
 20
67.193132
 30
0.0
 10
195.089862
 20
67.374132
 30
0.0
 10
195.146862
 20
67.550132
 30
0.0
 10
195.225862
 20
67.718133
 30
0.0
 10
195.324863
 20
67.874131
 30
0.0
 10
195.442863
 20
68.016131
 30
0.0
 10
195.577864
 20
68.143131
 30
0.0
 10
195.727862
 20
68.252131
 30
0.0
 10
195.889863
 20
68.341133
 30
0.0
 10
196.061863
 20
68.409131
 30
0.0
 10
196.240863
 20
68.455131
 30
0.0
 10
196.423861
 20
68.478132
 30
0.0
 10
196.609863
 20
68.478132
 30
0.0
 10
196.792861
 20
68.455131
 30
0.0
 10
196.971864
 20
68.409131
 30
0.0
 10
197.143861
 20
68.341133
 30
0.0
 10
197.305862
 20
68.252131
 30
0.0
 10
197.455863
 20
68.143131
 30
0.0
 10
197.590862
 20
68.016131
 30
0.0
 10
197.708861
 20
67.874131
 30
0.0
 10
197.807862
 20
67.718133
 30
0.0
 10
197.886862
 20
67.550132
 30
0.0
 10
197.943862
 20
67.374132
 30
0.0
 10
197.978863
 20
67.193132
 30
0.0
 10
197.989870
 20
67.008132
 30
0.0
 10
197.978855
 20
66.823133
 30
0.0
 10
197.943862
 20
66.642132
 30
0.0
 10
197.886862
 20
66.466133
 30
0.0
 10
197.807862
 20
66.298132
 30
0.0
 10
197.708861
 20
66.142131
 30
0.0
 10
197.590862
 20
66.000130
 30
0.0
 10
197.455863
 20
65.873130
 30
0.0
 10
197.305862
 20
65.764131
 30
0.0
 10
197.143861
 20
65.675132
 30
0.0
 10
196.971864
 20
65.607130
 30
0.0
 10
196.792861
 20
65.561131
 30
0.0
 10
196.609863
 20
65.538130
 30
0.0
 10
196.423861
 20
65.538133
 30
0.0
 10
196.240863
 20
65.561134
 30
0.0
 10
196.061863
 20
65.607130
 30
0.0
 10
195.889863
 20
65.675132
 30
0.0
 10
195.727862
 20
65.764131
 30
0.0
 10
195.577864
 20
65.873130
 30
0.0
 10
195.442863
 20
66.000130
 30
0.0
 10
195.324863
 20
66.142131
 30
0.0
 10
195.225862
 20
66.298132
 30
0.0
 10
195.146862
 20
66.466133
 30
0.0
 10
195.089862
 20
66.642132
 30
0.0
 10
195.054863
 20
66.823133
 30
0.0
 10
195.043857
 20
67.008132
 30
0.0
  0
LWPOLYLINE
  5
138
100
AcDbEntity
  8
0
 62
7
100
AcDbPolyline
 90
5
 70
0
 10
200.961862
 20
-1.571865
 30
0.0
 10
200.961862
 20
17.478135
 30
0.0
 10
204.136862
 20
17.478135
 30
0.0
 10
204.136862
 20
-1.571865
 30
0.0
 10
200.961862
 20
-1.571865
 30
0.0
  0
LWPOLYLINE
  5
139
100
AcDbEntity
  8
0
 62
7
100
AcDbPolyline
 90
5
 70
0
 10
200.961862
 20
42.878132
 30
0.0
 10
200.961862
 20
61.928132
 30
0.0
 10
204.136862
 20
61.928132
 30
0.0
 10
204.136862
 20
42.878132
 30
0.0
 10
200.961862
 20
42.878132
 30
0.0
  0
LWPOLYLINE
  5
13a
100
AcDbEntity
  8
0
 62
7
100
AcDbPolyline
 90
29
 70
0
 10
-54.943138
 20
167.338132
 30
0.0
 10
-54.943138
 20
186.388132
 30
0.0
 10
-51.768138
 20
186.388132
 30
0.0
 10
-51.768138
 20
211.788132
 30
0.0
 10
-54.943138
 20
211.788132
 30
0.0
 10
-54.943138
 20
230.838132
 30
0.0
 10
-51.768138
 20
230.838132
 30
0.0
 10
-51.768138
 20
243.538132
 30
0.0
 10
-39.068138
 20
243.538132
 30
0.0
 10
-39.068138
 20
240.363132
 30
0.0
 10
-26.368138
 20
240.363132
 30
0.0
 10
-26.368138
 20
243.538132
 30
0.0
 10
-13.668138
 20
243.538132
 30
0.0
 10
-13.668138
 20
230.838132
 30
0.0
 10
-10.493138
 20
230.838132
 30
0.0
 10
-10.493138
 20
211.788132
 30
0.0
 10
-13.668138
 20
211.788132
 30
0.0
 10
-13.668138
 20
186.388132
 30
0.0
 10
-10.493138
 20
186.388132
 30
0.0
 10
-10.493138
 20
167.338132
 30
0.0
 10
-13.668138
 20
167.338132
 30
0.0
 10
-13.668138
 20
154.638132
 30
0.0
 10
-26.368138
 20
154.638132
 30
0.0
 10
-26.368138
 20
157.813132
 30
0.0
 10
-39.068138
 20
157.813132
 30
0.0
 10
-39.068138
 20
154.638132
 30
0.0
 10
-51.768138
 20
154.638132
 30
0.0
 10
-51.768138
 20
167.338132
 30
0.0
 10
-54.943138
 20
167.338132
 30
0.0
  0
LWPOLYLINE
  5
13b
100
AcDbEntity
  8
0
 62
7
100
AcDbPolyline
 90
37
 70
0
 10
7.286862
 20
277.193131
 30
0.0
 10
7.286862
 20
289.893131
 30
0.0
 10
10.461862
 20
289.893131
 30
0.0
 10
10.461862
 20
302.593131
 30
0.0
 10
39.036862
 20
302.593131
 30
0.0
 10
39.036862
 20
305.768131
 30
0.0
 10
58.086862
 20
305.768131
 30
0.0
 10
58.086862
 20
302.593131
 30
0.0
 10
96.186862
 20
302.593131
 30
0.0
 10
96.186862
 20
305.768131
 30
0.0
 10
115.236862
 20
305.768131
 30
0.0
 10
115.236862
 20
302.593131
 30
0.0
 10
153.336862
 20
302.593131
 30
0.0
 10
153.336862
 20
305.768131
 30
0.0
 10
172.386862
 20
305.768131
 30
0.0
 10
172.386862
 20
302.593131
 30
0.0
 10
200.961862
 20
302.593131
 30
0.0
 10
200.961862
 20
289.893131
 30
0.0
 10
204.136862
 20
289.893131
 30
0.0
 10
204.136862
 20
277.193131
 30
0.0
 10
200.961862
 20
277.193131
 30
0.0
 10
200.961862
 20
264.493132
 30
0.0
 10
172.386862
 20
264.493132
 30
0.0
 10
172.386862
 20
261.318132
 30
0.0
 10
153.336862
 20
261.318132
 30
0.0
 10
153.336862
 20
264.493132
 30
0.0
 10
115.236862
 20
264.493132
 30
0.0
 10
115.236862
 20
261.318132
 30
0.0
 10
96.186862
 20
261.318132
 30
0.0
 10
96.186862
 20
264.493132
 30
0.0
 10
58.086862
 20
264.493132
 30
0.0
 10
58.086862
 20
261.318132
 30
0.0
 10
39.036862
 20
261.318132
 30
0.0
 10
39.036862
 20
264.493132
 30
0.0
 10
10.461862
 20
264.493132
 30
0.0
 10
10.461862
 20
277.193131
 30
0.0
 10
7.286862
 20
277.193131
 30
0.0
  0
LWPOLYLINE
  5
13c
100
AcDbEntity
  8
0
 62
7
100
AcDbPolyline
 90
61
 70
0
 10
2.206862
 20
155.908132
 30
0.0
 10
2.206862
 20
242.268132
 30
0.0
 10
2.256862
 20
243.064132
 30
0.0
 10
2.405862
 20
243.847132
 30
0.0
 10
2.652862
 20
244.606132
 30
0.0
 10
2.991862
 20
245.327130
 30
0.0
 10
3.419862
 20
246.000132
 30
0.0
 10
3.927862
 20
246.615131
 30
0.0
 10
4.508862
 20
247.161132
 30
0.0
 10
5.154862
 20
247.629132
 30
0.0
 10
5.852862
 20
248.014132
 30
0.0
 10
6.594862
 20
248.307132
 30
0.0
 10
7.366862
 20
248.506132
 30
0.0
 10
8.157862
 20
248.605130
 30
0.0
 10
8.556862
 20
248.605130
 30
0.0
 10
8.556862
 20
248.618141
 30
0.0
 10
202.866862
 20
248.618132
 30
0.0
 10
202.866862
 20
248.605122
 30
0.0
 10
203.265862
 20
248.605130
 30
0.0
 10
204.056863
 20
248.506132
 30
0.0
 10
204.828862
 20
248.307132
 30
0.0
 10
205.570861
 20
248.014132
 30
0.0
 10
206.268862
 20
247.629132
 30
0.0
 10
206.914863
 20
247.161132
 30
0.0
 10
207.495862
 20
246.615131
 30
0.0
 10
208.003862
 20
246.000132
 30
0.0
 10
208.431861
 20
245.327130
 30
0.0
 10
208.770863
 20
244.606132
 30
0.0
 10
209.017862
 20
243.847132
 30
0.0
 10
209.166864
 20
243.064132
 30
0.0
 10
209.216862
 20
242.268132
 30
0.0
 10
209.216862
 20
155.908132
 30
0.0
 10
209.166864
 20
155.112133
 30
0.0
 10
209.017862
 20
154.329133
 30
0.0
 10
208.770863
 20
153.570133
 30
0.0
 10
208.431861
 20
152.849131
 30
0.0
 10
208.003862
 20
152.176133
 30
0.0
 10
207.495862
 20
151.561131
 30
0.0
 10
206.914863
 20
151.015133
 30
0.0
 10
206.268862
 20
150.547132
 30
0.0
 10
205.570861
 20
150.162133
 30
0.0
 10
204.828862
 20
149.869133
 30
0.0
 10
204.056863
 20
149.670132
 30
0.0
 10
203.265862
 20
149.571131
 30
0.0
 10
202.866862
 20
149.571131
 30
0.0
 10
202.866862
 20
149.558121
 30
0.0
 10
8.556862
 20
149.558132
 30
0.0
 10
8.556862
 20
149.571143
 30
0.0
 10
8.157862
 20
149.571131
 30
0.0
 10
7.366862
 20
149.670132
 30
0.0
 10
6.594862
 20
149.869133
 30
0.0
 10
5.852862
 20
150.162133
 30
0.0
 10
5.154862
 20
150.547132
 30
0.0
 10
4.508862
 20
151.015133
 30
0.0
 10
3.927862
 20
151.561131
 30
0.0
 10
3.419862
 20
152.176133
 30
0.0
 10
2.991862
 20
152.849131
 30
0.0
 10
2.652862
 20
153.570133
 30
0.0
 10
2.405862
 20
154.329133
 30
0.0
 10
2.256862
 20
155.112133
 30
0.0
 10
2.206862
 20
155.908132
 30
0.0
  0
LWPOLYLINE
  5
13d
100
AcDbEntity
  8
0
 62
7
100
AcDbPolyline
 90
5
 70
0
 10
7.286862
 20
167.338132
 30
0.0
 10
7.286862
 20
186.388132
 30
0.0
 10
10.461862
 20
186.388132
 30
0.0
 10
10.461862
 20
167.338132
 30
0.0
 10
7.286862
 20
167.338132
 30
0.0
  0
LWPOLYLINE
  5
13e
100
AcDbEntity
  8
0
 62
7
100
AcDbPolyline
 90
5
 70
0
 10
7.286862
 20
211.788132
 30
0.0
 10
7.286862
 20
230.838132
 30
0.0
 10
10.461862
 20
230.838132
 30
0.0
 10
10.461862
 20
211.788132
 30
0.0
 10
7.286862
 20
211.788132
 30
0.0
  0
LWPOLYLINE
  5
13f
100
AcDbEntity
  8
0
 62
7
100
AcDbPolyline
 90
51
 70
0
 10
13.433862
 20
162.258132
 30
0.0
 10
13.444863
 20
162.443132
 30
0.0
 10
13.479862
 20
162.624132
 30
0.0
 10
13.536862
 20
162.800132
 30
0.0
 10
13.615862
 20
162.968133
 30
0.0
 10
13.714862
 20
163.124131
 30
0.0
 10
13.832862
 20
163.266131
 30
0.0
 10
13.967862
 20
163.393131
 30
0.0
 10
14.117862
 20
163.502131
 30
0.0
 10
14.279862
 20
163.591133
 30
0.0
 10
14.451862
 20
163.659131
 30
0.0
 10
14.630862
 20
163.705131
 30
0.0
 10
14.813862
 20
163.728132
 30
0.0
 10
14.999862
 20
163.728132
 30
0.0
 10
15.182862
 20
163.705131
 30
0.0
 10
15.361862
 20
163.659131
 30
0.0
 10
15.533862
 20
163.591133
 30
0.0
 10
15.695862
 20
163.502131
 30
0.0
 10
15.845862
 20
163.393131
 30
0.0
 10
15.980862
 20
163.266131
 30
0.0
 10
16.098862
 20
163.124131
 30
0.0
 10
16.197862
 20
162.968133
 30
0.0
 10
16.276862
 20
162.800132
 30
0.0
 10
16.333862
 20
162.624132
 30
0.0
 10
16.368862
 20
162.443132
 30
0.0
 10
16.379863
 20
162.258132
 30
0.0
 10
16.368861
 20
162.073133
 30
0.0
 10
16.333862
 20
161.892132
 30
0.0
 10
16.276862
 20
161.716133
 30
0.0
 10
16.197862
 20
161.548132
 30
0.0
 10
16.098862
 20
161.392131
 30
0.0
 10
15.980862
 20
161.250130
 30
0.0
 10
15.845862
 20
161.123130
 30
0.0
 10
15.695862
 20
161.014131
 30
0.0
 10
15.533862
 20
160.925132
 30
0.0
 10
15.361862
 20
160.857130
 30
0.0
 10
15.182862
 20
160.811131
 30
0.0
 10
14.999862
 20
160.788130
 30
0.0
 10
14.813862
 20
160.788133
 30
0.0
 10
14.630862
 20
160.811134
 30
0.0
 10
14.451862
 20
160.857130
 30
0.0
 10
14.279862
 20
160.925132
 30
0.0
 10
14.117862
 20
161.014131
 30
0.0
 10
13.967862
 20
161.123130
 30
0.0
 10
13.832862
 20
161.250130
 30
0.0
 10
13.714862
 20
161.392131
 30
0.0
 10
13.615862
 20
161.548132
 30
0.0
 10
13.536862
 20
161.716133
 30
0.0
 10
13.479862
 20
161.892132
 30
0.0
 10
13.444862
 20
162.073133
 30
0.0
 10
13.433861
 20
162.258132
 30
0.0
  0
LWPOLYLINE
  5
140
100
AcDbEntity
  8
0
 62
7
100
AcDbPolyline
 90
51
 70
0
 10
13.433862
 20
235.918132
 30
0.0
 10
13.444863
 20
236.103132
 30
0.0
 10
13.479862
 20
236.284132
 30
0.0
 10
13.536862
 20
236.460132
 30
0.0
 10
13.615862
 20
236.628133
 30
0.0
 10
13.714862
 20
236.784131
 30
0.0
 10
13.832862
 20
236.926131
 30
0.0
 10
13.967862
 20
237.053131
 30
0.0
 10
14.117862
 20
237.162131
 30
0.0
 10
14.279862
 20
237.251133
 30
0.0
 10
14.451862
 20
237.319131
 30
0.0
 10
14.630862
 20
237.365131
 30
0.0
 10
14.813862
 20
237.388132
 30
0.0
 10
14.999862
 20
237.388132
 30
0.0
 10
15.182862
 20
237.365131
 30
0.0
 10
15.361862
 20
237.319131
 30
0.0
 10
15.533862
 20
237.251133
 30
0.0
 10
15.695862
 20
237.162131
 30
0.0
 10
15.845862
 20
237.053131
 30
0.0
 10
15.980862
 20
236.926131
 30
0.0
 10
16.098862
 20
236.784131
 30
0.0
 10
16.197862
 20
236.628133
 30
0.0
 10
16.276862
 20
236.460132
 30
0.0
 10
16.333862
 20
236.284132
 30
0.0
 10
16.368862
 20
236.103132
 30
0.0
 10
16.379863
 20
235.918132
 30
0.0
 10
16.368861
 20
235.733133
 30
0.0
 10
16.333862
 20
235.552132
 30
0.0
 10
16.276862
 20
235.376133
 30
0.0
 10
16.197862
 20
235.208132
 30
0.0
 10
16.098862
 20
235.052131
 30
0.0
 10
15.980862
 20
234.910130
 30
0.0
 10
15.845862
 20
234.783130
 30
0.0
 10
15.695862
 20
234.674131
 30
0.0
 10
15.533862
 20
234.585132
 30
0.0
 10
15.361862
 20
234.517130
 30
0.0
 10
15.182862
 20
234.471131
 30
0.0
 10
14.999862
 20
234.448130
 30
0.0
 10
14.813862
 20
234.448133
 30
0.0
 10
14.630862
 20
234.471134
 30
0.0
 10
14.451862
 20
234.517130
 30
0.0
 10
14.279862
 20
234.585132
 30
0.0
 10
14.117862
 20
234.674131
 30
0.0
 10
13.967862
 20
234.783130
 30
0.0
 10
13.832862
 20
234.910130
 30
0.0
 10
13.714862
 20
235.052131
 30
0.0
 10
13.615862
 20
235.208132
 30
0.0
 10
13.536862
 20
235.376133
 30
0.0
 10
13.479862
 20
235.552132
 30
0.0
 10
13.444862
 20
235.733133
 30
0.0
 10
13.433861
 20
235.918132
 30
0.0
  0
LWPOLYLINE
  5
141
100
AcDbEntity
  8
0
 62
7
100
AcDbPolyline
 90
51
 70
0
 10
24.812862
 20
164.163132
 30
0.0
 10
24.824862
 20
164.354132
 30
0.0
 10
24.860862
 20
164.542131
 30
0.0
 10
24.919862
 20
164.724131
 30
0.0
 10
25.001862
 20
164.897133
 30
0.0
 10
25.103862
 20
165.059131
 30
0.0
 10
25.225862
 20
165.206132
 30
0.0
 10
25.365862
 20
165.337132
 30
0.0
 10
25.519862
 20
165.450131
 30
0.0
 10
25.687862
 20
165.542132
 30
0.0
 10
25.865862
 20
165.612132
 30
0.0
 10
26.050862
 20
165.660132
 30
0.0
 10
26.240862
 20
165.684121
 30
0.0
 10
26.432862
 20
165.684132
 30
0.0
 10
26.622862
 20
165.660143
 30
0.0
 10
26.807862
 20
165.612132
 30
0.0
 10
26.985862
 20
165.542132
 30
0.0
 10
27.153862
 20
165.450131
 30
0.0
 10
27.307862
 20
165.337132
 30
0.0
 10
27.447862
 20
165.206132
 30
0.0
 10
27.569862
 20
165.059131
 30
0.0
 10
27.671862
 20
164.897133
 30
0.0
 10
27.753862
 20
164.724131
 30
0.0
 10
27.812862
 20
164.542131
 30
0.0
 10
27.848862
 20
164.354132
 30
0.0
 10
27.860862
 20
164.163132
 30
0.0
 10
27.848862
 20
163.972133
 30
0.0
 10
27.812862
 20
163.784130
 30
0.0
 10
27.753862
 20
163.602131
 30
0.0
 10
27.671862
 20
163.429132
 30
0.0
 10
27.569862
 20
163.267130
 30
0.0
 10
27.447862
 20
163.120132
 30
0.0
 10
27.307862
 20
162.989133
 30
0.0
 10
27.153862
 20
162.876131
 30
0.0
 10
26.985862
 20
162.784132
 30
0.0
 10
26.807862
 20
162.714133
 30
0.0
 10
26.622862
 20
162.666132
 30
0.0
 10
26.432862
 20
162.642144
 30
0.0
 10
26.240862
 20
162.642132
 30
0.0
 10
26.050862
 20
162.666121
 30
0.0
 10
25.865862
 20
162.714133
 30
0.0
 10
25.687862
 20
162.784132
 30
0.0
 10
25.519862
 20
162.876131
 30
0.0
 10
25.365862
 20
162.989133
 30
0.0
 10
25.225862
 20
163.120132
 30
0.0
 10
25.103862
 20
163.267130
 30
0.0
 10
25.001862
 20
163.429132
 30
0.0
 10
24.919862
 20
163.602131
 30
0.0
 10
24.860862
 20
163.784130
 30
0.0
 10
24.824862
 20
163.972133
 30
0.0
 10
24.812862
 20
164.163132
 30
0.0
  0
LWPOLYLINE
  5
142
100
AcDbEntity
  8
0
 62
7
100
AcDbPolyline
 90
51
 70
0
 10
24.812862
 20
234.013132
 30
0.0
 10
24.824862
 20
234.204132
 30
0.0
 10
24.860862
 20
234.392131
 30
0.0
 10
24.919862
 20
234.574131
 30
0.0
 10
25.001862
 20
234.747133
 30
0.0
 10
25.103862
 20
234.909131
 30
0.0
 10
25.225862
 20
235.056132
 30
0.0
 10
25.365862
 20
235.187132
 30
0.0
 10
25.519862
 20
235.300131
 30
0.0
 10
25.687862
 20
235.392132
 30
0.0
 10
25.865862
 20
235.462132
 30
0.0
 10
26.050862
 20
235.510132
 30
0.0
 10
26.240862
 20
235.534121
 30
0.0
 10
26.432862
 20
235.534132
 30
0.0
 10
26.622862
 20
235.510143
 30
0.0
 10
26.807862
 20
235.462132
 30
0.0
 10
26.985862
 20
235.392132
 30
0.0
 10
27.153862
 20
235.300131
 30
0.0
 10
27.307862
 20
235.187132
 30
0.0
 10
27.447862
 20
235.056132
 30
0.0
 10
27.569862
 20
234.909131
 30
0.0
 10
27.671862
 20
234.747133
 30
0.0
 10
27.753862
 20
234.574131
 30
0.0
 10
27.812862
 20
234.392131
 30
0.0
 10
27.848862
 20
234.204132
 30
0.0
 10
27.860862
 20
234.013132
 30
0.0
 10
27.848862
 20
233.822133
 30
0.0
 10
27.812862
 20
233.634130
 30
0.0
 10
27.753862
 20
233.452131
 30
0.0
 10
27.671862
 20
233.279132
 30
0.0
 10
27.569862
 20
233.117130
 30
0.0
 10
27.447862
 20
232.970132
 30
0.0
 10
27.307862
 20
232.839133
 30
0.0
 10
27.153862
 20
232.726131
 30
0.0
 10
26.985862
 20
232.634132
 30
0.0
 10
26.807862
 20
232.564133
 30
0.0
 10
26.622862
 20
232.516132
 30
0.0
 10
26.432862
 20
232.492144
 30
0.0
 10
26.240862
 20
232.492132
 30
0.0
 10
26.050862
 20
232.516121
 30
0.0
 10
25.865862
 20
232.564133
 30
0.0
 10
25.687862
 20
232.634132
 30
0.0
 10
25.519862
 20
232.726131
 30
0.0
 10
25.365862
 20
232.839133
 30
0.0
 10
25.225862
 20
232.970132
 30
0.0
 10
25.103862
 20
233.117130
 30
0.0
 10
25.001862
 20
233.279132
 30
0.0
 10
24.919862
 20
233.452131
 30
0.0
 10
24.860862
 20
233.634130
 30
0.0
 10
24.824862
 20
233.822133
 30
0.0
 10
24.812862
 20
234.013132
 30
0.0
  0
LWPOLYLINE
  5
143
100
AcDbEntity
  8
0
 62
7
100
AcDbPolyline
 90
5
 70
0
 10
39.036862
 20
154.638132
 30
0.0
 10
39.036862
 20
157.813132
 30
0.0
 10
58.086862
 20
157.813132
 30
0.0
 10
58.086862
 20
154.638132
 30
0.0
 10
39.036862
 20
154.638132
 30
0.0
  0
LWPOLYLINE
  5
144
100
AcDbEntity
  8
0
 62
7
100
AcDbPolyline
 90
5
 70
0
 10
39.036862
 20
240.363132
 30
0.0
 10
39.036862
 20
243.538132
 30
0.0
 10
58.086862
 20
243.538132
 30
0.0
 10
58.086862
 20
240.363132
 30
0.0
 10
39.036862
 20
240.363132
 30
0.0
  0
LWPOLYLINE
  5
145
100
AcDbEntity
  8
0
 62
7
100
AcDbPolyline
 90
51
 70
0
 10
75.612862
 20
164.163132
 30
0.0
 10
75.624857
 20
164.354132
 30
0.0
 10
75.660862
 20
164.542131
 30
0.0
 10
75.719861
 20
164.724131
 30
0.0
 10
75.801863
 20
164.897133
 30
0.0
 10
75.903861
 20
165.059131
 30
0.0
 10
76.025863
 20
165.206132
 30
0.0
 10
76.165862
 20
165.337132
 30
0.0
 10
76.319863
 20
165.450131
 30
0.0
 10
76.487861
 20
165.542132
 30
0.0
 10
76.665861
 20
165.612132
 30
0.0
 10
76.850861
 20
165.660132
 30
0.0
 10
77.040861
 20
165.684121
 30
0.0
 10
77.232863
 20
165.684132
 30
0.0
 10
77.422863
 20
165.660143
 30
0.0
 10
77.607863
 20
165.612132
 30
0.0
 10
77.785863
 20
165.542132
 30
0.0
 10
77.953862
 20
165.450131
 30
0.0
 10
78.107862
 20
165.337132
 30
0.0
 10
78.247861
 20
165.206132
 30
0.0
 10
78.369863
 20
165.059131
 30
0.0
 10
78.471863
 20
164.897133
 30
0.0
 10
78.553863
 20
164.724131
 30
0.0
 10
78.612862
 20
164.542131
 30
0.0
 10
78.648862
 20
164.354132
 30
0.0
 10
78.660856
 20
164.163132
 30
0.0
 10
78.648868
 20
163.972133
 30
0.0
 10
78.612862
 20
163.784130
 30
0.0
 10
78.553863
 20
163.602131
 30
0.0
 10
78.471863
 20
163.429132
 30
0.0
 10
78.369863
 20
163.267130
 30
0.0
 10
78.247861
 20
163.120132
 30
0.0
 10
78.107862
 20
162.989133
 30
0.0
 10
77.953862
 20
162.876131
 30
0.0
 10
77.785863
 20
162.784132
 30
0.0
 10
77.607863
 20
162.714133
 30
0.0
 10
77.422863
 20
162.666132
 30
0.0
 10
77.232863
 20
162.642144
 30
0.0
 10
77.040861
 20
162.642132
 30
0.0
 10
76.850861
 20
162.666121
 30
0.0
 10
76.665861
 20
162.714133
 30
0.0
 10
76.487861
 20
162.784132
 30
0.0
 10
76.319863
 20
162.876131
 30
0.0
 10
76.165862
 20
162.989133
 30
0.0
 10
76.025863
 20
163.120132
 30
0.0
 10
75.903861
 20
163.267130
 30
0.0
 10
75.801863
 20
163.429132
 30
0.0
 10
75.719861
 20
163.602131
 30
0.0
 10
75.660862
 20
163.784130
 30
0.0
 10
75.624862
 20
163.972133
 30
0.0
 10
75.612868
 20
164.163132
 30
0.0
  0
LWPOLYLINE
  5
146
100
AcDbEntity
  8
0
 62
7
100
AcDbPolyline
 90
51
 70
0
 10
75.612862
 20
234.013132
 30
0.0
 10
75.624857
 20
234.204132
 30
0.0
 10
75.660862
 20
234.392131
 30
0.0
 10
75.719861
 20
234.574131
 30
0.0
 10
75.801863
 20
234.747133
 30
0.0
 10
75.903861
 20
234.909131
 30
0.0
 10
76.025863
 20
235.056132
 30
0.0
 10
76.165862
 20
235.187132
 30
0.0
 10
76.319863
 20
235.300131
 30
0.0
 10
76.487861
 20
235.392132
 30
0.0
 10
76.665861
 20
235.462132
 30
0.0
 10
76.850861
 20
235.510132
 30
0.0
 10
77.040861
 20
235.534121
 30
0.0
 10
77.232863
 20
235.534132
 30
0.0
 10
77.422863
 20
235.510143
 30
0.0
 10
77.607863
 20
235.462132
 30
0.0
 10
77.785863
 20
235.392132
 30
0.0
 10
77.953862
 20
235.300131
 30
0.0
 10
78.107862
 20
235.187132
 30
0.0
 10
78.247861
 20
235.056132
 30
0.0
 10
78.369863
 20
234.909131
 30
0.0
 10
78.471863
 20
234.747133
 30
0.0
 10
78.553863
 20
234.574131
 30
0.0
 10
78.612862
 20
234.392131
 30
0.0
 10
78.648862
 20
234.204132
 30
0.0
 10
78.660856
 20
234.013132
 30
0.0
 10
78.648868
 20
233.822133
 30
0.0
 10
78.612862
 20
233.634130
 30
0.0
 10
78.553863
 20
233.452131
 30
0.0
 10
78.471863
 20
233.279132
 30
0.0
 10
78.369863
 20
233.117130
 30
0.0
 10
78.247861
 20
232.970132
 30
0.0
 10
78.107862
 20
232.839133
 30
0.0
 10
77.953862
 20
232.726131
 30
0.0
 10
77.785863
 20
232.634132
 30
0.0
 10
77.607863
 20
232.564133
 30
0.0
 10
77.422863
 20
232.516132
 30
0.0
 10
77.232863
 20
232.492144
 30
0.0
 10
77.040861
 20
232.492132
 30
0.0
 10
76.850861
 20
232.516121
 30
0.0
 10
76.665861
 20
232.564133
 30
0.0
 10
76.487861
 20
232.634132
 30
0.0
 10
76.319863
 20
232.726131
 30
0.0
 10
76.165862
 20
232.839133
 30
0.0
 10
76.025863
 20
232.970132
 30
0.0
 10
75.903861
 20
233.117130
 30
0.0
 10
75.801863
 20
233.279132
 30
0.0
 10
75.719861
 20
233.452131
 30
0.0
 10
75.660862
 20
233.634130
 30
0.0
 10
75.624862
 20
233.822133
 30
0.0
 10
75.612868
 20
234.013132
 30
0.0
  0
LWPOLYLINE
  5
147
100
AcDbEntity
  8
0
 62
7
100
AcDbPolyline
 90
5
 70
0
 10
96.186862
 20
154.638132
 30
0.0
 10
96.186862
 20
157.813132
 30
0.0
 10
115.236862
 20
157.813132
 30
0.0
 10
115.236862
 20
154.638132
 30
0.0
 10
96.186862
 20
154.638132
 30
0.0
  0
LWPOLYLINE
  5
148
100
AcDbEntity
  8
0
 62
7
100
AcDbPolyline
 90
5
 70
0
 10
96.186862
 20
240.363132
 30
0.0
 10
96.186862
 20
243.538132
 30
0.0
 10
115.236862
 20
243.538132
 30
0.0
 10
115.236862
 20
240.363132
 30
0.0
 10
96.186862
 20
240.363132
 30
0.0
  0
LWPOLYLINE
  5
149
100
AcDbEntity
  8
0
 62
7
100
AcDbPolyline
 90
51
 70
0
 10
110.537862
 20
164.163132
 30
0.0
 10
110.549857
 20
164.354132
 30
0.0
 10
110.585862
 20
164.542131
 30
0.0
 10
110.644861
 20
164.724131
 30
0.0
 10
110.726863
 20
164.897133
 30
0.0
 10
110.828861
 20
165.059131
 30
0.0
 10
110.950863
 20
165.206132
 30
0.0
 10
111.090862
 20
165.337132
 30
0.0
 10
111.244863
 20
165.450131
 30
0.0
 10
111.412861
 20
165.542132
 30
0.0
 10
111.590861
 20
165.612132
 30
0.0
 10
111.775861
 20
165.660132
 30
0.0
 10
111.965861
 20
165.684121
 30
0.0
 10
112.157863
 20
165.684132
 30
0.0
 10
112.347863
 20
165.660143
 30
0.0
 10
112.532863
 20
165.612132
 30
0.0
 10
112.710863
 20
165.542132
 30
0.0
 10
112.878862
 20
165.450131
 30
0.0
 10
113.032862
 20
165.337132
 30
0.0
 10
113.172861
 20
165.206132
 30
0.0
 10
113.294863
 20
165.059131
 30
0.0
 10
113.396863
 20
164.897133
 30
0.0
 10
113.478863
 20
164.724131
 30
0.0
 10
113.537862
 20
164.542131
 30
0.0
 10
113.573862
 20
164.354132
 30
0.0
 10
113.585856
 20
164.163132
 30
0.0
 10
113.573868
 20
163.972133
 30
0.0
 10
113.537862
 20
163.784130
 30
0.0
 10
113.478863
 20
163.602131
 30
0.0
 10
113.396863
 20
163.429132
 30
0.0
 10
113.294863
 20
163.267130
 30
0.0
 10
113.172861
 20
163.120132
 30
0.0
 10
113.032862
 20
162.989133
 30
0.0
 10
112.878862
 20
162.876131
 30
0.0
 10
112.710863
 20
162.784132
 30
0.0
 10
112.532863
 20
162.714133
 30
0.0
 10
112.347863
 20
162.666132
 30
0.0
 10
112.157863
 20
162.642144
 30
0.0
 10
111.965861
 20
162.642132
 30
0.0
 10
111.775861
 20
162.666121
 30
0.0
 10
111.590861
 20
162.714133
 30
0.0
 10
111.412861
 20
162.784132
 30
0.0
 10
111.244863
 20
162.876131
 30
0.0
 10
111.090862
 20
162.989133
 30
0.0
 10
110.950863
 20
163.120132
 30
0.0
 10
110.828861
 20
163.267130
 30
0.0
 10
110.726863
 20
163.429132
 30
0.0
 10
110.644861
 20
163.602131
 30
0.0
 10
110.585862
 20
163.784130
 30
0.0
 10
110.549862
 20
163.972133
 30
0.0
 10
110.537868
 20
164.163132
 30
0.0
  0
LWPOLYLINE
  5
14a
100
AcDbEntity
  8
0
 62
7
100
AcDbPolyline
 90
51
 70
0
 10
110.537862
 20
189.563132
 30
0.0
 10
110.549857
 20
189.754132
 30
0.0
 10
110.585862
 20
189.942131
 30
0.0
 10
110.644861
 20
190.124131
 30
0.0
 10
110.726863
 20
190.297133
 30
0.0
 10
110.828861
 20
190.459131
 30
0.0
 10
110.950863
 20
190.606132
 30
0.0
 10
111.090862
 20
190.737132
 30
0.0
 10
111.244863
 20
190.850131
 30
0.0
 10
111.412861
 20
190.942132
 30
0.0
 10
111.590861
 20
191.012132
 30
0.0
 10
111.775861
 20
191.060132
 30
0.0
 10
111.965861
 20
191.084121
 30
0.0
 10
112.157863
 20
191.084132
 30
0.0
 10
112.347863
 20
191.060143
 30
0.0
 10
112.532863
 20
191.012132
 30
0.0
 10
112.710863
 20
190.942132
 30
0.0
 10
112.878862
 20
190.850131
 30
0.0
 10
113.032862
 20
190.737132
 30
0.0
 10
113.172861
 20
190.606132
 30
0.0
 10
113.294863
 20
190.459131
 30
0.0
 10
113.396863
 20
190.297133
 30
0.0
 10
113.478863
 20
190.124131
 30
0.0
 10
113.537862
 20
189.942131
 30
0.0
 10
113.573862
 20
189.754132
 30
0.0
 10
113.585856
 20
189.563132
 30
0.0
 10
113.573868
 20
189.372133
 30
0.0
 10
113.537862
 20
189.184130
 30
0.0
 10
113.478863
 20
189.002131
 30
0.0
 10
113.396863
 20
188.829132
 30
0.0
 10
113.294863
 20
188.667130
 30
0.0
 10
113.172861
 20
188.520132
 30
0.0
 10
113.032862
 20
188.389133
 30
0.0
 10
112.878862
 20
188.276131
 30
0.0
 10
112.710863
 20
188.184132
 30
0.0
 10
112.532863
 20
188.114133
 30
0.0
 10
112.347863
 20
188.066132
 30
0.0
 10
112.157863
 20
188.042144
 30
0.0
 10
111.965861
 20
188.042132
 30
0.0
 10
111.775861
 20
188.066121
 30
0.0
 10
111.590861
 20
188.114133
 30
0.0
 10
111.412861
 20
188.184132
 30
0.0
 10
111.244863
 20
188.276131
 30
0.0
 10
111.090862
 20
188.389133
 30
0.0
 10
110.950863
 20
188.520132
 30
0.0
 10
110.828861
 20
188.667130
 30
0.0
 10
110.726863
 20
188.829132
 30
0.0
 10
110.644861
 20
189.002131
 30
0.0
 10
110.585862
 20
189.184130
 30
0.0
 10
110.549862
 20
189.372133
 30
0.0
 10
110.537868
 20
189.563132
 30
0.0
  0
LWPOLYLINE
  5
14b
100
AcDbEntity
  8
0
 62
7
100
AcDbPolyline
 90
5
 70
0
 10
153.336862
 20
154.638132
 30
0.0
 10
153.336862
 20
157.813132
 30
0.0
 10
172.386862
 20
157.813132
 30
0.0
 10
172.386862
 20
154.638132
 30
0.0
 10
153.336862
 20
154.638132
 30
0.0
  0
LWPOLYLINE
  5
14c
100
AcDbEntity
  8
0
 62
7
100
AcDbPolyline
 90
5
 70
0
 10
153.336862
 20
240.363132
 30
0.0
 10
153.336862
 20
243.538132
 30
0.0
 10
172.386862
 20
243.538132
 30
0.0
 10
172.386862
 20
240.363132
 30
0.0
 10
153.336862
 20
240.363132
 30
0.0
  0
LWPOLYLINE
  5
14d
100
AcDbEntity
  8
0
 62
7
100
AcDbPolyline
 90
51
 70
0
 10
161.337862
 20
164.163132
 30
0.0
 10
161.349857
 20
164.354132
 30
0.0
 10
161.385862
 20
164.542131
 30
0.0
 10
161.444861
 20
164.724131
 30
0.0
 10
161.526863
 20
164.897133
 30
0.0
 10
161.628861
 20
165.059131
 30
0.0
 10
161.750863
 20
165.206132
 30
0.0
 10
161.890862
 20
165.337132
 30
0.0
 10
162.044863
 20
165.450131
 30
0.0
 10
162.212861
 20
165.542132
 30
0.0
 10
162.390861
 20
165.612132
 30
0.0
 10
162.575861
 20
165.660132
 30
0.0
 10
162.765861
 20
165.684121
 30
0.0
 10
162.957863
 20
165.684132
 30
0.0
 10
163.147863
 20
165.660143
 30
0.0
 10
163.332863
 20
165.612132
 30
0.0
 10
163.510863
 20
165.542132
 30
0.0
 10
163.678862
 20
165.450131
 30
0.0
 10
163.832862
 20
165.337132
 30
0.0
 10
163.972861
 20
165.206132
 30
0.0
 10
164.094863
 20
165.059131
 30
0.0
 10
164.196863
 20
164.897133
 30
0.0
 10
164.278863
 20
164.724131
 30
0.0
 10
164.337862
 20
164.542131
 30
0.0
 10
164.373862
 20
164.354132
 30
0.0
 10
164.385856
 20
164.163132
 30
0.0
 10
164.373868
 20
163.972133
 30
0.0
 10
164.337862
 20
163.784130
 30
0.0
 10
164.278863
 20
163.602131
 30
0.0
 10
164.196863
 20
163.429132
 30
0.0
 10
164.094863
 20
163.267130
 30
0.0
 10
163.972861
 20
163.120132
 30
0.0
 10
163.832862
 20
162.989133
 30
0.0
 10
163.678862
 20
162.876131
 30
0.0
 10
163.510863
 20
162.784132
 30
0.0
 10
163.332863
 20
162.714133
 30
0.0
 10
163.147863
 20
162.666132
 30
0.0
 10
162.957863
 20
162.642144
 30
0.0
 10
162.765861
 20
162.642132
 30
0.0
 10
162.575861
 20
162.666121
 30
0.0
 10
162.390861
 20
162.714133
 30
0.0
 10
162.212861
 20
162.784132
 30
0.0
 10
162.044863
 20
162.876131
 30
0.0
 10
161.890862
 20
162.989133
 30
0.0
 10
161.750863
 20
163.120132
 30
0.0
 10
161.628861
 20
163.267130
 30
0.0
 10
161.526863
 20
163.429132
 30
0.0
 10
161.444861
 20
163.602131
 30
0.0
 10
161.385862
 20
163.784130
 30
0.0
 10
161.349862
 20
163.972133
 30
0.0
 10
161.337868
 20
164.163132
 30
0.0
  0
LWPOLYLINE
  5
14e
100
AcDbEntity
  8
0
 62
7
100
AcDbPolyline
 90
51
 70
0
 10
161.337862
 20
189.563132
 30
0.0
 10
161.349857
 20
189.754132
 30
0.0
 10
161.385862
 20
189.942131
 30
0.0
 10
161.444861
 20
190.124131
 30
0.0
 10
161.526863
 20
190.297133
 30
0.0
 10
161.628861
 20
190.459131
 30
0.0
 10
161.750863
 20
190.606132
 30
0.0
 10
161.890862
 20
190.737132
 30
0.0
 10
162.044863
 20
190.850131
 30
0.0
 10
162.212861
 20
190.942132
 30
0.0
 10
162.390861
 20
191.012132
 30
0.0
 10
162.575861
 20
191.060132
 30
0.0
 10
162.765861
 20
191.084121
 30
0.0
 10
162.957863
 20
191.084132
 30
0.0
 10
163.147863
 20
191.060143
 30
0.0
 10
163.332863
 20
191.012132
 30
0.0
 10
163.510863
 20
190.942132
 30
0.0
 10
163.678862
 20
190.850131
 30
0.0
 10
163.832862
 20
190.737132
 30
0.0
 10
163.972861
 20
190.606132
 30
0.0
 10
164.094863
 20
190.459131
 30
0.0
 10
164.196863
 20
190.297133
 30
0.0
 10
164.278863
 20
190.124131
 30
0.0
 10
164.337862
 20
189.942131
 30
0.0
 10
164.373862
 20
189.754132
 30
0.0
 10
164.385856
 20
189.563132
 30
0.0
 10
164.373868
 20
189.372133
 30
0.0
 10
164.337862
 20
189.184130
 30
0.0
 10
164.278863
 20
189.002131
 30
0.0
 10
164.196863
 20
188.829132
 30
0.0
 10
164.094863
 20
188.667130
 30
0.0
 10
163.972861
 20
188.520132
 30
0.0
 10
163.832862
 20
188.389133
 30
0.0
 10
163.678862
 20
188.276131
 30
0.0
 10
163.510863
 20
188.184132
 30
0.0
 10
163.332863
 20
188.114133
 30
0.0
 10
163.147863
 20
188.066132
 30
0.0
 10
162.957863
 20
188.042144
 30
0.0
 10
162.765861
 20
188.042132
 30
0.0
 10
162.575861
 20
188.066121
 30
0.0
 10
162.390861
 20
188.114133
 30
0.0
 10
162.212861
 20
188.184132
 30
0.0
 10
162.044863
 20
188.276131
 30
0.0
 10
161.890862
 20
188.389133
 30
0.0
 10
161.750863
 20
188.520132
 30
0.0
 10
161.628861
 20
188.667130
 30
0.0
 10
161.526863
 20
188.829132
 30
0.0
 10
161.444861
 20
189.002131
 30
0.0
 10
161.385862
 20
189.184130
 30
0.0
 10
161.349862
 20
189.372133
 30
0.0
 10
161.337868
 20
189.563132
 30
0.0
  0
LWPOLYLINE
  5
14f
100
AcDbEntity
  8
0
 62
7
100
AcDbPolyline
 90
51
 70
0
 10
195.043862
 20
162.258132
 30
0.0
 10
195.054869
 20
162.443132
 30
0.0
 10
195.089862
 20
162.624132
 30
0.0
 10
195.146862
 20
162.800132
 30
0.0
 10
195.225862
 20
162.968133
 30
0.0
 10
195.324863
 20
163.124131
 30
0.0
 10
195.442863
 20
163.266131
 30
0.0
 10
195.577864
 20
163.393131
 30
0.0
 10
195.727862
 20
163.502131
 30
0.0
 10
195.889863
 20
163.591133
 30
0.0
 10
196.061863
 20
163.659131
 30
0.0
 10
196.240863
 20
163.705131
 30
0.0
 10
196.423861
 20
163.728132
 30
0.0
 10
196.609863
 20
163.728132
 30
0.0
 10
196.792861
 20
163.705131
 30
0.0
 10
196.971864
 20
163.659131
 30
0.0
 10
197.143861
 20
163.591133
 30
0.0
 10
197.305862
 20
163.502131
 30
0.0
 10
197.455863
 20
163.393131
 30
0.0
 10
197.590862
 20
163.266131
 30
0.0
 10
197.708861
 20
163.124131
 30
0.0
 10
197.807862
 20
162.968133
 30
0.0
 10
197.886862
 20
162.800132
 30
0.0
 10
197.943862
 20
162.624132
 30
0.0
 10
197.978863
 20
162.443132
 30
0.0
 10
197.989870
 20
162.258132
 30
0.0
 10
197.978855
 20
162.073133
 30
0.0
 10
197.943862
 20
161.892132
 30
0.0
 10
197.886862
 20
161.716133
 30
0.0
 10
197.807862
 20
161.548132
 30
0.0
 10
197.708861
 20
161.392131
 30
0.0
 10
197.590862
 20
161.250130
 30
0.0
 10
197.455863
 20
161.123130
 30
0.0
 10
197.305862
 20
161.014131
 30
0.0
 10
197.143861
 20
160.925132
 30
0.0
 10
196.971864
 20
160.857130
 30
0.0
 10
196.792861
 20
160.811131
 30
0.0
 10
196.609863
 20
160.788130
 30
0.0
 10
196.423861
 20
160.788133
 30
0.0
 10
196.240863
 20
160.811134
 30
0.0
 10
196.061863
 20
160.857130
 30
0.0
 10
195.889863
 20
160.925132
 30
0.0
 10
195.727862
 20
161.014131
 30
0.0
 10
195.577864
 20
161.123130
 30
0.0
 10
195.442863
 20
161.250130
 30
0.0
 10
195.324863
 20
161.392131
 30
0.0
 10
195.225862
 20
161.548132
 30
0.0
 10
195.146862
 20
161.716133
 30
0.0
 10
195.089862
 20
161.892132
 30
0.0
 10
195.054863
 20
162.073133
 30
0.0
 10
195.043857
 20
162.258132
 30
0.0
  0
LWPOLYLINE
  5
150
100
AcDbEntity
  8
0
 62
7
100
AcDbPolyline
 90
51
 70
0
 10
195.043862
 20
235.918132
 30
0.0
 10
195.054869
 20
236.103132
 30
0.0
 10
195.089862
 20
236.284132
 30
0.0
 10
195.146862
 20
236.460132
 30
0.0
 10
195.225862
 20
236.628133
 30
0.0
 10
195.324863
 20
236.784131
 30
0.0
 10
195.442863
 20
236.926131
 30
0.0
 10
195.577864
 20
237.053131
 30
0.0
 10
195.727862
 20
237.162131
 30
0.0
 10
195.889863
 20
237.251133
 30
0.0
 10
196.061863
 20
237.319131
 30
0.0
 10
196.240863
 20
237.365131
 30
0.0
 10
196.423861
 20
237.388132
 30
0.0
 10
196.609863
 20
237.388132
 30
0.0
 10
196.792861
 20
237.365131
 30
0.0
 10
196.971864
 20
237.319131
 30
0.0
 10
197.143861
 20
237.251133
 30
0.0
 10
197.305862
 20
237.162131
 30
0.0
 10
197.455863
 20
237.053131
 30
0.0
 10
197.590862
 20
236.926131
 30
0.0
 10
197.708861
 20
236.784131
 30
0.0
 10
197.807862
 20
236.628133
 30
0.0
 10
197.886862
 20
236.460132
 30
0.0
 10
197.943862
 20
236.284132
 30
0.0
 10
197.978863
 20
236.103132
 30
0.0
 10
197.989870
 20
235.918132
 30
0.0
 10
197.978855
 20
235.733133
 30
0.0
 10
197.943862
 20
235.552132
 30
0.0
 10
197.886862
 20
235.376133
 30
0.0
 10
197.807862
 20
235.208132
 30
0.0
 10
197.708861
 20
235.052131
 30
0.0
 10
197.590862
 20
234.910130
 30
0.0
 10
197.455863
 20
234.783130
 30
0.0
 10
197.305862
 20
234.674131
 30
0.0
 10
197.143861
 20
234.585132
 30
0.0
 10
196.971864
 20
234.517130
 30
0.0
 10
196.792861
 20
234.471131
 30
0.0
 10
196.609863
 20
234.448130
 30
0.0
 10
196.423861
 20
234.448133
 30
0.0
 10
196.240863
 20
234.471134
 30
0.0
 10
196.061863
 20
234.517130
 30
0.0
 10
195.889863
 20
234.585132
 30
0.0
 10
195.727862
 20
234.674131
 30
0.0
 10
195.577864
 20
234.783130
 30
0.0
 10
195.442863
 20
234.910130
 30
0.0
 10
195.324863
 20
235.052131
 30
0.0
 10
195.225862
 20
235.208132
 30
0.0
 10
195.146862
 20
235.376133
 30
0.0
 10
195.089862
 20
235.552132
 30
0.0
 10
195.054863
 20
235.733133
 30
0.0
 10
195.043857
 20
235.918132
 30
0.0
  0
LWPOLYLINE
  5
151
100
AcDbEntity
  8
0
 62
7
100
AcDbPolyline
 90
5
 70
0
 10
200.961862
 20
167.338132
 30
0.0
 10
200.961862
 20
186.388132
 30
0.0
 10
204.136862
 20
186.388132
 30
0.0
 10
204.136862
 20
167.338132
 30
0.0
 10
200.961862
 20
167.338132
 30
0.0
  0
LWPOLYLINE
  5
152
100
AcDbEntity
  8
0
 62
7
100
AcDbPolyline
 90
5
 70
0
 10
200.961862
 20
211.788132
 30
0.0
 10
200.961862
 20
230.838132
 30
0.0
 10
204.136862
 20
230.838132
 30
0.0
 10
204.136862
 20
211.788132
 30
0.0
 10
200.961862
 20
211.788132
 30
0.0
  0
LWPOLYLINE
  5
153
100
AcDbEntity
  8
0
 62
7
100
AcDbPolyline
 90
29
 70
0
 10
215.687732
 20
232.744010
 30
0.0
 10
215.687732
 20
251.794010
 30
0.0
 10
218.862732
 20
251.794010
 30
0.0
 10
218.862732
 20
277.194010
 30
0.0
 10
215.687732
 20
277.194010
 30
0.0
 10
215.687732
 20
296.244010
 30
0.0
 10
218.862732
 20
296.244010
 30
0.0
 10
218.862732
 20
308.944010
 30
0.0
 10
231.562732
 20
308.944010
 30
0.0
 10
231.562732
 20
305.769010
 30
0.0
 10
244.262732
 20
305.769010
 30
0.0
 10
244.262732
 20
308.944010
 30
0.0
 10
256.962732
 20
308.944010
 30
0.0
 10
256.962732
 20
296.244010
 30
0.0
 10
260.137732
 20
296.244010
 30
0.0
 10
260.137732
 20
277.194010
 30
0.0
 10
256.962732
 20
277.194010
 30
0.0
 10
256.962732
 20
251.794010
 30
0.0
 10
260.137732
 20
251.794010
 30
0.0
 10
260.137732
 20
232.744010
 30
0.0
 10
256.962732
 20
232.744010
 30
0.0
 10
256.962732
 20
220.044010
 30
0.0
 10
244.262732
 20
220.044010
 30
0.0
 10
244.262732
 20
223.219010
 30
0.0
 10
231.562732
 20
223.219010
 30
0.0
 10
231.562732
 20
220.044010
 30
0.0
 10
218.862732
 20
220.044010
 30
0.0
 10
218.862732
 20
232.744010
 30
0.0
 10
215.687732
 20
232.744010
 30
0.0
  0
LWPOLYLINE
  5
154
100
AcDbEntity
  8
0
 62
7
100
AcDbPolyline
 90
37
 70
0
 10
7.286862
 20
108.283132
 30
0.0
 10
7.286862
 20
120.983132
 30
0.0
 10
10.461862
 20
120.983132
 30
0.0
 10
10.461862
 20
133.683132
 30
0.0
 10
39.036862
 20
133.683132
 30
0.0
 10
39.036862
 20
136.858132
 30
0.0
 10
58.086862
 20
136.858132
 30
0.0
 10
58.086862
 20
133.683132
 30
0.0
 10
96.186862
 20
133.683132
 30
0.0
 10
96.186862
 20
136.858132
 30
0.0
 10
115.236862
 20
136.858132
 30
0.0
 10
115.236862
 20
133.683132
 30
0.0
 10
153.336862
 20
133.683132
 30
0.0
 10
153.336862
 20
136.858132
 30
0.0
 10
172.386862
 20
136.858132
 30
0.0
 10
172.386862
 20
133.683132
 30
0.0
 10
200.961862
 20
133.683132
 30
0.0
 10
200.961862
 20
120.983132
 30
0.0
 10
204.136862
 20
120.983132
 30
0.0
 10
204.136862
 20
108.283132
 30
0.0
 10
200.961862
 20
108.283132
 30
0.0
 10
200.961862
 20
95.583132
 30
0.0
 10
172.386862
 20
95.583132
 30
0.0
 10
172.386862
 20
92.408132
 30
0.0
 10
153.336862
 20
92.408132
 30
0.0
 10
153.336862
 20
95.583132
 30
0.0
 10
115.236862
 20
95.583132
 30
0.0
 10
115.236862
 20
92.408132
 30
0.0
 10
96.186862
 20
92.408132
 30
0.0
 10
96.186862
 20
95.583132
 30
0.0
 10
58.086862
 20
95.583132
 30
0.0
 10
58.086862
 20
92.408132
 30
0.0
 10
39.036862
 20
92.408132
 30
0.0
 10
39.036862
 20
95.583132
 30
0.0
 10
10.461862
 20
95.583132
 30
0.0
 10
10.461862
 20
108.283132
 30
0.0
 10
7.286862
 20
108.283132
 30
0.0
  0
LWPOLYLINE
  5
155
100
AcDbEntity
  8
0
 62
7
100
AcDbPolyline
 90
61
 70
0
 10
32.036862
 20
108.363131
 30
0.0
 10
32.036862
 20
118.363131
 30
0.0
 10
32.044877
 20
118.488133
 30
0.0
 10
32.067864
 20
118.612133
 30
0.0
 10
32.106862
 20
118.731132
 30
0.0
 10
32.160862
 20
118.845132
 30
0.0
 10
32.227861
 20
118.951132
 30
0.0
 10
32.307863
 20
119.048132
 30
0.0
 10
32.399862
 20
119.134131
 30
0.0
 10
32.500864
 20
119.207130
 30
0.0
 10
32.610862
 20
119.268133
 30
0.0
 10
32.727863
 20
119.314132
 30
0.0
 10
32.849862
 20
119.345131
 30
0.0
 10
32.973862
 20
119.361133
 30
0.0
 10
33.036863
 20
119.361131
 30
0.0
 10
33.036863
 20
119.363106
 30
0.0
 10
45.036861
 20
119.363132
 30
0.0
 10
45.036861
 20
119.361156
 30
0.0
 10
45.099862
 20
119.361131
 30
0.0
 10
45.223862
 20
119.345129
 30
0.0
 10
45.345861
 20
119.314132
 30
0.0
 10
45.462862
 20
119.268133
 30
0.0
 10
45.572863
 20
119.207130
 30
0.0
 10
45.673862
 20
119.134131
 30
0.0
 10
45.765861
 20
119.048132
 30
0.0
 10
45.845863
 20
118.951132
 30
0.0
 10
45.912862
 20
118.845132
 30
0.0
 10
45.966863
 20
118.731132
 30
0.0
 10
46.005863
 20
118.612133
 30
0.0
 10
46.028864
 20
118.488133
 30
0.0
 10
46.036848
 20
118.363131
 30
0.0
 10
46.036862
 20
108.363131
 30
0.0
 10
46.028875
 20
108.238132
 30
0.0
 10
46.005860
 20
108.114132
 30
0.0
 10
45.966863
 20
107.995133
 30
0.0
 10
45.912862
 20
107.881132
 30
0.0
 10
45.845863
 20
107.775132
 30
0.0
 10
45.765861
 20
107.678133
 30
0.0
 10
45.673862
 20
107.592131
 30
0.0
 10
45.572863
 20
107.519131
 30
0.0
 10
45.462862
 20
107.458132
 30
0.0
 10
45.345861
 20
107.412132
 30
0.0
 10
45.223862
 20
107.381130
 30
0.0
 10
45.099862
 20
107.365128
 30
0.0
 10
45.036861
 20
107.365131
 30
0.0
 10
45.036861
 20
107.363156
 30
0.0
 10
33.036863
 20
107.363133
 30
0.0
 10
33.036863
 20
107.365109
 30
0.0
 10
32.973862
 20
107.365131
 30
0.0
 10
32.849862
 20
107.381133
 30
0.0
 10
32.727863
 20
107.412132
 30
0.0
 10
32.610862
 20
107.458132
 30
0.0
 10
32.500864
 20
107.519131
 30
0.0
 10
32.399862
 20
107.592131
 30
0.0
 10
32.307863
 20
107.678133
 30
0.0
 10
32.227861
 20
107.775132
 30
0.0
 10
32.160862
 20
107.881132
 30
0.0
 10
32.106862
 20
107.995133
 30
0.0
 10
32.067861
 20
108.114132
 30
0.0
 10
32.044860
 20
108.238132
 30
0.0
 10
32.036848
 20
108.363131
 30
0.0
  0
LWPOLYLINE
  5
156
100
AcDbEntity
  8
0
 62
7
100
AcDbPolyline
 90
51
 70
0
 10
57.436862
 20
114.887132
 30
0.0
 10
57.491861
 20
115.764132
 30
0.0
 10
57.656863
 20
116.628133
 30
0.0
 10
57.928863
 20
117.464132
 30
0.0
 10
58.302861
 20
118.259132
 30
0.0
 10
58.773862
 20
119.001131
 30
0.0
 10
59.333861
 20
119.679133
 30
0.0
 10
59.974861
 20
120.281133
 30
0.0
 10
60.685863
 20
120.797131
 30
0.0
 10
61.456864
 20
121.221130
 30
0.0
 10
62.273863
 20
121.544131
 30
0.0
 10
63.124862
 20
121.763132
 30
0.0
 10
63.996864
 20
121.873131
 30
0.0
 10
64.876863
 20
121.873131
 30
0.0
 10
65.748862
 20
121.763132
 30
0.0
 10
66.599861
 20
121.544131
 30
0.0
 10
67.416863
 20
121.221130
 30
0.0
 10
68.187864
 20
120.797131
 30
0.0
 10
68.898863
 20
120.281133
 30
0.0
 10
69.539863
 20
119.679133
 30
0.0
 10
70.099863
 20
119.001131
 30
0.0
 10
70.570863
 20
118.259132
 30
0.0
 10
70.944861
 20
117.464132
 30
0.0
 10
71.216861
 20
116.628133
 30
0.0
 10
71.381863
 20
115.764132
 30
0.0
 10
71.436862
 20
114.887132
 30
0.0
 10
71.381863
 20
114.010132
 30
0.0
 10
71.216861
 20
113.146132
 30
0.0
 10
70.944861
 20
112.310133
 30
0.0
 10
70.570863
 20
111.515133
 30
0.0
 10
70.099863
 20
110.773131
 30
0.0
 10
69.539863
 20
110.095132
 30
0.0
 10
68.898863
 20
109.493132
 30
0.0
 10
68.187864
 20
108.977131
 30
0.0
 10
67.416863
 20
108.553131
 30
0.0
 10
66.599861
 20
108.230131
 30
0.0
 10
65.748862
 20
108.011132
 30
0.0
 10
64.876863
 20
107.901130
 30
0.0
 10
63.996864
 20
107.901130
 30
0.0
 10
63.124862
 20
108.011132
 30
0.0
 10
62.273863
 20
108.230131
 30
0.0
 10
61.456864
 20
108.553131
 30
0.0
 10
60.685863
 20
108.977131
 30
0.0
 10
59.974861
 20
109.493132
 30
0.0
 10
59.333861
 20
110.095132
 30
0.0
 10
58.773862
 20
110.773131
 30
0.0
 10
58.302861
 20
111.515133
 30
0.0
 10
57.928863
 20
112.310133
 30
0.0
 10
57.656863
 20
113.146132
 30
0.0
 10
57.491861
 20
114.010132
 30
0.0
 10
57.436862
 20
114.887132
 30
0.0
  0
LWPOLYLINE
  5
157
100
AcDbEntity
  8
0
 62
7
100
AcDbPolyline
 90
51
 70
0
 10
92.361862
 20
113.363132
 30
0.0
 10
92.416861
 20
114.240132
 30
0.0
 10
92.581863
 20
115.104133
 30
0.0
 10
92.853863
 20
115.940132
 30
0.0
 10
93.227861
 20
116.735132
 30
0.0
 10
93.698862
 20
117.477131
 30
0.0
 10
94.258861
 20
118.155133
 30
0.0
 10
94.899861
 20
118.757133
 30
0.0
 10
95.610863
 20
119.273131
 30
0.0
 10
96.381864
 20
119.697130
 30
0.0
 10
97.198863
 20
120.020131
 30
0.0
 10
98.049862
 20
120.239132
 30
0.0
 10
98.921864
 20
120.349131
 30
0.0
 10
99.801863
 20
120.349131
 30
0.0
 10
100.673862
 20
120.239132
 30
0.0
 10
101.524861
 20
120.020131
 30
0.0
 10
102.341863
 20
119.697130
 30
0.0
 10
103.112864
 20
119.273131
 30
0.0
 10
103.823863
 20
118.757133
 30
0.0
 10
104.464863
 20
118.155133
 30
0.0
 10
105.024863
 20
117.477131
 30
0.0
 10
105.495863
 20
116.735132
 30
0.0
 10
105.869861
 20
115.940132
 30
0.0
 10
106.141861
 20
115.104133
 30
0.0
 10
106.306863
 20
114.240132
 30
0.0
 10
106.361862
 20
113.363132
 30
0.0
 10
106.306863
 20
112.486132
 30
0.0
 10
106.141861
 20
111.622132
 30
0.0
 10
105.869861
 20
110.786133
 30
0.0
 10
105.495863
 20
109.991133
 30
0.0
 10
105.024863
 20
109.249131
 30
0.0
 10
104.464863
 20
108.571132
 30
0.0
 10
103.823863
 20
107.969132
 30
0.0
 10
103.112864
 20
107.453131
 30
0.0
 10
102.341863
 20
107.029131
 30
0.0
 10
101.524861
 20
106.706131
 30
0.0
 10
100.673862
 20
106.487132
 30
0.0
 10
99.801863
 20
106.377130
 30
0.0
 10
98.921864
 20
106.377130
 30
0.0
 10
98.049862
 20
106.487132
 30
0.0
 10
97.198863
 20
106.706131
 30
0.0
 10
96.381864
 20
107.029131
 30
0.0
 10
95.610863
 20
107.453131
 30
0.0
 10
94.899861
 20
107.969132
 30
0.0
 10
94.258861
 20
108.571132
 30
0.0
 10
93.698862
 20
109.249131
 30
0.0
 10
93.227861
 20
109.991133
 30
0.0
 10
92.853863
 20
110.786133
 30
0.0
 10
92.581863
 20
111.622132
 30
0.0
 10
92.416861
 20
112.486132
 30
0.0
 10
92.361862
 20
113.363132
 30
0.0
  0
LWPOLYLINE
  5
158
100
AcDbEntity
  8
0
 62
7
100
AcDbPolyline
 90
51
 70
0
 10
117.761862
 20
113.363132
 30
0.0
 10
117.816861
 20
114.240132
 30
0.0
 10
117.981863
 20
115.104133
 30
0.0
 10
118.253863
 20
115.940132
 30
0.0
 10
118.627861
 20
116.735132
 30
0.0
 10
119.098862
 20
117.477131
 30
0.0
 10
119.658861
 20
118.155133
 30
0.0
 10
120.299861
 20
118.757133
 30
0.0
 10
121.010863
 20
119.273131
 30
0.0
 10
121.781864
 20
119.697130
 30
0.0
 10
122.598863
 20
120.020131
 30
0.0
 10
123.449862
 20
120.239132
 30
0.0
 10
124.321864
 20
120.349131
 30
0.0
 10
125.201863
 20
120.349131
 30
0.0
 10
126.073862
 20
120.239132
 30
0.0
 10
126.924861
 20
120.020131
 30
0.0
 10
127.741863
 20
119.697130
 30
0.0
 10
128.512864
 20
119.273131
 30
0.0
 10
129.223863
 20
118.757133
 30
0.0
 10
129.864863
 20
118.155133
 30
0.0
 10
130.424863
 20
117.477131
 30
0.0
 10
130.895863
 20
116.735132
 30
0.0
 10
131.269861
 20
115.940132
 30
0.0
 10
131.541861
 20
115.104133
 30
0.0
 10
131.706863
 20
114.240132
 30
0.0
 10
131.761862
 20
113.363132
 30
0.0
 10
131.706863
 20
112.486132
 30
0.0
 10
131.541861
 20
111.622132
 30
0.0
 10
131.269861
 20
110.786133
 30
0.0
 10
130.895863
 20
109.991133
 30
0.0
 10
130.424863
 20
109.249131
 30
0.0
 10
129.864863
 20
108.571132
 30
0.0
 10
129.223863
 20
107.969132
 30
0.0
 10
128.512864
 20
107.453131
 30
0.0
 10
127.741863
 20
107.029131
 30
0.0
 10
126.924861
 20
106.706131
 30
0.0
 10
126.073862
 20
106.487132
 30
0.0
 10
125.201863
 20
106.377130
 30
0.0
 10
124.321864
 20
106.377130
 30
0.0
 10
123.449862
 20
106.487132
 30
0.0
 10
122.598863
 20
106.706131
 30
0.0
 10
121.781864
 20
107.029131
 30
0.0
 10
121.010863
 20
107.453131
 30
0.0
 10
120.299861
 20
107.969132
 30
0.0
 10
119.658861
 20
108.571132
 30
0.0
 10
119.098862
 20
109.249131
 30
0.0
 10
118.627861
 20
109.991133
 30
0.0
 10
118.253863
 20
110.786133
 30
0.0
 10
117.981863
 20
111.622132
 30
0.0
 10
117.816861
 20
112.486132
 30
0.0
 10
117.761862
 20
113.363132
 30
0.0
  0
LWPOLYLINE
  5
159
100
AcDbEntity
  8
0
 62
7
100
AcDbPolyline
 90
51
 70
0
 10
143.161862
 20
113.363132
 30
0.0
 10
143.216861
 20
114.240132
 30
0.0
 10
143.381863
 20
115.104133
 30
0.0
 10
143.653863
 20
115.940132
 30
0.0
 10
144.027861
 20
116.735132
 30
0.0
 10
144.498862
 20
117.477131
 30
0.0
 10
145.058861
 20
118.155133
 30
0.0
 10
145.699861
 20
118.757133
 30
0.0
 10
146.410863
 20
119.273131
 30
0.0
 10
147.181864
 20
119.697130
 30
0.0
 10
147.998863
 20
120.020131
 30
0.0
 10
148.849862
 20
120.239132
 30
0.0
 10
149.721864
 20
120.349131
 30
0.0
 10
150.601863
 20
120.349131
 30
0.0
 10
151.473862
 20
120.239132
 30
0.0
 10
152.324861
 20
120.020131
 30
0.0
 10
153.141863
 20
119.697130
 30
0.0
 10
153.912864
 20
119.273131
 30
0.0
 10
154.623863
 20
118.757133
 30
0.0
 10
155.264863
 20
118.155133
 30
0.0
 10
155.824863
 20
117.477131
 30
0.0
 10
156.295863
 20
116.735132
 30
0.0
 10
156.669861
 20
115.940132
 30
0.0
 10
156.941861
 20
115.104133
 30
0.0
 10
157.106863
 20
114.240132
 30
0.0
 10
157.161862
 20
113.363132
 30
0.0
 10
157.106863
 20
112.486132
 30
0.0
 10
156.941861
 20
111.622132
 30
0.0
 10
156.669861
 20
110.786133
 30
0.0
 10
156.295863
 20
109.991133
 30
0.0
 10
155.824863
 20
109.249131
 30
0.0
 10
155.264863
 20
108.571132
 30
0.0
 10
154.623863
 20
107.969132
 30
0.0
 10
153.912864
 20
107.453131
 30
0.0
 10
153.141863
 20
107.029131
 30
0.0
 10
152.324861
 20
106.706131
 30
0.0
 10
151.473862
 20
106.487132
 30
0.0
 10
150.601863
 20
106.377130
 30
0.0
 10
149.721864
 20
106.377130
 30
0.0
 10
148.849862
 20
106.487132
 30
0.0
 10
147.998863
 20
106.706131
 30
0.0
 10
147.181864
 20
107.029131
 30
0.0
 10
146.410863
 20
107.453131
 30
0.0
 10
145.699861
 20
107.969132
 30
0.0
 10
145.058861
 20
108.571132
 30
0.0
 10
144.498862
 20
109.249131
 30
0.0
 10
144.027861
 20
109.991133
 30
0.0
 10
143.653863
 20
110.786133
 30
0.0
 10
143.381863
 20
111.622132
 30
0.0
 10
143.216861
 20
112.486132
 30
0.0
 10
143.161862
 20
113.363132
 30
0.0
  0
LWPOLYLINE
  5
15a
100
AcDbEntity
  8
0
 62
7
100
AcDbPolyline
 90
51
 70
0
 10
168.561862
 20
113.363132
 30
0.0
 10
168.616861
 20
114.240132
 30
0.0
 10
168.781863
 20
115.104133
 30
0.0
 10
169.053863
 20
115.940132
 30
0.0
 10
169.427861
 20
116.735132
 30
0.0
 10
169.898862
 20
117.477131
 30
0.0
 10
170.458861
 20
118.155133
 30
0.0
 10
171.099861
 20
118.757133
 30
0.0
 10
171.810863
 20
119.273131
 30
0.0
 10
172.581864
 20
119.697130
 30
0.0
 10
173.398863
 20
120.020131
 30
0.0
 10
174.249862
 20
120.239132
 30
0.0
 10
175.121864
 20
120.349131
 30
0.0
 10
176.001863
 20
120.349131
 30
0.0
 10
176.873862
 20
120.239132
 30
0.0
 10
177.724861
 20
120.020131
 30
0.0
 10
178.541863
 20
119.697130
 30
0.0
 10
179.312864
 20
119.273131
 30
0.0
 10
180.023863
 20
118.757133
 30
0.0
 10
180.664863
 20
118.155133
 30
0.0
 10
181.224863
 20
117.477131
 30
0.0
 10
181.695863
 20
116.735132
 30
0.0
 10
182.069861
 20
115.940132
 30
0.0
 10
182.341861
 20
115.104133
 30
0.0
 10
182.506863
 20
114.240132
 30
0.0
 10
182.561862
 20
113.363132
 30
0.0
 10
182.506863
 20
112.486132
 30
0.0
 10
182.341861
 20
111.622132
 30
0.0
 10
182.069861
 20
110.786133
 30
0.0
 10
181.695863
 20
109.991133
 30
0.0
 10
181.224863
 20
109.249131
 30
0.0
 10
180.664863
 20
108.571132
 30
0.0
 10
180.023863
 20
107.969132
 30
0.0
 10
179.312864
 20
107.453131
 30
0.0
 10
178.541863
 20
107.029131
 30
0.0
 10
177.724861
 20
106.706131
 30
0.0
 10
176.873862
 20
106.487132
 30
0.0
 10
176.001863
 20
106.377130
 30
0.0
 10
175.121864
 20
106.377130
 30
0.0
 10
174.249862
 20
106.487132
 30
0.0
 10
173.398863
 20
106.706131
 30
0.0
 10
172.581864
 20
107.029131
 30
0.0
 10
171.810863
 20
107.453131
 30
0.0
 10
171.099861
 20
107.969132
 30
0.0
 10
170.458861
 20
108.571132
 30
0.0
 10
169.898862
 20
109.249131
 30
0.0
 10
169.427861
 20
109.991133
 30
0.0
 10
169.053863
 20
110.786133
 30
0.0
 10
168.781863
 20
111.622132
 30
0.0
 10
168.616861
 20
112.486132
 30
0.0
 10
168.561862
 20
113.363132
 30
0.0
  0
LWPOLYLINE
  5
15b
100
AcDbEntity
  8
0
 62
7
100
AcDbPolyline
 90
61
 70
0
 10
2.206862
 20
-13.001865
 30
0.0
 10
2.206862
 20
73.358132
 30
0.0
 10
2.256862
 20
74.154132
 30
0.0
 10
2.405862
 20
74.937132
 30
0.0
 10
2.652862
 20
75.696132
 30
0.0
 10
2.991862
 20
76.417130
 30
0.0
 10
3.419862
 20
77.090132
 30
0.0
 10
3.927862
 20
77.705131
 30
0.0
 10
4.508862
 20
78.251132
 30
0.0
 10
5.154862
 20
78.719132
 30
0.0
 10
5.852862
 20
79.104132
 30
0.0
 10
6.594862
 20
79.397132
 30
0.0
 10
7.366862
 20
79.596132
 30
0.0
 10
8.157862
 20
79.695130
 30
0.0
 10
8.556862
 20
79.695130
 30
0.0
 10
8.556862
 20
79.708141
 30
0.0
 10
202.866862
 20
79.708132
 30
0.0
 10
202.866862
 20
79.695122
 30
0.0
 10
203.265862
 20
79.695130
 30
0.0
 10
204.056863
 20
79.596132
 30
0.0
 10
204.828862
 20
79.397132
 30
0.0
 10
205.570861
 20
79.104132
 30
0.0
 10
206.268862
 20
78.719132
 30
0.0
 10
206.914863
 20
78.251132
 30
0.0
 10
207.495862
 20
77.705131
 30
0.0
 10
208.003862
 20
77.090132
 30
0.0
 10
208.431861
 20
76.417130
 30
0.0
 10
208.770863
 20
75.696132
 30
0.0
 10
209.017862
 20
74.937132
 30
0.0
 10
209.166864
 20
74.154132
 30
0.0
 10
209.216862
 20
73.358132
 30
0.0
 10
209.216862
 20
-13.001865
 30
0.0
 10
209.166864
 20
-13.797873
 30
0.0
 10
209.017862
 20
-14.580870
 30
0.0
 10
208.770863
 20
-15.339878
 30
0.0
 10
208.431861
 20
-16.060872
 30
0.0
 10
208.003862
 20
-16.733859
 30
0.0
 10
207.495862
 20
-17.348877
 30
0.0
 10
206.914863
 20
-17.894864
 30
0.0
 10
206.268862
 20
-18.362874
 30
0.0
 10
205.570861
 20
-18.747881
 30
0.0
 10
204.828862
 20
-19.040856
 30
0.0
 10
204.056863
 20
-19.239879
 30
0.0
 10
203.265862
 20
-19.338854
 30
0.0
 10
202.866862
 20
-19.338854
 30
0.0
 10
202.866862
 20
-19.351837
 30
0.0
 10
8.556862
 20
-19.351865
 30
0.0
 10
8.556862
 20
-19.338883
 30
0.0
 10
8.157862
 20
-19.338854
 30
0.0
 10
7.366862
 20
-19.239879
 30
0.0
 10
6.594862
 20
-19.040856
 30
0.0
 10
5.852862
 20
-18.747881
 30
0.0
 10
5.154862
 20
-18.362874
 30
0.0
 10
4.508862
 20
-17.894864
 30
0.0
 10
3.927862
 20
-17.348877
 30
0.0
 10
3.419862
 20
-16.733859
 30
0.0
 10
2.991862
 20
-16.060872
 30
0.0
 10
2.652862
 20
-15.339878
 30
0.0
 10
2.405862
 20
-14.580870
 30
0.0
 10
2.256862
 20
-13.797873
 30
0.0
 10
2.206862
 20
-13.001865
 30
0.0
  0
LWPOLYLINE
  5
15c
100
AcDbEntity
  8
0
 62
7
100
AcDbPolyline
 90
5
 70
0
 10
7.286862
 20
-1.571865
 30
0.0
 10
7.286862
 20
17.478135
 30
0.0
 10
10.461862
 20
17.478135
 30
0.0
 10
10.461862
 20
-1.571865
 30
0.0
 10
7.286862
 20
-1.571865
 30
0.0
  0
LWPOLYLINE
  5
15d
100
AcDbEntity
  8
0
 62
7
100
AcDbPolyline
 90
5
 70
0
 10
7.286862
 20
42.878132
 30
0.0
 10
7.286862
 20
61.928132
 30
0.0
 10
10.461862
 20
61.928132
 30
0.0
 10
10.461862
 20
42.878132
 30
0.0
 10
7.286862
 20
42.878132
 30
0.0
  0
LWPOLYLINE
  5
15e
100
AcDbEntity
  8
0
 62
7
100
AcDbPolyline
 90
13
 70
0
 10
13.433862
 20
-6.651865
 30
0.0
 10
13.444863
 20
-6.466868
 30
0.0
 10
13.479862
 20
-6.285879
 30
0.0
 10
13.536862
 20
-6.109857
 30
0.0
 10
13.615862
 20
-5.941878
 30
0.0
 10
13.714862
 20
-5.785866
 30
0.0
 10
13.832862
 20
-5.643880
 30
0.0
 10
13.967862
 20
-5.516880
 30
0.0
 10
14.117862
 20
-5.407858
 30
0.0
 10
14.279862
 20
-5.318873
 30
0.0
 10
14.451862
 20
-5.250857
 30
0.0
 10
14.630862
 20
-5.204855
 30
0.0
 10
14.813862
 20
-5.181995
 30
0.0
  0
LWPOLYLINE
  5
15f
100
AcDbEntity
  8
0
 62
7
100
AcDbPolyline
 90
3
 70
0
 10
14.813862
 20
-5.181882
 30
0.0
 10
14.999862
 20
-5.181882
 30
0.0
 10
15.182862
 20
-5.204742
 30
0.0
  0
LWPOLYLINE
  5
160
100
AcDbEntity
  8
0
 62
7
100
AcDbPolyline
 90
24
 70
0
 10
15.182862
 20
-5.204855
 30
0.0
 10
15.361862
 20
-5.250857
 30
0.0
 10
15.533862
 20
-5.318873
 30
0.0
 10
15.695862
 20
-5.407858
 30
0.0
 10
15.845862
 20
-5.516880
 30
0.0
 10
15.980862
 20
-5.643880
 30
0.0
 10
16.098862
 20
-5.785866
 30
0.0
 10
16.197862
 20
-5.941878
 30
0.0
 10
16.276862
 20
-6.109857
 30
0.0
 10
16.333862
 20
-6.285879
 30
0.0
 10
16.368862
 20
-6.466868
 30
0.0
 10
16.379863
 20
-6.651865
 30
0.0
 10
16.368861
 20
-6.836862
 30
0.0
 10
16.333862
 20
-7.017879
 30
0.0
 10
16.276862
 20
-7.193873
 30
0.0
 10
16.197862
 20
-7.361880
 30
0.0
 10
16.098862
 20
-7.517864
 30
0.0
 10
15.980862
 20
-7.659878
 30
0.0
 10
15.845862
 20
-7.786878
 30
0.0
 10
15.695862
 20
-7.895872
 30
0.0
 10
15.533862
 20
-7.984857
 30
0.0
 10
15.361862
 20
-8.052872
 30
0.0
 10
15.182862
 20
-8.098875
 30
0.0
 10
14.999862
 20
-8.122017
 30
0.0
  0
LWPOLYLINE
  5
161
100
AcDbEntity
  8
0
 62
7
100
AcDbPolyline
 90
3
 70
0
 10
14.999862
 20
-8.121876
 30
0.0
 10
14.813862
 20
-8.121876
 30
0.0
 10
14.630862
 20
-8.098734
 30
0.0
  0
LWPOLYLINE
  5
162
100
AcDbEntity
  8
0
 62
7
100
AcDbPolyline
 90
12
 70
0
 10
14.630862
 20
-8.098875
 30
0.0
 10
14.451862
 20
-8.052872
 30
0.0
 10
14.279862
 20
-7.984857
 30
0.0
 10
14.117862
 20
-7.895872
 30
0.0
 10
13.967862
 20
-7.786878
 30
0.0
 10
13.832862
 20
-7.659878
 30
0.0
 10
13.714862
 20
-7.517864
 30
0.0
 10
13.615862
 20
-7.361880
 30
0.0
 10
13.536862
 20
-7.193873
 30
0.0
 10
13.479862
 20
-7.017879
 30
0.0
 10
13.444862
 20
-6.836862
 30
0.0
 10
13.433861
 20
-6.651865
 30
0.0
  0
LWPOLYLINE
  5
163
100
AcDbEntity
  8
0
 62
7
100
AcDbPolyline
 90
51
 70
0
 10
13.433862
 20
67.008132
 30
0.0
 10
13.444863
 20
67.193132
 30
0.0
 10
13.479862
 20
67.374132
 30
0.0
 10
13.536862
 20
67.550132
 30
0.0
 10
13.615862
 20
67.718133
 30
0.0
 10
13.714862
 20
67.874131
 30
0.0
 10
13.832862
 20
68.016131
 30
0.0
 10
13.967862
 20
68.143131
 30
0.0
 10
14.117862
 20
68.252131
 30
0.0
 10
14.279862
 20
68.341133
 30
0.0
 10
14.451862
 20
68.409131
 30
0.0
 10
14.630862
 20
68.455131
 30
0.0
 10
14.813862
 20
68.478132
 30
0.0
 10
14.999862
 20
68.478132
 30
0.0
 10
15.182862
 20
68.455131
 30
0.0
 10
15.361862
 20
68.409131
 30
0.0
 10
15.533862
 20
68.341133
 30
0.0
 10
15.695862
 20
68.252131
 30
0.0
 10
15.845862
 20
68.143131
 30
0.0
 10
15.980862
 20
68.016131
 30
0.0
 10
16.098862
 20
67.874131
 30
0.0
 10
16.197862
 20
67.718133
 30
0.0
 10
16.276862
 20
67.550132
 30
0.0
 10
16.333862
 20
67.374132
 30
0.0
 10
16.368862
 20
67.193132
 30
0.0
 10
16.379863
 20
67.008132
 30
0.0
 10
16.368861
 20
66.823133
 30
0.0
 10
16.333862
 20
66.642132
 30
0.0
 10
16.276862
 20
66.466133
 30
0.0
 10
16.197862
 20
66.298132
 30
0.0
 10
16.098862
 20
66.142131
 30
0.0
 10
15.980862
 20
66.000130
 30
0.0
 10
15.845862
 20
65.873130
 30
0.0
 10
15.695862
 20
65.764131
 30
0.0
 10
15.533862
 20
65.675132
 30
0.0
 10
15.361862
 20
65.607130
 30
0.0
 10
15.182862
 20
65.561131
 30
0.0
 10
14.999862
 20
65.538130
 30
0.0
 10
14.813862
 20
65.538133
 30
0.0
 10
14.630862
 20
65.561134
 30
0.0
 10
14.451862
 20
65.607130
 30
0.0
 10
14.279862
 20
65.675132
 30
0.0
 10
14.117862
 20
65.764131
 30
0.0
 10
13.967862
 20
65.873130
 30
0.0
 10
13.832862
 20
66.000130
 30
0.0
 10
13.714862
 20
66.142131
 30
0.0
 10
13.615862
 20
66.298132
 30
0.0
 10
13.536862
 20
66.466133
 30
0.0
 10
13.479862
 20
66.642132
 30
0.0
 10
13.444862
 20
66.823133
 30
0.0
 10
13.433861
 20
67.008132
 30
0.0
  0
LWPOLYLINE
  5
164
100
AcDbEntity
  8
0
 62
7
100
AcDbPolyline
 90
5
 70
0
 10
39.036862
 20
-14.271865
 30
0.0
 10
39.036862
 20
-11.096865
 30
0.0
 10
58.086862
 20
-11.096865
 30
0.0
 10
58.086862
 20
-14.271865
 30
0.0
 10
39.036862
 20
-14.271865
 30
0.0
  0
LWPOLYLINE
  5
165
100
AcDbEntity
  8
0
 62
7
100
AcDbPolyline
 90
5
 70
0
 10
39.036862
 20
71.453132
 30
0.0
 10
39.036862
 20
74.628132
 30
0.0
 10
58.086862
 20
74.628132
 30
0.0
 10
58.086862
 20
71.453132
 30
0.0
 10
39.036862
 20
71.453132
 30
0.0
  0
LWPOLYLINE
  5
166
100
AcDbEntity
  8
0
 62
7
100
AcDbPolyline
 90
5
 70
0
 10
96.186862
 20
-14.271865
 30
0.0
 10
96.186862
 20
-11.096865
 30
0.0
 10
115.236862
 20
-11.096865
 30
0.0
 10
115.236862
 20
-14.271865
 30
0.0
 10
96.186862
 20
-14.271865
 30
0.0
  0
LWPOLYLINE
  5
167
100
AcDbEntity
  8
0
 62
7
100
AcDbPolyline
 90
5
 70
0
 10
96.186862
 20
71.453132
 30
0.0
 10
96.186862
 20
74.628132
 30
0.0
 10
115.236862
 20
74.628132
 30
0.0
 10
115.236862
 20
71.453132
 30
0.0
 10
96.186862
 20
71.453132
 30
0.0
  0
LWPOLYLINE
  5
168
100
AcDbEntity
  8
0
 62
7
100
AcDbPolyline
 90
5
 70
0
 10
153.336862
 20
-14.271865
 30
0.0
 10
153.336862
 20
-11.096865
 30
0.0
 10
172.386862
 20
-11.096865
 30
0.0
 10
172.386862
 20
-14.271865
 30
0.0
 10
153.336862
 20
-14.271865
 30
0.0
  0
LWPOLYLINE
  5
169
100
AcDbEntity
  8
0
 62
7
100
AcDbPolyline
 90
5
 70
0
 10
153.336862
 20
71.453132
 30
0.0
 10
153.336862
 20
74.628132
 30
0.0
 10
172.386862
 20
74.628132
 30
0.0
 10
172.386862
 20
71.453132
 30
0.0
 10
153.336862
 20
71.453132
 30
0.0
  0
LWPOLYLINE
  5
16a
100
AcDbEntity
  8
0
 62
7
100
AcDbPolyline
 90
13
 70
0
 10
195.043862
 20
-6.651865
 30
0.0
 10
195.054869
 20
-6.466868
 30
0.0
 10
195.089862
 20
-6.285879
 30
0.0
 10
195.146862
 20
-6.109857
 30
0.0
 10
195.225862
 20
-5.941878
 30
0.0
 10
195.324863
 20
-5.785866
 30
0.0
 10
195.442863
 20
-5.643880
 30
0.0
 10
195.577864
 20
-5.516880
 30
0.0
 10
195.727862
 20
-5.407858
 30
0.0
 10
195.889863
 20
-5.318873
 30
0.0
 10
196.061863
 20
-5.250857
 30
0.0
 10
196.240863
 20
-5.204855
 30
0.0
 10
196.423861
 20
-5.181995
 30
0.0
  0
LWPOLYLINE
  5
16b
100
AcDbEntity
  8
0
 62
7
100
AcDbPolyline
 90
3
 70
0
 10
196.423861
 20
-5.181882
 30
0.0
 10
196.609863
 20
-5.181882
 30
0.0
 10
196.792861
 20
-5.204742
 30
0.0
  0
LWPOLYLINE
  5
16c
100
AcDbEntity
  8
0
 62
7
100
AcDbPolyline
 90
24
 70
0
 10
196.792861
 20
-5.204855
 30
0.0
 10
196.971864
 20
-5.250857
 30
0.0
 10
197.143861
 20
-5.318873
 30
0.0
 10
197.305862
 20
-5.407858
 30
0.0
 10
197.455863
 20
-5.516880
 30
0.0
 10
197.590862
 20
-5.643880
 30
0.0
 10
197.708861
 20
-5.785866
 30
0.0
 10
197.807862
 20
-5.941878
 30
0.0
 10
197.886862
 20
-6.109857
 30
0.0
 10
197.943862
 20
-6.285879
 30
0.0
 10
197.978863
 20
-6.466868
 30
0.0
 10
197.989870
 20
-6.651865
 30
0.0
 10
197.978855
 20
-6.836862
 30
0.0
 10
197.943862
 20
-7.017879
 30
0.0
 10
197.886862
 20
-7.193873
 30
0.0
 10
197.807862
 20
-7.361880
 30
0.0
 10
197.708861
 20
-7.517864
 30
0.0
 10
197.590862
 20
-7.659878
 30
0.0
 10
197.455863
 20
-7.786878
 30
0.0
 10
197.305862
 20
-7.895872
 30
0.0
 10
197.143861
 20
-7.984857
 30
0.0
 10
196.971864
 20
-8.052872
 30
0.0
 10
196.792861
 20
-8.098875
 30
0.0
 10
196.609863
 20
-8.122017
 30
0.0
  0
LWPOLYLINE
  5
16d
100
AcDbEntity
  8
0
 62
7
100
AcDbPolyline
 90
3
 70
0
 10
196.609863
 20
-8.121876
 30
0.0
 10
196.423861
 20
-8.121876
 30
0.0
 10
196.240863
 20
-8.098734
 30
0.0
  0
LWPOLYLINE
  5
16e
100
AcDbEntity
  8
0
 62
7
100
AcDbPolyline
 90
12
 70
0
 10
196.240863
 20
-8.098875
 30
0.0
 10
196.061863
 20
-8.052872
 30
0.0
 10
195.889863
 20
-7.984857
 30
0.0
 10
195.727862
 20
-7.895872
 30
0.0
 10
195.577864
 20
-7.786878
 30
0.0
 10
195.442863
 20
-7.659878
 30
0.0
 10
195.324863
 20
-7.517864
 30
0.0
 10
195.225862
 20
-7.361880
 30
0.0
 10
195.146862
 20
-7.193873
 30
0.0
 10
195.089862
 20
-7.017879
 30
0.0
 10
195.054863
 20
-6.836862
 30
0.0
 10
195.043857
 20
-6.651865
 30
0.0
  0
LWPOLYLINE
  5
16f
100
AcDbEntity
  8
0
 62
7
100
AcDbPolyline
 90
51
 70
0
 10
195.043862
 20
67.008132
 30
0.0
 10
195.054869
 20
67.193132
 30
0.0
 10
195.089862
 20
67.374132
 30
0.0
 10
195.146862
 20
67.550132
 30
0.0
 10
195.225862
 20
67.718133
 30
0.0
 10
195.324863
 20
67.874131
 30
0.0
 10
195.442863
 20
68.016131
 30
0.0
 10
195.577864
 20
68.143131
 30
0.0
 10
195.727862
 20
68.252131
 30
0.0
 10
195.889863
 20
68.341133
 30
0.0
 10
196.061863
 20
68.409131
 30
0.0
 10
196.240863
 20
68.455131
 30
0.0
 10
196.423861
 20
68.478132
 30
0.0
 10
196.609863
 20
68.478132
 30
0.0
 10
196.792861
 20
68.455131
 30
0.0
 10
196.971864
 20
68.409131
 30
0.0
 10
197.143861
 20
68.341133
 30
0.0
 10
197.305862
 20
68.252131
 30
0.0
 10
197.455863
 20
68.143131
 30
0.0
 10
197.590862
 20
68.016131
 30
0.0
 10
197.708861
 20
67.874131
 30
0.0
 10
197.807862
 20
67.718133
 30
0.0
 10
197.886862
 20
67.550132
 30
0.0
 10
197.943862
 20
67.374132
 30
0.0
 10
197.978863
 20
67.193132
 30
0.0
 10
197.989870
 20
67.008132
 30
0.0
 10
197.978855
 20
66.823133
 30
0.0
 10
197.943862
 20
66.642132
 30
0.0
 10
197.886862
 20
66.466133
 30
0.0
 10
197.807862
 20
66.298132
 30
0.0
 10
197.708861
 20
66.142131
 30
0.0
 10
197.590862
 20
66.000130
 30
0.0
 10
197.455863
 20
65.873130
 30
0.0
 10
197.305862
 20
65.764131
 30
0.0
 10
197.143861
 20
65.675132
 30
0.0
 10
196.971864
 20
65.607130
 30
0.0
 10
196.792861
 20
65.561131
 30
0.0
 10
196.609863
 20
65.538130
 30
0.0
 10
196.423861
 20
65.538133
 30
0.0
 10
196.240863
 20
65.561134
 30
0.0
 10
196.061863
 20
65.607130
 30
0.0
 10
195.889863
 20
65.675132
 30
0.0
 10
195.727862
 20
65.764131
 30
0.0
 10
195.577864
 20
65.873130
 30
0.0
 10
195.442863
 20
66.000130
 30
0.0
 10
195.324863
 20
66.142131
 30
0.0
 10
195.225862
 20
66.298132
 30
0.0
 10
195.146862
 20
66.466133
 30
0.0
 10
195.089862
 20
66.642132
 30
0.0
 10
195.054863
 20
66.823133
 30
0.0
 10
195.043857
 20
67.008132
 30
0.0
  0
LWPOLYLINE
  5
170
100
AcDbEntity
  8
0
 62
7
100
AcDbPolyline
 90
5
 70
0
 10
200.961862
 20
-1.571865
 30
0.0
 10
200.961862
 20
17.478135
 30
0.0
 10
204.136862
 20
17.478135
 30
0.0
 10
204.136862
 20
-1.571865
 30
0.0
 10
200.961862
 20
-1.571865
 30
0.0
  0
LWPOLYLINE
  5
171
100
AcDbEntity
  8
0
 62
7
100
AcDbPolyline
 90
5
 70
0
 10
200.961862
 20
42.878132
 30
0.0
 10
200.961862
 20
61.928132
 30
0.0
 10
204.136862
 20
61.928132
 30
0.0
 10
204.136862
 20
42.878132
 30
0.0
 10
200.961862
 20
42.878132
 30
0.0
  0
ENDSEC
  0
SECTION
  2
OBJECTS
  0
DICTIONARY
  5
C
330
0
100
AcDbDictionary
  3
ACAD_GROUP
350
D
  3
ACAD_MLINESTYLE
350
17
  0
DICTIONARY
  5
D
330
C
100
AcDbDictionary
  0
DICTIONARY
  5
1A
330
C
100
AcDbDictionary
  0
DICTIONARY
  5
17
330
C
100
AcDbDictionary
  3
STANDARD
350
18
  0
DICTIONARY
  5
19
330
C
100
AcDbDictionary
  0
ENDSEC
  0
EOF
