999
dxfrw 0.5.10
0
SECTION
2
HEADER
9
$ACADVER
1
AC1021
9
$HANDSEED
5
20000
9
$DWGCODEPAGE
3
ANSI_1252
9
$INSBASE
10
0
20
0
30
0
9
$EXTMIN
10
0
20
0
30
0
9
$EXTMAX
10
35
20
24
30
0
9
$LIMMIN
10
0
20
0
9
$LIMMAX
10
420
20
297
9
$ORTHOMODE
70
0
9
$LTSCALE
40
1
9
$TEXTSTYLE
7
STANDARD
9
$CLAYER
8
engrave
9
$DIMASZ
40
0.25
9
$DIMLFAC
40
1
9
$DIMSCALE
40
1
9
$DIMEXO
40
0.025
9
$DIMEXE
40
0.05
9
$DIMTXT
40
0.5
9
$DIMTSZ
40
0
9
$DIMAUNIT
70
0
9
$DIMADEC
70
2
9
$DIMLUNIT
70
2
9
$DIMSTYLE
2
Standard
9
$DIMGAP
40
0.025
9
$DIMTIH
70
0
9
$LUNITS
70
2
9
$LUPREC
70
4
9
$AUNITS
70
0
9
$AUPREC
70
2
9
$SPLINESEGS
70
8
9
$GRIDMODE
70
1
9
$SNAPSTYLE
70
0
9
$GRIDUNIT
10
0
20
0
9
$PINSBASE
10
0
20
0
30
0
9
$PLIMMIN
10
0
20
0
9
$PLIMMAX
10
1.98632572e-05
20
2.80924e-05
9
$INSUNITS
70
1
9
$PSVPSCALE
40
1
0
ENDSEC
0
SECTION
2
CLASSES
0
ENDSEC
0
SECTION
2
TABLES
0
TABLE
2
VPORT
5
8
330
0
100
AcDbSymbolTable
70
1
0
VPORT
5
31
330
2
100
AcDbSymbolTableRecord
100
AcDbViewportTableRecord
2
*ACTIVE
70
0
10
0
20
0
11
1
21
1
12
2.95375614743
22
8.85094964352
13
0
23
0
14
10
24
10
15
10
25
10
16
0
26
0
36
1
17
0
27
0
37
0
40
3.93146233073
41
1.81102362205
42
50
43
0
44
0
50
0
51
0
71
0
72
100
73
1
74
3
75
0
76
1
77
0
78
0
281
0
65
1
110
0
120
0
130
0
111
1
121
0
131
0
112
0
122
1
132
0
79
0
146
0
348
10020
60
7
61
5
292
1
282
1
141
0
142
0
63
250
421
3358443
0
ENDTAB
0
TABLE
2
LTYPE
5
5
330
0
100
AcDbSymbolTable
70
4
0
LTYPE
5
14
330
5
100
AcDbSymbolTableRecord
100
AcDbLinetypeTableRecord
2
ByBlock
70
0
3

72
65
73
0
40
0
0
LTYPE
5
15
330
5
100
AcDbSymbolTableRecord
100
AcDbLinetypeTableRecord
2
ByLayer
70
0
3

72
65
73
0
40
0
0
LTYPE
5
16
330
5
100
AcDbSymbolTableRecord
100
AcDbLinetypeTableRecord
2
Continuous
70
0
3
Solid line
72
65
73
0
40
0
0
LTYPE
5
32
330
5
100
AcDbSymbolTableRecord
100
AcDbLinetypeTableRecord
2
DOT
70
0
3
Dot . . . . . . . . . . . . . . . . . . . . . .
72
65
73
2
40
6.35
49
0
74
0
49
-6.35
74
0
0
LTYPE
5
33
330
5
100
AcDbSymbolTableRecord
100
AcDbLinetypeTableRecord
2
DOT2
70
0
3
Dot (.5x) .....................................
72
65
73
2
40
3.175
49
0
74
0
49
-3.175
74
0
0
LTYPE
5
34
330
5
100
AcDbSymbolTableRecord
100
AcDbLinetypeTableRecord
2
DOTX2
70
0
3
Dot (2x) .  .  .  .  .  .  .  .  .  .  .  .  .
72
65
73
2
40
12.7
49
0
74
0
49
-12.7
74
0
0
LTYPE
5
35
330
5
100
AcDbSymbolTableRecord
100
AcDbLinetypeTableRecord
2
DASHED
70
0
3
Dot . . . . . . . . . . . . . . . . . . . . . .
72
65
73
2
40
19.05
49
12.7
74
0
49
-6.35
74
0
0
LTYPE
5
36
330
5
100
AcDbSymbolTableRecord
100
AcDbLinetypeTableRecord
2
DASHED2
70
0
3
Dashed (.5x) _ _ _ _ _ _ _ _ _ _ _ _ _ _ _ _ _
72
65
73
2
40
9.525
49
6.35
74
0
49
-3.175
74
0
0
LTYPE
5
37
330
5
100
AcDbSymbolTableRecord
100
AcDbLinetypeTableRecord
2
DASHEDX2
70
0
3
Dashed (2x) ____  ____  ____  ____  ____  ___
72
65
73
2
40
38.1
49
25.4
74
0
49
-12.7
74
0
0
LTYPE
5
38
330
5
100
AcDbSymbolTableRecord
100
AcDbLinetypeTableRecord
2
DASHDOT
70
0
3
Dash dot __ . __ . __ . __ . __ . __ . __ . __
72
65
73
4
40
25.4
49
12.7
74
0
49
-6.35
74
0
49
0
74
0
49
-6.35
74
0
0
LTYPE
5
39
330
5
100
AcDbSymbolTableRecord
100
AcDbLinetypeTableRecord
2
DASHDOT2
70
0
3
Dash dot (.5x) _._._._._._._._._._._._._._._.
72
65
73
4
40
12.7
49
6.35
74
0
49
-3.175
74
0
49
0
74
0
49
-3.175
74
0
0
LTYPE
5
3A
330
5
100
AcDbSymbolTableRecord
100
AcDbLinetypeTableRecord
2
DASHDOTX2
70
0
3
Dash dot (2x) ____  .  ____  .  ____  .  ___
72
65
73
4
40
50.8
49
25.4
74
0
49
-12.7
74
0
49
0
74
0
49
-12.7
74
0
0
LTYPE
5
3B
330
5
100
AcDbSymbolTableRecord
100
AcDbLinetypeTableRecord
2
DIVIDE
70
0
3
Divide ____ . . ____ . . ____ . . ____ . . ____
72
65
73
6
40
31.75
49
12.7
74
0
49
-6.35
74
0
49
0
74
0
49
-6.35
74
0
49
0
74
0
49
-6.35
74
0
0
LTYPE
5
3C
330
5
100
AcDbSymbolTableRecord
100
AcDbLinetypeTableRecord
2
DIVIDE2
70
0
3
Divide (.5x) __..__..__..__..__..__..__..__.._
72
65
73
6
40
15.875
49
6.35
74
0
49
-3.175
74
0
49
0
74
0
49
-3.175
74
0
49
0
74
0
49
-3.175
74
0
0
LTYPE
5
3D
330
5
100
AcDbSymbolTableRecord
100
AcDbLinetypeTableRecord
2
DIVIDEX2
70
0
3
Divide (2x) ________  .  .  ________  .  .  _
72
65
73
6
40
63.5
49
25.4
74
0
49
-12.7
74
0
49
0
74
0
49
-12.7
74
0
49
0
74
0
49
-12.7
74
0
0
LTYPE
5
3E
330
5
100
AcDbSymbolTableRecord
100
AcDbLinetypeTableRecord
2
BORDER
70
0
3
Border __ __ . __ __ . __ __ . __ __ . __ __ .
72
65
73
6
40
44.45
49
12.7
74
0
49
-6.35
74
0
49
12.7
74
0
49
-6.35
74
0
49
0
74
0
49
-6.35
74
0
0
LTYPE
5
3F
330
5
100
AcDbSymbolTableRecord
100
AcDbLinetypeTableRecord
2
BORDER2
70
0
3
Border (.5x) __.__.__.__.__.__.__.__.__.__.__.
72
65
73
6
40
22.225
49
6.35
74
0
49
-3.175
74
0
49
6.35
74
0
49
-3.175
74
0
49
0
74
0
49
-3.175
74
0
0
LTYPE
5
40
330
5
100
AcDbSymbolTableRecord
100
AcDbLinetypeTableRecord
2
BORDERX2
70
0
3
Border (2x) ____  ____  .  ____  ____  .  ___
72
65
73
6
40
88.9
49
25.4
74
0
49
-12.7
74
0
49
25.4
74
0
49
-12.7
74
0
49
0
74
0
49
-12.7
74
0
0
LTYPE
5
41
330
5
100
AcDbSymbolTableRecord
100
AcDbLinetypeTableRecord
2
CENTER
70
0
3
Center ____ _ ____ _ ____ _ ____ _ ____ _ ____
72
65
73
4
40
50.8
49
31.75
74
0
49
-6.35
74
0
49
6.35
74
0
49
-6.35
74
0
0
LTYPE
5
42
330
5
100
AcDbSymbolTableRecord
100
AcDbLinetypeTableRecord
2
CENTER2
70
0
3
Center (.5x) ___ _ ___ _ ___ _ ___ _ ___ _ ___
72
65
73
4
40
28.575
49
19.05
74
0
49
-3.175
74
0
49
3.175
74
0
49
-3.175
74
0
0
LTYPE
5
43
330
5
100
AcDbSymbolTableRecord
100
AcDbLinetypeTableRecord
2
CENTERX2
70
0
3
Center (2x) ________  __  ________  __  _____
72
65
73
4
40
101.6
49
63.5
74
0
49
-12.7
74
0
49
12.7
74
0
49
-12.7
74
0
0
ENDTAB
0
TABLE
2
LAYER
5
2
330
0
100
AcDbSymbolTable
70
1
0
LAYER
5
10
330
2
100
AcDbSymbolTableRecord
100
AcDbLayerTableRecord
2
0
70
0
62
7
6
CONTINUOUS
370
-3
390
F
0
LAYER
5
44
330
2
100
AcDbSymbolTableRecord
100
AcDbLayerTableRecord
2
vector
70
0
62
3
6
CONTINUOUS
370
0
390
F
0
LAYER
5
45
330
2
100
AcDbSymbolTableRecord
100
AcDbLayerTableRecord
2
engrave
70
0
62
2
6
CONTINUOUS
370
0
390
F
0
LAYER
5
46
330
2
100
AcDbSymbolTableRecord
100
AcDbLayerTableRecord
2
dimension
70
0
62
253
420
10526884
6
CONTINUOUS
370
0
390
F
0
LAYER
5
47
330
2
100
AcDbSymbolTableRecord
100
AcDbLayerTableRecord
2
material
70
0
62
4
6
CONTINUOUS
370
0
390
F
0
LAYER
5
48
330
2
100
AcDbSymbolTableRecord
100
AcDbLayerTableRecord
2
lasercutter
70
0
62
5
6
CONTINUOUS
370
0
390
F
0
ENDTAB
0
TABLE
2
STYLE
5
3
330
0
100
AcDbSymbolTable
70
3
0
STYLE
5
49
330
2
100
AcDbSymbolTableRecord
100
AcDbTextStyleTableRecord
2
Standard
70
0
40
0
41
1
50
0
71
0
42
1
3
txt
4

0
ENDTAB
0
TABLE
2
VIEW
5
6
330
0
100
AcDbSymbolTable
70
0
0
ENDTAB
0
TABLE
2
UCS
5
7
330
0
100
AcDbSymbolTable
70
0
0
ENDTAB
0
TABLE
2
APPID
5
9
330
0
100
AcDbSymbolTable
70
1
0
APPID
5
12
330
9
100
AcDbSymbolTableRecord
100
AcDbRegAppTableRecord
2
ACAD
70
0
0
ENDTAB
0
TABLE
2
DIMSTYLE
5
A
330
0
100
AcDbSymbolTable
70
1
100
AcDbDimStyleTable
71
1
0
DIMSTYLE
105
4A
330
A
100
AcDbSymbolTableRecord
100
AcDbDimStyleTableRecord
2
Standard
70
0
40
1
41
0.25
42
0.025
43
0.38
44
0.05
45
0
46
0
47
0
48
0
140
0.5
141
0.09
142
0
143
25.4
144
1
145
0
146
1
147
0.025
148
0
71
0
72
0
73
0
74
1
75
0
76
0
77
0
78
0
79
0
170
0
171
2
172
0
173
0
174
0
175
0
176
0
177
0
178
0
179
0
271
4
272
4
273
2
274
2
275
0
276
0
277
2
278
46
279
0
280
0
281
0
282
0
283
1
284
0
285
0
286
0
288
0
289
3
340
Standard
341

371
-2
372
-2
0
ENDTAB
0
TABLE
2
BLOCK_RECORD
5
1
330
0
100
AcDbSymbolTable
70
2
0
BLOCK_RECORD
5
1F
330
1
100
AcDbSymbolTableRecord
100
AcDbBlockTableRecord
2
*Model_Space
70
0
280
1
281
0
0
BLOCK_RECORD
5
1E
330
1
100
AcDbSymbolTableRecord
100
AcDbBlockTableRecord
2
*Paper_Space
70
0
280
1
281
0
0
ENDTAB
0
ENDSEC
0
SECTION
2
BLOCKS
0
BLOCK
5
20
330
1F
100
AcDbEntity
8
0
100
AcDbBlockBegin
2
*Model_Space
70
0
10
0
20
0
30
0
3
*Model_Space
1

0
ENDBLK
5
21
330
1F
100
AcDbEntity
8
0
100
AcDbBlockEnd
0
BLOCK
5
1C
330
1B
100
AcDbEntity
8
0
100
AcDbBlockBegin
2
*Paper_Space
70
0
10
0
20
0
30
0
3
*Paper_Space
1

0
ENDBLK
5
1D
330
1F
100
AcDbEntity
8
0
100
AcDbBlockEnd
0
ENDSEC
0
SECTION
2
ENTITIES
0
LINE
5
4B
100
AcDbEntity
8
lasercutter
6
ByLayer
62
256
370
-1
100
AcDbLine
10
0
20
0
11
35
21
0
0
LINE
5
4C
100
AcDbEntity
8
lasercutter
6
ByLayer
62
256
370
-1
100
AcDbLine
10
35
20
0
11
35
21
23
0
LINE
5
4D
100
AcDbEntity
8
lasercutter
6
ByLayer
62
256
370
-1
100
AcDbLine
10
35
20
23
11
0
21
23
0
LINE
5
4E
100
AcDbEntity
8
lasercutter
6
ByLayer
62
256
370
-1
100
AcDbLine
10
0
20
23
11
0
21
0
0
LINE
5
4F
100
AcDbEntity
8
material
6
ByLayer
62
256
370
-1
100
AcDbLine
10
0
20
0
11
9
21
0
0
LINE
5
50
100
AcDbEntity
8
material
6
ByLayer
62
256
370
-1
100
AcDbLine
10
9
20
24
11
0
21
24
0
LINE
5
51
100
AcDbEntity
8
material
6
ByLayer
62
256
370
-1
100
AcDbLine
10
0
20
24
11
0
21
0
0
LINE
5
52
100
AcDbEntity
8
material
6
ByLayer
62
256
370
-1
100
AcDbLine
10
0
20
0
11
18
21
0
0
LINE
5
53
100
AcDbEntity
8
material
6
ByLayer
62
256
370
-1
100
AcDbLine
10
18
20
0
11
18
21
6.5
0
LINE
5
54
100
AcDbEntity
8
material
6
ByLayer
62
256
370
-1
100
AcDbLine
10
0
20
6.5
11
0
21
0
0
LINE
5
55
100
AcDbEntity
8
material
6
ByLayer
62
256
370
-1
100
AcDbLine
10
18
20
6.5
11
9
21
6.5
0
LINE
5
56
100
AcDbEntity
8
material
6
ByLayer
62
256
370
-1
100
AcDbLine
10
9
20
6.5
11
9
21
24
0
LINE
5
57
100
AcDbEntity
8
vector
6
ByLayer
62
256
370
-1
100
AcDbLine
10
0.561687480315
20
1.11291870079
11
0.561687480315
21
1.86291870079
0
LINE
5
58
100
AcDbEntity
8
vector
6
ByLayer
62
256
370
-1
100
AcDbLine
10
0.561687480315
20
1.86291870079
11
0.686687480315
21
1.86291870079
0
LINE
5
59
100
AcDbEntity
8
vector
6
ByLayer
62
256
370
-1
100
AcDbLine
10
0.686687480315
20
1.86291870079
11
0.686687480315
21
1.11291870079
0
LINE
5
5A
100
AcDbEntity
8
vector
6
ByLayer
62
256
370
-1
100
AcDbLine
10
0.686687480315
20
1.11291870079
11
0.561687480315
21
1.11291870079
0
LINE
5
5B
100
AcDbEntity
8
vector
6
ByLayer
62
256
370
-1
100
AcDbLine
10
0.561687480315
20
2.86291858268
11
0.561687480315
21
3.61291858268
0
LINE
5
5C
100
AcDbEntity
8
vector
6
ByLayer
62
256
370
-1
100
AcDbLine
10
0.561687480315
20
3.61291858268
11
0.686687480315
21
3.61291858268
0
LINE
5
5D
100
AcDbEntity
8
vector
6
ByLayer
62
256
370
-1
100
AcDbLine
10
0.686687480315
20
3.61291858268
11
0.686687480315
21
2.86291858268
0
LINE
5
5E
100
AcDbEntity
8
vector
6
ByLayer
62
256
370
-1
100
AcDbLine
10
0.686687480315
20
2.86291858268
11
0.561687480315
21
2.86291858268
0
LINE
5
5F
100
AcDbEntity
8
vector
6
ByLayer
62
256
370
-1
100
AcDbLine
10
1.81168748031
20
0.612918700787
11
1.81168748031
21
0.737918700787
0
LINE
5
60
100
AcDbEntity
8
vector
6
ByLayer
62
256
370
-1
100
AcDbLine
10
1.81168748031
20
0.737918700787
11
2.56168748031
21
0.737918700787
0
LINE
5
61
100
AcDbEntity
8
vector
6
ByLayer
62
256
370
-1
100
AcDbLine
10
2.56168748031
20
0.737918700787
11
2.56168748031
21
0.612918700787
0
LINE
5
62
100
AcDbEntity
8
vector
6
ByLayer
62
256
370
-1
100
AcDbLine
10
2.56168748031
20
0.612918700787
11
1.81168748031
21
0.612918700787
0
LINE
5
63
100
AcDbEntity
8
vector
6
ByLayer
62
256
370
-1
100
AcDbLine
10
1.81168748031
20
3.98791858268
11
1.81168748031
21
4.11291858268
0
LINE
5
64
100
AcDbEntity
8
vector
6
ByLayer
62
256
370
-1
100
AcDbLine
10
1.81168748031
20
4.11291858268
11
2.56168748031
21
4.11291858268
0
LINE
5
65
100
AcDbEntity
8
vector
6
ByLayer
62
256
370
-1
100
AcDbLine
10
2.56168748031
20
4.11291858268
11
2.56168748031
21
3.98791858268
0
LINE
5
66
100
AcDbEntity
8
vector
6
ByLayer
62
256
370
-1
100
AcDbLine
10
2.56168748031
20
3.98791858268
11
1.81168748031
21
3.98791858268
0
LINE
5
67
100
AcDbEntity
8
vector
6
ByLayer
62
256
370
-1
100
AcDbLine
10
4.06168748031
20
0.612918700787
11
4.06168748031
21
0.737918700787
0
LINE
5
68
100
AcDbEntity
8
vector
6
ByLayer
62
256
370
-1
100
AcDbLine
10
4.06168748031
20
0.737918700787
11
4.81168748031
21
0.737918700787
0
LINE
5
69
100
AcDbEntity
8
vector
6
ByLayer
62
256
370
-1
100
AcDbLine
10
4.81168748031
20
0.737918700787
11
4.81168748031
21
0.612918700787
0
LINE
5
6A
100
AcDbEntity
8
vector
6
ByLayer
62
256
370
-1
100
AcDbLine
10
4.81168748031
20
0.612918700787
11
4.06168748031
21
0.612918700787
0
LINE
5
6B
100
AcDbEntity
8
vector
6
ByLayer
62
256
370
-1
100
AcDbLine
10
4.06168748031
20
3.98791858268
11
4.06168748031
21
4.11291858268
0
LINE
5
6C
100
AcDbEntity
8
vector
6
ByLayer
62
256
370
-1
100
AcDbLine
10
4.06168748031
20
4.11291858268
11
4.81168748031
21
4.11291858268
0
LINE
5
6D
100
AcDbEntity
8
vector
6
ByLayer
62
256
370
-1
100
AcDbLine
10
4.81168748031
20
4.11291858268
11
4.81168748031
21
3.98791858268
0
LINE
5
6E
100
AcDbEntity
8
vector
6
ByLayer
62
256
370
-1
100
AcDbLine
10
4.81168748031
20
3.98791858268
11
4.06168748031
21
3.98791858268
0
LINE
5
6F
100
AcDbEntity
8
vector
6
ByLayer
62
256
370
-1
100
AcDbLine
10
6.31168748031
20
0.612918700787
11
6.31168748031
21
0.737918700787
0
LINE
5
70
100
AcDbEntity
8
vector
6
ByLayer
62
256
370
-1
100
AcDbLine
10
6.31168748031
20
0.737918700787
11
7.06168748031
21
0.737918700787
0
LINE
5
71
100
AcDbEntity
8
vector
6
ByLayer
62
256
370
-1
100
AcDbLine
10
7.06168748031
20
0.737918700787
11
7.06168748031
21
0.612918700787
0
LINE
5
72
100
AcDbEntity
8
vector
6
ByLayer
62
256
370
-1
100
AcDbLine
10
7.06168748031
20
0.612918700787
11
6.31168748031
21
0.612918700787
0
LINE
5
73
100
AcDbEntity
8
vector
6
ByLayer
62
256
370
-1
100
AcDbLine
10
6.31168748031
20
3.98791858268
11
6.31168748031
21
4.11291858268
0
LINE
5
74
100
AcDbEntity
8
vector
6
ByLayer
62
256
370
-1
100
AcDbLine
10
6.31168748031
20
4.11291858268
11
7.06168748031
21
4.11291858268
0
LINE
5
75
100
AcDbEntity
8
vector
6
ByLayer
62
256
370
-1
100
AcDbLine
10
7.06168748031
20
4.11291858268
11
7.06168748031
21
3.98791858268
0
LINE
5
76
100
AcDbEntity
8
vector
6
ByLayer
62
256
370
-1
100
AcDbLine
10
7.06168748031
20
3.98791858268
11
6.31168748031
21
3.98791858268
0
LINE
5
77
100
AcDbEntity
8
vector
6
ByLayer
62
256
370
-1
100
AcDbLine
10
8.18668748031
20
1.11291870079
11
8.18668748031
21
1.86291870079
0
LINE
5
78
100
AcDbEntity
8
vector
6
ByLayer
62
256
370
-1
100
AcDbLine
10
8.18668748031
20
1.86291870079
11
8.31168748031
21
1.86291870079
0
LINE
5
79
100
AcDbEntity
8
vector
6
ByLayer
62
256
370
-1
100
AcDbLine
10
8.31168748031
20
1.86291870079
11
8.31168748031
21
1.11291870079
0
LINE
5
7A
100
AcDbEntity
8
vector
6
ByLayer
62
256
370
-1
100
AcDbLine
10
8.31168748031
20
1.11291870079
11
8.18668748031
21
1.11291870079
0
LINE
5
7B
100
AcDbEntity
8
vector
6
ByLayer
62
256
370
-1
100
AcDbLine
10
8.18668748031
20
2.86291858268
11
8.18668748031
21
3.61291858268
0
LINE
5
7C
100
AcDbEntity
8
vector
6
ByLayer
62
256
370
-1
100
AcDbLine
10
8.18668748031
20
3.61291858268
11
8.31168748031
21
3.61291858268
0
LINE
5
7D
100
AcDbEntity
8
vector
6
ByLayer
62
256
370
-1
100
AcDbLine
10
8.31168748031
20
3.61291858268
11
8.31168748031
21
2.86291858268
0
LINE
5
7E
100
AcDbEntity
8
vector
6
ByLayer
62
256
370
-1
100
AcDbLine
10
8.31168748031
20
2.86291858268
11
8.18668748031
21
2.86291858268
0
CIRCLE
5
7F
100
AcDbEntity
8
vector
6
ByLayer
62
256
370
-1
100
AcDbCircle
10
0.861693248098
20
3.81291814684
40
0.0579940772035
0
CIRCLE
5
80
100
AcDbEntity
8
vector
6
ByLayer
62
256
370
-1
100
AcDbCircle
10
8.01169362091
20
3.81292094796
40
0.0579930201587
0
CIRCLE
5
81
100
AcDbEntity
8
vector
6
ByLayer
62
256
370
-1
100
AcDbCircle
10
8.01169042079
20
0.912916477161
40
0.0580028196236
0
CIRCLE
5
82
100
AcDbEntity
8
vector
6
ByLayer
62
256
370
-1
100
AcDbCircle
10
0.861681984031
20
0.912910421761
40
0.0579976622283
0
ARC
5
83
100
AcDbEntity
8
vector
6
ByLayer
62
256
370
-1
100
AcDbCircle
10
8.2617274513
20
4.06295855367
40
0.249960032203
100
AcDbArc
50
359.990837858
51
90.0091621415
0
ARC
5
84
100
AcDbEntity
8
vector
6
ByLayer
62
256
370
-1
100
AcDbCircle
10
8.26170170614
20
0.662905577248
40
0.249985774502
100
AcDbArc
50
269.996739491
51
360.003007865
0
ARC
5
85
100
AcDbEntity
8
vector
6
ByLayer
62
256
370
-1
100
AcDbCircle
10
0.61165070017
20
0.662881920642
40
0.249963222561
100
AcDbArc
50
179.991569371
51
270.008430629
0
ARC
5
86
100
AcDbEntity
8
vector
6
ByLayer
62
256
370
-1
100
AcDbCircle
10
0.611676512884
20
4.06292990442
40
0.249989032826
100
AcDbArc
50
89.9974863397
51
180.002594867
0
LINE
5
87
100
AcDbEntity
8
vector
6
ByLayer
62
256
370
-1
100
AcDbLine
10
0.611687480315
20
4.31291893701
11
8.26168748031
21
4.31291858268
0
LINE
5
88
100
AcDbEntity
8
vector
6
ByLayer
62
256
370
-1
100
AcDbLine
10
8.51168748031
20
4.06291858267
11
8.5116874803
21
0.662918700788
0
LINE
5
89
100
AcDbEntity
8
vector
6
ByLayer
62
256
370
-1
100
AcDbLine
10
8.2616874803
20
0.412919803151
11
0.611687480317
21
0.412918700787
0
LINE
5
8A
100
AcDbEntity
8
vector
6
ByLayer
62
256
370
-1
100
AcDbLine
10
0.361687480315
20
0.662918700789
11
0.361687480315
21
4.06291858267
0
LINE
5
8B
100
AcDbEntity
8
vector
6
ByLayer
62
256
370
-1
100
AcDbLine
10
9.47559055118
20
0.669881889764
11
9.47559055118
21
0.544881889764
0
LINE
5
8C
100
AcDbEntity
8
vector
6
ByLayer
62
256
370
-1
100
AcDbLine
10
8.85059055118
20
1.04488188976
11
8.85059055118
21
1.79488188976
0
LINE
5
8D
100
AcDbEntity
8
vector
6
ByLayer
62
256
370
-1
100
AcDbLine
10
8.85059055118
20
1.79488188976
11
8.97559055118
21
1.79488188976
0
LINE
5
8E
100
AcDbEntity
8
vector
6
ByLayer
62
256
370
-1
100
AcDbLine
10
8.97559055118
20
1.79488188976
11
8.97559055118
21
2.79488188976
0
LINE
5
8F
100
AcDbEntity
8
vector
6
ByLayer
62
256
370
-1
100
AcDbLine
10
8.97559055118
20
2.79488188976
11
8.85059055118
21
2.79488188976
0
LINE
5
90
100
AcDbEntity
8
vector
6
ByLayer
62
256
370
-1
100
AcDbLine
10
8.85059055118
20
2.79488188976
11
8.85059055118
21
3.54488188976
0
LINE
5
91
100
AcDbEntity
8
vector
6
ByLayer
62
256
370
-1
100
AcDbLine
10
8.85059055118
20
3.54488188976
11
8.97559055118
21
3.54488188976
0
LINE
5
92
100
AcDbEntity
8
vector
6
ByLayer
62
256
370
-1
100
AcDbLine
10
8.97559055118
20
3.54488188976
11
8.97559055118
21
4.04488188976
0
LINE
5
93
100
AcDbEntity
8
vector
6
ByLayer
62
256
370
-1
100
AcDbLine
10
8.97559055118
20
4.04488188976
11
9.47559055118
21
4.04488188976
0
LINE
5
94
100
AcDbEntity
8
vector
6
ByLayer
62
256
370
-1
100
AcDbLine
10
9.47559055118
20
4.04488188976
11
9.47559055118
21
3.91988188976
0
LINE
5
95
100
AcDbEntity
8
vector
6
ByLayer
62
256
370
-1
100
AcDbLine
10
9.47559055118
20
3.91988188976
11
9.97559055118
21
3.91988188976
0
LINE
5
96
100
AcDbEntity
8
vector
6
ByLayer
62
256
370
-1
100
AcDbLine
10
9.97559055118
20
3.91988188976
11
9.97559055118
21
4.04488188976
0
LINE
5
97
100
AcDbEntity
8
vector
6
ByLayer
62
256
370
-1
100
AcDbLine
10
9.97559055118
20
4.04488188976
11
10.4755905512
21
4.04488188976
0
LINE
5
98
100
AcDbEntity
8
vector
6
ByLayer
62
256
370
-1
100
AcDbLine
10
10.4755905512
20
4.04488188976
11
10.4755905512
21
3.54488188976
0
LINE
5
99
100
AcDbEntity
8
vector
6
ByLayer
62
256
370
-1
100
AcDbLine
10
10.4755905512
20
3.54488188976
11
10.6005905512
21
3.54488188976
0
LINE
5
9A
100
AcDbEntity
8
vector
6
ByLayer
62
256
370
-1
100
AcDbLine
10
10.6005905512
20
3.54488188976
11
10.6005905512
21
2.79488188976
0
LINE
5
9B
100
AcDbEntity
8
vector
6
ByLayer
62
256
370
-1
100
AcDbLine
10
10.6005905512
20
2.79488188976
11
10.4755905512
21
2.79488188976
0
LINE
5
9C
100
AcDbEntity
8
vector
6
ByLayer
62
256
370
-1
100
AcDbLine
10
10.4755905512
20
2.79488188976
11
10.4755905512
21
1.79488188976
0
LINE
5
9D
100
AcDbEntity
8
vector
6
ByLayer
62
256
370
-1
100
AcDbLine
10
10.4755905512
20
1.79488188976
11
10.6005905512
21
1.79488188976
0
LINE
5
9E
100
AcDbEntity
8
vector
6
ByLayer
62
256
370
-1
100
AcDbLine
10
10.6005905512
20
1.79488188976
11
10.6005905512
21
1.04488188976
0
LINE
5
9F
100
AcDbEntity
8
vector
6
ByLayer
62
256
370
-1
100
AcDbLine
10
10.6005905512
20
1.04488188976
11
10.4755905512
21
1.04488188976
0
LINE
5
A0
100
AcDbEntity
8
vector
6
ByLayer
62
256
370
-1
100
AcDbLine
10
10.4755905512
20
1.04488188976
11
10.4755905512
21
0.544881889764
0
LINE
5
A1
100
AcDbEntity
8
vector
6
ByLayer
62
256
370
-1
100
AcDbLine
10
10.4755905512
20
0.544881889764
11
9.97559055118
21
0.544881889764
0
LINE
5
A2
100
AcDbEntity
8
vector
6
ByLayer
62
256
370
-1
100
AcDbLine
10
9.97559055118
20
0.544881889764
11
9.97559055118
21
0.669881889764
0
LINE
5
A3
100
AcDbEntity
8
vector
6
ByLayer
62
256
370
-1
100
AcDbLine
10
9.97559055118
20
0.669881889764
11
9.47559055118
21
0.669881889764
0
LINE
5
A4
100
AcDbEntity
8
vector
6
ByLayer
62
256
370
-1
100
AcDbLine
10
9.47559055118
20
0.669881889764
11
9.47559055118
21
0.544881889764
0
LINE
5
A5
100
AcDbEntity
8
vector
6
ByLayer
62
256
370
-1
100
AcDbLine
10
9.47559055118
20
0.544881889764
11
8.97559055118
21
0.544881889764
0
LINE
5
A6
100
AcDbEntity
8
vector
6
ByLayer
62
256
370
-1
100
AcDbLine
10
8.97559055118
20
0.544881889764
11
8.97559055118
21
1.04488188976
0
LINE
5
A7
100
AcDbEntity
8
vector
6
ByLayer
62
256
370
-1
100
AcDbLine
10
8.97559055118
20
1.04488188976
11
8.85059055118
21
1.04488188976
0
LINE
5
A8
100
AcDbEntity
8
vector
6
ByLayer
62
256
370
-1
100
AcDbLine
10
10.875
20
1
11
10.875
21
1.75
0
LINE
5
A9
100
AcDbEntity
8
vector
6
ByLayer
62
256
370
-1
100
AcDbLine
10
10.875
20
1.75
11
11
21
1.75
0
LINE
5
AA
100
AcDbEntity
8
vector
6
ByLayer
62
256
370
-1
100
AcDbLine
10
11
20
1.75
11
11
21
2.75
0
LINE
5
AB
100
AcDbEntity
8
vector
6
ByLayer
62
256
370
-1
100
AcDbLine
10
11
20
2.75
11
10.875
21
2.75
0
LINE
5
AC
100
AcDbEntity
8
vector
6
ByLayer
62
256
370
-1
100
AcDbLine
10
10.875
20
2.75
11
10.875
21
3.5
0
LINE
5
AD
100
AcDbEntity
8
vector
6
ByLayer
62
256
370
-1
100
AcDbLine
10
10.875
20
3.5
11
11
21
3.5
0
LINE
5
AE
100
AcDbEntity
8
vector
6
ByLayer
62
256
370
-1
100
AcDbLine
10
11
20
3.5
11
11
21
4
0
LINE
5
AF
100
AcDbEntity
8
vector
6
ByLayer
62
256
370
-1
100
AcDbLine
10
11
20
4
11
11.5
21
4
0
LINE
5
B0
100
AcDbEntity
8
vector
6
ByLayer
62
256
370
-1
100
AcDbLine
10
11.5
20
4
11
11.5
21
3.875
0
LINE
5
B1
100
AcDbEntity
8
vector
6
ByLayer
62
256
370
-1
100
AcDbLine
10
11.5
20
3.875
11
12
21
3.875
0
LINE
5
B2
100
AcDbEntity
8
vector
6
ByLayer
62
256
370
-1
100
AcDbLine
10
12
20
3.875
11
12
21
4
0
LINE
5
B3
100
AcDbEntity
8
vector
6
ByLayer
62
256
370
-1
100
AcDbLine
10
12
20
4
11
12.5
21
4
0
LINE
5
B4
100
AcDbEntity
8
vector
6
ByLayer
62
256
370
-1
100
AcDbLine
10
12.5
20
4
11
12.5
21
3.5
0
LINE
5
B5
100
AcDbEntity
8
vector
6
ByLayer
62
256
370
-1
100
AcDbLine
10
12.5
20
3.5
11
12.625
21
3.5
0
LINE
5
B6
100
AcDbEntity
8
vector
6
ByLayer
62
256
370
-1
100
AcDbLine
10
12.625
20
3.5
11
12.625
21
2.75
0
LINE
5
B7
100
AcDbEntity
8
vector
6
ByLayer
62
256
370
-1
100
AcDbLine
10
12.625
20
2.75
11
12.5
21
2.75
0
LINE
5
B8
100
AcDbEntity
8
vector
6
ByLayer
62
256
370
-1
100
AcDbLine
10
12.5
20
2.75
11
12.5
21
1.75
0
LINE
5
B9
100
AcDbEntity
8
vector
6
ByLayer
62
256
370
-1
100
AcDbLine
10
12.5
20
1.75
11
12.625
21
1.75
0
LINE
5
BA
100
AcDbEntity
8
vector
6
ByLayer
62
256
370
-1
100
AcDbLine
10
12.625
20
1.75
11
12.625
21
1
0
LINE
5
BB
100
AcDbEntity
8
vector
6
ByLayer
62
256
370
-1
100
AcDbLine
10
12.625
20
1
11
12.5
21
1
0
LINE
5
BC
100
AcDbEntity
8
vector
6
ByLayer
62
256
370
-1
100
AcDbLine
10
12.5
20
1
11
12.5
21
0.5
0
LINE
5
BD
100
AcDbEntity
8
vector
6
ByLayer
62
256
370
-1
100
AcDbLine
10
12.5
20
0.5
11
12
21
0.5
0
LINE
5
BE
100
AcDbEntity
8
vector
6
ByLayer
62
256
370
-1
100
AcDbLine
10
12
20
0.5
11
12
21
0.625
0
LINE
5
BF
100
AcDbEntity
8
vector
6
ByLayer
62
256
370
-1
100
AcDbLine
10
12
20
0.625
11
11.5
21
0.625
0
LINE
5
C0
100
AcDbEntity
8
vector
6
ByLayer
62
256
370
-1
100
AcDbLine
10
11.5
20
0.625
11
11.5
21
0.5
0
LINE
5
C1
100
AcDbEntity
8
vector
6
ByLayer
62
256
370
-1
100
AcDbLine
10
11.5
20
0.5
11
11
21
0.5
0
LINE
5
C2
100
AcDbEntity
8
vector
6
ByLayer
62
256
370
-1
100
AcDbLine
10
11
20
0.5
11
11
21
1
0
LINE
5
C3
100
AcDbEntity
8
vector
6
ByLayer
62
256
370
-1
100
AcDbLine
10
11
20
1
11
10.875
21
1
0
LINE
5
C4
100
AcDbEntity
8
vector
6
ByLayer
62
256
370
-1
100
AcDbLine
10
8.875
20
5.39999996063
11
9
21
5.39999996063
0
LINE
5
C5
100
AcDbEntity
8
vector
6
ByLayer
62
256
370
-1
100
AcDbLine
10
8.875
20
4.89999996063
11
8.875
21
5.39999996063
0
LINE
5
C6
100
AcDbEntity
8
vector
6
ByLayer
62
256
370
-1
100
AcDbLine
10
8.875
20
5.39999996063
11
9
21
5.39999996063
0
LINE
5
C7
100
AcDbEntity
8
vector
6
ByLayer
62
256
370
-1
100
AcDbLine
10
9
20
5.39999996063
11
9
21
5.89999996063
0
LINE
5
C8
100
AcDbEntity
8
vector
6
ByLayer
62
256
370
-1
100
AcDbLine
10
9
20
5.89999996063
11
10.125
21
5.89999996063
0
LINE
5
C9
100
AcDbEntity
8
vector
6
ByLayer
62
256
370
-1
100
AcDbLine
10
10.125
20
5.89999996063
11
10.125
21
6.02499996063
0
LINE
5
CA
100
AcDbEntity
8
vector
6
ByLayer
62
256
370
-1
100
AcDbLine
10
10.125
20
6.02499996063
11
10.875
21
6.02499996063
0
LINE
5
CB
100
AcDbEntity
8
vector
6
ByLayer
62
256
370
-1
100
AcDbLine
10
10.875
20
6.02499996063
11
10.875
21
5.89999996063
0
LINE
5
CC
100
AcDbEntity
8
vector
6
ByLayer
62
256
370
-1
100
AcDbLine
10
10.875
20
5.89999996063
11
12.375
21
5.89999996063
0
LINE
5
CD
100
AcDbEntity
8
vector
6
ByLayer
62
256
370
-1
100
AcDbLine
10
12.375
20
5.89999996063
11
12.375
21
6.02499996063
0
LINE
5
CE
100
AcDbEntity
8
vector
6
ByLayer
62
256
370
-1
100
AcDbLine
10
12.375
20
6.02499996063
11
13.125
21
6.02499996063
0
LINE
5
CF
100
AcDbEntity
8
vector
6
ByLayer
62
256
370
-1
100
AcDbLine
10
13.125
20
6.02499996063
11
13.125
21
5.89999996063
0
LINE
5
D0
100
AcDbEntity
8
vector
6
ByLayer
62
256
370
-1
100
AcDbLine
10
13.125
20
5.89999996063
11
14.625
21
5.89999996063
0
LINE
5
D1
100
AcDbEntity
8
vector
6
ByLayer
62
256
370
-1
100
AcDbLine
10
14.625
20
5.89999996063
11
14.625
21
6.02499996063
0
LINE
5
D2
100
AcDbEntity
8
vector
6
ByLayer
62
256
370
-1
100
AcDbLine
10
14.625
20
6.02499996063
11
15.375
21
6.02499996063
0
LINE
5
D3
100
AcDbEntity
8
vector
6
ByLayer
62
256
370
-1
100
AcDbLine
10
15.375
20
6.02499996063
11
15.375
21
5.89999996063
0
LINE
5
D4
100
AcDbEntity
8
vector
6
ByLayer
62
256
370
-1
100
AcDbLine
10
15.375
20
5.89999996063
11
16.5
21
5.89999996063
0
LINE
5
D5
100
AcDbEntity
8
vector
6
ByLayer
62
256
370
-1
100
AcDbLine
10
16.5
20
5.89999996063
11
16.5
21
5.39999996063
0
LINE
5
D6
100
AcDbEntity
8
vector
6
ByLayer
62
256
370
-1
100
AcDbLine
10
16.5
20
5.39999996063
11
16.625
21
5.39999996063
0
LINE
5
D7
100
AcDbEntity
8
vector
6
ByLayer
62
256
370
-1
100
AcDbLine
10
16.625
20
5.39999996063
11
16.625
21
4.89999996063
0
LINE
5
D8
100
AcDbEntity
8
vector
6
ByLayer
62
256
370
-1
100
AcDbLine
10
16.625
20
4.89999996063
11
16.5
21
4.89999996063
0
LINE
5
D9
100
AcDbEntity
8
vector
6
ByLayer
62
256
370
-1
100
AcDbLine
10
16.5
20
4.89999996063
11
16.5
21
4.4
0
LINE
5
DA
100
AcDbEntity
8
vector
6
ByLayer
62
256
370
-1
100
AcDbLine
10
16.5
20
4.4
11
15.375
21
4.4
0
LINE
5
DB
100
AcDbEntity
8
vector
6
ByLayer
62
256
370
-1
100
AcDbLine
10
15.375
20
4.4
11
15.375
21
4.275
0
LINE
5
DC
100
AcDbEntity
8
vector
6
ByLayer
62
256
370
-1
100
AcDbLine
10
15.375
20
4.275
11
14.625
21
4.275
0
LINE
5
DD
100
AcDbEntity
8
vector
6
ByLayer
62
256
370
-1
100
AcDbLine
10
14.625
20
4.275
11
14.625
21
4.4
0
LINE
5
DE
100
AcDbEntity
8
vector
6
ByLayer
62
256
370
-1
100
AcDbLine
10
14.625
20
4.4
11
13.125
21
4.4
0
LINE
5
DF
100
AcDbEntity
8
vector
6
ByLayer
62
256
370
-1
100
AcDbLine
10
13.125
20
4.4
11
13.125
21
4.275
0
LINE
5
E0
100
AcDbEntity
8
vector
6
ByLayer
62
256
370
-1
100
AcDbLine
10
13.125
20
4.275
11
12.375
21
4.275
0
LINE
5
E1
100
AcDbEntity
8
vector
6
ByLayer
62
256
370
-1
100
AcDbLine
10
12.375
20
4.275
11
12.375
21
4.4
0
LINE
5
E2
100
AcDbEntity
8
vector
6
ByLayer
62
256
370
-1
100
AcDbLine
10
12.375
20
4.4
11
10.875
21
4.4
0
LINE
5
E3
100
AcDbEntity
8
vector
6
ByLayer
62
256
370
-1
100
AcDbLine
10
10.875
20
4.4
11
10.875
21
4.275
0
LINE
5
E4
100
AcDbEntity
8
vector
6
ByLayer
62
256
370
-1
100
AcDbLine
10
10.875
20
4.275
11
10.125
21
4.275
0
LINE
5
E5
100
AcDbEntity
8
vector
6
ByLayer
62
256
370
-1
100
AcDbLine
10
10.125
20
4.275
11
10.125
21
4.4
0
LINE
5
E6
100
AcDbEntity
8
vector
6
ByLayer
62
256
370
-1
100
AcDbLine
10
10.125
20
4.4
11
9
21
4.4
0
LINE
5
E7
100
AcDbEntity
8
vector
6
ByLayer
62
256
370
-1
100
AcDbLine
10
9
20
4.4
11
9
21
4.89999996063
0
LINE
5
E8
100
AcDbEntity
8
vector
6
ByLayer
62
256
370
-1
100
AcDbLine
10
9
20
4.89999996063
11
8.875
21
4.89999996063
0
LINE
5
E9
100
AcDbEntity
8
vector
6
ByLayer
62
256
370
-1
100
AcDbLine
10
0.575
20
5.1
11
0.575
21
5.6
0
LINE
5
EA
100
AcDbEntity
8
vector
6
ByLayer
62
256
370
-1
100
AcDbLine
10
0.575
20
5.6
11
0.7
21
5.6
0
LINE
5
EB
100
AcDbEntity
8
vector
6
ByLayer
62
256
370
-1
100
AcDbLine
10
0.7
20
6.1
11
1.825
21
6.1
0
LINE
5
EC
100
AcDbEntity
8
vector
6
ByLayer
62
256
370
-1
100
AcDbLine
10
1.825
20
6.1
11
1.825
21
6.225
0
LINE
5
ED
100
AcDbEntity
8
vector
6
ByLayer
62
256
370
-1
100
AcDbLine
10
1.825
20
6.225
11
2.575
21
6.225
0
LINE
5
EE
100
AcDbEntity
8
vector
6
ByLayer
62
256
370
-1
100
AcDbLine
10
2.575
20
6.225
11
2.575
21
6.1
0
LINE
5
EF
100
AcDbEntity
8
vector
6
ByLayer
62
256
370
-1
100
AcDbLine
10
2.575
20
6.1
11
4.075
21
6.1
0
LINE
5
F0
100
AcDbEntity
8
vector
6
ByLayer
62
256
370
-1
100
AcDbLine
10
4.075
20
6.1
11
4.075
21
6.225
0
LINE
5
F1
100
AcDbEntity
8
vector
6
ByLayer
62
256
370
-1
100
AcDbLine
10
4.075
20
6.225
11
4.825
21
6.225
0
LINE
5
F2
100
AcDbEntity
8
vector
6
ByLayer
62
256
370
-1
100
AcDbLine
10
4.825
20
6.225
11
4.825
21
6.1
0
LINE
5
F3
100
AcDbEntity
8
vector
6
ByLayer
62
256
370
-1
100
AcDbLine
10
4.825
20
6.1
11
6.325
21
6.1
0
LINE
5
F4
100
AcDbEntity
8
vector
6
ByLayer
62
256
370
-1
100
AcDbLine
10
6.325
20
6.1
11
6.325
21
6.225
0
LINE
5
F5
100
AcDbEntity
8
vector
6
ByLayer
62
256
370
-1
100
AcDbLine
10
6.325
20
6.225
11
7.075
21
6.225
0
LINE
5
F6
100
AcDbEntity
8
vector
6
ByLayer
62
256
370
-1
100
AcDbLine
10
7.075
20
6.225
11
7.075
21
6.1
0
LINE
5
F7
100
AcDbEntity
8
vector
6
ByLayer
62
256
370
-1
100
AcDbLine
10
7.075
20
6.1
11
8.2
21
6.1
0
LINE
5
F8
100
AcDbEntity
8
vector
6
ByLayer
62
256
370
-1
100
AcDbLine
10
8.2
20
6.1
11
8.2
21
5.6
0
LINE
5
F9
100
AcDbEntity
8
vector
6
ByLayer
62
256
370
-1
100
AcDbLine
10
8.2
20
5.6
11
8.325
21
5.6
0
LINE
5
FA
100
AcDbEntity
8
vector
6
ByLayer
62
256
370
-1
100
AcDbLine
10
8.325
20
5.6
11
8.325
21
5.1
0
LINE
5
FB
100
AcDbEntity
8
vector
6
ByLayer
62
256
370
-1
100
AcDbLine
10
8.325
20
5.1
11
8.2
21
5.1
0
LINE
5
FC
100
AcDbEntity
8
vector
6
ByLayer
62
256
370
-1
100
AcDbLine
10
8.2
20
5.1
11
8.2
21
4.6
0
LINE
5
FD
100
AcDbEntity
8
vector
6
ByLayer
62
256
370
-1
100
AcDbLine
10
8.2
20
4.6
11
7.075
21
4.6
0
LINE
5
FE
100
AcDbEntity
8
vector
6
ByLayer
62
256
370
-1
100
AcDbLine
10
7.075
20
4.6
11
7.075
21
4.475
0
LINE
5
FF
100
AcDbEntity
8
vector
6
ByLayer
62
256
370
-1
100
AcDbLine
10
7.075
20
4.475
11
6.325
21
4.475
0
LINE
5
100
100
AcDbEntity
8
vector
6
ByLayer
62
256
370
-1
100
AcDbLine
10
6.325
20
4.475
11
6.325
21
4.6
0
LINE
5
101
100
AcDbEntity
8
vector
6
ByLayer
62
256
370
-1
100
AcDbLine
10
6.325
20
4.6
11
4.825
21
4.6
0
LINE
5
102
100
AcDbEntity
8
vector
6
ByLayer
62
256
370
-1
100
AcDbLine
10
4.825
20
4.6
11
4.825
21
4.475
0
LINE
5
103
100
AcDbEntity
8
vector
6
ByLayer
62
256
370
-1
100
AcDbLine
10
4.825
20
4.475
11
4.075
21
4.475
0
LINE
5
104
100
AcDbEntity
8
vector
6
ByLayer
62
256
370
-1
100
AcDbLine
10
4.075
20
4.475
11
4.075
21
4.6
0
LINE
5
105
100
AcDbEntity
8
vector
6
ByLayer
62
256
370
-1
100
AcDbLine
10
4.075
20
4.6
11
2.575
21
4.6
0
LINE
5
106
100
AcDbEntity
8
vector
6
ByLayer
62
256
370
-1
100
AcDbLine
10
2.575
20
4.6
11
2.575
21
4.475
0
LINE
5
107
100
AcDbEntity
8
vector
6
ByLayer
62
256
370
-1
100
AcDbLine
10
2.575
20
4.475
11
1.825
21
4.475
0
LINE
5
108
100
AcDbEntity
8
vector
6
ByLayer
62
256
370
-1
100
AcDbLine
10
1.825
20
4.475
11
1.825
21
4.6
0
LINE
5
109
100
AcDbEntity
8
vector
6
ByLayer
62
256
370
-1
100
AcDbLine
10
1.825
20
4.6
11
0.7
21
4.6
0
LINE
5
10A
100
AcDbEntity
8
vector
6
ByLayer
62
256
370
-1
100
AcDbLine
10
0.7
20
4.6
11
0.7
21
5.1
0
LINE
5
10B
100
AcDbEntity
8
vector
6
ByLayer
62
256
370
-1
100
AcDbLine
10
0.7
20
5.1
11
0.575
21
5.1
0
CIRCLE
5
10C
100
AcDbEntity
8
vector
6
ByLayer
62
256
370
-1
100
AcDbCircle
10
2.82499994906
20
5.35999417634
40
0.275578625254
0
CIRCLE
5
10D
100
AcDbEntity
8
vector
6
ByLayer
62
256
370
-1
100
AcDbCircle
10
4.20000099296
20
5.30001060894
40
0.275594959746
0
CIRCLE
5
10E
100
AcDbEntity
8
vector
6
ByLayer
62
256
370
-1
100
AcDbCircle
10
5.19998271768
20
5.29999630591
40
0.275591428903
0
CIRCLE
5
10F
100
AcDbEntity
8
vector
6
ByLayer
62
256
370
-1
100
AcDbCircle
10
6.20001936638
20
5.30000279665
40
0.275589268457
0
CIRCLE
5
110
100
AcDbEntity
8
vector
6
ByLayer
62
256
370
-1
100
AcDbCircle
10
7.2
20
5.30000157795
40
0.275602551293
0
ARC
5
111
100
AcDbEntity
8
vector
6
ByLayer
62
256
370
-1
100
AcDbCircle
10
1.58861798705
20
5.49693339969
40
0.0392086261783
100
AcDbArc
50
89.7638817728
51
180.121354705
0
ARC
5
112
100
AcDbEntity
8
vector
6
ByLayer
62
256
370
-1
100
AcDbCircle
10
2.06138080769
20
5.49693372421
40
0.0392092809415
100
AcDbArc
50
359.878173084
51
450.23435305
0
ARC
5
113
100
AcDbEntity
8
vector
6
ByLayer
62
256
370
-1
100
AcDbCircle
10
2.06125356743
20
5.10311745535
40
0.0393369968531
100
AcDbArc
50
269.951738577
51
360.046771714
0
ARC
5
114
100
AcDbEntity
8
vector
6
ByLayer
62
256
370
-1
100
AcDbCircle
10
1.58874834863
20
5.1031190174
40
0.0393394628489
100
AcDbArc
50
179.955506262
51
270.04546776
0
LINE
5
115
100
AcDbEntity
8
vector
6
ByLayer
62
256
370
-1
100
AcDbLine
10
1.58877956693
20
5.53614169292
11
2.06122043307
21
5.53614267717
0
LINE
5
116
100
AcDbEntity
8
vector
6
ByLayer
62
256
370
-1
100
AcDbLine
10
2.10059
20
5.49685035433
11
2.10059055118
21
5.10314956694
0
LINE
5
117
100
AcDbEntity
8
vector
6
ByLayer
62
256
370
-1
100
AcDbLine
10
2.06122043307
20
5.06378047246
11
1.58877956693
21
5.06377956694
0
LINE
5
118
100
AcDbEntity
8
vector
6
ByLayer
62
256
370
-1
100
AcDbLine
10
1.54940889764
20
5.10314956694
11
1.54940944882
21
5.49685035434
0
LINE
5
119
100
AcDbEntity
8
vector
6
ByLayer
62
256
370
-1
100
AcDbLine
10
0.7
20
6.1
11
0.7
21
5.6
0
LINE
5
11A
100
AcDbEntity
8
vector
6
ByLayer
62
256
370
-1
100
AcDbLine
10
0.550000000001
20
7.09999999999
11
0.550000000001
21
7.84999999999
0
LINE
5
11B
100
AcDbEntity
8
vector
6
ByLayer
62
256
370
-1
100
AcDbLine
10
0.550000000001
20
7.84999999999
11
0.675000000001
21
7.84999999999
0
LINE
5
11C
100
AcDbEntity
8
vector
6
ByLayer
62
256
370
-1
100
AcDbLine
10
0.675000000001
20
7.84999999999
11
0.675000000001
21
7.09999999999
0
LINE
5
11D
100
AcDbEntity
8
vector
6
ByLayer
62
256
370
-1
100
AcDbLine
10
0.675000000001
20
7.09999999999
11
0.550000000001
21
7.09999999999
0
LINE
5
11E
100
AcDbEntity
8
vector
6
ByLayer
62
256
370
-1
100
AcDbLine
10
0.550000000001
20
8.84999999999
11
0.550000000001
21
9.59999999999
0
LINE
5
11F
100
AcDbEntity
8
vector
6
ByLayer
62
256
370
-1
100
AcDbLine
10
0.550000000001
20
9.59999999999
11
0.675000000001
21
9.59999999999
0
LINE
5
120
100
AcDbEntity
8
vector
6
ByLayer
62
256
370
-1
100
AcDbLine
10
0.675000000001
20
9.59999999999
11
0.675000000001
21
8.84999999999
0
LINE
5
121
100
AcDbEntity
8
vector
6
ByLayer
62
256
370
-1
100
AcDbLine
10
0.675000000001
20
8.84999999999
11
0.550000000001
21
8.84999999999
0
LINE
5
122
100
AcDbEntity
8
vector
6
ByLayer
62
256
370
-1
100
AcDbLine
10
1.8
20
6.59999999999
11
1.8
21
6.72499999999
0
LINE
5
123
100
AcDbEntity
8
vector
6
ByLayer
62
256
370
-1
100
AcDbLine
10
1.8
20
6.72499999999
11
2.55
21
6.72499999999
0
LINE
5
124
100
AcDbEntity
8
vector
6
ByLayer
62
256
370
-1
100
AcDbLine
10
2.55
20
6.72499999999
11
2.55
21
6.59999999999
0
LINE
5
125
100
AcDbEntity
8
vector
6
ByLayer
62
256
370
-1
100
AcDbLine
10
2.55
20
6.59999999999
11
1.8
21
6.59999999999
0
LINE
5
126
100
AcDbEntity
8
vector
6
ByLayer
62
256
370
-1
100
AcDbLine
10
1.8
20
9.97499999999
11
1.8
21
10.1
0
LINE
5
127
100
AcDbEntity
8
vector
6
ByLayer
62
256
370
-1
100
AcDbLine
10
1.8
20
10.1
11
2.55
21
10.1
0
LINE
5
128
100
AcDbEntity
8
vector
6
ByLayer
62
256
370
-1
100
AcDbLine
10
2.55
20
10.1
11
2.55
21
9.97499999999
0
LINE
5
129
100
AcDbEntity
8
vector
6
ByLayer
62
256
370
-1
100
AcDbLine
10
2.55
20
9.97499999999
11
1.8
21
9.97499999999
0
LINE
5
12A
100
AcDbEntity
8
vector
6
ByLayer
62
256
370
-1
100
AcDbLine
10
4.05
20
6.59999999999
11
4.05
21
6.72499999999
0
LINE
5
12B
100
AcDbEntity
8
vector
6
ByLayer
62
256
370
-1
100
AcDbLine
10
4.05
20
6.72499999999
11
4.8
21
6.72499999999
0
LINE
5
12C
100
AcDbEntity
8
vector
6
ByLayer
62
256
370
-1
100
AcDbLine
10
4.8
20
6.72499999999
11
4.8
21
6.59999999999
0
LINE
5
12D
100
AcDbEntity
8
vector
6
ByLayer
62
256
370
-1
100
AcDbLine
10
4.8
20
6.59999999999
11
4.05
21
6.59999999999
0
LINE
5
12E
100
AcDbEntity
8
vector
6
ByLayer
62
256
370
-1
100
AcDbLine
10
4.05
20
9.97499999999
11
4.05
21
10.1
0
LINE
5
12F
100
AcDbEntity
8
vector
6
ByLayer
62
256
370
-1
100
AcDbLine
10
4.05
20
10.1
11
4.8
21
10.1
0
LINE
5
130
100
AcDbEntity
8
vector
6
ByLayer
62
256
370
-1
100
AcDbLine
10
4.8
20
10.1
11
4.8
21
9.97499999999
0
LINE
5
131
100
AcDbEntity
8
vector
6
ByLayer
62
256
370
-1
100
AcDbLine
10
4.8
20
9.97499999999
11
4.05
21
9.97499999999
0
LINE
5
132
100
AcDbEntity
8
vector
6
ByLayer
62
256
370
-1
100
AcDbLine
10
6.3
20
6.59999999999
11
6.3
21
6.72499999999
0
LINE
5
133
100
AcDbEntity
8
vector
6
ByLayer
62
256
370
-1
100
AcDbLine
10
6.3
20
6.72499999999
11
7.05
21
6.72499999999
0
LINE
5
134
100
AcDbEntity
8
vector
6
ByLayer
62
256
370
-1
100
AcDbLine
10
7.05
20
6.72499999999
11
7.05
21
6.59999999999
0
LINE
5
135
100
AcDbEntity
8
vector
6
ByLayer
62
256
370
-1
100
AcDbLine
10
7.05
20
6.59999999999
11
6.3
21
6.59999999999
0
LINE
5
136
100
AcDbEntity
8
vector
6
ByLayer
62
256
370
-1
100
AcDbLine
10
6.3
20
9.97499999999
11
6.3
21
10.1
0
LINE
5
137
100
AcDbEntity
8
vector
6
ByLayer
62
256
370
-1
100
AcDbLine
10
6.3
20
10.1
11
7.05
21
10.1
0
LINE
5
138
100
AcDbEntity
8
vector
6
ByLayer
62
256
370
-1
100
AcDbLine
10
7.05
20
10.1
11
7.05
21
9.97499999999
0
LINE
5
139
100
AcDbEntity
8
vector
6
ByLayer
62
256
370
-1
100
AcDbLine
10
7.05
20
9.97499999999
11
6.3
21
9.97499999999
0
LINE
5
13A
100
AcDbEntity
8
vector
6
ByLayer
62
256
370
-1
100
AcDbLine
10
8.175
20
7.09999999999
11
8.175
21
7.84999999999
0
LINE
5
13B
100
AcDbEntity
8
vector
6
ByLayer
62
256
370
-1
100
AcDbLine
10
8.175
20
7.84999999999
11
8.3
21
7.84999999999
0
LINE
5
13C
100
AcDbEntity
8
vector
6
ByLayer
62
256
370
-1
100
AcDbLine
10
8.3
20
7.84999999999
11
8.3
21
7.09999999999
0
LINE
5
13D
100
AcDbEntity
8
vector
6
ByLayer
62
256
370
-1
100
AcDbLine
10
8.3
20
7.09999999999
11
8.175
21
7.09999999999
0
LINE
5
13E
100
AcDbEntity
8
vector
6
ByLayer
62
256
370
-1
100
AcDbLine
10
8.175
20
8.84999999999
11
8.175
21
9.59999999999
0
LINE
5
13F
100
AcDbEntity
8
vector
6
ByLayer
62
256
370
-1
100
AcDbLine
10
8.175
20
9.59999999999
11
8.3
21
9.59999999999
0
LINE
5
140
100
AcDbEntity
8
vector
6
ByLayer
62
256
370
-1
100
AcDbLine
10
8.3
20
9.59999999999
11
8.3
21
8.84999999999
0
LINE
5
141
100
AcDbEntity
8
vector
6
ByLayer
62
256
370
-1
100
AcDbLine
10
8.3
20
8.84999999999
11
8.175
21
8.84999999999
0
CIRCLE
5
142
100
AcDbEntity
8
vector
6
ByLayer
62
256
370
-1
100
AcDbCircle
10
0.850003694068
20
9.79999927692
40
0.0580033137307
0
CIRCLE
5
143
100
AcDbEntity
8
vector
6
ByLayer
62
256
370
-1
100
AcDbCircle
10
1.29999054175
20
9.72499554865
40
0.0600034366524
0
CIRCLE
5
144
100
AcDbEntity
8
vector
6
ByLayer
62
256
370
-1
100
AcDbCircle
10
3.30000008653
20
9.72499997798
40
0.0600005498252
0
CIRCLE
5
145
100
AcDbEntity
8
vector
6
ByLayer
62
256
370
-1
100
AcDbCircle
10
7.99998444437
20
9.79999897649
40
0.0579897643028
0
CIRCLE
5
146
100
AcDbEntity
8
vector
6
ByLayer
62
256
370
-1
100
AcDbCircle
10
7.99999904024
20
6.90000644228
40
0.0580020863417
0
CIRCLE
5
147
100
AcDbEntity
8
vector
6
ByLayer
62
256
370
-1
100
AcDbCircle
10
6.67499578925
20
6.97496745688
40
0.0599913758406
0
CIRCLE
5
148
100
AcDbEntity
8
vector
6
ByLayer
62
256
370
-1
100
AcDbCircle
10
6.67500572469
20
7.97500971235
40
0.0599922540193
0
CIRCLE
5
149
100
AcDbEntity
8
vector
6
ByLayer
62
256
370
-1
100
AcDbCircle
10
4.67499914386
20
7.97499047763
40
0.0600006206909
0
CIRCLE
5
14A
100
AcDbEntity
8
vector
6
ByLayer
62
256
370
-1
100
AcDbCircle
10
4.67498941347
20
6.97499153913
40
0.0599928010677
0
CIRCLE
5
14B
100
AcDbEntity
8
vector
6
ByLayer
62
256
370
-1
100
AcDbCircle
10
3.3
20
6.97500001968
40
0.0599811364161
0
CIRCLE
5
14C
100
AcDbEntity
8
vector
6
ByLayer
62
256
370
-1
100
AcDbCircle
10
1.3
20
6.97500393141
40
0.0600044983579
0
CIRCLE
5
14D
100
AcDbEntity
8
vector
6
ByLayer
62
256
370
-1
100
AcDbCircle
10
0.850004020304
20
6.90000210924
40
0.0579961856957
0
ARC
5
14E
100
AcDbEntity
8
vector
6
ByLayer
62
256
370
-1
100
AcDbCircle
10
0.599960164836
20
6.64996016483
40
0.249960168009
100
AcDbArc
50
179.990868998
51
270.009131002
0
ARC
5
14F
100
AcDbEntity
8
vector
6
ByLayer
62
256
370
-1
100
AcDbCircle
10
8.25001096744
20
6.64998859952
40
0.249989032832
100
AcDbArc
50
269.99748634
51
360.002612912
0
ARC
5
150
100
AcDbEntity
8
vector
6
ByLayer
62
256
370
-1
100
AcDbCircle
10
8.24995383902
20
10.049953839
40
0.250046165248
100
AcDbArc
50
0.010577365885
51
89.9894226341
0
ARC
5
151
100
AcDbEntity
8
vector
6
ByLayer
62
256
370
-1
100
AcDbCircle
10
0.59998903257
20
10.0500113217
40
0.249989032825
100
AcDbArc
50
89.9974863397
51
180.002594867
0
LINE
5
152
100
AcDbEntity
8
vector
6
ByLayer
62
256
370
-1
100
AcDbLine
10
0.600000000001
20
10.3000003543
11
8.25
21
10.3
0
LINE
5
153
100
AcDbEntity
8
vector
6
ByLayer
62
256
370
-1
100
AcDbLine
10
8.5
20
10.05
11
8.50000000001
21
6.65
0
LINE
5
154
100
AcDbEntity
8
vector
6
ByLayer
62
256
370
-1
100
AcDbLine
10
8.25000000001
20
6.39999956693
11
0.6
21
6.4
0
LINE
5
155
100
AcDbEntity
8
vector
6
ByLayer
62
256
370
-1
100
AcDbLine
10
0.350000000001
20
6.65
11
0.350000000001
21
10.05
0
LINE
5
156
100
AcDbEntity
8
vector
6
ByLayer
62
256
370
-1
100
AcDbLine
10
0.549999999998
20
11.2
11
0.549999999998
21
11.95
0
LINE
5
157
100
AcDbEntity
8
vector
6
ByLayer
62
256
370
-1
100
AcDbLine
10
0.549999999998
20
11.95
11
0.674999999998
21
11.95
0
LINE
5
158
100
AcDbEntity
8
vector
6
ByLayer
62
256
370
-1
100
AcDbLine
10
0.674999999998
20
11.95
11
0.674999999998
21
11.2
0
LINE
5
159
100
AcDbEntity
8
vector
6
ByLayer
62
256
370
-1
100
AcDbLine
10
0.674999999998
20
11.2
11
0.549999999998
21
11.2
0
LINE
5
15A
100
AcDbEntity
8
vector
6
ByLayer
62
256
370
-1
100
AcDbLine
10
0.549999999998
20
12.9499998819
11
0.549999999998
21
13.6999998819
0
LINE
5
15B
100
AcDbEntity
8
vector
6
ByLayer
62
256
370
-1
100
AcDbLine
10
0.549999999998
20
13.6999998819
11
0.674999999998
21
13.6999998819
0
LINE
5
15C
100
AcDbEntity
8
vector
6
ByLayer
62
256
370
-1
100
AcDbLine
10
0.674999999998
20
13.6999998819
11
0.674999999998
21
12.9499998819
0
LINE
5
15D
100
AcDbEntity
8
vector
6
ByLayer
62
256
370
-1
100
AcDbLine
10
0.674999999998
20
12.9499998819
11
0.549999999998
21
12.9499998819
0
LINE
5
15E
100
AcDbEntity
8
vector
6
ByLayer
62
256
370
-1
100
AcDbLine
10
1.8
20
10.7
11
1.8
21
10.825
0
LINE
5
15F
100
AcDbEntity
8
vector
6
ByLayer
62
256
370
-1
100
AcDbLine
10
1.8
20
10.825
11
2.55
21
10.825
0
LINE
5
160
100
AcDbEntity
8
vector
6
ByLayer
62
256
370
-1
100
AcDbLine
10
2.55
20
10.825
11
2.55
21
10.7
0
LINE
5
161
100
AcDbEntity
8
vector
6
ByLayer
62
256
370
-1
100
AcDbLine
10
2.55
20
10.7
11
1.8
21
10.7
0
LINE
5
162
100
AcDbEntity
8
vector
6
ByLayer
62
256
370
-1
100
AcDbLine
10
1.8
20
14.0749998819
11
1.8
21
14.1999998819
0
LINE
5
163
100
AcDbEntity
8
vector
6
ByLayer
62
256
370
-1
100
AcDbLine
10
1.8
20
14.1999998819
11
2.55
21
14.1999998819
0
LINE
5
164
100
AcDbEntity
8
vector
6
ByLayer
62
256
370
-1
100
AcDbLine
10
2.55
20
14.1999998819
11
2.55
21
14.0749998819
0
LINE
5
165
100
AcDbEntity
8
vector
6
ByLayer
62
256
370
-1
100
AcDbLine
10
2.55
20
14.0749998819
11
1.8
21
14.0749998819
0
LINE
5
166
100
AcDbEntity
8
vector
6
ByLayer
62
256
370
-1
100
AcDbLine
10
4.05
20
10.7
11
4.05
21
10.825
0
LINE
5
167
100
AcDbEntity
8
vector
6
ByLayer
62
256
370
-1
100
AcDbLine
10
4.05
20
10.825
11
4.8
21
10.825
0
LINE
5
168
100
AcDbEntity
8
vector
6
ByLayer
62
256
370
-1
100
AcDbLine
10
4.8
20
10.825
11
4.8
21
10.7
0
LINE
5
169
100
AcDbEntity
8
vector
6
ByLayer
62
256
370
-1
100
AcDbLine
10
4.8
20
10.7
11
4.05
21
10.7
0
LINE
5
16A
100
AcDbEntity
8
vector
6
ByLayer
62
256
370
-1
100
AcDbLine
10
4.05
20
14.0749998819
11
4.05
21
14.1999998819
0
LINE
5
16B
100
AcDbEntity
8
vector
6
ByLayer
62
256
370
-1
100
AcDbLine
10
4.05
20
14.1999998819
11
4.8
21
14.1999998819
0
LINE
5
16C
100
AcDbEntity
8
vector
6
ByLayer
62
256
370
-1
100
AcDbLine
10
4.8
20
14.1999998819
11
4.8
21
14.0749998819
0
LINE
5
16D
100
AcDbEntity
8
vector
6
ByLayer
62
256
370
-1
100
AcDbLine
10
4.8
20
14.0749998819
11
4.05
21
14.0749998819
0
LINE
5
16E
100
AcDbEntity
8
vector
6
ByLayer
62
256
370
-1
100
AcDbLine
10
6.3
20
10.7
11
6.3
21
10.825
0
LINE
5
16F
100
AcDbEntity
8
vector
6
ByLayer
62
256
370
-1
100
AcDbLine
10
6.3
20
10.825
11
7.05
21
10.825
0
LINE
5
170
100
AcDbEntity
8
vector
6
ByLayer
62
256
370
-1
100
AcDbLine
10
7.05
20
10.825
11
7.05
21
10.7
0
LINE
5
171
100
AcDbEntity
8
vector
6
ByLayer
62
256
370
-1
100
AcDbLine
10
7.05
20
10.7
11
6.3
21
10.7
0
LINE
5
172
100
AcDbEntity
8
vector
6
ByLayer
62
256
370
-1
100
AcDbLine
10
6.3
20
14.0749998819
11
6.3
21
14.1999998819
0
LINE
5
173
100
AcDbEntity
8
vector
6
ByLayer
62
256
370
-1
100
AcDbLine
10
6.3
20
14.1999998819
11
7.05
21
14.1999998819
0
LINE
5
174
100
AcDbEntity
8
vector
6
ByLayer
62
256
370
-1
100
AcDbLine
10
7.05
20
14.1999998819
11
7.05
21
14.0749998819
0
LINE
5
175
100
AcDbEntity
8
vector
6
ByLayer
62
256
370
-1
100
AcDbLine
10
7.05
20
14.0749998819
11
6.3
21
14.0749998819
0
LINE
5
176
100
AcDbEntity
8
vector
6
ByLayer
62
256
370
-1
100
AcDbLine
10
8.175
20
11.2
11
8.175
21
11.95
0
LINE
5
177
100
AcDbEntity
8
vector
6
ByLayer
62
256
370
-1
100
AcDbLine
10
8.175
20
11.95
11
8.3
21
11.95
0
LINE
5
178
100
AcDbEntity
8
vector
6
ByLayer
62
256
370
-1
100
AcDbLine
10
8.3
20
11.95
11
8.3
21
11.2
0
LINE
5
179
100
AcDbEntity
8
vector
6
ByLayer
62
256
370
-1
100
AcDbLine
10
8.3
20
11.2
11
8.175
21
11.2
0
LINE
5
17A
100
AcDbEntity
8
vector
6
ByLayer
62
256
370
-1
100
AcDbLine
10
8.175
20
12.9499998819
11
8.175
21
13.6999998819
0
LINE
5
17B
100
AcDbEntity
8
vector
6
ByLayer
62
256
370
-1
100
AcDbLine
10
8.175
20
13.6999998819
11
8.3
21
13.6999998819
0
LINE
5
17C
100
AcDbEntity
8
vector
6
ByLayer
62
256
370
-1
100
AcDbLine
10
8.3
20
13.6999998819
11
8.3
21
12.9499998819
0
LINE
5
17D
100
AcDbEntity
8
vector
6
ByLayer
62
256
370
-1
100
AcDbLine
10
8.3
20
12.9499998819
11
8.175
21
12.9499998819
0
CIRCLE
5
17E
100
AcDbEntity
8
vector
6
ByLayer
62
256
370
-1
100
AcDbCircle
10
0.850005767782
20
13.8999994461
40
0.0579940772035
0
CIRCLE
5
17F
100
AcDbEntity
8
vector
6
ByLayer
62
256
370
-1
100
AcDbCircle
10
8.00000614059
20
13.9000022472
40
0.0579930201587
0
CIRCLE
5
180
100
AcDbEntity
8
vector
6
ByLayer
62
256
370
-1
100
AcDbCircle
10
8.00000294047
20
10.9999977764
40
0.0580028196236
0
CIRCLE
5
181
100
AcDbEntity
8
vector
6
ByLayer
62
256
370
-1
100
AcDbCircle
10
0.849994503715
20
10.999991721
40
0.0579976622283
0
ARC
5
182
100
AcDbEntity
8
vector
6
ByLayer
62
256
370
-1
100
AcDbCircle
10
8.25003997098
20
14.1500398529
40
0.249960032203
100
AcDbArc
50
359.990837858
51
90.0091621415
0
ARC
5
183
100
AcDbEntity
8
vector
6
ByLayer
62
256
370
-1
100
AcDbCircle
10
8.25001422583
20
10.7499868765
40
0.249985774502
100
AcDbArc
50
269.996739491
51
360.003007865
0
ARC
5
184
100
AcDbEntity
8
vector
6
ByLayer
62
256
370
-1
100
AcDbCircle
10
0.599963219853
20
10.7499632199
40
0.249963222561
100
AcDbArc
50
179.991569371
51
270.008430629
0
ARC
5
185
100
AcDbEntity
8
vector
6
ByLayer
62
256
370
-1
100
AcDbCircle
10
0.599989032567
20
14.1500112036
40
0.249989032826
100
AcDbArc
50
89.9974863397
51
180.002594867
0
LINE
5
186
100
AcDbEntity
8
vector
6
ByLayer
62
256
370
-1
100
AcDbLine
10
0.599999999998
20
14.4000002362
11
8.24999999999
21
14.3999998819
0
LINE
5
187
100
AcDbEntity
8
vector
6
ByLayer
62
256
370
-1
100
AcDbLine
10
8.49999999999
20
14.1499998819
11
8.49999999998
21
10.75
0
LINE
5
188
100
AcDbEntity
8
vector
6
ByLayer
62
256
370
-1
100
AcDbLine
10
8.24999999998
20
10.5000011024
11
0.6
21
10.5
0
LINE
5
189
100
AcDbEntity
8
vector
6
ByLayer
62
256
370
-1
100
AcDbLine
10
0.349999999998
20
10.75
11
0.349999999998
21
14.1499998819
0
LINE
5
18A
100
AcDbEntity
8
vector
6
ByLayer
62
256
370
-1
100
AcDbLine
10
0.563312519683
20
15.1870812992
11
0.563312519683
21
15.6870812992
0
LINE
5
18B
100
AcDbEntity
8
vector
6
ByLayer
62
256
370
-1
100
AcDbLine
10
0.563312519683
20
15.6870812992
11
0.688312519683
21
15.6870812992
0
LINE
5
18C
100
AcDbEntity
8
vector
6
ByLayer
62
256
370
-1
100
AcDbLine
10
0.688312519683
20
16.1870812992
11
1.81331251968
21
16.1870812992
0
LINE
5
18D
100
AcDbEntity
8
vector
6
ByLayer
62
256
370
-1
100
AcDbLine
10
1.81331251968
20
16.1870812992
11
1.81331251968
21
16.3120812992
0
LINE
5
18E
100
AcDbEntity
8
vector
6
ByLayer
62
256
370
-1
100
AcDbLine
10
1.81331251968
20
16.3120812992
11
2.56331251968
21
16.3120812992
0
LINE
5
18F
100
AcDbEntity
8
vector
6
ByLayer
62
256
370
-1
100
AcDbLine
10
2.56331251968
20
16.3120812992
11
2.56331251968
21
16.1870812992
0
LINE
5
190
100
AcDbEntity
8
vector
6
ByLayer
62
256
370
-1
100
AcDbLine
10
2.56331251968
20
16.1870812992
11
4.06331251968
21
16.1870812992
0
LINE
5
191
100
AcDbEntity
8
vector
6
ByLayer
62
256
370
-1
100
AcDbLine
10
4.06331251968
20
16.1870812992
11
4.06331251968
21
16.3120812992
0
LINE
5
192
100
AcDbEntity
8
vector
6
ByLayer
62
256
370
-1
100
AcDbLine
10
4.06331251968
20
16.3120812992
11
4.81331251968
21
16.3120812992
0
LINE
5
193
100
AcDbEntity
8
vector
6
ByLayer
62
256
370
-1
100
AcDbLine
10
4.81331251968
20
16.3120812992
11
4.81331251968
21
16.1870812992
0
LINE
5
194
100
AcDbEntity
8
vector
6
ByLayer
62
256
370
-1
100
AcDbLine
10
4.81331251968
20
16.1870812992
11
6.31331251968
21
16.1870812992
0
LINE
5
195
100
AcDbEntity
8
vector
6
ByLayer
62
256
370
-1
100
AcDbLine
10
6.31331251968
20
16.1870812992
11
6.31331251968
21
16.3120812992
0
LINE
5
196
100
AcDbEntity
8
vector
6
ByLayer
62
256
370
-1
100
AcDbLine
10
6.31331251968
20
16.3120812992
11
7.06331251968
21
16.3120812992
0
LINE
5
197
100
AcDbEntity
8
vector
6
ByLayer
62
256
370
-1
100
AcDbLine
10
7.06331251968
20
16.3120812992
11
7.06331251968
21
16.1870812992
0
LINE
5
198
100
AcDbEntity
8
vector
6
ByLayer
62
256
370
-1
100
AcDbLine
10
7.06331251968
20
16.1870812992
11
8.18831251968
21
16.1870812992
0
LINE
5
199
100
AcDbEntity
8
vector
6
ByLayer
62
256
370
-1
100
AcDbLine
10
8.18831251968
20
16.1870812992
11
8.18831251968
21
15.6870812992
0
LINE
5
19A
100
AcDbEntity
8
vector
6
ByLayer
62
256
370
-1
100
AcDbLine
10
8.18831251968
20
15.6870812992
11
8.31331251968
21
15.6870812992
0
LINE
5
19B
100
AcDbEntity
8
vector
6
ByLayer
62
256
370
-1
100
AcDbLine
10
8.31331251968
20
15.6870812992
11
8.31331251968
21
15.1870812992
0
LINE
5
19C
100
AcDbEntity
8
vector
6
ByLayer
62
256
370
-1
100
AcDbLine
10
8.31331251968
20
15.1870812992
11
8.18831251968
21
15.1870812992
0
LINE
5
19D
100
AcDbEntity
8
vector
6
ByLayer
62
256
370
-1
100
AcDbLine
10
8.18831251968
20
15.1870812992
11
8.18831251968
21
14.6870812992
0
LINE
5
19E
100
AcDbEntity
8
vector
6
ByLayer
62
256
370
-1
100
AcDbLine
10
8.18831251968
20
14.6870812992
11
7.06331251968
21
14.6870812992
0
LINE
5
19F
100
AcDbEntity
8
vector
6
ByLayer
62
256
370
-1
100
AcDbLine
10
7.06331251968
20
14.6870812992
11
7.06331251968
21
14.5620812992
0
LINE
5
1A0
100
AcDbEntity
8
vector
6
ByLayer
62
256
370
-1
100
AcDbLine
10
7.06331251968
20
14.5620812992
11
6.31331251968
21
14.5620812992
0
LINE
5
1A1
100
AcDbEntity
8
vector
6
ByLayer
62
256
370
-1
100
AcDbLine
10
6.31331251968
20
14.5620812992
11
6.31331251968
21
14.6870812992
0
LINE
5
1A2
100
AcDbEntity
8
vector
6
ByLayer
62
256
370
-1
100
AcDbLine
10
6.31331251968
20
14.6870812992
11
4.81331251968
21
14.6870812992
0
LINE
5
1A3
100
AcDbEntity
8
vector
6
ByLayer
62
256
370
-1
100
AcDbLine
10
4.81331251968
20
14.6870812992
11
4.81331251968
21
14.5620812992
0
LINE
5
1A4
100
AcDbEntity
8
vector
6
ByLayer
62
256
370
-1
100
AcDbLine
10
4.81331251968
20
14.5620812992
11
4.06331251968
21
14.5620812992
0
LINE
5
1A5
100
AcDbEntity
8
vector
6
ByLayer
62
256
370
-1
100
AcDbLine
10
4.06331251968
20
14.5620812992
11
4.06331251968
21
14.6870812992
0
LINE
5
1A6
100
AcDbEntity
8
vector
6
ByLayer
62
256
370
-1
100
AcDbLine
10
4.06331251968
20
14.6870812992
11
2.56331251968
21
14.6870812992
0
LINE
5
1A7
100
AcDbEntity
8
vector
6
ByLayer
62
256
370
-1
100
AcDbLine
10
2.56331251968
20
14.6870812992
11
2.56331251968
21
14.5620812992
0
LINE
5
1A8
100
AcDbEntity
8
vector
6
ByLayer
62
256
370
-1
100
AcDbLine
10
2.56331251968
20
14.5620812992
11
1.81331251968
21
14.5620812992
0
LINE
5
1A9
100
AcDbEntity
8
vector
6
ByLayer
62
256
370
-1
100
AcDbLine
10
1.81331251968
20
14.5620812992
11
1.81331251968
21
14.6870812992
0
LINE
5
1AA
100
AcDbEntity
8
vector
6
ByLayer
62
256
370
-1
100
AcDbLine
10
1.81331251968
20
14.6870812992
11
0.688312519683
21
14.6870812992
0
LINE
5
1AB
100
AcDbEntity
8
vector
6
ByLayer
62
256
370
-1
100
AcDbLine
10
0.688312519683
20
14.6870812992
11
0.688312519683
21
15.1870812992
0
LINE
5
1AC
100
AcDbEntity
8
vector
6
ByLayer
62
256
370
-1
100
AcDbLine
10
0.688312519683
20
15.1870812992
11
0.563312519683
21
15.1870812992
0
CIRCLE
5
1AD
100
AcDbEntity
8
vector
6
ByLayer
62
256
370
-1
100
AcDbCircle
10
2.81331246874
20
15.4470754756
40
0.275578625254
0
CIRCLE
5
1AE
100
AcDbEntity
8
vector
6
ByLayer
62
256
370
-1
100
AcDbCircle
10
4.18831351265
20
15.3870919081
40
0.275594959746
0
CIRCLE
5
1AF
100
AcDbEntity
8
vector
6
ByLayer
62
256
370
-1
100
AcDbCircle
10
5.18829523736
20
15.3870776051
40
0.275591428903
0
CIRCLE
5
1B0
100
AcDbEntity
8
vector
6
ByLayer
62
256
370
-1
100
AcDbCircle
10
6.18833188606
20
15.3870840959
40
0.275589268457
0
CIRCLE
5
1B1
100
AcDbEntity
8
vector
6
ByLayer
62
256
370
-1
100
AcDbCircle
10
7.18831251968
20
15.3870828772
40
0.275602551293
0
ARC
5
1B2
100
AcDbEntity
8
vector
6
ByLayer
62
256
370
-1
100
AcDbCircle
10
1.57693050673
20
15.5840146989
40
0.0392086261783
100
AcDbArc
50
89.7638817728
51
180.121354705
0
ARC
5
1B3
100
AcDbEntity
8
vector
6
ByLayer
62
256
370
-1
100
AcDbCircle
10
2.04969332738
20
15.5840150234
40
0.0392092809415
100
AcDbArc
50
359.878173084
51
450.23435305
0
ARC
5
1B4
100
AcDbEntity
8
vector
6
ByLayer
62
256
370
-1
100
AcDbCircle
10
2.04956608712
20
15.1901987546
40
0.0393369968531
100
AcDbArc
50
269.951738577
51
360.046771714
0
ARC
5
1B5
100
AcDbEntity
8
vector
6
ByLayer
62
256
370
-1
100
AcDbCircle
10
1.57706086831
20
15.1902003166
40
0.0393394628489
100
AcDbArc
50
179.955506262
51
270.04546776
0
LINE
5
1B6
100
AcDbEntity
8
vector
6
ByLayer
62
256
370
-1
100
AcDbLine
10
1.57709208661
20
15.6232229921
11
2.04953295275
21
15.6232239764
0
LINE
5
1B7
100
AcDbEntity
8
vector
6
ByLayer
62
256
370
-1
100
AcDbLine
10
2.08890251968
20
15.5839316535
11
2.08890307086
21
15.1902308662
0
LINE
5
1B8
100
AcDbEntity
8
vector
6
ByLayer
62
256
370
-1
100
AcDbLine
10
2.04953295275
20
15.1508617717
11
1.57709208661
21
15.1508608662
0
LINE
5
1B9
100
AcDbEntity
8
vector
6
ByLayer
62
256
370
-1
100
AcDbLine
10
1.53772141732
20
15.1902308662
11
1.5377219685
21
15.5839316536
0
LINE
5
1BA
100
AcDbEntity
8
vector
6
ByLayer
62
256
370
-1
100
AcDbLine
10
0.688312519683
20
16.1870812992
11
0.688312519683
21
15.6870812992
0
LINE
5
1BB
100
AcDbEntity
8
vector
6
ByLayer
62
256
370
-1
100
AcDbLine
10
0.538312519685
20
17.1870812992
11
0.538312519685
21
17.9370812992
0
LINE
5
1BC
100
AcDbEntity
8
vector
6
ByLayer
62
256
370
-1
100
AcDbLine
10
0.538312519685
20
17.9370812992
11
0.663312519685
21
17.9370812992
0
LINE
5
1BD
100
AcDbEntity
8
vector
6
ByLayer
62
256
370
-1
100
AcDbLine
10
0.663312519685
20
17.9370812992
11
0.663312519685
21
17.1870812992
0
LINE
5
1BE
100
AcDbEntity
8
vector
6
ByLayer
62
256
370
-1
100
AcDbLine
10
0.663312519685
20
17.1870812992
11
0.538312519685
21
17.1870812992
0
LINE
5
1BF
100
AcDbEntity
8
vector
6
ByLayer
62
256
370
-1
100
AcDbLine
10
0.538312519685
20
18.9370812992
11
0.538312519685
21
19.6870812992
0
LINE
5
1C0
100
AcDbEntity
8
vector
6
ByLayer
62
256
370
-1
100
AcDbLine
10
0.538312519685
20
19.6870812992
11
0.663312519685
21
19.6870812992
0
LINE
5
1C1
100
AcDbEntity
8
vector
6
ByLayer
62
256
370
-1
100
AcDbLine
10
0.663312519685
20
19.6870812992
11
0.663312519685
21
18.9370812992
0
LINE
5
1C2
100
AcDbEntity
8
vector
6
ByLayer
62
256
370
-1
100
AcDbLine
10
0.663312519685
20
18.9370812992
11
0.538312519685
21
18.9370812992
0
LINE
5
1C3
100
AcDbEntity
8
vector
6
ByLayer
62
256
370
-1
100
AcDbLine
10
1.78831251968
20
16.6870812992
11
1.78831251968
21
16.8120812992
0
LINE
5
1C4
100
AcDbEntity
8
vector
6
ByLayer
62
256
370
-1
100
AcDbLine
10
1.78831251968
20
16.8120812992
11
2.53831251968
21
16.8120812992
0
LINE
5
1C5
100
AcDbEntity
8
vector
6
ByLayer
62
256
370
-1
100
AcDbLine
10
2.53831251968
20
16.8120812992
11
2.53831251968
21
16.6870812992
0
LINE
5
1C6
100
AcDbEntity
8
vector
6
ByLayer
62
256
370
-1
100
AcDbLine
10
2.53831251968
20
16.6870812992
11
1.78831251968
21
16.6870812992
0
LINE
5
1C7
100
AcDbEntity
8
vector
6
ByLayer
62
256
370
-1
100
AcDbLine
10
1.78831251968
20
20.0620812992
11
1.78831251968
21
20.1870812992
0
LINE
5
1C8
100
AcDbEntity
8
vector
6
ByLayer
62
256
370
-1
100
AcDbLine
10
1.78831251968
20
20.1870812992
11
2.53831251968
21
20.1870812992
0
LINE
5
1C9
100
AcDbEntity
8
vector
6
ByLayer
62
256
370
-1
100
AcDbLine
10
2.53831251968
20
20.1870812992
11
2.53831251968
21
20.0620812992
0
LINE
5
1CA
100
AcDbEntity
8
vector
6
ByLayer
62
256
370
-1
100
AcDbLine
10
2.53831251968
20
20.0620812992
11
1.78831251968
21
20.0620812992
0
LINE
5
1CB
100
AcDbEntity
8
vector
6
ByLayer
62
256
370
-1
100
AcDbLine
10
4.03831251968
20
16.6870812992
11
4.03831251968
21
16.8120812992
0
LINE
5
1CC
100
AcDbEntity
8
vector
6
ByLayer
62
256
370
-1
100
AcDbLine
10
4.03831251968
20
16.8120812992
11
4.78831251968
21
16.8120812992
0
LINE
5
1CD
100
AcDbEntity
8
vector
6
ByLayer
62
256
370
-1
100
AcDbLine
10
4.78831251968
20
16.8120812992
11
4.78831251968
21
16.6870812992
0
LINE
5
1CE
100
AcDbEntity
8
vector
6
ByLayer
62
256
370
-1
100
AcDbLine
10
4.78831251968
20
16.6870812992
11
4.03831251968
21
16.6870812992
0
LINE
5
1CF
100
AcDbEntity
8
vector
6
ByLayer
62
256
370
-1
100
AcDbLine
10
4.03831251968
20
20.0620812992
11
4.03831251968
21
20.1870812992
0
LINE
5
1D0
100
AcDbEntity
8
vector
6
ByLayer
62
256
370
-1
100
AcDbLine
10
4.03831251968
20
20.1870812992
11
4.78831251968
21
20.1870812992
0
LINE
5
1D1
100
AcDbEntity
8
vector
6
ByLayer
62
256
370
-1
100
AcDbLine
10
4.78831251968
20
20.1870812992
11
4.78831251968
21
20.0620812992
0
LINE
5
1D2
100
AcDbEntity
8
vector
6
ByLayer
62
256
370
-1
100
AcDbLine
10
4.78831251968
20
20.0620812992
11
4.03831251968
21
20.0620812992
0
LINE
5
1D3
100
AcDbEntity
8
vector
6
ByLayer
62
256
370
-1
100
AcDbLine
10
6.28831251968
20
16.6870812992
11
6.28831251968
21
16.8120812992
0
LINE
5
1D4
100
AcDbEntity
8
vector
6
ByLayer
62
256
370
-1
100
AcDbLine
10
6.28831251968
20
16.8120812992
11
7.03831251968
21
16.8120812992
0
LINE
5
1D5
100
AcDbEntity
8
vector
6
ByLayer
62
256
370
-1
100
AcDbLine
10
7.03831251968
20
16.8120812992
11
7.03831251968
21
16.6870812992
0
LINE
5
1D6
100
AcDbEntity
8
vector
6
ByLayer
62
256
370
-1
100
AcDbLine
10
7.03831251968
20
16.6870812992
11
6.28831251968
21
16.6870812992
0
LINE
5
1D7
100
AcDbEntity
8
vector
6
ByLayer
62
256
370
-1
100
AcDbLine
10
6.28831251968
20
20.0620812992
11
6.28831251968
21
20.1870812992
0
LINE
5
1D8
100
AcDbEntity
8
vector
6
ByLayer
62
256
370
-1
100
AcDbLine
10
6.28831251968
20
20.1870812992
11
7.03831251968
21
20.1870812992
0
LINE
5
1D9
100
AcDbEntity
8
vector
6
ByLayer
62
256
370
-1
100
AcDbLine
10
7.03831251968
20
20.1870812992
11
7.03831251968
21
20.0620812992
0
LINE
5
1DA
100
AcDbEntity
8
vector
6
ByLayer
62
256
370
-1
100
AcDbLine
10
7.03831251968
20
20.0620812992
11
6.28831251968
21
20.0620812992
0
LINE
5
1DB
100
AcDbEntity
8
vector
6
ByLayer
62
256
370
-1
100
AcDbLine
10
8.16331251968
20
17.1870812992
11
8.16331251968
21
17.9370812992
0
LINE
5
1DC
100
AcDbEntity
8
vector
6
ByLayer
62
256
370
-1
100
AcDbLine
10
8.16331251968
20
17.9370812992
11
8.28831251968
21
17.9370812992
0
LINE
5
1DD
100
AcDbEntity
8
vector
6
ByLayer
62
256
370
-1
100
AcDbLine
10
8.28831251968
20
17.9370812992
11
8.28831251968
21
17.1870812992
0
LINE
5
1DE
100
AcDbEntity
8
vector
6
ByLayer
62
256
370
-1
100
AcDbLine
10
8.28831251968
20
17.1870812992
11
8.16331251968
21
17.1870812992
0
LINE
5
1DF
100
AcDbEntity
8
vector
6
ByLayer
62
256
370
-1
100
AcDbLine
10
8.16331251968
20
18.9370812992
11
8.16331251968
21
19.6870812992
0
LINE
5
1E0
100
AcDbEntity
8
vector
6
ByLayer
62
256
370
-1
100
AcDbLine
10
8.16331251968
20
19.6870812992
11
8.28831251968
21
19.6870812992
0
LINE
5
1E1
100
AcDbEntity
8
vector
6
ByLayer
62
256
370
-1
100
AcDbLine
10
8.28831251968
20
19.6870812992
11
8.28831251968
21
18.9370812992
0
LINE
5
1E2
100
AcDbEntity
8
vector
6
ByLayer
62
256
370
-1
100
AcDbLine
10
8.28831251968
20
18.9370812992
11
8.16331251968
21
18.9370812992
0
CIRCLE
5
1E3
100
AcDbEntity
8
vector
6
ByLayer
62
256
370
-1
100
AcDbCircle
10
0.838316213752
20
19.8870805761
40
0.0580033137307
0
CIRCLE
5
1E4
100
AcDbEntity
8
vector
6
ByLayer
62
256
370
-1
100
AcDbCircle
10
1.28830306144
20
19.8120768479
40
0.0600034366524
0
CIRCLE
5
1E5
100
AcDbEntity
8
vector
6
ByLayer
62
256
370
-1
100
AcDbCircle
10
3.28831260621
20
19.8120812772
40
0.0600005498252
0
CIRCLE
5
1E6
100
AcDbEntity
8
vector
6
ByLayer
62
256
370
-1
100
AcDbCircle
10
7.98829696405
20
19.8870802757
40
0.0579897643028
0
CIRCLE
5
1E7
100
AcDbEntity
8
vector
6
ByLayer
62
256
370
-1
100
AcDbCircle
10
7.98831155992
20
16.9870877415
40
0.0580020863417
0
CIRCLE
5
1E8
100
AcDbEntity
8
vector
6
ByLayer
62
256
370
-1
100
AcDbCircle
10
6.66330830894
20
17.0620487561
40
0.0599913758406
0
CIRCLE
5
1E9
100
AcDbEntity
8
vector
6
ByLayer
62
256
370
-1
100
AcDbCircle
10
6.66331824437
20
18.0620910116
40
0.0599922540193
0
CIRCLE
5
1EA
100
AcDbEntity
8
vector
6
ByLayer
62
256
370
-1
100
AcDbCircle
10
4.66331166354
20
18.0620717768
40
0.0600006206909
0
CIRCLE
5
1EB
100
AcDbEntity
8
vector
6
ByLayer
62
256
370
-1
100
AcDbCircle
10
4.66330193315
20
17.0620728383
40
0.0599928010677
0
CIRCLE
5
1EC
100
AcDbEntity
8
vector
6
ByLayer
62
256
370
-1
100
AcDbCircle
10
3.28831251968
20
17.0620813189
40
0.0599811364161
0
CIRCLE
5
1ED
100
AcDbEntity
8
vector
6
ByLayer
62
256
370
-1
100
AcDbCircle
10
1.28831251968
20
17.0620852306
40
0.0600044983579
0
CIRCLE
5
1EE
100
AcDbEntity
8
vector
6
ByLayer
62
256
370
-1
100
AcDbCircle
10
0.838316539988
20
16.9870834085
40
0.0579961856957
0
ARC
5
1EF
100
AcDbEntity
8
vector
6
ByLayer
62
256
370
-1
100
AcDbCircle
10
0.588272684519
20
16.737041464
40
0.249960168009
100
AcDbArc
50
179.990868998
51
270.009131002
0
ARC
5
1F0
100
AcDbEntity
8
vector
6
ByLayer
62
256
370
-1
100
AcDbCircle
10
8.23832348713
20
16.7370698987
40
0.249989032832
100
AcDbArc
50
269.99748634
51
360.002612912
0
ARC
5
1F1
100
AcDbEntity
8
vector
6
ByLayer
62
256
370
-1
100
AcDbCircle
10
8.2382663587
20
20.1370351382
40
0.250046165248
100
AcDbArc
50
0.010577365885
51
89.9894226341
0
ARC
5
1F2
100
AcDbEntity
8
vector
6
ByLayer
62
256
370
-1
100
AcDbCircle
10
0.588301552254
20
20.137092621
40
0.249989032825
100
AcDbArc
50
89.9974863397
51
180.002594867
0
LINE
5
1F3
100
AcDbEntity
8
vector
6
ByLayer
62
256
370
-1
100
AcDbLine
10
0.588312519685
20
20.3870816535
11
8.23831251969
21
20.3870812992
0
LINE
5
1F4
100
AcDbEntity
8
vector
6
ByLayer
62
256
370
-1
100
AcDbLine
10
8.48831251969
20
20.1370812992
11
8.4883125197
21
16.7370812992
0
LINE
5
1F5
100
AcDbEntity
8
vector
6
ByLayer
62
256
370
-1
100
AcDbLine
10
8.2383125197
20
16.4870808661
11
0.588312519683
21
16.4870812992
0
LINE
5
1F6
100
AcDbEntity
8
vector
6
ByLayer
62
256
370
-1
100
AcDbLine
10
0.338312519685
20
16.7370812992
11
0.338312519685
21
20.1370812992
0
LINE
5
1F7
100
AcDbEntity
8
vector
6
ByLayer
62
256
370
-1
100
AcDbLine
10
0.475
20
21.6999999606
11
0.6
21
21.6999999606
0
LINE
5
1F8
100
AcDbEntity
8
vector
6
ByLayer
62
256
370
-1
100
AcDbLine
10
0.475
20
21.1999999606
11
0.475
21
21.6999999606
0
LINE
5
1F9
100
AcDbEntity
8
vector
6
ByLayer
62
256
370
-1
100
AcDbLine
10
0.475
20
21.6999999606
11
0.6
21
21.6999999606
0
LINE
5
1FA
100
AcDbEntity
8
vector
6
ByLayer
62
256
370
-1
100
AcDbLine
10
0.6
20
21.6999999606
11
0.6
21
22.1999999606
0
LINE
5
1FB
100
AcDbEntity
8
vector
6
ByLayer
62
256
370
-1
100
AcDbLine
10
0.6
20
22.1999999606
11
1.725
21
22.1999999606
0
LINE
5
1FC
100
AcDbEntity
8
vector
6
ByLayer
62
256
370
-1
100
AcDbLine
10
1.725
20
22.1999999606
11
1.725
21
22.3249999606
0
LINE
5
1FD
100
AcDbEntity
8
vector
6
ByLayer
62
256
370
-1
100
AcDbLine
10
1.725
20
22.3249999606
11
2.475
21
22.3249999606
0
LINE
5
1FE
100
AcDbEntity
8
vector
6
ByLayer
62
256
370
-1
100
AcDbLine
10
2.475
20
22.3249999606
11
2.475
21
22.1999999606
0
LINE
5
1FF
100
AcDbEntity
8
vector
6
ByLayer
62
256
370
-1
100
AcDbLine
10
2.475
20
22.1999999606
11
3.975
21
22.1999999606
0
LINE
5
200
100
AcDbEntity
8
vector
6
ByLayer
62
256
370
-1
100
AcDbLine
10
3.975
20
22.1999999606
11
3.975
21
22.3249999606
0
LINE
5
201
100
AcDbEntity
8
vector
6
ByLayer
62
256
370
-1
100
AcDbLine
10
3.975
20
22.3249999606
11
4.725
21
22.3249999606
0
LINE
5
202
100
AcDbEntity
8
vector
6
ByLayer
62
256
370
-1
100
AcDbLine
10
4.725
20
22.3249999606
11
4.725
21
22.1999999606
0
LINE
5
203
100
AcDbEntity
8
vector
6
ByLayer
62
256
370
-1
100
AcDbLine
10
4.725
20
22.1999999606
11
6.225
21
22.1999999606
0
LINE
5
204
100
AcDbEntity
8
vector
6
ByLayer
62
256
370
-1
100
AcDbLine
10
6.225
20
22.1999999606
11
6.225
21
22.3249999606
0
LINE
5
205
100
AcDbEntity
8
vector
6
ByLayer
62
256
370
-1
100
AcDbLine
10
6.225
20
22.3249999606
11
6.975
21
22.3249999606
0
LINE
5
206
100
AcDbEntity
8
vector
6
ByLayer
62
256
370
-1
100
AcDbLine
10
6.975
20
22.3249999606
11
6.975
21
22.1999999606
0
LINE
5
207
100
AcDbEntity
8
vector
6
ByLayer
62
256
370
-1
100
AcDbLine
10
6.975
20
22.1999999606
11
8.1
21
22.1999999606
0
LINE
5
208
100
AcDbEntity
8
vector
6
ByLayer
62
256
370
-1
100
AcDbLine
10
8.1
20
22.1999999606
11
8.1
21
21.6999999606
0
LINE
5
209
100
AcDbEntity
8
vector
6
ByLayer
62
256
370
-1
100
AcDbLine
10
8.1
20
21.6999999606
11
8.225
21
21.6999999606
0
LINE
5
20A
100
AcDbEntity
8
vector
6
ByLayer
62
256
370
-1
100
AcDbLine
10
8.225
20
21.6999999606
11
8.225
21
21.1999999606
0
LINE
5
20B
100
AcDbEntity
8
vector
6
ByLayer
62
256
370
-1
100
AcDbLine
10
8.225
20
21.1999999606
11
8.1
21
21.1999999606
0
LINE
5
20C
100
AcDbEntity
8
vector
6
ByLayer
62
256
370
-1
100
AcDbLine
10
8.1
20
21.1999999606
11
8.1
21
20.7
0
LINE
5
20D
100
AcDbEntity
8
vector
6
ByLayer
62
256
370
-1
100
AcDbLine
10
8.1
20
20.7
11
6.975
21
20.7
0
LINE
5
20E
100
AcDbEntity
8
vector
6
ByLayer
62
256
370
-1
100
AcDbLine
10
6.975
20
20.7
11
6.975
21
20.575
0
LINE
5
20F
100
AcDbEntity
8
vector
6
ByLayer
62
256
370
-1
100
AcDbLine
10
6.975
20
20.575
11
6.225
21
20.575
0
LINE
5
210
100
AcDbEntity
8
vector
6
ByLayer
62
256
370
-1
100
AcDbLine
10
6.225
20
20.575
11
6.225
21
20.7
0
LINE
5
211
100
AcDbEntity
8
vector
6
ByLayer
62
256
370
-1
100
AcDbLine
10
6.225
20
20.7
11
4.725
21
20.7
0
LINE
5
212
100
AcDbEntity
8
vector
6
ByLayer
62
256
370
-1
100
AcDbLine
10
4.725
20
20.7
11
4.725
21
20.575
0
LINE
5
213
100
AcDbEntity
8
vector
6
ByLayer
62
256
370
-1
100
AcDbLine
10
4.725
20
20.575
11
3.975
21
20.575
0
LINE
5
214
100
AcDbEntity
8
vector
6
ByLayer
62
256
370
-1
100
AcDbLine
10
3.975
20
20.575
11
3.975
21
20.7
0
LINE
5
215
100
AcDbEntity
8
vector
6
ByLayer
62
256
370
-1
100
AcDbLine
10
3.975
20
20.7
11
2.475
21
20.7
0
LINE
5
216
100
AcDbEntity
8
vector
6
ByLayer
62
256
370
-1
100
AcDbLine
10
2.475
20
20.7
11
2.475
21
20.575
0
LINE
5
217
100
AcDbEntity
8
vector
6
ByLayer
62
256
370
-1
100
AcDbLine
10
2.475
20
20.575
11
1.725
21
20.575
0
LINE
5
218
100
AcDbEntity
8
vector
6
ByLayer
62
256
370
-1
100
AcDbLine
10
1.725
20
20.575
11
1.725
21
20.7
0
LINE
5
219
100
AcDbEntity
8
vector
6
ByLayer
62
256
370
-1
100
AcDbLine
10
1.725
20
20.7
11
0.6
21
20.7
0
LINE
5
21A
100
AcDbEntity
8
vector
6
ByLayer
62
256
370
-1
100
AcDbLine
10
0.6
20
20.7
11
0.6
21
21.1999999606
0
LINE
5
21B
100
AcDbEntity
8
vector
6
ByLayer
62
256
370
-1
100
AcDbLine
10
0.6
20
21.1999999606
11
0.475
21
21.1999999606
0
LINE
5
21C
100
AcDbEntity
8
vector
6
ByLayer
62
256
370
-1
100
AcDbLine
10
13.4755905512
20
0.669881889764
11
13.4755905512
21
0.544881889764
0
LINE
5
21D
100
AcDbEntity
8
vector
6
ByLayer
62
256
370
-1
100
AcDbLine
10
12.8505905512
20
1.04488188976
11
12.8505905512
21
1.79488188976
0
LINE
5
21E
100
AcDbEntity
8
vector
6
ByLayer
62
256
370
-1
100
AcDbLine
10
12.8505905512
20
1.79488188976
11
12.9755905512
21
1.79488188976
0
LINE
5
21F
100
AcDbEntity
8
vector
6
ByLayer
62
256
370
-1
100
AcDbLine
10
12.9755905512
20
1.79488188976
11
12.9755905512
21
2.79488188976
0
LINE
5
220
100
AcDbEntity
8
vector
6
ByLayer
62
256
370
-1
100
AcDbLine
10
12.9755905512
20
2.79488188976
11
12.8505905512
21
2.79488188976
0
LINE
5
221
100
AcDbEntity
8
vector
6
ByLayer
62
256
370
-1
100
AcDbLine
10
12.8505905512
20
2.79488188976
11
12.8505905512
21
3.54488188976
0
LINE
5
222
100
AcDbEntity
8
vector
6
ByLayer
62
256
370
-1
100
AcDbLine
10
12.8505905512
20
3.54488188976
11
12.9755905512
21
3.54488188976
0
LINE
5
223
100
AcDbEntity
8
vector
6
ByLayer
62
256
370
-1
100
AcDbLine
10
12.9755905512
20
3.54488188976
11
12.9755905512
21
4.04488188976
0
LINE
5
224
100
AcDbEntity
8
vector
6
ByLayer
62
256
370
-1
100
AcDbLine
10
12.9755905512
20
4.04488188976
11
13.4755905512
21
4.04488188976
0
LINE
5
225
100
AcDbEntity
8
vector
6
ByLayer
62
256
370
-1
100
AcDbLine
10
13.4755905512
20
4.04488188976
11
13.4755905512
21
3.91988188976
0
LINE
5
226
100
AcDbEntity
8
vector
6
ByLayer
62
256
370
-1
100
AcDbLine
10
13.4755905512
20
3.91988188976
11
13.9755905512
21
3.91988188976
0
LINE
5
227
100
AcDbEntity
8
vector
6
ByLayer
62
256
370
-1
100
AcDbLine
10
13.9755905512
20
3.91988188976
11
13.9755905512
21
4.04488188976
0
LINE
5
228
100
AcDbEntity
8
vector
6
ByLayer
62
256
370
-1
100
AcDbLine
10
13.9755905512
20
4.04488188976
11
14.4755905512
21
4.04488188976
0
LINE
5
229
100
AcDbEntity
8
vector
6
ByLayer
62
256
370
-1
100
AcDbLine
10
14.4755905512
20
4.04488188976
11
14.4755905512
21
3.54488188976
0
LINE
5
22A
100
AcDbEntity
8
vector
6
ByLayer
62
256
370
-1
100
AcDbLine
10
14.4755905512
20
3.54488188976
11
14.6005905512
21
3.54488188976
0
LINE
5
22B
100
AcDbEntity
8
vector
6
ByLayer
62
256
370
-1
100
AcDbLine
10
14.6005905512
20
3.54488188976
11
14.6005905512
21
2.79488188976
0
LINE
5
22C
100
AcDbEntity
8
vector
6
ByLayer
62
256
370
-1
100
AcDbLine
10
14.6005905512
20
2.79488188976
11
14.4755905512
21
2.79488188976
0
LINE
5
22D
100
AcDbEntity
8
vector
6
ByLayer
62
256
370
-1
100
AcDbLine
10
14.4755905512
20
2.79488188976
11
14.4755905512
21
1.79488188976
0
LINE
5
22E
100
AcDbEntity
8
vector
6
ByLayer
62
256
370
-1
100
AcDbLine
10
14.4755905512
20
1.79488188976
11
14.6005905512
21
1.79488188976
0
LINE
5
22F
100
AcDbEntity
8
vector
6
ByLayer
62
256
370
-1
100
AcDbLine
10
14.6005905512
20
1.79488188976
11
14.6005905512
21
1.04488188976
0
LINE
5
230
100
AcDbEntity
8
vector
6
ByLayer
62
256
370
-1
100
AcDbLine
10
14.6005905512
20
1.04488188976
11
14.4755905512
21
1.04488188976
0
LINE
5
231
100
AcDbEntity
8
vector
6
ByLayer
62
256
370
-1
100
AcDbLine
10
14.4755905512
20
1.04488188976
11
14.4755905512
21
0.544881889764
0
LINE
5
232
100
AcDbEntity
8
vector
6
ByLayer
62
256
370
-1
100
AcDbLine
10
14.4755905512
20
0.544881889764
11
13.9755905512
21
0.544881889764
0
LINE
5
233
100
AcDbEntity
8
vector
6
ByLayer
62
256
370
-1
100
AcDbLine
10
13.9755905512
20
0.544881889764
11
13.9755905512
21
0.669881889764
0
LINE
5
234
100
AcDbEntity
8
vector
6
ByLayer
62
256
370
-1
100
AcDbLine
10
13.9755905512
20
0.669881889764
11
13.4755905512
21
0.669881889764
0
LINE
5
235
100
AcDbEntity
8
vector
6
ByLayer
62
256
370
-1
100
AcDbLine
10
13.4755905512
20
0.669881889764
11
13.4755905512
21
0.544881889764
0
LINE
5
236
100
AcDbEntity
8
vector
6
ByLayer
62
256
370
-1
100
AcDbLine
10
13.4755905512
20
0.544881889764
11
12.9755905512
21
0.544881889764
0
LINE
5
237
100
AcDbEntity
8
vector
6
ByLayer
62
256
370
-1
100
AcDbLine
10
12.9755905512
20
0.544881889764
11
12.9755905512
21
1.04488188976
0
LINE
5
238
100
AcDbEntity
8
vector
6
ByLayer
62
256
370
-1
100
AcDbLine
10
12.9755905512
20
1.04488188976
11
12.8505905512
21
1.04488188976
0
LINE
5
239
100
AcDbEntity
8
vector
6
ByLayer
62
256
370
-1
100
AcDbLine
10
14.875
20
1
11
14.875
21
1.75
0
LINE
5
23A
100
AcDbEntity
8
vector
6
ByLayer
62
256
370
-1
100
AcDbLine
10
14.875
20
1.75
11
15
21
1.75
0
LINE
5
23B
100
AcDbEntity
8
vector
6
ByLayer
62
256
370
-1
100
AcDbLine
10
15
20
1.75
11
15
21
2.75
0
LINE
5
23C
100
AcDbEntity
8
vector
6
ByLayer
62
256
370
-1
100
AcDbLine
10
15
20
2.75
11
14.875
21
2.75
0
LINE
5
23D
100
AcDbEntity
8
vector
6
ByLayer
62
256
370
-1
100
AcDbLine
10
14.875
20
2.75
11
14.875
21
3.5
0
LINE
5
23E
100
AcDbEntity
8
vector
6
ByLayer
62
256
370
-1
100
AcDbLine
10
14.875
20
3.5
11
15
21
3.5
0
LINE
5
23F
100
AcDbEntity
8
vector
6
ByLayer
62
256
370
-1
100
AcDbLine
10
15
20
3.5
11
15
21
4
0
LINE
5
240
100
AcDbEntity
8
vector
6
ByLayer
62
256
370
-1
100
AcDbLine
10
15
20
4
11
15.5
21
4
0
LINE
5
241
100
AcDbEntity
8
vector
6
ByLayer
62
256
370
-1
100
AcDbLine
10
15.5
20
4
11
15.5
21
3.875
0
LINE
5
242
100
AcDbEntity
8
vector
6
ByLayer
62
256
370
-1
100
AcDbLine
10
15.5
20
3.875
11
16
21
3.875
0
LINE
5
243
100
AcDbEntity
8
vector
6
ByLayer
62
256
370
-1
100
AcDbLine
10
16
20
3.875
11
16
21
4
0
LINE
5
244
100
AcDbEntity
8
vector
6
ByLayer
62
256
370
-1
100
AcDbLine
10
16
20
4
11
16.5
21
4
0
LINE
5
245
100
AcDbEntity
8
vector
6
ByLayer
62
256
370
-1
100
AcDbLine
10
16.5
20
4
11
16.5
21
3.5
0
LINE
5
246
100
AcDbEntity
8
vector
6
ByLayer
62
256
370
-1
100
AcDbLine
10
16.5
20
3.5
11
16.625
21
3.5
0
LINE
5
247
100
AcDbEntity
8
vector
6
ByLayer
62
256
370
-1
100
AcDbLine
10
16.625
20
3.5
11
16.625
21
2.75
0
LINE
5
248
100
AcDbEntity
8
vector
6
ByLayer
62
256
370
-1
100
AcDbLine
10
16.625
20
2.75
11
16.5
21
2.75
0
LINE
5
249
100
AcDbEntity
8
vector
6
ByLayer
62
256
370
-1
100
AcDbLine
10
16.5
20
2.75
11
16.5
21
1.75
0
LINE
5
24A
100
AcDbEntity
8
vector
6
ByLayer
62
256
370
-1
100
AcDbLine
10
16.5
20
1.75
11
16.625
21
1.75
0
LINE
5
24B
100
AcDbEntity
8
vector
6
ByLayer
62
256
370
-1
100
AcDbLine
10
16.625
20
1.75
11
16.625
21
1
0
LINE
5
24C
100
AcDbEntity
8
vector
6
ByLayer
62
256
370
-1
100
AcDbLine
10
16.625
20
1
11
16.5
21
1
0
LINE
5
24D
100
AcDbEntity
8
vector
6
ByLayer
62
256
370
-1
100
AcDbLine
10
16.5
20
1
11
16.5
21
0.5
0
LINE
5
24E
100
AcDbEntity
8
vector
6
ByLayer
62
256
370
-1
100
AcDbLine
10
16.5
20
0.5
11
16
21
0.5
0
LINE
5
24F
100
AcDbEntity
8
vector
6
ByLayer
62
256
370
-1
100
AcDbLine
10
16
20
0.5
11
16
21
0.625
0
LINE
5
250
100
AcDbEntity
8
vector
6
ByLayer
62
256
370
-1
100
AcDbLine
10
16
20
0.625
11
15.5
21
0.625
0
LINE
5
251
100
AcDbEntity
8
vector
6
ByLayer
62
256
370
-1
100
AcDbLine
10
15.5
20
0.625
11
15.5
21
0.5
0
LINE
5
252
100
AcDbEntity
8
vector
6
ByLayer
62
256
370
-1
100
AcDbLine
10
15.5
20
0.5
11
15
21
0.5
0
LINE
5
253
100
AcDbEntity
8
vector
6
ByLayer
62
256
370
-1
100
AcDbLine
10
15
20
0.5
11
15
21
1
0
LINE
5
254
100
AcDbEntity
8
vector
6
ByLayer
62
256
370
-1
100
AcDbLine
10
15
20
1
11
14.875
21
1
0
LINE
5
255
100
AcDbEntity
8
engrave
6
ByLayer
62
256
370
-1
100
AcDbLine
10
1.58331251969
20
5.83208141732
11
1.58331251969
21
5.68763697288
0
ARC
5
256
100
AcDbEntity
8
engrave
6
ByLayer
62
256
370
-1
100
AcDbCircle
10
1.63886807525
20
5.68763697288
40
0.0555555555556
100
AcDbArc
50
180
51
0
0
LINE
5
257
100
AcDbEntity
8
engrave
6
ByLayer
62
256
370
-1
100
AcDbLine
10
1.6944236308
20
5.68763697288
11
1.6944236308
21
5.83208141732
0
ARC
5
258
100
AcDbEntity
8
engrave
6
ByLayer
62
256
370
-1
100
AcDbCircle
10
1.82775689055
20
5.74319230769
40
0.11111089037
100
AcDbArc
50
233.130064412
51
270.000037943
0
ARC
5
259
100
AcDbEntity
8
engrave
6
ByLayer
62
256
370
-1
100
AcDbCircle
10
1.82775694712
20
5.67652583638
40
0.0444444190604
100
AcDbArc
50
270.000021937
51
62.9810193843
0
LINE
5
25A
100
AcDbEntity
8
engrave
6
ByLayer
62
256
370
-1
100
AcDbLine
10
1.84794740858
20
5.71611941732
11
1.78534429747
21
5.74804341732
0
ARC
5
25B
100
AcDbEntity
8
engrave
6
ByLayer
62
256
370
-1
100
AcDbCircle
10
1.80553475893
20
5.78763699826
40
0.0444444190604
100
AcDbArc
50
90.0000219368
51
242.981019384
0
ARC
5
25C
100
AcDbEntity
8
engrave
6
ByLayer
62
256
370
-1
100
AcDbCircle
10
1.80553473802
20
5.68763695343
40
0.144444463888
100
AcDbArc
50
67.3801365945
51
89.9999984575
0
LINE
5
25D
100
AcDbEntity
8
engrave
6
ByLayer
62
256
370
-1
100
AcDbLine
10
1.9944235884
20
5.74319252843
11
1.93886803285
21
5.74319252843
0
ARC
5
25E
100
AcDbEntity
8
engrave
6
ByLayer
62
256
370
-1
100
AcDbCircle
10
1.9944235884
20
5.78763697288
40
0.0444444444444
100
AcDbArc
50
270
51
90
0
LINE
5
25F
100
AcDbEntity
8
engrave
6
ByLayer
62
256
370
-1
100
AcDbLine
10
1.9944235884
20
5.83208141732
11
1.93886803285
21
5.83208141732
0
LINE
5
260
100
AcDbEntity
8
engrave
6
ByLayer
62
256
370
-1
100
AcDbLine
10
1.93886803285
20
5.83208141732
11
1.93886803285
21
5.63208141732
0
LINE
5
261
100
AcDbEntity
8
engrave
6
ByLayer
62
256
370
-1
100
AcDbLine
10
1.93886803285
20
5.63208141732
11
1.9944235884
21
5.63208141732
0
ARC
5
262
100
AcDbEntity
8
engrave
6
ByLayer
62
256
370
-1
100
AcDbCircle
10
1.9944235884
20
5.68763697288
40
0.0555555555556
100
AcDbArc
50
270
51
90
0
LINE
5
263
100
AcDbEntity
8
engrave
6
ByLayer
62
256
370
-1
100
AcDbLine
10
4.80220140858
20
5.76208141732
11
4.75775696413
21
5.76208141732
0
ARC
5
264
100
AcDbEntity
8
engrave
6
ByLayer
62
256
370
-1
100
AcDbCircle
10
4.75775693093
20
5.80652582856
40
0.0444444112411
100
AcDbArc
50
179.999957196
51
270.000042804
0
LINE
5
265
100
AcDbEntity
8
engrave
6
ByLayer
62
256
370
-1
100
AcDbLine
10
4.71331251969
20
5.80652586176
11
4.71331251969
21
5.91763697288
0
ARC
5
266
100
AcDbEntity
8
engrave
6
ByLayer
62
256
370
-1
100
AcDbCircle
10
4.75775693093
20
5.91763700608
40
0.0444444112411
100
AcDbArc
50
89.9999571957
51
180.000042804
0
LINE
5
267
100
AcDbEntity
8
engrave
6
ByLayer
62
256
370
-1
100
AcDbLine
10
4.75775696413
20
5.96208141732
11
4.80220140858
21
5.96208141732
0
LINE
5
268
100
AcDbEntity
8
engrave
6
ByLayer
62
256
370
-1
100
AcDbLine
10
4.87997918636
20
5.89541475065
11
4.9244236308
21
5.89541475065
0
ARC
5
269
100
AcDbEntity
8
engrave
6
ByLayer
62
256
370
-1
100
AcDbCircle
10
4.9244236557
20
5.86208144222
40
0.0333333084308
100
AcDbArc
50
359.999957196
51
90.0000428043
0
LINE
5
26A
100
AcDbEntity
8
engrave
6
ByLayer
62
256
370
-1
100
AcDbLine
10
4.95775696413
20
5.86208141732
11
4.95775696413
21
5.76208141732
0
LINE
5
26B
100
AcDbEntity
8
engrave
6
ByLayer
62
256
370
-1
100
AcDbLine
10
4.95775696413
20
5.76208141732
11
4.90220140858
21
5.76208141732
0
ARC
5
26C
100
AcDbEntity
8
engrave
6
ByLayer
62
256
370
-1
100
AcDbCircle
10
4.90220140858
20
5.79541475065
40
0.0333333333333
100
AcDbArc
50
90
51
270
0
LINE
5
26D
100
AcDbEntity
8
engrave
6
ByLayer
62
256
370
-1
100
AcDbLine
10
4.90220140858
20
5.82874808399
11
4.95775696413
21
5.82874808399
0
LINE
5
26E
100
AcDbEntity
8
engrave
6
ByLayer
62
256
370
-1
100
AcDbLine
10
5.09109029747
20
5.76208141732
11
5.09109029747
21
5.89541475065
0
LINE
5
26F
100
AcDbEntity
8
engrave
6
ByLayer
62
256
370
-1
100
AcDbLine
10
5.0244236308
20
5.76208141732
11
5.0244236308
21
5.89541475065
0
LINE
5
270
100
AcDbEntity
8
engrave
6
ByLayer
62
256
370
-1
100
AcDbLine
10
5.0244236308
20
5.89541475065
11
5.1244236308
21
5.89541475065
0
ARC
5
271
100
AcDbEntity
8
engrave
6
ByLayer
62
256
370
-1
100
AcDbCircle
10
5.1244236557
20
5.86208144222
40
0.0333333084308
100
AcDbArc
50
359.999957196
51
90.0000428043
0
LINE
5
272
100
AcDbEntity
8
engrave
6
ByLayer
62
256
370
-1
100
AcDbLine
10
5.15775696413
20
5.86208141732
11
5.15775696413
21
5.76208141732
0
LINE
5
273
100
AcDbEntity
8
engrave
6
ByLayer
62
256
370
-1
100
AcDbLine
10
5.31331251969
20
5.76208141732
11
5.25775696413
21
5.76208141732
0
ARC
5
274
100
AcDbEntity
8
engrave
6
ByLayer
62
256
370
-1
100
AcDbCircle
10
5.25775693923
20
5.79541472575
40
0.0333333084308
100
AcDbArc
50
179.999957196
51
270.000042804
0
LINE
5
275
100
AcDbEntity
8
engrave
6
ByLayer
62
256
370
-1
100
AcDbLine
10
5.2244236308
20
5.79541475065
11
5.2244236308
21
5.85097030621
0
ARC
5
276
100
AcDbEntity
8
engrave
6
ByLayer
62
256
370
-1
100
AcDbCircle
10
5.26886807525
20
5.85097030621
40
0.0444444444444
100
AcDbArc
50
0
51
180
0
LINE
5
277
100
AcDbEntity
8
engrave
6
ByLayer
62
256
370
-1
100
AcDbLine
10
5.31331251969
20
5.85097030621
11
5.31331251969
21
5.82874808399
0
LINE
5
278
100
AcDbEntity
8
engrave
6
ByLayer
62
256
370
-1
100
AcDbLine
10
5.31331251969
20
5.82874808399
11
5.2244236308
21
5.82874808399
0
LINE
5
279
100
AcDbEntity
8
engrave
6
ByLayer
62
256
370
-1
100
AcDbLine
10
5.37997918636
20
5.76208141732
11
5.37997918636
21
5.89541475065
0
LINE
5
27A
100
AcDbEntity
8
engrave
6
ByLayer
62
256
370
-1
100
AcDbLine
10
5.37997918636
20
5.89541475065
11
5.44664585302
21
5.89541475065
0
LINE
5
27B
100
AcDbEntity
8
engrave
6
ByLayer
62
256
370
-1
100
AcDbLine
10
5.44664585302
20
5.89541475065
11
5.44664585302
21
5.87319252843
0
LINE
5
27C
100
AcDbEntity
8
engrave
6
ByLayer
62
256
370
-1
100
AcDbLine
10
5.5244236308
20
5.89541475065
11
5.56886807525
21
5.89541475065
0
ARC
5
27D
100
AcDbEntity
8
engrave
6
ByLayer
62
256
370
-1
100
AcDbCircle
10
5.56886810015
20
5.86208144222
40
0.0333333084308
100
AcDbArc
50
359.999957196
51
90.0000428043
0
LINE
5
27E
100
AcDbEntity
8
engrave
6
ByLayer
62
256
370
-1
100
AcDbLine
10
5.60220140858
20
5.86208141732
11
5.60220140858
21
5.76208141732
0
LINE
5
27F
100
AcDbEntity
8
engrave
6
ByLayer
62
256
370
-1
100
AcDbLine
10
5.60220140858
20
5.76208141732
11
5.54664585302
21
5.76208141732
0
ARC
5
280
100
AcDbEntity
8
engrave
6
ByLayer
62
256
370
-1
100
AcDbCircle
10
5.54664585302
20
5.79541475065
40
0.0333333333333
100
AcDbArc
50
90
51
270
0
LINE
5
281
100
AcDbEntity
8
engrave
6
ByLayer
62
256
370
-1
100
AcDbLine
10
5.54664585302
20
5.82874808399
11
5.60220140858
21
5.82874808399
0
LINE
5
282
100
AcDbEntity
8
engrave
6
ByLayer
62
256
370
-1
100
AcDbLine
10
5.81886807525
20
5.96208141732
11
5.92997918636
21
5.96208141732
0
LINE
5
283
100
AcDbEntity
8
engrave
6
ByLayer
62
256
370
-1
100
AcDbLine
10
5.8744236308
20
5.96208141732
11
5.8744236308
21
5.76208141732
0
LINE
5
284
100
AcDbEntity
8
engrave
6
ByLayer
62
256
370
-1
100
AcDbLine
10
5.99664585302
20
5.76208141732
11
5.99664585302
21
5.89541475065
0
LINE
5
285
100
AcDbEntity
8
engrave
6
ByLayer
62
256
370
-1
100
AcDbLine
10
5.99664585302
20
5.89541475065
11
6.06331251969
21
5.89541475065
0
LINE
5
286
100
AcDbEntity
8
engrave
6
ByLayer
62
256
370
-1
100
AcDbLine
10
6.06331251969
20
5.89541475065
11
6.06331251969
21
5.87319252843
0
LINE
5
287
100
AcDbEntity
8
engrave
6
ByLayer
62
256
370
-1
100
AcDbLine
10
6.12997918636
20
5.76208141732
11
6.12997918636
21
5.89541475065
0
LINE
5
288
100
AcDbEntity
8
engrave
6
ByLayer
62
256
370
-1
100
AcDbLine
10
6.12997918636
20
5.95097030621
11
6.12997918636
21
5.96208141732
0
LINE
5
289
100
AcDbEntity
8
engrave
6
ByLayer
62
256
370
-1
100
AcDbLine
10
6.20775696413
20
5.69541475065
11
6.25220140858
21
5.69541475065
0
ARC
5
28A
100
AcDbEntity
8
engrave
6
ByLayer
62
256
370
-1
100
AcDbCircle
10
6.25220143348
20
5.72874805908
40
0.0333333084308
100
AcDbArc
50
269.999957196
51
4.28042869768e-05
0
LINE
5
28B
100
AcDbEntity
8
engrave
6
ByLayer
62
256
370
-1
100
AcDbLine
10
6.28553474191
20
5.72874808399
11
6.28553474191
21
5.89541475065
0
LINE
5
28C
100
AcDbEntity
8
engrave
6
ByLayer
62
256
370
-1
100
AcDbLine
10
6.28553474191
20
5.89541475065
11
6.22997918636
21
5.89541475065
0
ARC
5
28D
100
AcDbEntity
8
engrave
6
ByLayer
62
256
370
-1
100
AcDbCircle
10
6.22997916145
20
5.86208144222
40
0.0333333084308
100
AcDbArc
50
89.9999571957
51
180.000042804
0
LINE
5
28E
100
AcDbEntity
8
engrave
6
ByLayer
62
256
370
-1
100
AcDbLine
10
6.19664585302
20
5.86208141732
11
6.19664585302
21
5.79541475065
0
ARC
5
28F
100
AcDbEntity
8
engrave
6
ByLayer
62
256
370
-1
100
AcDbCircle
10
6.22997916145
20
5.79541472575
40
0.0333333084308
100
AcDbArc
50
179.999957196
51
270.000042804
0
LINE
5
290
100
AcDbEntity
8
engrave
6
ByLayer
62
256
370
-1
100
AcDbLine
10
6.22997918636
20
5.76208141732
11
6.28553474191
21
5.76208141732
0
LINE
5
291
100
AcDbEntity
8
engrave
6
ByLayer
62
256
370
-1
100
AcDbLine
10
6.36331251969
20
5.69541475065
11
6.40775696413
21
5.69541475065
0
ARC
5
292
100
AcDbEntity
8
engrave
6
ByLayer
62
256
370
-1
100
AcDbCircle
10
6.40775698904
20
5.72874805908
40
0.0333333084308
100
AcDbArc
50
269.999957196
51
4.28042869768e-05
0
LINE
5
293
100
AcDbEntity
8
engrave
6
ByLayer
62
256
370
-1
100
AcDbLine
10
6.44109029747
20
5.72874808399
11
6.44109029747
21
5.89541475065
0
LINE
5
294
100
AcDbEntity
8
engrave
6
ByLayer
62
256
370
-1
100
AcDbLine
10
6.44109029747
20
5.89541475065
11
6.38553474191
21
5.89541475065
0
ARC
5
295
100
AcDbEntity
8
engrave
6
ByLayer
62
256
370
-1
100
AcDbCircle
10
6.38553471701
20
5.86208144222
40
0.0333333084308
100
AcDbArc
50
89.9999571957
51
180.000042804
0
LINE
5
296
100
AcDbEntity
8
engrave
6
ByLayer
62
256
370
-1
100
AcDbLine
10
6.35220140858
20
5.86208141732
11
6.35220140858
21
5.79541475065
0
ARC
5
297
100
AcDbEntity
8
engrave
6
ByLayer
62
256
370
-1
100
AcDbCircle
10
6.38553471701
20
5.79541472575
40
0.0333333084308
100
AcDbArc
50
179.999957196
51
270.000042804
0
LINE
5
298
100
AcDbEntity
8
engrave
6
ByLayer
62
256
370
-1
100
AcDbLine
10
6.38553474191
20
5.76208141732
11
6.44109029747
21
5.76208141732
0
LINE
5
299
100
AcDbEntity
8
engrave
6
ByLayer
62
256
370
-1
100
AcDbLine
10
6.59664585302
20
5.76208141732
11
6.54109029747
21
5.76208141732
0
ARC
5
29A
100
AcDbEntity
8
engrave
6
ByLayer
62
256
370
-1
100
AcDbCircle
10
6.54109027257
20
5.79541472575
40
0.0333333084308
100
AcDbArc
50
179.999957196
51
270.000042804
0
LINE
5
29B
100
AcDbEntity
8
engrave
6
ByLayer
62
256
370
-1
100
AcDbLine
10
6.50775696413
20
5.79541475065
11
6.50775696413
21
5.85097030621
0
ARC
5
29C
100
AcDbEntity
8
engrave
6
ByLayer
62
256
370
-1
100
AcDbCircle
10
6.55220140858
20
5.85097030621
40
0.0444444444444
100
AcDbArc
50
0
51
180
0
LINE
5
29D
100
AcDbEntity
8
engrave
6
ByLayer
62
256
370
-1
100
AcDbLine
10
6.59664585302
20
5.85097030621
11
6.59664585302
21
5.82874808399
0
LINE
5
29E
100
AcDbEntity
8
engrave
6
ByLayer
62
256
370
-1
100
AcDbLine
10
6.59664585302
20
5.82874808399
11
6.50775696413
21
5.82874808399
0
LINE
5
29F
100
AcDbEntity
8
engrave
6
ByLayer
62
256
370
-1
100
AcDbLine
10
6.66331251969
20
5.76208141732
11
6.66331251969
21
5.89541475065
0
LINE
5
2A0
100
AcDbEntity
8
engrave
6
ByLayer
62
256
370
-1
100
AcDbLine
10
6.66331251969
20
5.89541475065
11
6.72997918636
21
5.89541475065
0
LINE
5
2A1
100
AcDbEntity
8
engrave
6
ByLayer
62
256
370
-1
100
AcDbLine
10
6.72997918636
20
5.89541475065
11
6.72997918636
21
5.87319252843
0
ARC
5
2A2
100
AcDbEntity
8
engrave
6
ByLayer
62
256
370
-1
100
AcDbCircle
10
6.85771223391
20
5.93544651222
40
0.17336510067
100
AcDbArc
50
249.375524082
51
270.01478298
0
ARC
5
2A3
100
AcDbEntity
8
engrave
6
ByLayer
62
256
370
-1
100
AcDbCircle
10
6.85775719422
20
5.78985906787
40
0.0277776505537
100
AcDbArc
50
269.999525421
51
64.2329219197
0
LINE
5
2A4
100
AcDbEntity
8
engrave
6
ByLayer
62
256
370
-1
100
AcDbLine
10
6.86983251969
20
5.81487475065
11
6.81234807525
21
5.84262141732
0
ARC
5
2A5
100
AcDbEntity
8
engrave
6
ByLayer
62
256
370
-1
100
AcDbCircle
10
6.82432510302
20
5.86765958399
40
0.0277553415475
100
AcDbArc
50
89.796607162
51
244.435840178
0
ARC
5
2A6
100
AcDbEntity
8
engrave
6
ByLayer
62
256
370
-1
100
AcDbCircle
10
6.82412338119
20
5.77600807183
40
0.119407056318
100
AcDbArc
50
65.086455246
51
89.8559293357
0
LINE
5
2A7
100
AcDbEntity
8
engrave
6
ByLayer
62
256
370
-1
100
AcDbLine
10
1.57162503937
20
15.9191627165
11
1.57162503937
21
15.7747182721
0
ARC
5
2A8
100
AcDbEntity
8
engrave
6
ByLayer
62
256
370
-1
100
AcDbCircle
10
1.62718059493
20
15.7747182721
40
0.0555555555556
100
AcDbArc
50
180
51
0
0
LINE
5
2A9
100
AcDbEntity
8
engrave
6
ByLayer
62
256
370
-1
100
AcDbLine
10
1.68273615048
20
15.7747182721
11
1.68273615048
21
15.9191627165
0
ARC
5
2AA
100
AcDbEntity
8
engrave
6
ByLayer
62
256
370
-1
100
AcDbCircle
10
1.81606941023
20
15.8302736069
40
0.11111089037
100
AcDbArc
50
233.130064412
51
270.000037943
0
ARC
5
2AB
100
AcDbEntity
8
engrave
6
ByLayer
62
256
370
-1
100
AcDbCircle
10
1.8160694668
20
15.7636071356
40
0.0444444190604
100
AcDbArc
50
270.000021937
51
62.9810193843
0
LINE
5
2AC
100
AcDbEntity
8
engrave
6
ByLayer
62
256
370
-1
100
AcDbLine
10
1.83625992826
20
15.8032007165
11
1.77365681715
21
15.8351247165
0
ARC
5
2AD
100
AcDbEntity
8
engrave
6
ByLayer
62
256
370
-1
100
AcDbCircle
10
1.79384727861
20
15.8747182974
40
0.0444444190604
100
AcDbArc
50
90.0000219368
51
242.981019384
0
ARC
5
2AE
100
AcDbEntity
8
engrave
6
ByLayer
62
256
370
-1
100
AcDbCircle
10
1.7938472577
20
15.7747182526
40
0.144444463888
100
AcDbArc
50
67.3801365945
51
89.9999984575
0
LINE
5
2AF
100
AcDbEntity
8
engrave
6
ByLayer
62
256
370
-1
100
AcDbLine
10
1.98273610808
20
15.8302738276
11
1.92718055253
21
15.8302738276
0
ARC
5
2B0
100
AcDbEntity
8
engrave
6
ByLayer
62
256
370
-1
100
AcDbCircle
10
1.98273610808
20
15.8747182721
40
0.0444444444444
100
AcDbArc
50
270
51
90
0
LINE
5
2B1
100
AcDbEntity
8
engrave
6
ByLayer
62
256
370
-1
100
AcDbLine
10
1.98273610808
20
15.9191627165
11
1.92718055253
21
15.9191627165
0
LINE
5
2B2
100
AcDbEntity
8
engrave
6
ByLayer
62
256
370
-1
100
AcDbLine
10
1.92718055253
20
15.9191627165
11
1.92718055253
21
15.7191627165
0
LINE
5
2B3
100
AcDbEntity
8
engrave
6
ByLayer
62
256
370
-1
100
AcDbLine
10
1.92718055253
20
15.7191627165
11
1.98273610808
21
15.7191627165
0
ARC
5
2B4
100
AcDbEntity
8
engrave
6
ByLayer
62
256
370
-1
100
AcDbCircle
10
1.98273610808
20
15.7747182721
40
0.0555555555556
100
AcDbArc
50
270
51
90
0
LINE
5
2B5
100
AcDbEntity
8
engrave
6
ByLayer
62
256
370
-1
100
AcDbLine
10
4.79051392826
20
15.8491627165
11
4.74606948381
21
15.8491627165
0
ARC
5
2B6
100
AcDbEntity
8
engrave
6
ByLayer
62
256
370
-1
100
AcDbCircle
10
4.74606945061
20
15.8936071277
40
0.0444444112411
100
AcDbArc
50
179.999957196
51
270.000042804
0
LINE
5
2B7
100
AcDbEntity
8
engrave
6
ByLayer
62
256
370
-1
100
AcDbLine
10
4.70162503937
20
15.8936071609
11
4.70162503937
21
16.0047182721
0
ARC
5
2B8
100
AcDbEntity
8
engrave
6
ByLayer
62
256
370
-1
100
AcDbCircle
10
4.74606945061
20
16.0047183053
40
0.0444444112411
100
AcDbArc
50
89.9999571957
51
180.000042804
0
LINE
5
2B9
100
AcDbEntity
8
engrave
6
ByLayer
62
256
370
-1
100
AcDbLine
10
4.74606948381
20
16.0491627165
11
4.79051392826
21
16.0491627165
0
LINE
5
2BA
100
AcDbEntity
8
engrave
6
ByLayer
62
256
370
-1
100
AcDbLine
10
4.86829170604
20
15.9824960498
11
4.91273615048
21
15.9824960498
0
ARC
5
2BB
100
AcDbEntity
8
engrave
6
ByLayer
62
256
370
-1
100
AcDbCircle
10
4.91273617538
20
15.9491627414
40
0.0333333084308
100
AcDbArc
50
359.999957196
51
90.0000428043
0
LINE
5
2BC
100
AcDbEntity
8
engrave
6
ByLayer
62
256
370
-1
100
AcDbLine
10
4.94606948381
20
15.9491627165
11
4.94606948381
21
15.8491627165
0
LINE
5
2BD
100
AcDbEntity
8
engrave
6
ByLayer
62
256
370
-1
100
AcDbLine
10
4.94606948381
20
15.8491627165
11
4.89051392826
21
15.8491627165
0
ARC
5
2BE
100
AcDbEntity
8
engrave
6
ByLayer
62
256
370
-1
100
AcDbCircle
10
4.89051392826
20
15.8824960498
40
0.0333333333333
100
AcDbArc
50
90
51
270
0
LINE
5
2BF
100
AcDbEntity
8
engrave
6
ByLayer
62
256
370
-1
100
AcDbLine
10
4.89051392826
20
15.9158293832
11
4.94606948381
21
15.9158293832
0
LINE
5
2C0
100
AcDbEntity
8
engrave
6
ByLayer
62
256
370
-1
100
AcDbLine
10
5.07940281715
20
15.8491627165
11
5.07940281715
21
15.9824960498
0
LINE
5
2C1
100
AcDbEntity
8
engrave
6
ByLayer
62
256
370
-1
100
AcDbLine
10
5.01273615048
20
15.8491627165
11
5.01273615048
21
15.9824960498
0
LINE
5
2C2
100
AcDbEntity
8
engrave
6
ByLayer
62
256
370
-1
100
AcDbLine
10
5.01273615048
20
15.9824960498
11
5.11273615048
21
15.9824960498
0
ARC
5
2C3
100
AcDbEntity
8
engrave
6
ByLayer
62
256
370
-1
100
AcDbCircle
10
5.11273617538
20
15.9491627414
40
0.0333333084308
100
AcDbArc
50
359.999957196
51
90.0000428043
0
LINE
5
2C4
100
AcDbEntity
8
engrave
6
ByLayer
62
256
370
-1
100
AcDbLine
10
5.14606948381
20
15.9491627165
11
5.14606948381
21
15.8491627165
0
LINE
5
2C5
100
AcDbEntity
8
engrave
6
ByLayer
62
256
370
-1
100
AcDbLine
10
5.30162503937
20
15.8491627165
11
5.24606948381
21
15.8491627165
0
ARC
5
2C6
100
AcDbEntity
8
engrave
6
ByLayer
62
256
370
-1
100
AcDbCircle
10
5.24606945891
20
15.8824960249
40
0.0333333084308
100
AcDbArc
50
179.999957196
51
270.000042804
0
LINE
5
2C7
100
AcDbEntity
8
engrave
6
ByLayer
62
256
370
-1
100
AcDbLine
10
5.21273615048
20
15.8824960498
11
5.21273615048
21
15.9380516054
0
ARC
5
2C8
100
AcDbEntity
8
engrave
6
ByLayer
62
256
370
-1
100
AcDbCircle
10
5.25718059493
20
15.9380516054
40
0.0444444444444
100
AcDbArc
50
0
51
180
0
LINE
5
2C9
100
AcDbEntity
8
engrave
6
ByLayer
62
256
370
-1
100
AcDbLine
10
5.30162503937
20
15.9380516054
11
5.30162503937
21
15.9158293832
0
LINE
5
2CA
100
AcDbEntity
8
engrave
6
ByLayer
62
256
370
-1
100
AcDbLine
10
5.30162503937
20
15.9158293832
11
5.21273615048
21
15.9158293832
0
LINE
5
2CB
100
AcDbEntity
8
engrave
6
ByLayer
62
256
370
-1
100
AcDbLine
10
5.36829170604
20
15.8491627165
11
5.36829170604
21
15.9824960498
0
LINE
5
2CC
100
AcDbEntity
8
engrave
6
ByLayer
62
256
370
-1
100
AcDbLine
10
5.36829170604
20
15.9824960498
11
5.4349583727
21
15.9824960498
0
LINE
5
2CD
100
AcDbEntity
8
engrave
6
ByLayer
62
256
370
-1
100
AcDbLine
10
5.4349583727
20
15.9824960498
11
5.4349583727
21
15.9602738276
0
LINE
5
2CE
100
AcDbEntity
8
engrave
6
ByLayer
62
256
370
-1
100
AcDbLine
10
5.51273615048
20
15.9824960498
11
5.55718059493
21
15.9824960498
0
ARC
5
2CF
100
AcDbEntity
8
engrave
6
ByLayer
62
256
370
-1
100
AcDbCircle
10
5.55718061983
20
15.9491627414
40
0.0333333084308
100
AcDbArc
50
359.999957196
51
90.0000428043
0
LINE
5
2D0
100
AcDbEntity
8
engrave
6
ByLayer
62
256
370
-1
100
AcDbLine
10
5.59051392826
20
15.9491627165
11
5.59051392826
21
15.8491627165
0
LINE
5
2D1
100
AcDbEntity
8
engrave
6
ByLayer
62
256
370
-1
100
AcDbLine
10
5.59051392826
20
15.8491627165
11
5.5349583727
21
15.8491627165
0
ARC
5
2D2
100
AcDbEntity
8
engrave
6
ByLayer
62
256
370
-1
100
AcDbCircle
10
5.5349583727
20
15.8824960498
40
0.0333333333333
100
AcDbArc
50
90
51
270
0
LINE
5
2D3
100
AcDbEntity
8
engrave
6
ByLayer
62
256
370
-1
100
AcDbLine
10
5.5349583727
20
15.9158293832
11
5.59051392826
21
15.9158293832
0
LINE
5
2D4
100
AcDbEntity
8
engrave
6
ByLayer
62
256
370
-1
100
AcDbLine
10
5.80718059493
20
16.0491627165
11
5.91829170604
21
16.0491627165
0
LINE
5
2D5
100
AcDbEntity
8
engrave
6
ByLayer
62
256
370
-1
100
AcDbLine
10
5.86273615048
20
16.0491627165
11
5.86273615048
21
15.8491627165
0
LINE
5
2D6
100
AcDbEntity
8
engrave
6
ByLayer
62
256
370
-1
100
AcDbLine
10
5.9849583727
20
15.8491627165
11
5.9849583727
21
15.9824960498
0
LINE
5
2D7
100
AcDbEntity
8
engrave
6
ByLayer
62
256
370
-1
100
AcDbLine
10
5.9849583727
20
15.9824960498
11
6.05162503937
21
15.9824960498
0
LINE
5
2D8
100
AcDbEntity
8
engrave
6
ByLayer
62
256
370
-1
100
AcDbLine
10
6.05162503937
20
15.9824960498
11
6.05162503937
21
15.9602738276
0
LINE
5
2D9
100
AcDbEntity
8
engrave
6
ByLayer
62
256
370
-1
100
AcDbLine
10
6.11829170604
20
15.8491627165
11
6.11829170604
21
15.9824960498
0
LINE
5
2DA
100
AcDbEntity
8
engrave
6
ByLayer
62
256
370
-1
100
AcDbLine
10
6.11829170604
20
16.0380516054
11
6.11829170604
21
16.0491627165
0
LINE
5
2DB
100
AcDbEntity
8
engrave
6
ByLayer
62
256
370
-1
100
AcDbLine
10
6.19606948381
20
15.7824960498
11
6.24051392826
21
15.7824960498
0
ARC
5
2DC
100
AcDbEntity
8
engrave
6
ByLayer
62
256
370
-1
100
AcDbCircle
10
6.24051395316
20
15.8158293583
40
0.0333333084308
100
AcDbArc
50
269.999957196
51
4.28042869768e-05
0
LINE
5
2DD
100
AcDbEntity
8
engrave
6
ByLayer
62
256
370
-1
100
AcDbLine
10
6.27384726159
20
15.8158293832
11
6.27384726159
21
15.9824960498
0
LINE
5
2DE
100
AcDbEntity
8
engrave
6
ByLayer
62
256
370
-1
100
AcDbLine
10
6.27384726159
20
15.9824960498
11
6.21829170604
21
15.9824960498
0
ARC
5
2DF
100
AcDbEntity
8
engrave
6
ByLayer
62
256
370
-1
100
AcDbCircle
10
6.21829168113
20
15.9491627414
40
0.0333333084308
100
AcDbArc
50
89.9999571957
51
180.000042804
0
LINE
5
2E0
100
AcDbEntity
8
engrave
6
ByLayer
62
256
370
-1
100
AcDbLine
10
6.1849583727
20
15.9491627165
11
6.1849583727
21
15.8824960498
0
ARC
5
2E1
100
AcDbEntity
8
engrave
6
ByLayer
62
256
370
-1
100
AcDbCircle
10
6.21829168113
20
15.8824960249
40
0.0333333084308
100
AcDbArc
50
179.999957196
51
270.000042804
0
LINE
5
2E2
100
AcDbEntity
8
engrave
6
ByLayer
62
256
370
-1
100
AcDbLine
10
6.21829170604
20
15.8491627165
11
6.27384726159
21
15.8491627165
0
LINE
5
2E3
100
AcDbEntity
8
engrave
6
ByLayer
62
256
370
-1
100
AcDbLine
10
6.35162503937
20
15.7824960498
11
6.39606948381
21
15.7824960498
0
ARC
5
2E4
100
AcDbEntity
8
engrave
6
ByLayer
62
256
370
-1
100
AcDbCircle
10
6.39606950872
20
15.8158293583
40
0.0333333084308
100
AcDbArc
50
269.999957196
51
4.28042869768e-05
0
LINE
5
2E5
100
AcDbEntity
8
engrave
6
ByLayer
62
256
370
-1
100
AcDbLine
10
6.42940281715
20
15.8158293832
11
6.42940281715
21
15.9824960498
0
LINE
5
2E6
100
AcDbEntity
8
engrave
6
ByLayer
62
256
370
-1
100
AcDbLine
10
6.42940281715
20
15.9824960498
11
6.37384726159
21
15.9824960498
0
ARC
5
2E7
100
AcDbEntity
8
engrave
6
ByLayer
62
256
370
-1
100
AcDbCircle
10
6.37384723669
20
15.9491627414
40
0.0333333084308
100
AcDbArc
50
89.9999571957
51
180.000042804
0
LINE
5
2E8
100
AcDbEntity
8
engrave
6
ByLayer
62
256
370
-1
100
AcDbLine
10
6.34051392826
20
15.9491627165
11
6.34051392826
21
15.8824960498
0
ARC
5
2E9
100
AcDbEntity
8
engrave
6
ByLayer
62
256
370
-1
100
AcDbCircle
10
6.37384723669
20
15.8824960249
40
0.0333333084308
100
AcDbArc
50
179.999957196
51
270.000042804
0
LINE
5
2EA
100
AcDbEntity
8
engrave
6
ByLayer
62
256
370
-1
100
AcDbLine
10
6.37384726159
20
15.8491627165
11
6.42940281715
21
15.8491627165
0
LINE
5
2EB
100
AcDbEntity
8
engrave
6
ByLayer
62
256
370
-1
100
AcDbLine
10
6.5849583727
20
15.8491627165
11
6.52940281715
21
15.8491627165
0
ARC
5
2EC
100
AcDbEntity
8
engrave
6
ByLayer
62
256
370
-1
100
AcDbCircle
10
6.52940279225
20
15.8824960249
40
0.0333333084308
100
AcDbArc
50
179.999957196
51
270.000042804
0
LINE
5
2ED
100
AcDbEntity
8
engrave
6
ByLayer
62
256
370
-1
100
AcDbLine
10
6.49606948381
20
15.8824960498
11
6.49606948381
21
15.9380516054
0
ARC
5
2EE
100
AcDbEntity
8
engrave
6
ByLayer
62
256
370
-1
100
AcDbCircle
10
6.54051392826
20
15.9380516054
40
0.0444444444444
100
AcDbArc
50
0
51
180
0
LINE
5
2EF
100
AcDbEntity
8
engrave
6
ByLayer
62
256
370
-1
100
AcDbLine
10
6.5849583727
20
15.9380516054
11
6.5849583727
21
15.9158293832
0
LINE
5
2F0
100
AcDbEntity
8
engrave
6
ByLayer
62
256
370
-1
100
AcDbLine
10
6.5849583727
20
15.9158293832
11
6.49606948381
21
15.9158293832
0
LINE
5
2F1
100
AcDbEntity
8
engrave
6
ByLayer
62
256
370
-1
100
AcDbLine
10
6.65162503937
20
15.8491627165
11
6.65162503937
21
15.9824960498
0
LINE
5
2F2
100
AcDbEntity
8
engrave
6
ByLayer
62
256
370
-1
100
AcDbLine
10
6.65162503937
20
15.9824960498
11
6.71829170604
21
15.9824960498
0
LINE
5
2F3
100
AcDbEntity
8
engrave
6
ByLayer
62
256
370
-1
100
AcDbLine
10
6.71829170604
20
15.9824960498
11
6.71829170604
21
15.9602738276
0
ARC
5
2F4
100
AcDbEntity
8
engrave
6
ByLayer
62
256
370
-1
100
AcDbCircle
10
6.84602475359
20
16.0225278114
40
0.17336510067
100
AcDbArc
50
249.375524082
51
270.01478298
0
ARC
5
2F5
100
AcDbEntity
8
engrave
6
ByLayer
62
256
370
-1
100
AcDbCircle
10
6.8460697139
20
15.8769403671
40
0.0277776505537
100
AcDbArc
50
269.999525421
51
64.2329219197
0
LINE
5
2F6
100
AcDbEntity
8
engrave
6
ByLayer
62
256
370
-1
100
AcDbLine
10
6.85814503937
20
15.9019560498
11
6.80066059493
21
15.9297027165
0
ARC
5
2F7
100
AcDbEntity
8
engrave
6
ByLayer
62
256
370
-1
100
AcDbCircle
10
6.8126376227
20
15.9547408832
40
0.0277553415475
100
AcDbArc
50
89.796607162
51
244.435840178
0
ARC
5
2F8
100
AcDbEntity
8
engrave
6
ByLayer
62
256
370
-1
100
AcDbCircle
10
6.81243590087
20
15.863089371
40
0.119407056318
100
AcDbArc
50
65.086455246
51
89.8559293357
0
ENDSEC
0
SECTION
2
OBJECTS
0
DICTIONARY
5
C
330
0
100
AcDbDictionary
281
1
3
ACAD_GROUP
350
D
0
DICTIONARY
5
D
330
C
100
AcDbDictionary
281
1
0
ENDSEC
0
EOF
