999
dxfrw 0.5.10
0
SECTION
2
HEADER
9
$ACADVER
1
AC1021
9
$HANDSEED
5
20000
9
$DWGCODEPAGE
3
ANSI_1252
9
$INSBASE
10
0
20
0
30
0
9
$EXTMIN
10
-54.943138
20
-19.351865
30
0
9
$EXTMAX
10
260.137732
20
308.94401
30
0
9
$LIMMIN
10
0
20
0
9
$LIMMAX
10
420
20
297
9
$ORTHOMODE
70
0
9
$LTSCALE
40
1
9
$TEXTSTYLE
7
STANDARD
9
$CLAYER
8
0
9
$DIMASZ
40
0.1
9
$DIMLFAC
40
1
9
$DIMSCALE
40
1
9
$DIMEXO
40
0.025
9
$DIMEXE
40
0.05
9
$DIMTXT
40
0.1
9
$DIMTSZ
40
0
9
$DIMAUNIT
70
0
9
$DIMADEC
70
0
9
$DIMLUNIT
70
2
9
$DIMSTYLE
2
Standard
9
$DIMGAP
40
0.025
9
$DIMTIH
70
0
9
$LUNITS
70
2
9
$LUPREC
70
4
9
$AUNITS
70
0
9
$AUPREC
70
2
9
$SPLINESEGS
70
8
9
$GRIDMODE
70
0
9
$SNAPSTYLE
70
0
9
$PINSBASE
10
0
20
0
30
0
9
$PLIMMIN
10
0
20
0
9
$PLIMMAX
10
1.98632684294e-05
20
2.80923367787e-05
9
$INSUNITS
70
1
9
$PSVPSCALE
40
1
0
ENDSEC
0
SECTION
2
CLASSES
0
ENDSEC
0
SECTION
2
TABLES
0
TABLE
2
VPORT
5
8
330
0
100
AcDbSymbolTable
70
1
0
VPORT
5
31
330
2
100
AcDbSymbolTableRecord
100
AcDbViewportTableRecord
2
*ACTIVE
70
0
10
0
20
0
11
1
21
1
12
147.677165354
22
96.4824146982
13
0
23
0
14
10
24
10
15
10
25
10
16
0
26
0
36
1
17
0
27
0
37
0
40
272.8
41
1.81102362205
42
50
43
0
44
0
50
0
51
0
71
0
72
100
73
1
74
3
75
0
76
0
77
0
78
0
281
0
65
1
110
0
120
0
130
0
111
1
121
0
131
0
112
0
122
1
132
0
79
0
146
0
348
10020
60
7
61
5
292
1
282
1
141
0
142
0
63
250
421
3358443
0
ENDTAB
0
TABLE
2
LTYPE
5
5
330
0
100
AcDbSymbolTable
70
4
0
LTYPE
5
14
330
5
100
AcDbSymbolTableRecord
100
AcDbLinetypeTableRecord
2
ByBlock
70
0
3

72
65
73
0
40
0
0
LTYPE
5
15
330
5
100
AcDbSymbolTableRecord
100
AcDbLinetypeTableRecord
2
ByLayer
70
0
3

72
65
73
0
40
0
0
LTYPE
5
16
330
5
100
AcDbSymbolTableRecord
100
AcDbLinetypeTableRecord
2
Continuous
70
0
3
Solid line
72
65
73
0
40
0
0
LTYPE
5
32
330
5
100
AcDbSymbolTableRecord
100
AcDbLinetypeTableRecord
2
DOT
70
0
3
Dot . . . . . . . . . . . . . . . . . . . . . .
72
65
73
2
40
6.35
49
0
74
0
49
-6.35
74
0
0
LTYPE
5
33
330
5
100
AcDbSymbolTableRecord
100
AcDbLinetypeTableRecord
2
DOT2
70
0
3
Dot (.5x) .....................................
72
65
73
2
40
3.175
49
0
74
0
49
-3.175
74
0
0
LTYPE
5
34
330
5
100
AcDbSymbolTableRecord
100
AcDbLinetypeTableRecord
2
DOTX2
70
0
3
Dot (2x) .  .  .  .  .  .  .  .  .  .  .  .  .
72
65
73
2
40
12.7
49
0
74
0
49
-12.7
74
0
0
LTYPE
5
35
330
5
100
AcDbSymbolTableRecord
100
AcDbLinetypeTableRecord
2
DASHED
70
0
3
Dot . . . . . . . . . . . . . . . . . . . . . .
72
65
73
2
40
19.05
49
12.7
74
0
49
-6.35
74
0
0
LTYPE
5
36
330
5
100
AcDbSymbolTableRecord
100
AcDbLinetypeTableRecord
2
DASHED2
70
0
3
Dashed (.5x) _ _ _ _ _ _ _ _ _ _ _ _ _ _ _ _ _
72
65
73
2
40
9.525
49
6.35
74
0
49
-3.175
74
0
0
LTYPE
5
37
330
5
100
AcDbSymbolTableRecord
100
AcDbLinetypeTableRecord
2
DASHEDX2
70
0
3
Dashed (2x) ____  ____  ____  ____  ____  ___
72
65
73
2
40
38.1
49
25.4
74
0
49
-12.7
74
0
0
LTYPE
5
38
330
5
100
AcDbSymbolTableRecord
100
AcDbLinetypeTableRecord
2
DASHDOT
70
0
3
Dash dot __ . __ . __ . __ . __ . __ . __ . __
72
65
73
4
40
25.4
49
12.7
74
0
49
-6.35
74
0
49
0
74
0
49
-6.35
74
0
0
LTYPE
5
39
330
5
100
AcDbSymbolTableRecord
100
AcDbLinetypeTableRecord
2
DASHDOT2
70
0
3
Dash dot (.5x) _._._._._._._._._._._._._._._.
72
65
73
4
40
12.7
49
6.35
74
0
49
-3.175
74
0
49
0
74
0
49
-3.175
74
0
0
LTYPE
5
3A
330
5
100
AcDbSymbolTableRecord
100
AcDbLinetypeTableRecord
2
DASHDOTX2
70
0
3
Dash dot (2x) ____  .  ____  .  ____  .  ___
72
65
73
4
40
50.8
49
25.4
74
0
49
-12.7
74
0
49
0
74
0
49
-12.7
74
0
0
LTYPE
5
3B
330
5
100
AcDbSymbolTableRecord
100
AcDbLinetypeTableRecord
2
DIVIDE
70
0
3
Divide ____ . . ____ . . ____ . . ____ . . ____
72
65
73
6
40
31.75
49
12.7
74
0
49
-6.35
74
0
49
0
74
0
49
-6.35
74
0
49
0
74
0
49
-6.35
74
0
0
LTYPE
5
3C
330
5
100
AcDbSymbolTableRecord
100
AcDbLinetypeTableRecord
2
DIVIDE2
70
0
3
Divide (.5x) __..__..__..__..__..__..__..__.._
72
65
73
6
40
15.875
49
6.35
74
0
49
-3.175
74
0
49
0
74
0
49
-3.175
74
0
49
0
74
0
49
-3.175
74
0
0
LTYPE
5
3D
330
5
100
AcDbSymbolTableRecord
100
AcDbLinetypeTableRecord
2
DIVIDEX2
70
0
3
Divide (2x) ________  .  .  ________  .  .  _
72
65
73
6
40
63.5
49
25.4
74
0
49
-12.7
74
0
49
0
74
0
49
-12.7
74
0
49
0
74
0
49
-12.7
74
0
0
LTYPE
5
3E
330
5
100
AcDbSymbolTableRecord
100
AcDbLinetypeTableRecord
2
BORDER
70
0
3
Border __ __ . __ __ . __ __ . __ __ . __ __ .
72
65
73
6
40
44.45
49
12.7
74
0
49
-6.35
74
0
49
12.7
74
0
49
-6.35
74
0
49
0
74
0
49
-6.35
74
0
0
LTYPE
5
3F
330
5
100
AcDbSymbolTableRecord
100
AcDbLinetypeTableRecord
2
BORDER2
70
0
3
Border (.5x) __.__.__.__.__.__.__.__.__.__.__.
72
65
73
6
40
22.225
49
6.35
74
0
49
-3.175
74
0
49
6.35
74
0
49
-3.175
74
0
49
0
74
0
49
-3.175
74
0
0
LTYPE
5
40
330
5
100
AcDbSymbolTableRecord
100
AcDbLinetypeTableRecord
2
BORDERX2
70
0
3
Border (2x) ____  ____  .  ____  ____  .  ___
72
65
73
6
40
88.9
49
25.4
74
0
49
-12.7
74
0
49
25.4
74
0
49
-12.7
74
0
49
0
74
0
49
-12.7
74
0
0
LTYPE
5
41
330
5
100
AcDbSymbolTableRecord
100
AcDbLinetypeTableRecord
2
CENTER
70
0
3
Center ____ _ ____ _ ____ _ ____ _ ____ _ ____
72
65
73
4
40
50.8
49
31.75
74
0
49
-6.35
74
0
49
6.35
74
0
49
-6.35
74
0
0
LTYPE
5
42
330
5
100
AcDbSymbolTableRecord
100
AcDbLinetypeTableRecord
2
CENTER2
70
0
3
Center (.5x) ___ _ ___ _ ___ _ ___ _ ___ _ ___
72
65
73
4
40
28.575
49
19.05
74
0
49
-3.175
74
0
49
3.175
74
0
49
-3.175
74
0
0
LTYPE
5
43
330
5
100
AcDbSymbolTableRecord
100
AcDbLinetypeTableRecord
2
CENTERX2
70
0
3
Center (2x) ________  __  ________  __  _____
72
65
73
4
40
101.6
49
63.5
74
0
49
-12.7
74
0
49
12.7
74
0
49
-12.7
74
0
0
ENDTAB
0
TABLE
2
LAYER
5
2
330
0
100
AcDbSymbolTable
70
1
0
LAYER
5
10
330
2
100
AcDbSymbolTableRecord
100
AcDbLayerTableRecord
2
0
70
0
62
7
6
CONTINUOUS
370
-3
390
F
0
ENDTAB
0
TABLE
2
STYLE
5
3
330
0
100
AcDbSymbolTable
70
3
0
STYLE
5
44
330
2
100
AcDbSymbolTableRecord
100
AcDbTextStyleTableRecord
2
Standard
70
0
40
0
41
1
50
0
71
0
42
1
3
txt
4

0
ENDTAB
0
TABLE
2
VIEW
5
6
330
0
100
AcDbSymbolTable
70
0
0
ENDTAB
0
TABLE
2
UCS
5
7
330
0
100
AcDbSymbolTable
70
0
0
ENDTAB
0
TABLE
2
APPID
5
9
330
0
100
AcDbSymbolTable
70
1
0
APPID
5
12
330
9
100
AcDbSymbolTableRecord
100
AcDbRegAppTableRecord
2
ACAD
70
0
0
ENDTAB
0
TABLE
2
DIMSTYLE
5
A
330
0
100
AcDbSymbolTable
70
1
100
AcDbDimStyleTable
71
1
0
DIMSTYLE
105
45
330
A
100
AcDbSymbolTableRecord
100
AcDbDimStyleTableRecord
2
Standard
70
0
40
1
41
0.1
42
0.025
43
0.38
44
0.05
45
0
46
0
47
0
48
0
140
0.1
141
0.09
142
0
143
25.4
144
1
145
0
146
1
147
0.025
148
0
71
0
72
0
73
0
74
1
75
0
76
0
77
0
78
0
79
0
170
0
171
2
172
0
173
0
174
0
175
0
176
0
177
0
178
0
179
0
271
4
272
4
273
2
274
2
275
0
276
0
277
2
278
46
279
0
280
0
281
0
282
0
283
1
284
0
285
0
286
0
288
0
289
3
340
Standard
341

371
-2
372
-2
0
ENDTAB
0
TABLE
2
BLOCK_RECORD
5
1
330
0
100
AcDbSymbolTable
70
2
0
BLOCK_RECORD
5
1F
330
1
100
AcDbSymbolTableRecord
100
AcDbBlockTableRecord
2
*Model_Space
70
0
280
1
281
0
0
BLOCK_RECORD
5
1E
330
1
100
AcDbSymbolTableRecord
100
AcDbBlockTableRecord
2
*Paper_Space
70
0
280
1
281
0
0
ENDTAB
0
ENDSEC
0
SECTION
2
BLOCKS
0
BLOCK
5
20
330
1F
100
AcDbEntity
8
0
100
AcDbBlockBegin
2
*Model_Space
70
0
10
0
20
0
30
0
3
*Model_Space
1

0
ENDBLK
5
21
330
1F
100
AcDbEntity
8
0
100
AcDbBlockEnd
0
BLOCK
5
1C
330
1B
100
AcDbEntity
8
0
100
AcDbBlockBegin
2
*Paper_Space
70
0
10
0
20
0
30
0
3
*Paper_Space
1

0
ENDBLK
5
1D
330
1F
100
AcDbEntity
8
0
100
AcDbBlockEnd
0
ENDSEC
0
SECTION
2
ENTITIES
0
LWPOLYLINE
5
46
100
AcDbEntity
8
0
6
ByLayer
62
7
370
-1
100
AcDbPolyline
90
29
70
0
43
0
10
-54.943138
20
167.338132
10
-54.943138
20
186.388132
10
-51.768138
20
186.388132
10
-51.768138
20
211.788132
10
-54.943138
20
211.788132
10
-54.943138
20
230.838132
10
-51.768138
20
230.838132
10
-51.768138
20
243.538132
10
-39.068138
20
243.538132
10
-39.068138
20
240.363132
10
-26.368138
20
240.363132
10
-26.368138
20
243.538132
10
-13.668138
20
243.538132
10
-13.668138
20
230.838132
10
-10.493138
20
230.838132
10
-10.493138
20
211.788132
10
-13.668138
20
211.788132
10
-13.668138
20
186.388132
10
-10.493138
20
186.388132
10
-10.493138
20
167.338132
10
-13.668138
20
167.338132
10
-13.668138
20
154.638132
10
-26.368138
20
154.638132
10
-26.368138
20
157.813132
10
-39.068138
20
157.813132
10
-39.068138
20
154.638132
10
-51.768138
20
154.638132
10
-51.768138
20
167.338132
10
-54.943138
20
167.338132
0
LWPOLYLINE
5
47
100
AcDbEntity
8
0
6
ByLayer
62
7
370
-1
100
AcDbPolyline
90
37
70
0
43
0
10
7.286862
20
277.193131
10
7.286862
20
289.893131
10
10.461862
20
289.893131
10
10.461862
20
302.593131
10
39.036862
20
302.593131
10
39.036862
20
305.768131
10
58.086862
20
305.768131
10
58.086862
20
302.593131
10
96.186862
20
302.593131
10
96.186862
20
305.768131
10
115.236862
20
305.768131
10
115.236862
20
302.593131
10
153.336862
20
302.593131
10
153.336862
20
305.768131
10
172.386862
20
305.768131
10
172.386862
20
302.593131
10
200.961862
20
302.593131
10
200.961862
20
289.893131
10
204.136862
20
289.893131
10
204.136862
20
277.193131
10
200.961862
20
277.193131
10
200.961862
20
264.493132
10
172.386862
20
264.493132
10
172.386862
20
261.318132
10
153.336862
20
261.318132
10
153.336862
20
264.493132
10
115.236862
20
264.493132
10
115.236862
20
261.318132
10
96.186862
20
261.318132
10
96.186862
20
264.493132
10
58.086862
20
264.493132
10
58.086862
20
261.318132
10
39.036862
20
261.318132
10
39.036862
20
264.493132
10
10.461862
20
264.493132
10
10.461862
20
277.193131
10
7.286862
20
277.193131
0
LWPOLYLINE
5
48
100
AcDbEntity
8
0
6
ByLayer
62
7
370
-1
100
AcDbPolyline
90
61
70
0
43
0
10
2.206862
20
155.908132
10
2.206862
20
242.268132
10
2.256862
20
243.064132
10
2.405862
20
243.847132
10
2.652862
20
244.606132
10
2.991862
20
245.32713
10
3.419862
20
246.000132
10
3.927862
20
246.615131
10
4.508862
20
247.161132
10
5.154862
20
247.629132
10
5.852862
20
248.014132
10
6.594862
20
248.307132
10
7.366862
20
248.506132
10
8.157862
20
248.60513
10
8.556862
20
248.60513
10
8.556862
20
248.618141
10
202.866862
20
248.618132
10
202.866862
20
248.605122
10
203.265862
20
248.60513
10
204.056863
20
248.506132
10
204.828862
20
248.307132
10
205.570861
20
248.014132
10
206.268862
20
247.629132
10
206.914863
20
247.161132
10
207.495862
20
246.615131
10
208.003862
20
246.000132
10
208.431861
20
245.32713
10
208.770863
20
244.606132
10
209.017862
20
243.847132
10
209.166864
20
243.064132
10
209.216862
20
242.268132
10
209.216862
20
155.908132
10
209.166864
20
155.112133
10
209.017862
20
154.329133
10
208.770863
20
153.570133
10
208.431861
20
152.849131
10
208.003862
20
152.176133
10
207.495862
20
151.561131
10
206.914863
20
151.015133
10
206.268862
20
150.547132
10
205.570861
20
150.162133
10
204.828862
20
149.869133
10
204.056863
20
149.670132
10
203.265862
20
149.571131
10
202.866862
20
149.571131
10
202.866862
20
149.558121
10
8.556862
20
149.558132
10
8.556862
20
149.571143
10
8.157862
20
149.571131
10
7.366862
20
149.670132
10
6.594862
20
149.869133
10
5.852862
20
150.162133
10
5.154862
20
150.547132
10
4.508862
20
151.015133
10
3.927862
20
151.561131
10
3.419862
20
152.176133
10
2.991862
20
152.849131
10
2.652862
20
153.570133
10
2.405862
20
154.329133
10
2.256862
20
155.112133
10
2.206862
20
155.908132
0
LWPOLYLINE
5
49
100
AcDbEntity
8
0
6
ByLayer
62
7
370
-1
100
AcDbPolyline
90
5
70
0
43
0
10
7.286862
20
167.338132
10
7.286862
20
186.388132
10
10.461862
20
186.388132
10
10.461862
20
167.338132
10
7.286862
20
167.338132
0
LWPOLYLINE
5
4A
100
AcDbEntity
8
0
6
ByLayer
62
7
370
-1
100
AcDbPolyline
90
5
70
0
43
0
10
7.286862
20
211.788132
10
7.286862
20
230.838132
10
10.461862
20
230.838132
10
10.461862
20
211.788132
10
7.286862
20
211.788132
0
LWPOLYLINE
5
4B
100
AcDbEntity
8
0
6
ByLayer
62
7
370
-1
100
AcDbPolyline
90
51
70
0
43
0
10
13.433862
20
162.258132
10
13.444863
20
162.443132
10
13.479862
20
162.624132
10
13.536862
20
162.800132
10
13.615862
20
162.968133
10
13.714862
20
163.124131
10
13.832862
20
163.266131
10
13.967862
20
163.393131
10
14.117862
20
163.502131
10
14.279862
20
163.591133
10
14.451862
20
163.659131
10
14.630862
20
163.705131
10
14.813862
20
163.728132
10
14.999862
20
163.728132
10
15.182862
20
163.705131
10
15.361862
20
163.659131
10
15.533862
20
163.591133
10
15.695862
20
163.502131
10
15.845862
20
163.393131
10
15.980862
20
163.266131
10
16.098862
20
163.124131
10
16.197862
20
162.968133
10
16.276862
20
162.800132
10
16.333862
20
162.624132
10
16.368862
20
162.443132
10
16.379863
20
162.258132
10
16.368861
20
162.073133
10
16.333862
20
161.892132
10
16.276862
20
161.716133
10
16.197862
20
161.548132
10
16.098862
20
161.392131
10
15.980862
20
161.25013
10
15.845862
20
161.12313
10
15.695862
20
161.014131
10
15.533862
20
160.925132
10
15.361862
20
160.85713
10
15.182862
20
160.811131
10
14.999862
20
160.78813
10
14.813862
20
160.788133
10
14.630862
20
160.811134
10
14.451862
20
160.85713
10
14.279862
20
160.925132
10
14.117862
20
161.014131
10
13.967862
20
161.12313
10
13.832862
20
161.25013
10
13.714862
20
161.392131
10
13.615862
20
161.548132
10
13.536862
20
161.716133
10
13.479862
20
161.892132
10
13.444862
20
162.073133
10
13.433861
20
162.258132
0
LWPOLYLINE
5
4C
100
AcDbEntity
8
0
6
ByLayer
62
7
370
-1
100
AcDbPolyline
90
51
70
0
43
0
10
13.433862
20
235.918132
10
13.444863
20
236.103132
10
13.479862
20
236.284132
10
13.536862
20
236.460132
10
13.615862
20
236.628133
10
13.714862
20
236.784131
10
13.832862
20
236.926131
10
13.967862
20
237.053131
10
14.117862
20
237.162131
10
14.279862
20
237.251133
10
14.451862
20
237.319131
10
14.630862
20
237.365131
10
14.813862
20
237.388132
10
14.999862
20
237.388132
10
15.182862
20
237.365131
10
15.361862
20
237.319131
10
15.533862
20
237.251133
10
15.695862
20
237.162131
10
15.845862
20
237.053131
10
15.980862
20
236.926131
10
16.098862
20
236.784131
10
16.197862
20
236.628133
10
16.276862
20
236.460132
10
16.333862
20
236.284132
10
16.368862
20
236.103132
10
16.379863
20
235.918132
10
16.368861
20
235.733133
10
16.333862
20
235.552132
10
16.276862
20
235.376133
10
16.197862
20
235.208132
10
16.098862
20
235.052131
10
15.980862
20
234.91013
10
15.845862
20
234.78313
10
15.695862
20
234.674131
10
15.533862
20
234.585132
10
15.361862
20
234.51713
10
15.182862
20
234.471131
10
14.999862
20
234.44813
10
14.813862
20
234.448133
10
14.630862
20
234.471134
10
14.451862
20
234.51713
10
14.279862
20
234.585132
10
14.117862
20
234.674131
10
13.967862
20
234.78313
10
13.832862
20
234.91013
10
13.714862
20
235.052131
10
13.615862
20
235.208132
10
13.536862
20
235.376133
10
13.479862
20
235.552132
10
13.444862
20
235.733133
10
13.433861
20
235.918132
0
LWPOLYLINE
5
4D
100
AcDbEntity
8
0
6
ByLayer
62
7
370
-1
100
AcDbPolyline
90
51
70
0
43
0
10
24.812862
20
164.163132
10
24.824862
20
164.354132
10
24.860862
20
164.542131
10
24.919862
20
164.724131
10
25.001862
20
164.897133
10
25.103862
20
165.059131
10
25.225862
20
165.206132
10
25.365862
20
165.337132
10
25.519862
20
165.450131
10
25.687862
20
165.542132
10
25.865862
20
165.612132
10
26.050862
20
165.660132
10
26.240862
20
165.684121
10
26.432862
20
165.684132
10
26.622862
20
165.660143
10
26.807862
20
165.612132
10
26.985862
20
165.542132
10
27.153862
20
165.450131
10
27.307862
20
165.337132
10
27.447862
20
165.206132
10
27.569862
20
165.059131
10
27.671862
20
164.897133
10
27.753862
20
164.724131
10
27.812862
20
164.542131
10
27.848862
20
164.354132
10
27.860862
20
164.163132
10
27.848862
20
163.972133
10
27.812862
20
163.78413
10
27.753862
20
163.602131
10
27.671862
20
163.429132
10
27.569862
20
163.26713
10
27.447862
20
163.120132
10
27.307862
20
162.989133
10
27.153862
20
162.876131
10
26.985862
20
162.784132
10
26.807862
20
162.714133
10
26.622862
20
162.666132
10
26.432862
20
162.642144
10
26.240862
20
162.642132
10
26.050862
20
162.666121
10
25.865862
20
162.714133
10
25.687862
20
162.784132
10
25.519862
20
162.876131
10
25.365862
20
162.989133
10
25.225862
20
163.120132
10
25.103862
20
163.26713
10
25.001862
20
163.429132
10
24.919862
20
163.602131
10
24.860862
20
163.78413
10
24.824862
20
163.972133
10
24.812862
20
164.163132
0
LWPOLYLINE
5
4E
100
AcDbEntity
8
0
6
ByLayer
62
7
370
-1
100
AcDbPolyline
90
51
70
0
43
0
10
24.812862
20
234.013132
10
24.824862
20
234.204132
10
24.860862
20
234.392131
10
24.919862
20
234.574131
10
25.001862
20
234.747133
10
25.103862
20
234.909131
10
25.225862
20
235.056132
10
25.365862
20
235.187132
10
25.519862
20
235.300131
10
25.687862
20
235.392132
10
25.865862
20
235.462132
10
26.050862
20
235.510132
10
26.240862
20
235.534121
10
26.432862
20
235.534132
10
26.622862
20
235.510143
10
26.807862
20
235.462132
10
26.985862
20
235.392132
10
27.153862
20
235.300131
10
27.307862
20
235.187132
10
27.447862
20
235.056132
10
27.569862
20
234.909131
10
27.671862
20
234.747133
10
27.753862
20
234.574131
10
27.812862
20
234.392131
10
27.848862
20
234.204132
10
27.860862
20
234.013132
10
27.848862
20
233.822133
10
27.812862
20
233.63413
10
27.753862
20
233.452131
10
27.671862
20
233.279132
10
27.569862
20
233.11713
10
27.447862
20
232.970132
10
27.307862
20
232.839133
10
27.153862
20
232.726131
10
26.985862
20
232.634132
10
26.807862
20
232.564133
10
26.622862
20
232.516132
10
26.432862
20
232.492144
10
26.240862
20
232.492132
10
26.050862
20
232.516121
10
25.865862
20
232.564133
10
25.687862
20
232.634132
10
25.519862
20
232.726131
10
25.365862
20
232.839133
10
25.225862
20
232.970132
10
25.103862
20
233.11713
10
25.001862
20
233.279132
10
24.919862
20
233.452131
10
24.860862
20
233.63413
10
24.824862
20
233.822133
10
24.812862
20
234.013132
0
LWPOLYLINE
5
4F
100
AcDbEntity
8
0
6
ByLayer
62
7
370
-1
100
AcDbPolyline
90
5
70
0
43
0
10
39.036862
20
154.638132
10
39.036862
20
157.813132
10
58.086862
20
157.813132
10
58.086862
20
154.638132
10
39.036862
20
154.638132
0
LWPOLYLINE
5
50
100
AcDbEntity
8
0
6
ByLayer
62
7
370
-1
100
AcDbPolyline
90
5
70
0
43
0
10
39.036862
20
240.363132
10
39.036862
20
243.538132
10
58.086862
20
243.538132
10
58.086862
20
240.363132
10
39.036862
20
240.363132
0
LWPOLYLINE
5
51
100
AcDbEntity
8
0
6
ByLayer
62
7
370
-1
100
AcDbPolyline
90
51
70
0
43
0
10
75.612862
20
164.163132
10
75.624857
20
164.354132
10
75.660862
20
164.542131
10
75.719861
20
164.724131
10
75.801863
20
164.897133
10
75.903861
20
165.059131
10
76.025863
20
165.206132
10
76.165862
20
165.337132
10
76.319863
20
165.450131
10
76.487861
20
165.542132
10
76.665861
20
165.612132
10
76.850861
20
165.660132
10
77.040861
20
165.684121
10
77.232863
20
165.684132
10
77.422863
20
165.660143
10
77.607863
20
165.612132
10
77.785863
20
165.542132
10
77.953862
20
165.450131
10
78.107862
20
165.337132
10
78.247861
20
165.206132
10
78.369863
20
165.059131
10
78.471863
20
164.897133
10
78.553863
20
164.724131
10
78.612862
20
164.542131
10
78.648862
20
164.354132
10
78.660856
20
164.163132
10
78.648868
20
163.972133
10
78.612862
20
163.78413
10
78.553863
20
163.602131
10
78.471863
20
163.429132
10
78.369863
20
163.26713
10
78.247861
20
163.120132
10
78.107862
20
162.989133
10
77.953862
20
162.876131
10
77.785863
20
162.784132
10
77.607863
20
162.714133
10
77.422863
20
162.666132
10
77.232863
20
162.642144
10
77.040861
20
162.642132
10
76.850861
20
162.666121
10
76.665861
20
162.714133
10
76.487861
20
162.784132
10
76.319863
20
162.876131
10
76.165862
20
162.989133
10
76.025863
20
163.120132
10
75.903861
20
163.26713
10
75.801863
20
163.429132
10
75.719861
20
163.602131
10
75.660862
20
163.78413
10
75.624862
20
163.972133
10
75.612868
20
164.163132
0
LWPOLYLINE
5
52
100
AcDbEntity
8
0
6
ByLayer
62
7
370
-1
100
AcDbPolyline
90
51
70
0
43
0
10
75.612862
20
234.013132
10
75.624857
20
234.204132
10
75.660862
20
234.392131
10
75.719861
20
234.574131
10
75.801863
20
234.747133
10
75.903861
20
234.909131
10
76.025863
20
235.056132
10
76.165862
20
235.187132
10
76.319863
20
235.300131
10
76.487861
20
235.392132
10
76.665861
20
235.462132
10
76.850861
20
235.510132
10
77.040861
20
235.534121
10
77.232863
20
235.534132
10
77.422863
20
235.510143
10
77.607863
20
235.462132
10
77.785863
20
235.392132
10
77.953862
20
235.300131
10
78.107862
20
235.187132
10
78.247861
20
235.056132
10
78.369863
20
234.909131
10
78.471863
20
234.747133
10
78.553863
20
234.574131
10
78.612862
20
234.392131
10
78.648862
20
234.204132
10
78.660856
20
234.013132
10
78.648868
20
233.822133
10
78.612862
20
233.63413
10
78.553863
20
233.452131
10
78.471863
20
233.279132
10
78.369863
20
233.11713
10
78.247861
20
232.970132
10
78.107862
20
232.839133
10
77.953862
20
232.726131
10
77.785863
20
232.634132
10
77.607863
20
232.564133
10
77.422863
20
232.516132
10
77.232863
20
232.492144
10
77.040861
20
232.492132
10
76.850861
20
232.516121
10
76.665861
20
232.564133
10
76.487861
20
232.634132
10
76.319863
20
232.726131
10
76.165862
20
232.839133
10
76.025863
20
232.970132
10
75.903861
20
233.11713
10
75.801863
20
233.279132
10
75.719861
20
233.452131
10
75.660862
20
233.63413
10
75.624862
20
233.822133
10
75.612868
20
234.013132
0
LWPOLYLINE
5
53
100
AcDbEntity
8
0
6
ByLayer
62
7
370
-1
100
AcDbPolyline
90
5
70
0
43
0
10
96.186862
20
154.638132
10
96.186862
20
157.813132
10
115.236862
20
157.813132
10
115.236862
20
154.638132
10
96.186862
20
154.638132
0
LWPOLYLINE
5
54
100
AcDbEntity
8
0
6
ByLayer
62
7
370
-1
100
AcDbPolyline
90
5
70
0
43
0
10
96.186862
20
240.363132
10
96.186862
20
243.538132
10
115.236862
20
243.538132
10
115.236862
20
240.363132
10
96.186862
20
240.363132
0
LWPOLYLINE
5
55
100
AcDbEntity
8
0
6
ByLayer
62
7
370
-1
100
AcDbPolyline
90
51
70
0
43
0
10
110.537862
20
164.163132
10
110.549857
20
164.354132
10
110.585862
20
164.542131
10
110.644861
20
164.724131
10
110.726863
20
164.897133
10
110.828861
20
165.059131
10
110.950863
20
165.206132
10
111.090862
20
165.337132
10
111.244863
20
165.450131
10
111.412861
20
165.542132
10
111.590861
20
165.612132
10
111.775861
20
165.660132
10
111.965861
20
165.684121
10
112.157863
20
165.684132
10
112.347863
20
165.660143
10
112.532863
20
165.612132
10
112.710863
20
165.542132
10
112.878862
20
165.450131
10
113.032862
20
165.337132
10
113.172861
20
165.206132
10
113.294863
20
165.059131
10
113.396863
20
164.897133
10
113.478863
20
164.724131
10
113.537862
20
164.542131
10
113.573862
20
164.354132
10
113.585856
20
164.163132
10
113.573868
20
163.972133
10
113.537862
20
163.78413
10
113.478863
20
163.602131
10
113.396863
20
163.429132
10
113.294863
20
163.26713
10
113.172861
20
163.120132
10
113.032862
20
162.989133
10
112.878862
20
162.876131
10
112.710863
20
162.784132
10
112.532863
20
162.714133
10
112.347863
20
162.666132
10
112.157863
20
162.642144
10
111.965861
20
162.642132
10
111.775861
20
162.666121
10
111.590861
20
162.714133
10
111.412861
20
162.784132
10
111.244863
20
162.876131
10
111.090862
20
162.989133
10
110.950863
20
163.120132
10
110.828861
20
163.26713
10
110.726863
20
163.429132
10
110.644861
20
163.602131
10
110.585862
20
163.78413
10
110.549862
20
163.972133
10
110.537868
20
164.163132
0
LWPOLYLINE
5
56
100
AcDbEntity
8
0
6
ByLayer
62
7
370
-1
100
AcDbPolyline
90
51
70
0
43
0
10
110.537862
20
189.563132
10
110.549857
20
189.754132
10
110.585862
20
189.942131
10
110.644861
20
190.124131
10
110.726863
20
190.297133
10
110.828861
20
190.459131
10
110.950863
20
190.606132
10
111.090862
20
190.737132
10
111.244863
20
190.850131
10
111.412861
20
190.942132
10
111.590861
20
191.012132
10
111.775861
20
191.060132
10
111.965861
20
191.084121
10
112.157863
20
191.084132
10
112.347863
20
191.060143
10
112.532863
20
191.012132
10
112.710863
20
190.942132
10
112.878862
20
190.850131
10
113.032862
20
190.737132
10
113.172861
20
190.606132
10
113.294863
20
190.459131
10
113.396863
20
190.297133
10
113.478863
20
190.124131
10
113.537862
20
189.942131
10
113.573862
20
189.754132
10
113.585856
20
189.563132
10
113.573868
20
189.372133
10
113.537862
20
189.18413
10
113.478863
20
189.002131
10
113.396863
20
188.829132
10
113.294863
20
188.66713
10
113.172861
20
188.520132
10
113.032862
20
188.389133
10
112.878862
20
188.276131
10
112.710863
20
188.184132
10
112.532863
20
188.114133
10
112.347863
20
188.066132
10
112.157863
20
188.042144
10
111.965861
20
188.042132
10
111.775861
20
188.066121
10
111.590861
20
188.114133
10
111.412861
20
188.184132
10
111.244863
20
188.276131
10
111.090862
20
188.389133
10
110.950863
20
188.520132
10
110.828861
20
188.66713
10
110.726863
20
188.829132
10
110.644861
20
189.002131
10
110.585862
20
189.18413
10
110.549862
20
189.372133
10
110.537868
20
189.563132
0
LWPOLYLINE
5
57
100
AcDbEntity
8
0
6
ByLayer
62
7
370
-1
100
AcDbPolyline
90
5
70
0
43
0
10
153.336862
20
154.638132
10
153.336862
20
157.813132
10
172.386862
20
157.813132
10
172.386862
20
154.638132
10
153.336862
20
154.638132
0
LWPOLYLINE
5
58
100
AcDbEntity
8
0
6
ByLayer
62
7
370
-1
100
AcDbPolyline
90
5
70
0
43
0
10
153.336862
20
240.363132
10
153.336862
20
243.538132
10
172.386862
20
243.538132
10
172.386862
20
240.363132
10
153.336862
20
240.363132
0
LWPOLYLINE
5
59
100
AcDbEntity
8
0
6
ByLayer
62
7
370
-1
100
AcDbPolyline
90
51
70
0
43
0
10
161.337862
20
164.163132
10
161.349857
20
164.354132
10
161.385862
20
164.542131
10
161.444861
20
164.724131
10
161.526863
20
164.897133
10
161.628861
20
165.059131
10
161.750863
20
165.206132
10
161.890862
20
165.337132
10
162.044863
20
165.450131
10
162.212861
20
165.542132
10
162.390861
20
165.612132
10
162.575861
20
165.660132
10
162.765861
20
165.684121
10
162.957863
20
165.684132
10
163.147863
20
165.660143
10
163.332863
20
165.612132
10
163.510863
20
165.542132
10
163.678862
20
165.450131
10
163.832862
20
165.337132
10
163.972861
20
165.206132
10
164.094863
20
165.059131
10
164.196863
20
164.897133
10
164.278863
20
164.724131
10
164.337862
20
164.542131
10
164.373862
20
164.354132
10
164.385856
20
164.163132
10
164.373868
20
163.972133
10
164.337862
20
163.78413
10
164.278863
20
163.602131
10
164.196863
20
163.429132
10
164.094863
20
163.26713
10
163.972861
20
163.120132
10
163.832862
20
162.989133
10
163.678862
20
162.876131
10
163.510863
20
162.784132
10
163.332863
20
162.714133
10
163.147863
20
162.666132
10
162.957863
20
162.642144
10
162.765861
20
162.642132
10
162.575861
20
162.666121
10
162.390861
20
162.714133
10
162.212861
20
162.784132
10
162.044863
20
162.876131
10
161.890862
20
162.989133
10
161.750863
20
163.120132
10
161.628861
20
163.26713
10
161.526863
20
163.429132
10
161.444861
20
163.602131
10
161.385862
20
163.78413
10
161.349862
20
163.972133
10
161.337868
20
164.163132
0
LWPOLYLINE
5
5A
100
AcDbEntity
8
0
6
ByLayer
62
7
370
-1
100
AcDbPolyline
90
51
70
0
43
0
10
161.337862
20
189.563132
10
161.349857
20
189.754132
10
161.385862
20
189.942131
10
161.444861
20
190.124131
10
161.526863
20
190.297133
10
161.628861
20
190.459131
10
161.750863
20
190.606132
10
161.890862
20
190.737132
10
162.044863
20
190.850131
10
162.212861
20
190.942132
10
162.390861
20
191.012132
10
162.575861
20
191.060132
10
162.765861
20
191.084121
10
162.957863
20
191.084132
10
163.147863
20
191.060143
10
163.332863
20
191.012132
10
163.510863
20
190.942132
10
163.678862
20
190.850131
10
163.832862
20
190.737132
10
163.972861
20
190.606132
10
164.094863
20
190.459131
10
164.196863
20
190.297133
10
164.278863
20
190.124131
10
164.337862
20
189.942131
10
164.373862
20
189.754132
10
164.385856
20
189.563132
10
164.373868
20
189.372133
10
164.337862
20
189.18413
10
164.278863
20
189.002131
10
164.196863
20
188.829132
10
164.094863
20
188.66713
10
163.972861
20
188.520132
10
163.832862
20
188.389133
10
163.678862
20
188.276131
10
163.510863
20
188.184132
10
163.332863
20
188.114133
10
163.147863
20
188.066132
10
162.957863
20
188.042144
10
162.765861
20
188.042132
10
162.575861
20
188.066121
10
162.390861
20
188.114133
10
162.212861
20
188.184132
10
162.044863
20
188.276131
10
161.890862
20
188.389133
10
161.750863
20
188.520132
10
161.628861
20
188.66713
10
161.526863
20
188.829132
10
161.444861
20
189.002131
10
161.385862
20
189.18413
10
161.349862
20
189.372133
10
161.337868
20
189.563132
0
LWPOLYLINE
5
5B
100
AcDbEntity
8
0
6
ByLayer
62
7
370
-1
100
AcDbPolyline
90
51
70
0
43
0
10
195.043862
20
162.258132
10
195.054869
20
162.443132
10
195.089862
20
162.624132
10
195.146862
20
162.800132
10
195.225862
20
162.968133
10
195.324863
20
163.124131
10
195.442863
20
163.266131
10
195.577864
20
163.393131
10
195.727862
20
163.502131
10
195.889863
20
163.591133
10
196.061863
20
163.659131
10
196.240863
20
163.705131
10
196.423861
20
163.728132
10
196.609863
20
163.728132
10
196.792861
20
163.705131
10
196.971864
20
163.659131
10
197.143861
20
163.591133
10
197.305862
20
163.502131
10
197.455863
20
163.393131
10
197.590862
20
163.266131
10
197.708861
20
163.124131
10
197.807862
20
162.968133
10
197.886862
20
162.800132
10
197.943862
20
162.624132
10
197.978863
20
162.443132
10
197.98987
20
162.258132
10
197.978855
20
162.073133
10
197.943862
20
161.892132
10
197.886862
20
161.716133
10
197.807862
20
161.548132
10
197.708861
20
161.392131
10
197.590862
20
161.25013
10
197.455863
20
161.12313
10
197.305862
20
161.014131
10
197.143861
20
160.925132
10
196.971864
20
160.85713
10
196.792861
20
160.811131
10
196.609863
20
160.78813
10
196.423861
20
160.788133
10
196.240863
20
160.811134
10
196.061863
20
160.85713
10
195.889863
20
160.925132
10
195.727862
20
161.014131
10
195.577864
20
161.12313
10
195.442863
20
161.25013
10
195.324863
20
161.392131
10
195.225862
20
161.548132
10
195.146862
20
161.716133
10
195.089862
20
161.892132
10
195.054863
20
162.073133
10
195.043857
20
162.258132
0
LWPOLYLINE
5
5C
100
AcDbEntity
8
0
6
ByLayer
62
7
370
-1
100
AcDbPolyline
90
51
70
0
43
0
10
195.043862
20
235.918132
10
195.054869
20
236.103132
10
195.089862
20
236.284132
10
195.146862
20
236.460132
10
195.225862
20
236.628133
10
195.324863
20
236.784131
10
195.442863
20
236.926131
10
195.577864
20
237.053131
10
195.727862
20
237.162131
10
195.889863
20
237.251133
10
196.061863
20
237.319131
10
196.240863
20
237.365131
10
196.423861
20
237.388132
10
196.609863
20
237.388132
10
196.792861
20
237.365131
10
196.971864
20
237.319131
10
197.143861
20
237.251133
10
197.305862
20
237.162131
10
197.455863
20
237.053131
10
197.590862
20
236.926131
10
197.708861
20
236.784131
10
197.807862
20
236.628133
10
197.886862
20
236.460132
10
197.943862
20
236.284132
10
197.978863
20
236.103132
10
197.98987
20
235.918132
10
197.978855
20
235.733133
10
197.943862
20
235.552132
10
197.886862
20
235.376133
10
197.807862
20
235.208132
10
197.708861
20
235.052131
10
197.590862
20
234.91013
10
197.455863
20
234.78313
10
197.305862
20
234.674131
10
197.143861
20
234.585132
10
196.971864
20
234.51713
10
196.792861
20
234.471131
10
196.609863
20
234.44813
10
196.423861
20
234.448133
10
196.240863
20
234.471134
10
196.061863
20
234.51713
10
195.889863
20
234.585132
10
195.727862
20
234.674131
10
195.577864
20
234.78313
10
195.442863
20
234.91013
10
195.324863
20
235.052131
10
195.225862
20
235.208132
10
195.146862
20
235.376133
10
195.089862
20
235.552132
10
195.054863
20
235.733133
10
195.043857
20
235.918132
0
LWPOLYLINE
5
5D
100
AcDbEntity
8
0
6
ByLayer
62
7
370
-1
100
AcDbPolyline
90
5
70
0
43
0
10
200.961862
20
167.338132
10
200.961862
20
186.388132
10
204.136862
20
186.388132
10
204.136862
20
167.338132
10
200.961862
20
167.338132
0
LWPOLYLINE
5
5E
100
AcDbEntity
8
0
6
ByLayer
62
7
370
-1
100
AcDbPolyline
90
5
70
0
43
0
10
200.961862
20
211.788132
10
200.961862
20
230.838132
10
204.136862
20
230.838132
10
204.136862
20
211.788132
10
200.961862
20
211.788132
0
LWPOLYLINE
5
5F
100
AcDbEntity
8
0
6
ByLayer
62
7
370
-1
100
AcDbPolyline
90
29
70
0
43
0
10
215.687732
20
232.74401
10
215.687732
20
251.79401
10
218.862732
20
251.79401
10
218.862732
20
277.19401
10
215.687732
20
277.19401
10
215.687732
20
296.24401
10
218.862732
20
296.24401
10
218.862732
20
308.94401
10
231.562732
20
308.94401
10
231.562732
20
305.76901
10
244.262732
20
305.76901
10
244.262732
20
308.94401
10
256.962732
20
308.94401
10
256.962732
20
296.24401
10
260.137732
20
296.24401
10
260.137732
20
277.19401
10
256.962732
20
277.19401
10
256.962732
20
251.79401
10
260.137732
20
251.79401
10
260.137732
20
232.74401
10
256.962732
20
232.74401
10
256.962732
20
220.04401
10
244.262732
20
220.04401
10
244.262732
20
223.21901
10
231.562732
20
223.21901
10
231.562732
20
220.04401
10
218.862732
20
220.04401
10
218.862732
20
232.74401
10
215.687732
20
232.74401
0
LWPOLYLINE
5
60
100
AcDbEntity
8
0
6
ByLayer
62
7
370
-1
100
AcDbPolyline
90
37
70
0
43
0
10
7.286862
20
108.283132
10
7.286862
20
120.983132
10
10.461862
20
120.983132
10
10.461862
20
133.683132
10
39.036862
20
133.683132
10
39.036862
20
136.858132
10
58.086862
20
136.858132
10
58.086862
20
133.683132
10
96.186862
20
133.683132
10
96.186862
20
136.858132
10
115.236862
20
136.858132
10
115.236862
20
133.683132
10
153.336862
20
133.683132
10
153.336862
20
136.858132
10
172.386862
20
136.858132
10
172.386862
20
133.683132
10
200.961862
20
133.683132
10
200.961862
20
120.983132
10
204.136862
20
120.983132
10
204.136862
20
108.283132
10
200.961862
20
108.283132
10
200.961862
20
95.583132
10
172.386862
20
95.583132
10
172.386862
20
92.408132
10
153.336862
20
92.408132
10
153.336862
20
95.583132
10
115.236862
20
95.583132
10
115.236862
20
92.408132
10
96.186862
20
92.408132
10
96.186862
20
95.583132
10
58.086862
20
95.583132
10
58.086862
20
92.408132
10
39.036862
20
92.408132
10
39.036862
20
95.583132
10
10.461862
20
95.583132
10
10.461862
20
108.283132
10
7.286862
20
108.283132
0
LWPOLYLINE
5
61
100
AcDbEntity
8
0
6
ByLayer
62
7
370
-1
100
AcDbPolyline
90
61
70
0
43
0
10
32.036862
20
108.363131
10
32.036862
20
118.363131
10
32.044877
20
118.488133
10
32.067864
20
118.612133
10
32.106862
20
118.731132
10
32.160862
20
118.845132
10
32.227861
20
118.951132
10
32.307863
20
119.048132
10
32.399862
20
119.134131
10
32.500864
20
119.20713
10
32.610862
20
119.268133
10
32.727863
20
119.314132
10
32.849862
20
119.345131
10
32.973862
20
119.361133
10
33.036863
20
119.361131
10
33.036863
20
119.363106
10
45.036861
20
119.363132
10
45.036861
20
119.361156
10
45.099862
20
119.361131
10
45.223862
20
119.345129
10
45.345861
20
119.314132
10
45.462862
20
119.268133
10
45.572863
20
119.20713
10
45.673862
20
119.134131
10
45.765861
20
119.048132
10
45.845863
20
118.951132
10
45.912862
20
118.845132
10
45.966863
20
118.731132
10
46.005863
20
118.612133
10
46.028864
20
118.488133
10
46.036848
20
118.363131
10
46.036862
20
108.363131
10
46.028875
20
108.238132
10
46.00586
20
108.114132
10
45.966863
20
107.995133
10
45.912862
20
107.881132
10
45.845863
20
107.775132
10
45.765861
20
107.678133
10
45.673862
20
107.592131
10
45.572863
20
107.519131
10
45.462862
20
107.458132
10
45.345861
20
107.412132
10
45.223862
20
107.38113
10
45.099862
20
107.365128
10
45.036861
20
107.365131
10
45.036861
20
107.363156
10
33.036863
20
107.363133
10
33.036863
20
107.365109
10
32.973862
20
107.365131
10
32.849862
20
107.381133
10
32.727863
20
107.412132
10
32.610862
20
107.458132
10
32.500864
20
107.519131
10
32.399862
20
107.592131
10
32.307863
20
107.678133
10
32.227861
20
107.775132
10
32.160862
20
107.881132
10
32.106862
20
107.995133
10
32.067861
20
108.114132
10
32.04486
20
108.238132
10
32.036848
20
108.363131
0
LWPOLYLINE
5
62
100
AcDbEntity
8
0
6
ByLayer
62
7
370
-1
100
AcDbPolyline
90
51
70
0
43
0
10
57.436862
20
114.887132
10
57.491861
20
115.764132
10
57.656863
20
116.628133
10
57.928863
20
117.464132
10
58.302861
20
118.259132
10
58.773862
20
119.001131
10
59.333861
20
119.679133
10
59.974861
20
120.281133
10
60.685863
20
120.797131
10
61.456864
20
121.22113
10
62.273863
20
121.544131
10
63.124862
20
121.763132
10
63.996864
20
121.873131
10
64.876863
20
121.873131
10
65.748862
20
121.763132
10
66.599861
20
121.544131
10
67.416863
20
121.22113
10
68.187864
20
120.797131
10
68.898863
20
120.281133
10
69.539863
20
119.679133
10
70.099863
20
119.001131
10
70.570863
20
118.259132
10
70.944861
20
117.464132
10
71.216861
20
116.628133
10
71.381863
20
115.764132
10
71.436862
20
114.887132
10
71.381863
20
114.010132
10
71.216861
20
113.146132
10
70.944861
20
112.310133
10
70.570863
20
111.515133
10
70.099863
20
110.773131
10
69.539863
20
110.095132
10
68.898863
20
109.493132
10
68.187864
20
108.977131
10
67.416863
20
108.553131
10
66.599861
20
108.230131
10
65.748862
20
108.011132
10
64.876863
20
107.90113
10
63.996864
20
107.90113
10
63.124862
20
108.011132
10
62.273863
20
108.230131
10
61.456864
20
108.553131
10
60.685863
20
108.977131
10
59.974861
20
109.493132
10
59.333861
20
110.095132
10
58.773862
20
110.773131
10
58.302861
20
111.515133
10
57.928863
20
112.310133
10
57.656863
20
113.146132
10
57.491861
20
114.010132
10
57.436862
20
114.887132
0
LWPOLYLINE
5
63
100
AcDbEntity
8
0
6
ByLayer
62
7
370
-1
100
AcDbPolyline
90
51
70
0
43
0
10
92.361862
20
113.363132
10
92.416861
20
114.240132
10
92.581863
20
115.104133
10
92.853863
20
115.940132
10
93.227861
20
116.735132
10
93.698862
20
117.477131
10
94.258861
20
118.155133
10
94.899861
20
118.757133
10
95.610863
20
119.273131
10
96.381864
20
119.69713
10
97.198863
20
120.020131
10
98.049862
20
120.239132
10
98.921864
20
120.349131
10
99.801863
20
120.349131
10
100.673862
20
120.239132
10
101.524861
20
120.020131
10
102.341863
20
119.69713
10
103.112864
20
119.273131
10
103.823863
20
118.757133
10
104.464863
20
118.155133
10
105.024863
20
117.477131
10
105.495863
20
116.735132
10
105.869861
20
115.940132
10
106.141861
20
115.104133
10
106.306863
20
114.240132
10
106.361862
20
113.363132
10
106.306863
20
112.486132
10
106.141861
20
111.622132
10
105.869861
20
110.786133
10
105.495863
20
109.991133
10
105.024863
20
109.249131
10
104.464863
20
108.571132
10
103.823863
20
107.969132
10
103.112864
20
107.453131
10
102.341863
20
107.029131
10
101.524861
20
106.706131
10
100.673862
20
106.487132
10
99.801863
20
106.37713
10
98.921864
20
106.37713
10
98.049862
20
106.487132
10
97.198863
20
106.706131
10
96.381864
20
107.029131
10
95.610863
20
107.453131
10
94.899861
20
107.969132
10
94.258861
20
108.571132
10
93.698862
20
109.249131
10
93.227861
20
109.991133
10
92.853863
20
110.786133
10
92.581863
20
111.622132
10
92.416861
20
112.486132
10
92.361862
20
113.363132
0
LWPOLYLINE
5
64
100
AcDbEntity
8
0
6
ByLayer
62
7
370
-1
100
AcDbPolyline
90
51
70
0
43
0
10
117.761862
20
113.363132
10
117.816861
20
114.240132
10
117.981863
20
115.104133
10
118.253863
20
115.940132
10
118.627861
20
116.735132
10
119.098862
20
117.477131
10
119.658861
20
118.155133
10
120.299861
20
118.757133
10
121.010863
20
119.273131
10
121.781864
20
119.69713
10
122.598863
20
120.020131
10
123.449862
20
120.239132
10
124.321864
20
120.349131
10
125.201863
20
120.349131
10
126.073862
20
120.239132
10
126.924861
20
120.020131
10
127.741863
20
119.69713
10
128.512864
20
119.273131
10
129.223863
20
118.757133
10
129.864863
20
118.155133
10
130.424863
20
117.477131
10
130.895863
20
116.735132
10
131.269861
20
115.940132
10
131.541861
20
115.104133
10
131.706863
20
114.240132
10
131.761862
20
113.363132
10
131.706863
20
112.486132
10
131.541861
20
111.622132
10
131.269861
20
110.786133
10
130.895863
20
109.991133
10
130.424863
20
109.249131
10
129.864863
20
108.571132
10
129.223863
20
107.969132
10
128.512864
20
107.453131
10
127.741863
20
107.029131
10
126.924861
20
106.706131
10
126.073862
20
106.487132
10
125.201863
20
106.37713
10
124.321864
20
106.37713
10
123.449862
20
106.487132
10
122.598863
20
106.706131
10
121.781864
20
107.029131
10
121.010863
20
107.453131
10
120.299861
20
107.969132
10
119.658861
20
108.571132
10
119.098862
20
109.249131
10
118.627861
20
109.991133
10
118.253863
20
110.786133
10
117.981863
20
111.622132
10
117.816861
20
112.486132
10
117.761862
20
113.363132
0
LWPOLYLINE
5
65
100
AcDbEntity
8
0
6
ByLayer
62
7
370
-1
100
AcDbPolyline
90
51
70
0
43
0
10
143.161862
20
113.363132
10
143.216861
20
114.240132
10
143.381863
20
115.104133
10
143.653863
20
115.940132
10
144.027861
20
116.735132
10
144.498862
20
117.477131
10
145.058861
20
118.155133
10
145.699861
20
118.757133
10
146.410863
20
119.273131
10
147.181864
20
119.69713
10
147.998863
20
120.020131
10
148.849862
20
120.239132
10
149.721864
20
120.349131
10
150.601863
20
120.349131
10
151.473862
20
120.239132
10
152.324861
20
120.020131
10
153.141863
20
119.69713
10
153.912864
20
119.273131
10
154.623863
20
118.757133
10
155.264863
20
118.155133
10
155.824863
20
117.477131
10
156.295863
20
116.735132
10
156.669861
20
115.940132
10
156.941861
20
115.104133
10
157.106863
20
114.240132
10
157.161862
20
113.363132
10
157.106863
20
112.486132
10
156.941861
20
111.622132
10
156.669861
20
110.786133
10
156.295863
20
109.991133
10
155.824863
20
109.249131
10
155.264863
20
108.571132
10
154.623863
20
107.969132
10
153.912864
20
107.453131
10
153.141863
20
107.029131
10
152.324861
20
106.706131
10
151.473862
20
106.487132
10
150.601863
20
106.37713
10
149.721864
20
106.37713
10
148.849862
20
106.487132
10
147.998863
20
106.706131
10
147.181864
20
107.029131
10
146.410863
20
107.453131
10
145.699861
20
107.969132
10
145.058861
20
108.571132
10
144.498862
20
109.249131
10
144.027861
20
109.991133
10
143.653863
20
110.786133
10
143.381863
20
111.622132
10
143.216861
20
112.486132
10
143.161862
20
113.363132
0
LWPOLYLINE
5
66
100
AcDbEntity
8
0
6
ByLayer
62
7
370
-1
100
AcDbPolyline
90
51
70
0
43
0
10
168.561862
20
113.363132
10
168.616861
20
114.240132
10
168.781863
20
115.104133
10
169.053863
20
115.940132
10
169.427861
20
116.735132
10
169.898862
20
117.477131
10
170.458861
20
118.155133
10
171.099861
20
118.757133
10
171.810863
20
119.273131
10
172.581864
20
119.69713
10
173.398863
20
120.020131
10
174.249862
20
120.239132
10
175.121864
20
120.349131
10
176.001863
20
120.349131
10
176.873862
20
120.239132
10
177.724861
20
120.020131
10
178.541863
20
119.69713
10
179.312864
20
119.273131
10
180.023863
20
118.757133
10
180.664863
20
118.155133
10
181.224863
20
117.477131
10
181.695863
20
116.735132
10
182.069861
20
115.940132
10
182.341861
20
115.104133
10
182.506863
20
114.240132
10
182.561862
20
113.363132
10
182.506863
20
112.486132
10
182.341861
20
111.622132
10
182.069861
20
110.786133
10
181.695863
20
109.991133
10
181.224863
20
109.249131
10
180.664863
20
108.571132
10
180.023863
20
107.969132
10
179.312864
20
107.453131
10
178.541863
20
107.029131
10
177.724861
20
106.706131
10
176.873862
20
106.487132
10
176.001863
20
106.37713
10
175.121864
20
106.37713
10
174.249862
20
106.487132
10
173.398863
20
106.706131
10
172.581864
20
107.029131
10
171.810863
20
107.453131
10
171.099861
20
107.969132
10
170.458861
20
108.571132
10
169.898862
20
109.249131
10
169.427861
20
109.991133
10
169.053863
20
110.786133
10
168.781863
20
111.622132
10
168.616861
20
112.486132
10
168.561862
20
113.363132
0
LWPOLYLINE
5
67
100
AcDbEntity
8
0
6
ByLayer
62
7
370
-1
100
AcDbPolyline
90
61
70
0
43
0
10
2.206862
20
-13.001865
10
2.206862
20
73.358132
10
2.256862
20
74.154132
10
2.405862
20
74.937132
10
2.652862
20
75.696132
10
2.991862
20
76.41713
10
3.419862
20
77.090132
10
3.927862
20
77.705131
10
4.508862
20
78.251132
10
5.154862
20
78.719132
10
5.852862
20
79.104132
10
6.594862
20
79.397132
10
7.366862
20
79.596132
10
8.157862
20
79.69513
10
8.556862
20
79.69513
10
8.556862
20
79.708141
10
202.866862
20
79.708132
10
202.866862
20
79.695122
10
203.265862
20
79.69513
10
204.056863
20
79.596132
10
204.828862
20
79.397132
10
205.570861
20
79.104132
10
206.268862
20
78.719132
10
206.914863
20
78.251132
10
207.495862
20
77.705131
10
208.003862
20
77.090132
10
208.431861
20
76.41713
10
208.770863
20
75.696132
10
209.017862
20
74.937132
10
209.166864
20
74.154132
10
209.216862
20
73.358132
10
209.216862
20
-13.001865
10
209.166864
20
-13.797873
10
209.017862
20
-14.58087
10
208.770863
20
-15.339878
10
208.431861
20
-16.060872
10
208.003862
20
-16.733859
10
207.495862
20
-17.348877
10
206.914863
20
-17.894864
10
206.268862
20
-18.362874
10
205.570861
20
-18.747881
10
204.828862
20
-19.040856
10
204.056863
20
-19.239879
10
203.265862
20
-19.338854
10
202.866862
20
-19.338854
10
202.866862
20
-19.351837
10
8.556862
20
-19.351865
10
8.556862
20
-19.338883
10
8.157862
20
-19.338854
10
7.366862
20
-19.239879
10
6.594862
20
-19.040856
10
5.852862
20
-18.747881
10
5.154862
20
-18.362874
10
4.508862
20
-17.894864
10
3.927862
20
-17.348877
10
3.419862
20
-16.733859
10
2.991862
20
-16.060872
10
2.652862
20
-15.339878
10
2.405862
20
-14.58087
10
2.256862
20
-13.797873
10
2.206862
20
-13.001865
0
LWPOLYLINE
5
68
100
AcDbEntity
8
0
6
ByLayer
62
7
370
-1
100
AcDbPolyline
90
5
70
0
43
0
10
7.286862
20
-1.571865
10
7.286862
20
17.478135
10
10.461862
20
17.478135
10
10.461862
20
-1.571865
10
7.286862
20
-1.571865
0
LWPOLYLINE
5
69
100
AcDbEntity
8
0
6
ByLayer
62
7
370
-1
100
AcDbPolyline
90
5
70
0
43
0
10
7.286862
20
42.878132
10
7.286862
20
61.928132
10
10.461862
20
61.928132
10
10.461862
20
42.878132
10
7.286862
20
42.878132
0
LWPOLYLINE
5
6A
100
AcDbEntity
8
0
6
ByLayer
62
7
370
-1
100
AcDbPolyline
90
13
70
0
43
0
10
13.433862
20
-6.651865
10
13.444863
20
-6.466868
10
13.479862
20
-6.285879
10
13.536862
20
-6.109857
10
13.615862
20
-5.941878
10
13.714862
20
-5.785866
10
13.832862
20
-5.64388
10
13.967862
20
-5.51688
10
14.117862
20
-5.407858
10
14.279862
20
-5.318873
10
14.451862
20
-5.250857
10
14.630862
20
-5.204855
10
14.813862
20
-5.181995
0
LWPOLYLINE
5
6B
100
AcDbEntity
8
0
6
ByLayer
62
7
370
-1
100
AcDbPolyline
90
3
70
0
43
0
10
14.813862
20
-5.181882
10
14.999862
20
-5.181882
10
15.182862
20
-5.204742
0
LWPOLYLINE
5
6C
100
AcDbEntity
8
0
6
ByLayer
62
7
370
-1
100
AcDbPolyline
90
24
70
0
43
0
10
15.182862
20
-5.204855
10
15.361862
20
-5.250857
10
15.533862
20
-5.318873
10
15.695862
20
-5.407858
10
15.845862
20
-5.51688
10
15.980862
20
-5.64388
10
16.098862
20
-5.785866
10
16.197862
20
-5.941878
10
16.276862
20
-6.109857
10
16.333862
20
-6.285879
10
16.368862
20
-6.466868
10
16.379863
20
-6.651865
10
16.368861
20
-6.836862
10
16.333862
20
-7.017879
10
16.276862
20
-7.193873
10
16.197862
20
-7.36188
10
16.098862
20
-7.517864
10
15.980862
20
-7.659878
10
15.845862
20
-7.786878
10
15.695862
20
-7.895872
10
15.533862
20
-7.984857
10
15.361862
20
-8.052872
10
15.182862
20
-8.098875
10
14.999862
20
-8.122017
0
LWPOLYLINE
5
6D
100
AcDbEntity
8
0
6
ByLayer
62
7
370
-1
100
AcDbPolyline
90
3
70
0
43
0
10
14.999862
20
-8.121876
10
14.813862
20
-8.121876
10
14.630862
20
-8.098734
0
LWPOLYLINE
5
6E
100
AcDbEntity
8
0
6
ByLayer
62
7
370
-1
100
AcDbPolyline
90
12
70
0
43
0
10
14.630862
20
-8.098875
10
14.451862
20
-8.052872
10
14.279862
20
-7.984857
10
14.117862
20
-7.895872
10
13.967862
20
-7.786878
10
13.832862
20
-7.659878
10
13.714862
20
-7.517864
10
13.615862
20
-7.36188
10
13.536862
20
-7.193873
10
13.479862
20
-7.017879
10
13.444862
20
-6.836862
10
13.433861
20
-6.651865
0
LWPOLYLINE
5
6F
100
AcDbEntity
8
0
6
ByLayer
62
7
370
-1
100
AcDbPolyline
90
51
70
0
43
0
10
13.433862
20
67.008132
10
13.444863
20
67.193132
10
13.479862
20
67.374132
10
13.536862
20
67.550132
10
13.615862
20
67.718133
10
13.714862
20
67.874131
10
13.832862
20
68.016131
10
13.967862
20
68.143131
10
14.117862
20
68.252131
10
14.279862
20
68.341133
10
14.451862
20
68.409131
10
14.630862
20
68.455131
10
14.813862
20
68.478132
10
14.999862
20
68.478132
10
15.182862
20
68.455131
10
15.361862
20
68.409131
10
15.533862
20
68.341133
10
15.695862
20
68.252131
10
15.845862
20
68.143131
10
15.980862
20
68.016131
10
16.098862
20
67.874131
10
16.197862
20
67.718133
10
16.276862
20
67.550132
10
16.333862
20
67.374132
10
16.368862
20
67.193132
10
16.379863
20
67.008132
10
16.368861
20
66.823133
10
16.333862
20
66.642132
10
16.276862
20
66.466133
10
16.197862
20
66.298132
10
16.098862
20
66.142131
10
15.980862
20
66.00013
10
15.845862
20
65.87313
10
15.695862
20
65.764131
10
15.533862
20
65.675132
10
15.361862
20
65.60713
10
15.182862
20
65.561131
10
14.999862
20
65.53813
10
14.813862
20
65.538133
10
14.630862
20
65.561134
10
14.451862
20
65.60713
10
14.279862
20
65.675132
10
14.117862
20
65.764131
10
13.967862
20
65.87313
10
13.832862
20
66.00013
10
13.714862
20
66.142131
10
13.615862
20
66.298132
10
13.536862
20
66.466133
10
13.479862
20
66.642132
10
13.444862
20
66.823133
10
13.433861
20
67.008132
0
LWPOLYLINE
5
70
100
AcDbEntity
8
0
6
ByLayer
62
7
370
-1
100
AcDbPolyline
90
5
70
0
43
0
10
39.036862
20
-14.271865
10
39.036862
20
-11.096865
10
58.086862
20
-11.096865
10
58.086862
20
-14.271865
10
39.036862
20
-14.271865
0
LWPOLYLINE
5
71
100
AcDbEntity
8
0
6
ByLayer
62
7
370
-1
100
AcDbPolyline
90
5
70
0
43
0
10
39.036862
20
71.453132
10
39.036862
20
74.628132
10
58.086862
20
74.628132
10
58.086862
20
71.453132
10
39.036862
20
71.453132
0
LWPOLYLINE
5
72
100
AcDbEntity
8
0
6
ByLayer
62
7
370
-1
100
AcDbPolyline
90
5
70
0
43
0
10
96.186862
20
-14.271865
10
96.186862
20
-11.096865
10
115.236862
20
-11.096865
10
115.236862
20
-14.271865
10
96.186862
20
-14.271865
0
LWPOLYLINE
5
73
100
AcDbEntity
8
0
6
ByLayer
62
7
370
-1
100
AcDbPolyline
90
5
70
0
43
0
10
96.186862
20
71.453132
10
96.186862
20
74.628132
10
115.236862
20
74.628132
10
115.236862
20
71.453132
10
96.186862
20
71.453132
0
LWPOLYLINE
5
74
100
AcDbEntity
8
0
6
ByLayer
62
7
370
-1
100
AcDbPolyline
90
5
70
0
43
0
10
153.336862
20
-14.271865
10
153.336862
20
-11.096865
10
172.386862
20
-11.096865
10
172.386862
20
-14.271865
10
153.336862
20
-14.271865
0
LWPOLYLINE
5
75
100
AcDbEntity
8
0
6
ByLayer
62
7
370
-1
100
AcDbPolyline
90
5
70
0
43
0
10
153.336862
20
71.453132
10
153.336862
20
74.628132
10
172.386862
20
74.628132
10
172.386862
20
71.453132
10
153.336862
20
71.453132
0
LWPOLYLINE
5
76
100
AcDbEntity
8
0
6
ByLayer
62
7
370
-1
100
AcDbPolyline
90
13
70
0
43
0
10
195.043862
20
-6.651865
10
195.054869
20
-6.466868
10
195.089862
20
-6.285879
10
195.146862
20
-6.109857
10
195.225862
20
-5.941878
10
195.324863
20
-5.785866
10
195.442863
20
-5.64388
10
195.577864
20
-5.51688
10
195.727862
20
-5.407858
10
195.889863
20
-5.318873
10
196.061863
20
-5.250857
10
196.240863
20
-5.204855
10
196.423861
20
-5.181995
0
LWPOLYLINE
5
77
100
AcDbEntity
8
0
6
ByLayer
62
7
370
-1
100
AcDbPolyline
90
3
70
0
43
0
10
196.423861
20
-5.181882
10
196.609863
20
-5.181882
10
196.792861
20
-5.204742
0
LWPOLYLINE
5
78
100
AcDbEntity
8
0
6
ByLayer
62
7
370
-1
100
AcDbPolyline
90
24
70
0
43
0
10
196.792861
20
-5.204855
10
196.971864
20
-5.250857
10
197.143861
20
-5.318873
10
197.305862
20
-5.407858
10
197.455863
20
-5.51688
10
197.590862
20
-5.64388
10
197.708861
20
-5.785866
10
197.807862
20
-5.941878
10
197.886862
20
-6.109857
10
197.943862
20
-6.285879
10
197.978863
20
-6.466868
10
197.98987
20
-6.651865
10
197.978855
20
-6.836862
10
197.943862
20
-7.017879
10
197.886862
20
-7.193873
10
197.807862
20
-7.36188
10
197.708861
20
-7.517864
10
197.590862
20
-7.659878
10
197.455863
20
-7.786878
10
197.305862
20
-7.895872
10
197.143861
20
-7.984857
10
196.971864
20
-8.052872
10
196.792861
20
-8.098875
10
196.609863
20
-8.122017
0
LWPOLYLINE
5
79
100
AcDbEntity
8
0
6
ByLayer
62
7
370
-1
100
AcDbPolyline
90
3
70
0
43
0
10
196.609863
20
-8.121876
10
196.423861
20
-8.121876
10
196.240863
20
-8.098734
0
LWPOLYLINE
5
7A
100
AcDbEntity
8
0
6
ByLayer
62
7
370
-1
100
AcDbPolyline
90
12
70
0
43
0
10
196.240863
20
-8.098875
10
196.061863
20
-8.052872
10
195.889863
20
-7.984857
10
195.727862
20
-7.895872
10
195.577864
20
-7.786878
10
195.442863
20
-7.659878
10
195.324863
20
-7.517864
10
195.225862
20
-7.36188
10
195.146862
20
-7.193873
10
195.089862
20
-7.017879
10
195.054863
20
-6.836862
10
195.043857
20
-6.651865
0
LWPOLYLINE
5
7B
100
AcDbEntity
8
0
6
ByLayer
62
7
370
-1
100
AcDbPolyline
90
51
70
0
43
0
10
195.043862
20
67.008132
10
195.054869
20
67.193132
10
195.089862
20
67.374132
10
195.146862
20
67.550132
10
195.225862
20
67.718133
10
195.324863
20
67.874131
10
195.442863
20
68.016131
10
195.577864
20
68.143131
10
195.727862
20
68.252131
10
195.889863
20
68.341133
10
196.061863
20
68.409131
10
196.240863
20
68.455131
10
196.423861
20
68.478132
10
196.609863
20
68.478132
10
196.792861
20
68.455131
10
196.971864
20
68.409131
10
197.143861
20
68.341133
10
197.305862
20
68.252131
10
197.455863
20
68.143131
10
197.590862
20
68.016131
10
197.708861
20
67.874131
10
197.807862
20
67.718133
10
197.886862
20
67.550132
10
197.943862
20
67.374132
10
197.978863
20
67.193132
10
197.98987
20
67.008132
10
197.978855
20
66.823133
10
197.943862
20
66.642132
10
197.886862
20
66.466133
10
197.807862
20
66.298132
10
197.708861
20
66.142131
10
197.590862
20
66.00013
10
197.455863
20
65.87313
10
197.305862
20
65.764131
10
197.143861
20
65.675132
10
196.971864
20
65.60713
10
196.792861
20
65.561131
10
196.609863
20
65.53813
10
196.423861
20
65.538133
10
196.240863
20
65.561134
10
196.061863
20
65.60713
10
195.889863
20
65.675132
10
195.727862
20
65.764131
10
195.577864
20
65.87313
10
195.442863
20
66.00013
10
195.324863
20
66.142131
10
195.225862
20
66.298132
10
195.146862
20
66.466133
10
195.089862
20
66.642132
10
195.054863
20
66.823133
10
195.043857
20
67.008132
0
LWPOLYLINE
5
7C
100
AcDbEntity
8
0
6
ByLayer
62
7
370
-1
100
AcDbPolyline
90
5
70
0
43
0
10
200.961862
20
-1.571865
10
200.961862
20
17.478135
10
204.136862
20
17.478135
10
204.136862
20
-1.571865
10
200.961862
20
-1.571865
0
LWPOLYLINE
5
7D
100
AcDbEntity
8
0
6
ByLayer
62
7
370
-1
100
AcDbPolyline
90
5
70
0
43
0
10
200.961862
20
42.878132
10
200.961862
20
61.928132
10
204.136862
20
61.928132
10
204.136862
20
42.878132
10
200.961862
20
42.878132
0
LWPOLYLINE
5
7E
100
AcDbEntity
8
0
6
ByLayer
62
7
370
-1
100
AcDbPolyline
90
29
70
0
43
0
10
-54.943138
20
167.338132
10
-54.943138
20
186.388132
10
-51.768138
20
186.388132
10
-51.768138
20
211.788132
10
-54.943138
20
211.788132
10
-54.943138
20
230.838132
10
-51.768138
20
230.838132
10
-51.768138
20
243.538132
10
-39.068138
20
243.538132
10
-39.068138
20
240.363132
10
-26.368138
20
240.363132
10
-26.368138
20
243.538132
10
-13.668138
20
243.538132
10
-13.668138
20
230.838132
10
-10.493138
20
230.838132
10
-10.493138
20
211.788132
10
-13.668138
20
211.788132
10
-13.668138
20
186.388132
10
-10.493138
20
186.388132
10
-10.493138
20
167.338132
10
-13.668138
20
167.338132
10
-13.668138
20
154.638132
10
-26.368138
20
154.638132
10
-26.368138
20
157.813132
10
-39.068138
20
157.813132
10
-39.068138
20
154.638132
10
-51.768138
20
154.638132
10
-51.768138
20
167.338132
10
-54.943138
20
167.338132
0
LWPOLYLINE
5
7F
100
AcDbEntity
8
0
6
ByLayer
62
7
370
-1
100
AcDbPolyline
90
37
70
0
43
0
10
7.286862
20
277.193131
10
7.286862
20
289.893131
10
10.461862
20
289.893131
10
10.461862
20
302.593131
10
39.036862
20
302.593131
10
39.036862
20
305.768131
10
58.086862
20
305.768131
10
58.086862
20
302.593131
10
96.186862
20
302.593131
10
96.186862
20
305.768131
10
115.236862
20
305.768131
10
115.236862
20
302.593131
10
153.336862
20
302.593131
10
153.336862
20
305.768131
10
172.386862
20
305.768131
10
172.386862
20
302.593131
10
200.961862
20
302.593131
10
200.961862
20
289.893131
10
204.136862
20
289.893131
10
204.136862
20
277.193131
10
200.961862
20
277.193131
10
200.961862
20
264.493132
10
172.386862
20
264.493132
10
172.386862
20
261.318132
10
153.336862
20
261.318132
10
153.336862
20
264.493132
10
115.236862
20
264.493132
10
115.236862
20
261.318132
10
96.186862
20
261.318132
10
96.186862
20
264.493132
10
58.086862
20
264.493132
10
58.086862
20
261.318132
10
39.036862
20
261.318132
10
39.036862
20
264.493132
10
10.461862
20
264.493132
10
10.461862
20
277.193131
10
7.286862
20
277.193131
0
LWPOLYLINE
5
80
100
AcDbEntity
8
0
6
ByLayer
62
7
370
-1
100
AcDbPolyline
90
61
70
0
43
0
10
2.206862
20
155.908132
10
2.206862
20
242.268132
10
2.256862
20
243.064132
10
2.405862
20
243.847132
10
2.652862
20
244.606132
10
2.991862
20
245.32713
10
3.419862
20
246.000132
10
3.927862
20
246.615131
10
4.508862
20
247.161132
10
5.154862
20
247.629132
10
5.852862
20
248.014132
10
6.594862
20
248.307132
10
7.366862
20
248.506132
10
8.157862
20
248.60513
10
8.556862
20
248.60513
10
8.556862
20
248.618141
10
202.866862
20
248.618132
10
202.866862
20
248.605122
10
203.265862
20
248.60513
10
204.056863
20
248.506132
10
204.828862
20
248.307132
10
205.570861
20
248.014132
10
206.268862
20
247.629132
10
206.914863
20
247.161132
10
207.495862
20
246.615131
10
208.003862
20
246.000132
10
208.431861
20
245.32713
10
208.770863
20
244.606132
10
209.017862
20
243.847132
10
209.166864
20
243.064132
10
209.216862
20
242.268132
10
209.216862
20
155.908132
10
209.166864
20
155.112133
10
209.017862
20
154.329133
10
208.770863
20
153.570133
10
208.431861
20
152.849131
10
208.003862
20
152.176133
10
207.495862
20
151.561131
10
206.914863
20
151.015133
10
206.268862
20
150.547132
10
205.570861
20
150.162133
10
204.828862
20
149.869133
10
204.056863
20
149.670132
10
203.265862
20
149.571131
10
202.866862
20
149.571131
10
202.866862
20
149.558121
10
8.556862
20
149.558132
10
8.556862
20
149.571143
10
8.157862
20
149.571131
10
7.366862
20
149.670132
10
6.594862
20
149.869133
10
5.852862
20
150.162133
10
5.154862
20
150.547132
10
4.508862
20
151.015133
10
3.927862
20
151.561131
10
3.419862
20
152.176133
10
2.991862
20
152.849131
10
2.652862
20
153.570133
10
2.405862
20
154.329133
10
2.256862
20
155.112133
10
2.206862
20
155.908132
0
LWPOLYLINE
5
81
100
AcDbEntity
8
0
6
ByLayer
62
7
370
-1
100
AcDbPolyline
90
5
70
0
43
0
10
7.286862
20
167.338132
10
7.286862
20
186.388132
10
10.461862
20
186.388132
10
10.461862
20
167.338132
10
7.286862
20
167.338132
0
LWPOLYLINE
5
82
100
AcDbEntity
8
0
6
ByLayer
62
7
370
-1
100
AcDbPolyline
90
5
70
0
43
0
10
7.286862
20
211.788132
10
7.286862
20
230.838132
10
10.461862
20
230.838132
10
10.461862
20
211.788132
10
7.286862
20
211.788132
0
LWPOLYLINE
5
83
100
AcDbEntity
8
0
6
ByLayer
62
7
370
-1
100
AcDbPolyline
90
51
70
0
43
0
10
13.433862
20
162.258132
10
13.444863
20
162.443132
10
13.479862
20
162.624132
10
13.536862
20
162.800132
10
13.615862
20
162.968133
10
13.714862
20
163.124131
10
13.832862
20
163.266131
10
13.967862
20
163.393131
10
14.117862
20
163.502131
10
14.279862
20
163.591133
10
14.451862
20
163.659131
10
14.630862
20
163.705131
10
14.813862
20
163.728132
10
14.999862
20
163.728132
10
15.182862
20
163.705131
10
15.361862
20
163.659131
10
15.533862
20
163.591133
10
15.695862
20
163.502131
10
15.845862
20
163.393131
10
15.980862
20
163.266131
10
16.098862
20
163.124131
10
16.197862
20
162.968133
10
16.276862
20
162.800132
10
16.333862
20
162.624132
10
16.368862
20
162.443132
10
16.379863
20
162.258132
10
16.368861
20
162.073133
10
16.333862
20
161.892132
10
16.276862
20
161.716133
10
16.197862
20
161.548132
10
16.098862
20
161.392131
10
15.980862
20
161.25013
10
15.845862
20
161.12313
10
15.695862
20
161.014131
10
15.533862
20
160.925132
10
15.361862
20
160.85713
10
15.182862
20
160.811131
10
14.999862
20
160.78813
10
14.813862
20
160.788133
10
14.630862
20
160.811134
10
14.451862
20
160.85713
10
14.279862
20
160.925132
10
14.117862
20
161.014131
10
13.967862
20
161.12313
10
13.832862
20
161.25013
10
13.714862
20
161.392131
10
13.615862
20
161.548132
10
13.536862
20
161.716133
10
13.479862
20
161.892132
10
13.444862
20
162.073133
10
13.433861
20
162.258132
0
LWPOLYLINE
5
84
100
AcDbEntity
8
0
6
ByLayer
62
7
370
-1
100
AcDbPolyline
90
51
70
0
43
0
10
13.433862
20
235.918132
10
13.444863
20
236.103132
10
13.479862
20
236.284132
10
13.536862
20
236.460132
10
13.615862
20
236.628133
10
13.714862
20
236.784131
10
13.832862
20
236.926131
10
13.967862
20
237.053131
10
14.117862
20
237.162131
10
14.279862
20
237.251133
10
14.451862
20
237.319131
10
14.630862
20
237.365131
10
14.813862
20
237.388132
10
14.999862
20
237.388132
10
15.182862
20
237.365131
10
15.361862
20
237.319131
10
15.533862
20
237.251133
10
15.695862
20
237.162131
10
15.845862
20
237.053131
10
15.980862
20
236.926131
10
16.098862
20
236.784131
10
16.197862
20
236.628133
10
16.276862
20
236.460132
10
16.333862
20
236.284132
10
16.368862
20
236.103132
10
16.379863
20
235.918132
10
16.368861
20
235.733133
10
16.333862
20
235.552132
10
16.276862
20
235.376133
10
16.197862
20
235.208132
10
16.098862
20
235.052131
10
15.980862
20
234.91013
10
15.845862
20
234.78313
10
15.695862
20
234.674131
10
15.533862
20
234.585132
10
15.361862
20
234.51713
10
15.182862
20
234.471131
10
14.999862
20
234.44813
10
14.813862
20
234.448133
10
14.630862
20
234.471134
10
14.451862
20
234.51713
10
14.279862
20
234.585132
10
14.117862
20
234.674131
10
13.967862
20
234.78313
10
13.832862
20
234.91013
10
13.714862
20
235.052131
10
13.615862
20
235.208132
10
13.536862
20
235.376133
10
13.479862
20
235.552132
10
13.444862
20
235.733133
10
13.433861
20
235.918132
0
LWPOLYLINE
5
85
100
AcDbEntity
8
0
6
ByLayer
62
7
370
-1
100
AcDbPolyline
90
51
70
0
43
0
10
24.812862
20
164.163132
10
24.824862
20
164.354132
10
24.860862
20
164.542131
10
24.919862
20
164.724131
10
25.001862
20
164.897133
10
25.103862
20
165.059131
10
25.225862
20
165.206132
10
25.365862
20
165.337132
10
25.519862
20
165.450131
10
25.687862
20
165.542132
10
25.865862
20
165.612132
10
26.050862
20
165.660132
10
26.240862
20
165.684121
10
26.432862
20
165.684132
10
26.622862
20
165.660143
10
26.807862
20
165.612132
10
26.985862
20
165.542132
10
27.153862
20
165.450131
10
27.307862
20
165.337132
10
27.447862
20
165.206132
10
27.569862
20
165.059131
10
27.671862
20
164.897133
10
27.753862
20
164.724131
10
27.812862
20
164.542131
10
27.848862
20
164.354132
10
27.860862
20
164.163132
10
27.848862
20
163.972133
10
27.812862
20
163.78413
10
27.753862
20
163.602131
10
27.671862
20
163.429132
10
27.569862
20
163.26713
10
27.447862
20
163.120132
10
27.307862
20
162.989133
10
27.153862
20
162.876131
10
26.985862
20
162.784132
10
26.807862
20
162.714133
10
26.622862
20
162.666132
10
26.432862
20
162.642144
10
26.240862
20
162.642132
10
26.050862
20
162.666121
10
25.865862
20
162.714133
10
25.687862
20
162.784132
10
25.519862
20
162.876131
10
25.365862
20
162.989133
10
25.225862
20
163.120132
10
25.103862
20
163.26713
10
25.001862
20
163.429132
10
24.919862
20
163.602131
10
24.860862
20
163.78413
10
24.824862
20
163.972133
10
24.812862
20
164.163132
0
LWPOLYLINE
5
86
100
AcDbEntity
8
0
6
ByLayer
62
7
370
-1
100
AcDbPolyline
90
51
70
0
43
0
10
24.812862
20
234.013132
10
24.824862
20
234.204132
10
24.860862
20
234.392131
10
24.919862
20
234.574131
10
25.001862
20
234.747133
10
25.103862
20
234.909131
10
25.225862
20
235.056132
10
25.365862
20
235.187132
10
25.519862
20
235.300131
10
25.687862
20
235.392132
10
25.865862
20
235.462132
10
26.050862
20
235.510132
10
26.240862
20
235.534121
10
26.432862
20
235.534132
10
26.622862
20
235.510143
10
26.807862
20
235.462132
10
26.985862
20
235.392132
10
27.153862
20
235.300131
10
27.307862
20
235.187132
10
27.447862
20
235.056132
10
27.569862
20
234.909131
10
27.671862
20
234.747133
10
27.753862
20
234.574131
10
27.812862
20
234.392131
10
27.848862
20
234.204132
10
27.860862
20
234.013132
10
27.848862
20
233.822133
10
27.812862
20
233.63413
10
27.753862
20
233.452131
10
27.671862
20
233.279132
10
27.569862
20
233.11713
10
27.447862
20
232.970132
10
27.307862
20
232.839133
10
27.153862
20
232.726131
10
26.985862
20
232.634132
10
26.807862
20
232.564133
10
26.622862
20
232.516132
10
26.432862
20
232.492144
10
26.240862
20
232.492132
10
26.050862
20
232.516121
10
25.865862
20
232.564133
10
25.687862
20
232.634132
10
25.519862
20
232.726131
10
25.365862
20
232.839133
10
25.225862
20
232.970132
10
25.103862
20
233.11713
10
25.001862
20
233.279132
10
24.919862
20
233.452131
10
24.860862
20
233.63413
10
24.824862
20
233.822133
10
24.812862
20
234.013132
0
LWPOLYLINE
5
87
100
AcDbEntity
8
0
6
ByLayer
62
7
370
-1
100
AcDbPolyline
90
5
70
0
43
0
10
39.036862
20
154.638132
10
39.036862
20
157.813132
10
58.086862
20
157.813132
10
58.086862
20
154.638132
10
39.036862
20
154.638132
0
LWPOLYLINE
5
88
100
AcDbEntity
8
0
6
ByLayer
62
7
370
-1
100
AcDbPolyline
90
5
70
0
43
0
10
39.036862
20
240.363132
10
39.036862
20
243.538132
10
58.086862
20
243.538132
10
58.086862
20
240.363132
10
39.036862
20
240.363132
0
LWPOLYLINE
5
89
100
AcDbEntity
8
0
6
ByLayer
62
7
370
-1
100
AcDbPolyline
90
51
70
0
43
0
10
75.612862
20
164.163132
10
75.624857
20
164.354132
10
75.660862
20
164.542131
10
75.719861
20
164.724131
10
75.801863
20
164.897133
10
75.903861
20
165.059131
10
76.025863
20
165.206132
10
76.165862
20
165.337132
10
76.319863
20
165.450131
10
76.487861
20
165.542132
10
76.665861
20
165.612132
10
76.850861
20
165.660132
10
77.040861
20
165.684121
10
77.232863
20
165.684132
10
77.422863
20
165.660143
10
77.607863
20
165.612132
10
77.785863
20
165.542132
10
77.953862
20
165.450131
10
78.107862
20
165.337132
10
78.247861
20
165.206132
10
78.369863
20
165.059131
10
78.471863
20
164.897133
10
78.553863
20
164.724131
10
78.612862
20
164.542131
10
78.648862
20
164.354132
10
78.660856
20
164.163132
10
78.648868
20
163.972133
10
78.612862
20
163.78413
10
78.553863
20
163.602131
10
78.471863
20
163.429132
10
78.369863
20
163.26713
10
78.247861
20
163.120132
10
78.107862
20
162.989133
10
77.953862
20
162.876131
10
77.785863
20
162.784132
10
77.607863
20
162.714133
10
77.422863
20
162.666132
10
77.232863
20
162.642144
10
77.040861
20
162.642132
10
76.850861
20
162.666121
10
76.665861
20
162.714133
10
76.487861
20
162.784132
10
76.319863
20
162.876131
10
76.165862
20
162.989133
10
76.025863
20
163.120132
10
75.903861
20
163.26713
10
75.801863
20
163.429132
10
75.719861
20
163.602131
10
75.660862
20
163.78413
10
75.624862
20
163.972133
10
75.612868
20
164.163132
0
LWPOLYLINE
5
8A
100
AcDbEntity
8
0
6
ByLayer
62
7
370
-1
100
AcDbPolyline
90
51
70
0
43
0
10
75.612862
20
234.013132
10
75.624857
20
234.204132
10
75.660862
20
234.392131
10
75.719861
20
234.574131
10
75.801863
20
234.747133
10
75.903861
20
234.909131
10
76.025863
20
235.056132
10
76.165862
20
235.187132
10
76.319863
20
235.300131
10
76.487861
20
235.392132
10
76.665861
20
235.462132
10
76.850861
20
235.510132
10
77.040861
20
235.534121
10
77.232863
20
235.534132
10
77.422863
20
235.510143
10
77.607863
20
235.462132
10
77.785863
20
235.392132
10
77.953862
20
235.300131
10
78.107862
20
235.187132
10
78.247861
20
235.056132
10
78.369863
20
234.909131
10
78.471863
20
234.747133
10
78.553863
20
234.574131
10
78.612862
20
234.392131
10
78.648862
20
234.204132
10
78.660856
20
234.013132
10
78.648868
20
233.822133
10
78.612862
20
233.63413
10
78.553863
20
233.452131
10
78.471863
20
233.279132
10
78.369863
20
233.11713
10
78.247861
20
232.970132
10
78.107862
20
232.839133
10
77.953862
20
232.726131
10
77.785863
20
232.634132
10
77.607863
20
232.564133
10
77.422863
20
232.516132
10
77.232863
20
232.492144
10
77.040861
20
232.492132
10
76.850861
20
232.516121
10
76.665861
20
232.564133
10
76.487861
20
232.634132
10
76.319863
20
232.726131
10
76.165862
20
232.839133
10
76.025863
20
232.970132
10
75.903861
20
233.11713
10
75.801863
20
233.279132
10
75.719861
20
233.452131
10
75.660862
20
233.63413
10
75.624862
20
233.822133
10
75.612868
20
234.013132
0
LWPOLYLINE
5
8B
100
AcDbEntity
8
0
6
ByLayer
62
7
370
-1
100
AcDbPolyline
90
5
70
0
43
0
10
96.186862
20
154.638132
10
96.186862
20
157.813132
10
115.236862
20
157.813132
10
115.236862
20
154.638132
10
96.186862
20
154.638132
0
LWPOLYLINE
5
8C
100
AcDbEntity
8
0
6
ByLayer
62
7
370
-1
100
AcDbPolyline
90
5
70
0
43
0
10
96.186862
20
240.363132
10
96.186862
20
243.538132
10
115.236862
20
243.538132
10
115.236862
20
240.363132
10
96.186862
20
240.363132
0
LWPOLYLINE
5
8D
100
AcDbEntity
8
0
6
ByLayer
62
7
370
-1
100
AcDbPolyline
90
51
70
0
43
0
10
110.537862
20
164.163132
10
110.549857
20
164.354132
10
110.585862
20
164.542131
10
110.644861
20
164.724131
10
110.726863
20
164.897133
10
110.828861
20
165.059131
10
110.950863
20
165.206132
10
111.090862
20
165.337132
10
111.244863
20
165.450131
10
111.412861
20
165.542132
10
111.590861
20
165.612132
10
111.775861
20
165.660132
10
111.965861
20
165.684121
10
112.157863
20
165.684132
10
112.347863
20
165.660143
10
112.532863
20
165.612132
10
112.710863
20
165.542132
10
112.878862
20
165.450131
10
113.032862
20
165.337132
10
113.172861
20
165.206132
10
113.294863
20
165.059131
10
113.396863
20
164.897133
10
113.478863
20
164.724131
10
113.537862
20
164.542131
10
113.573862
20
164.354132
10
113.585856
20
164.163132
10
113.573868
20
163.972133
10
113.537862
20
163.78413
10
113.478863
20
163.602131
10
113.396863
20
163.429132
10
113.294863
20
163.26713
10
113.172861
20
163.120132
10
113.032862
20
162.989133
10
112.878862
20
162.876131
10
112.710863
20
162.784132
10
112.532863
20
162.714133
10
112.347863
20
162.666132
10
112.157863
20
162.642144
10
111.965861
20
162.642132
10
111.775861
20
162.666121
10
111.590861
20
162.714133
10
111.412861
20
162.784132
10
111.244863
20
162.876131
10
111.090862
20
162.989133
10
110.950863
20
163.120132
10
110.828861
20
163.26713
10
110.726863
20
163.429132
10
110.644861
20
163.602131
10
110.585862
20
163.78413
10
110.549862
20
163.972133
10
110.537868
20
164.163132
0
LWPOLYLINE
5
8E
100
AcDbEntity
8
0
6
ByLayer
62
7
370
-1
100
AcDbPolyline
90
51
70
0
43
0
10
110.537862
20
189.563132
10
110.549857
20
189.754132
10
110.585862
20
189.942131
10
110.644861
20
190.124131
10
110.726863
20
190.297133
10
110.828861
20
190.459131
10
110.950863
20
190.606132
10
111.090862
20
190.737132
10
111.244863
20
190.850131
10
111.412861
20
190.942132
10
111.590861
20
191.012132
10
111.775861
20
191.060132
10
111.965861
20
191.084121
10
112.157863
20
191.084132
10
112.347863
20
191.060143
10
112.532863
20
191.012132
10
112.710863
20
190.942132
10
112.878862
20
190.850131
10
113.032862
20
190.737132
10
113.172861
20
190.606132
10
113.294863
20
190.459131
10
113.396863
20
190.297133
10
113.478863
20
190.124131
10
113.537862
20
189.942131
10
113.573862
20
189.754132
10
113.585856
20
189.563132
10
113.573868
20
189.372133
10
113.537862
20
189.18413
10
113.478863
20
189.002131
10
113.396863
20
188.829132
10
113.294863
20
188.66713
10
113.172861
20
188.520132
10
113.032862
20
188.389133
10
112.878862
20
188.276131
10
112.710863
20
188.184132
10
112.532863
20
188.114133
10
112.347863
20
188.066132
10
112.157863
20
188.042144
10
111.965861
20
188.042132
10
111.775861
20
188.066121
10
111.590861
20
188.114133
10
111.412861
20
188.184132
10
111.244863
20
188.276131
10
111.090862
20
188.389133
10
110.950863
20
188.520132
10
110.828861
20
188.66713
10
110.726863
20
188.829132
10
110.644861
20
189.002131
10
110.585862
20
189.18413
10
110.549862
20
189.372133
10
110.537868
20
189.563132
0
LWPOLYLINE
5
8F
100
AcDbEntity
8
0
6
ByLayer
62
7
370
-1
100
AcDbPolyline
90
5
70
0
43
0
10
153.336862
20
154.638132
10
153.336862
20
157.813132
10
172.386862
20
157.813132
10
172.386862
20
154.638132
10
153.336862
20
154.638132
0
LWPOLYLINE
5
90
100
AcDbEntity
8
0
6
ByLayer
62
7
370
-1
100
AcDbPolyline
90
5
70
0
43
0
10
153.336862
20
240.363132
10
153.336862
20
243.538132
10
172.386862
20
243.538132
10
172.386862
20
240.363132
10
153.336862
20
240.363132
0
LWPOLYLINE
5
91
100
AcDbEntity
8
0
6
ByLayer
62
7
370
-1
100
AcDbPolyline
90
51
70
0
43
0
10
161.337862
20
164.163132
10
161.349857
20
164.354132
10
161.385862
20
164.542131
10
161.444861
20
164.724131
10
161.526863
20
164.897133
10
161.628861
20
165.059131
10
161.750863
20
165.206132
10
161.890862
20
165.337132
10
162.044863
20
165.450131
10
162.212861
20
165.542132
10
162.390861
20
165.612132
10
162.575861
20
165.660132
10
162.765861
20
165.684121
10
162.957863
20
165.684132
10
163.147863
20
165.660143
10
163.332863
20
165.612132
10
163.510863
20
165.542132
10
163.678862
20
165.450131
10
163.832862
20
165.337132
10
163.972861
20
165.206132
10
164.094863
20
165.059131
10
164.196863
20
164.897133
10
164.278863
20
164.724131
10
164.337862
20
164.542131
10
164.373862
20
164.354132
10
164.385856
20
164.163132
10
164.373868
20
163.972133
10
164.337862
20
163.78413
10
164.278863
20
163.602131
10
164.196863
20
163.429132
10
164.094863
20
163.26713
10
163.972861
20
163.120132
10
163.832862
20
162.989133
10
163.678862
20
162.876131
10
163.510863
20
162.784132
10
163.332863
20
162.714133
10
163.147863
20
162.666132
10
162.957863
20
162.642144
10
162.765861
20
162.642132
10
162.575861
20
162.666121
10
162.390861
20
162.714133
10
162.212861
20
162.784132
10
162.044863
20
162.876131
10
161.890862
20
162.989133
10
161.750863
20
163.120132
10
161.628861
20
163.26713
10
161.526863
20
163.429132
10
161.444861
20
163.602131
10
161.385862
20
163.78413
10
161.349862
20
163.972133
10
161.337868
20
164.163132
0
LWPOLYLINE
5
92
100
AcDbEntity
8
0
6
ByLayer
62
7
370
-1
100
AcDbPolyline
90
51
70
0
43
0
10
161.337862
20
189.563132
10
161.349857
20
189.754132
10
161.385862
20
189.942131
10
161.444861
20
190.124131
10
161.526863
20
190.297133
10
161.628861
20
190.459131
10
161.750863
20
190.606132
10
161.890862
20
190.737132
10
162.044863
20
190.850131
10
162.212861
20
190.942132
10
162.390861
20
191.012132
10
162.575861
20
191.060132
10
162.765861
20
191.084121
10
162.957863
20
191.084132
10
163.147863
20
191.060143
10
163.332863
20
191.012132
10
163.510863
20
190.942132
10
163.678862
20
190.850131
10
163.832862
20
190.737132
10
163.972861
20
190.606132
10
164.094863
20
190.459131
10
164.196863
20
190.297133
10
164.278863
20
190.124131
10
164.337862
20
189.942131
10
164.373862
20
189.754132
10
164.385856
20
189.563132
10
164.373868
20
189.372133
10
164.337862
20
189.18413
10
164.278863
20
189.002131
10
164.196863
20
188.829132
10
164.094863
20
188.66713
10
163.972861
20
188.520132
10
163.832862
20
188.389133
10
163.678862
20
188.276131
10
163.510863
20
188.184132
10
163.332863
20
188.114133
10
163.147863
20
188.066132
10
162.957863
20
188.042144
10
162.765861
20
188.042132
10
162.575861
20
188.066121
10
162.390861
20
188.114133
10
162.212861
20
188.184132
10
162.044863
20
188.276131
10
161.890862
20
188.389133
10
161.750863
20
188.520132
10
161.628861
20
188.66713
10
161.526863
20
188.829132
10
161.444861
20
189.002131
10
161.385862
20
189.18413
10
161.349862
20
189.372133
10
161.337868
20
189.563132
0
LWPOLYLINE
5
93
100
AcDbEntity
8
0
6
ByLayer
62
7
370
-1
100
AcDbPolyline
90
51
70
0
43
0
10
195.043862
20
162.258132
10
195.054869
20
162.443132
10
195.089862
20
162.624132
10
195.146862
20
162.800132
10
195.225862
20
162.968133
10
195.324863
20
163.124131
10
195.442863
20
163.266131
10
195.577864
20
163.393131
10
195.727862
20
163.502131
10
195.889863
20
163.591133
10
196.061863
20
163.659131
10
196.240863
20
163.705131
10
196.423861
20
163.728132
10
196.609863
20
163.728132
10
196.792861
20
163.705131
10
196.971864
20
163.659131
10
197.143861
20
163.591133
10
197.305862
20
163.502131
10
197.455863
20
163.393131
10
197.590862
20
163.266131
10
197.708861
20
163.124131
10
197.807862
20
162.968133
10
197.886862
20
162.800132
10
197.943862
20
162.624132
10
197.978863
20
162.443132
10
197.98987
20
162.258132
10
197.978855
20
162.073133
10
197.943862
20
161.892132
10
197.886862
20
161.716133
10
197.807862
20
161.548132
10
197.708861
20
161.392131
10
197.590862
20
161.25013
10
197.455863
20
161.12313
10
197.305862
20
161.014131
10
197.143861
20
160.925132
10
196.971864
20
160.85713
10
196.792861
20
160.811131
10
196.609863
20
160.78813
10
196.423861
20
160.788133
10
196.240863
20
160.811134
10
196.061863
20
160.85713
10
195.889863
20
160.925132
10
195.727862
20
161.014131
10
195.577864
20
161.12313
10
195.442863
20
161.25013
10
195.324863
20
161.392131
10
195.225862
20
161.548132
10
195.146862
20
161.716133
10
195.089862
20
161.892132
10
195.054863
20
162.073133
10
195.043857
20
162.258132
0
LWPOLYLINE
5
94
100
AcDbEntity
8
0
6
ByLayer
62
7
370
-1
100
AcDbPolyline
90
51
70
0
43
0
10
195.043862
20
235.918132
10
195.054869
20
236.103132
10
195.089862
20
236.284132
10
195.146862
20
236.460132
10
195.225862
20
236.628133
10
195.324863
20
236.784131
10
195.442863
20
236.926131
10
195.577864
20
237.053131
10
195.727862
20
237.162131
10
195.889863
20
237.251133
10
196.061863
20
237.319131
10
196.240863
20
237.365131
10
196.423861
20
237.388132
10
196.609863
20
237.388132
10
196.792861
20
237.365131
10
196.971864
20
237.319131
10
197.143861
20
237.251133
10
197.305862
20
237.162131
10
197.455863
20
237.053131
10
197.590862
20
236.926131
10
197.708861
20
236.784131
10
197.807862
20
236.628133
10
197.886862
20
236.460132
10
197.943862
20
236.284132
10
197.978863
20
236.103132
10
197.98987
20
235.918132
10
197.978855
20
235.733133
10
197.943862
20
235.552132
10
197.886862
20
235.376133
10
197.807862
20
235.208132
10
197.708861
20
235.052131
10
197.590862
20
234.91013
10
197.455863
20
234.78313
10
197.305862
20
234.674131
10
197.143861
20
234.585132
10
196.971864
20
234.51713
10
196.792861
20
234.471131
10
196.609863
20
234.44813
10
196.423861
20
234.448133
10
196.240863
20
234.471134
10
196.061863
20
234.51713
10
195.889863
20
234.585132
10
195.727862
20
234.674131
10
195.577864
20
234.78313
10
195.442863
20
234.91013
10
195.324863
20
235.052131
10
195.225862
20
235.208132
10
195.146862
20
235.376133
10
195.089862
20
235.552132
10
195.054863
20
235.733133
10
195.043857
20
235.918132
0
LWPOLYLINE
5
95
100
AcDbEntity
8
0
6
ByLayer
62
7
370
-1
100
AcDbPolyline
90
5
70
0
43
0
10
200.961862
20
167.338132
10
200.961862
20
186.388132
10
204.136862
20
186.388132
10
204.136862
20
167.338132
10
200.961862
20
167.338132
0
LWPOLYLINE
5
96
100
AcDbEntity
8
0
6
ByLayer
62
7
370
-1
100
AcDbPolyline
90
5
70
0
43
0
10
200.961862
20
211.788132
10
200.961862
20
230.838132
10
204.136862
20
230.838132
10
204.136862
20
211.788132
10
200.961862
20
211.788132
0
LWPOLYLINE
5
97
100
AcDbEntity
8
0
6
ByLayer
62
7
370
-1
100
AcDbPolyline
90
29
70
0
43
0
10
215.687732
20
232.74401
10
215.687732
20
251.79401
10
218.862732
20
251.79401
10
218.862732
20
277.19401
10
215.687732
20
277.19401
10
215.687732
20
296.24401
10
218.862732
20
296.24401
10
218.862732
20
308.94401
10
231.562732
20
308.94401
10
231.562732
20
305.76901
10
244.262732
20
305.76901
10
244.262732
20
308.94401
10
256.962732
20
308.94401
10
256.962732
20
296.24401
10
260.137732
20
296.24401
10
260.137732
20
277.19401
10
256.962732
20
277.19401
10
256.962732
20
251.79401
10
260.137732
20
251.79401
10
260.137732
20
232.74401
10
256.962732
20
232.74401
10
256.962732
20
220.04401
10
244.262732
20
220.04401
10
244.262732
20
223.21901
10
231.562732
20
223.21901
10
231.562732
20
220.04401
10
218.862732
20
220.04401
10
218.862732
20
232.74401
10
215.687732
20
232.74401
0
LWPOLYLINE
5
98
100
AcDbEntity
8
0
6
ByLayer
62
7
370
-1
100
AcDbPolyline
90
37
70
0
43
0
10
7.286862
20
108.283132
10
7.286862
20
120.983132
10
10.461862
20
120.983132
10
10.461862
20
133.683132
10
39.036862
20
133.683132
10
39.036862
20
136.858132
10
58.086862
20
136.858132
10
58.086862
20
133.683132
10
96.186862
20
133.683132
10
96.186862
20
136.858132
10
115.236862
20
136.858132
10
115.236862
20
133.683132
10
153.336862
20
133.683132
10
153.336862
20
136.858132
10
172.386862
20
136.858132
10
172.386862
20
133.683132
10
200.961862
20
133.683132
10
200.961862
20
120.983132
10
204.136862
20
120.983132
10
204.136862
20
108.283132
10
200.961862
20
108.283132
10
200.961862
20
95.583132
10
172.386862
20
95.583132
10
172.386862
20
92.408132
10
153.336862
20
92.408132
10
153.336862
20
95.583132
10
115.236862
20
95.583132
10
115.236862
20
92.408132
10
96.186862
20
92.408132
10
96.186862
20
95.583132
10
58.086862
20
95.583132
10
58.086862
20
92.408132
10
39.036862
20
92.408132
10
39.036862
20
95.583132
10
10.461862
20
95.583132
10
10.461862
20
108.283132
10
7.286862
20
108.283132
0
LWPOLYLINE
5
99
100
AcDbEntity
8
0
6
ByLayer
62
7
370
-1
100
AcDbPolyline
90
61
70
0
43
0
10
32.036862
20
108.363131
10
32.036862
20
118.363131
10
32.044877
20
118.488133
10
32.067864
20
118.612133
10
32.106862
20
118.731132
10
32.160862
20
118.845132
10
32.227861
20
118.951132
10
32.307863
20
119.048132
10
32.399862
20
119.134131
10
32.500864
20
119.20713
10
32.610862
20
119.268133
10
32.727863
20
119.314132
10
32.849862
20
119.345131
10
32.973862
20
119.361133
10
33.036863
20
119.361131
10
33.036863
20
119.363106
10
45.036861
20
119.363132
10
45.036861
20
119.361156
10
45.099862
20
119.361131
10
45.223862
20
119.345129
10
45.345861
20
119.314132
10
45.462862
20
119.268133
10
45.572863
20
119.20713
10
45.673862
20
119.134131
10
45.765861
20
119.048132
10
45.845863
20
118.951132
10
45.912862
20
118.845132
10
45.966863
20
118.731132
10
46.005863
20
118.612133
10
46.028864
20
118.488133
10
46.036848
20
118.363131
10
46.036862
20
108.363131
10
46.028875
20
108.238132
10
46.00586
20
108.114132
10
45.966863
20
107.995133
10
45.912862
20
107.881132
10
45.845863
20
107.775132
10
45.765861
20
107.678133
10
45.673862
20
107.592131
10
45.572863
20
107.519131
10
45.462862
20
107.458132
10
45.345861
20
107.412132
10
45.223862
20
107.38113
10
45.099862
20
107.365128
10
45.036861
20
107.365131
10
45.036861
20
107.363156
10
33.036863
20
107.363133
10
33.036863
20
107.365109
10
32.973862
20
107.365131
10
32.849862
20
107.381133
10
32.727863
20
107.412132
10
32.610862
20
107.458132
10
32.500864
20
107.519131
10
32.399862
20
107.592131
10
32.307863
20
107.678133
10
32.227861
20
107.775132
10
32.160862
20
107.881132
10
32.106862
20
107.995133
10
32.067861
20
108.114132
10
32.04486
20
108.238132
10
32.036848
20
108.363131
0
LWPOLYLINE
5
9A
100
AcDbEntity
8
0
6
ByLayer
62
7
370
-1
100
AcDbPolyline
90
51
70
0
43
0
10
57.436862
20
114.887132
10
57.491861
20
115.764132
10
57.656863
20
116.628133
10
57.928863
20
117.464132
10
58.302861
20
118.259132
10
58.773862
20
119.001131
10
59.333861
20
119.679133
10
59.974861
20
120.281133
10
60.685863
20
120.797131
10
61.456864
20
121.22113
10
62.273863
20
121.544131
10
63.124862
20
121.763132
10
63.996864
20
121.873131
10
64.876863
20
121.873131
10
65.748862
20
121.763132
10
66.599861
20
121.544131
10
67.416863
20
121.22113
10
68.187864
20
120.797131
10
68.898863
20
120.281133
10
69.539863
20
119.679133
10
70.099863
20
119.001131
10
70.570863
20
118.259132
10
70.944861
20
117.464132
10
71.216861
20
116.628133
10
71.381863
20
115.764132
10
71.436862
20
114.887132
10
71.381863
20
114.010132
10
71.216861
20
113.146132
10
70.944861
20
112.310133
10
70.570863
20
111.515133
10
70.099863
20
110.773131
10
69.539863
20
110.095132
10
68.898863
20
109.493132
10
68.187864
20
108.977131
10
67.416863
20
108.553131
10
66.599861
20
108.230131
10
65.748862
20
108.011132
10
64.876863
20
107.90113
10
63.996864
20
107.90113
10
63.124862
20
108.011132
10
62.273863
20
108.230131
10
61.456864
20
108.553131
10
60.685863
20
108.977131
10
59.974861
20
109.493132
10
59.333861
20
110.095132
10
58.773862
20
110.773131
10
58.302861
20
111.515133
10
57.928863
20
112.310133
10
57.656863
20
113.146132
10
57.491861
20
114.010132
10
57.436862
20
114.887132
0
LWPOLYLINE
5
9B
100
AcDbEntity
8
0
6
ByLayer
62
7
370
-1
100
AcDbPolyline
90
51
70
0
43
0
10
92.361862
20
113.363132
10
92.416861
20
114.240132
10
92.581863
20
115.104133
10
92.853863
20
115.940132
10
93.227861
20
116.735132
10
93.698862
20
117.477131
10
94.258861
20
118.155133
10
94.899861
20
118.757133
10
95.610863
20
119.273131
10
96.381864
20
119.69713
10
97.198863
20
120.020131
10
98.049862
20
120.239132
10
98.921864
20
120.349131
10
99.801863
20
120.349131
10
100.673862
20
120.239132
10
101.524861
20
120.020131
10
102.341863
20
119.69713
10
103.112864
20
119.273131
10
103.823863
20
118.757133
10
104.464863
20
118.155133
10
105.024863
20
117.477131
10
105.495863
20
116.735132
10
105.869861
20
115.940132
10
106.141861
20
115.104133
10
106.306863
20
114.240132
10
106.361862
20
113.363132
10
106.306863
20
112.486132
10
106.141861
20
111.622132
10
105.869861
20
110.786133
10
105.495863
20
109.991133
10
105.024863
20
109.249131
10
104.464863
20
108.571132
10
103.823863
20
107.969132
10
103.112864
20
107.453131
10
102.341863
20
107.029131
10
101.524861
20
106.706131
10
100.673862
20
106.487132
10
99.801863
20
106.37713
10
98.921864
20
106.37713
10
98.049862
20
106.487132
10
97.198863
20
106.706131
10
96.381864
20
107.029131
10
95.610863
20
107.453131
10
94.899861
20
107.969132
10
94.258861
20
108.571132
10
93.698862
20
109.249131
10
93.227861
20
109.991133
10
92.853863
20
110.786133
10
92.581863
20
111.622132
10
92.416861
20
112.486132
10
92.361862
20
113.363132
0
LWPOLYLINE
5
9C
100
AcDbEntity
8
0
6
ByLayer
62
7
370
-1
100
AcDbPolyline
90
51
70
0
43
0
10
117.761862
20
113.363132
10
117.816861
20
114.240132
10
117.981863
20
115.104133
10
118.253863
20
115.940132
10
118.627861
20
116.735132
10
119.098862
20
117.477131
10
119.658861
20
118.155133
10
120.299861
20
118.757133
10
121.010863
20
119.273131
10
121.781864
20
119.69713
10
122.598863
20
120.020131
10
123.449862
20
120.239132
10
124.321864
20
120.349131
10
125.201863
20
120.349131
10
126.073862
20
120.239132
10
126.924861
20
120.020131
10
127.741863
20
119.69713
10
128.512864
20
119.273131
10
129.223863
20
118.757133
10
129.864863
20
118.155133
10
130.424863
20
117.477131
10
130.895863
20
116.735132
10
131.269861
20
115.940132
10
131.541861
20
115.104133
10
131.706863
20
114.240132
10
131.761862
20
113.363132
10
131.706863
20
112.486132
10
131.541861
20
111.622132
10
131.269861
20
110.786133
10
130.895863
20
109.991133
10
130.424863
20
109.249131
10
129.864863
20
108.571132
10
129.223863
20
107.969132
10
128.512864
20
107.453131
10
127.741863
20
107.029131
10
126.924861
20
106.706131
10
126.073862
20
106.487132
10
125.201863
20
106.37713
10
124.321864
20
106.37713
10
123.449862
20
106.487132
10
122.598863
20
106.706131
10
121.781864
20
107.029131
10
121.010863
20
107.453131
10
120.299861
20
107.969132
10
119.658861
20
108.571132
10
119.098862
20
109.249131
10
118.627861
20
109.991133
10
118.253863
20
110.786133
10
117.981863
20
111.622132
10
117.816861
20
112.486132
10
117.761862
20
113.363132
0
LWPOLYLINE
5
9D
100
AcDbEntity
8
0
6
ByLayer
62
7
370
-1
100
AcDbPolyline
90
51
70
0
43
0
10
143.161862
20
113.363132
10
143.216861
20
114.240132
10
143.381863
20
115.104133
10
143.653863
20
115.940132
10
144.027861
20
116.735132
10
144.498862
20
117.477131
10
145.058861
20
118.155133
10
145.699861
20
118.757133
10
146.410863
20
119.273131
10
147.181864
20
119.69713
10
147.998863
20
120.020131
10
148.849862
20
120.239132
10
149.721864
20
120.349131
10
150.601863
20
120.349131
10
151.473862
20
120.239132
10
152.324861
20
120.020131
10
153.141863
20
119.69713
10
153.912864
20
119.273131
10
154.623863
20
118.757133
10
155.264863
20
118.155133
10
155.824863
20
117.477131
10
156.295863
20
116.735132
10
156.669861
20
115.940132
10
156.941861
20
115.104133
10
157.106863
20
114.240132
10
157.161862
20
113.363132
10
157.106863
20
112.486132
10
156.941861
20
111.622132
10
156.669861
20
110.786133
10
156.295863
20
109.991133
10
155.824863
20
109.249131
10
155.264863
20
108.571132
10
154.623863
20
107.969132
10
153.912864
20
107.453131
10
153.141863
20
107.029131
10
152.324861
20
106.706131
10
151.473862
20
106.487132
10
150.601863
20
106.37713
10
149.721864
20
106.37713
10
148.849862
20
106.487132
10
147.998863
20
106.706131
10
147.181864
20
107.029131
10
146.410863
20
107.453131
10
145.699861
20
107.969132
10
145.058861
20
108.571132
10
144.498862
20
109.249131
10
144.027861
20
109.991133
10
143.653863
20
110.786133
10
143.381863
20
111.622132
10
143.216861
20
112.486132
10
143.161862
20
113.363132
0
LWPOLYLINE
5
9E
100
AcDbEntity
8
0
6
ByLayer
62
7
370
-1
100
AcDbPolyline
90
51
70
0
43
0
10
168.561862
20
113.363132
10
168.616861
20
114.240132
10
168.781863
20
115.104133
10
169.053863
20
115.940132
10
169.427861
20
116.735132
10
169.898862
20
117.477131
10
170.458861
20
118.155133
10
171.099861
20
118.757133
10
171.810863
20
119.273131
10
172.581864
20
119.69713
10
173.398863
20
120.020131
10
174.249862
20
120.239132
10
175.121864
20
120.349131
10
176.001863
20
120.349131
10
176.873862
20
120.239132
10
177.724861
20
120.020131
10
178.541863
20
119.69713
10
179.312864
20
119.273131
10
180.023863
20
118.757133
10
180.664863
20
118.155133
10
181.224863
20
117.477131
10
181.695863
20
116.735132
10
182.069861
20
115.940132
10
182.341861
20
115.104133
10
182.506863
20
114.240132
10
182.561862
20
113.363132
10
182.506863
20
112.486132
10
182.341861
20
111.622132
10
182.069861
20
110.786133
10
181.695863
20
109.991133
10
181.224863
20
109.249131
10
180.664863
20
108.571132
10
180.023863
20
107.969132
10
179.312864
20
107.453131
10
178.541863
20
107.029131
10
177.724861
20
106.706131
10
176.873862
20
106.487132
10
176.001863
20
106.37713
10
175.121864
20
106.37713
10
174.249862
20
106.487132
10
173.398863
20
106.706131
10
172.581864
20
107.029131
10
171.810863
20
107.453131
10
171.099861
20
107.969132
10
170.458861
20
108.571132
10
169.898862
20
109.249131
10
169.427861
20
109.991133
10
169.053863
20
110.786133
10
168.781863
20
111.622132
10
168.616861
20
112.486132
10
168.561862
20
113.363132
0
LWPOLYLINE
5
9F
100
AcDbEntity
8
0
6
ByLayer
62
7
370
-1
100
AcDbPolyline
90
61
70
0
43
0
10
2.206862
20
-13.001865
10
2.206862
20
73.358132
10
2.256862
20
74.154132
10
2.405862
20
74.937132
10
2.652862
20
75.696132
10
2.991862
20
76.41713
10
3.419862
20
77.090132
10
3.927862
20
77.705131
10
4.508862
20
78.251132
10
5.154862
20
78.719132
10
5.852862
20
79.104132
10
6.594862
20
79.397132
10
7.366862
20
79.596132
10
8.157862
20
79.69513
10
8.556862
20
79.69513
10
8.556862
20
79.708141
10
202.866862
20
79.708132
10
202.866862
20
79.695122
10
203.265862
20
79.69513
10
204.056863
20
79.596132
10
204.828862
20
79.397132
10
205.570861
20
79.104132
10
206.268862
20
78.719132
10
206.914863
20
78.251132
10
207.495862
20
77.705131
10
208.003862
20
77.090132
10
208.431861
20
76.41713
10
208.770863
20
75.696132
10
209.017862
20
74.937132
10
209.166864
20
74.154132
10
209.216862
20
73.358132
10
209.216862
20
-13.001865
10
209.166864
20
-13.797873
10
209.017862
20
-14.58087
10
208.770863
20
-15.339878
10
208.431861
20
-16.060872
10
208.003862
20
-16.733859
10
207.495862
20
-17.348877
10
206.914863
20
-17.894864
10
206.268862
20
-18.362874
10
205.570861
20
-18.747881
10
204.828862
20
-19.040856
10
204.056863
20
-19.239879
10
203.265862
20
-19.338854
10
202.866862
20
-19.338854
10
202.866862
20
-19.351837
10
8.556862
20
-19.351865
10
8.556862
20
-19.338883
10
8.157862
20
-19.338854
10
7.366862
20
-19.239879
10
6.594862
20
-19.040856
10
5.852862
20
-18.747881
10
5.154862
20
-18.362874
10
4.508862
20
-17.894864
10
3.927862
20
-17.348877
10
3.419862
20
-16.733859
10
2.991862
20
-16.060872
10
2.652862
20
-15.339878
10
2.405862
20
-14.58087
10
2.256862
20
-13.797873
10
2.206862
20
-13.001865
0
LWPOLYLINE
5
A0
100
AcDbEntity
8
0
6
ByLayer
62
7
370
-1
100
AcDbPolyline
90
5
70
0
43
0
10
7.286862
20
-1.571865
10
7.286862
20
17.478135
10
10.461862
20
17.478135
10
10.461862
20
-1.571865
10
7.286862
20
-1.571865
0
LWPOLYLINE
5
A1
100
AcDbEntity
8
0
6
ByLayer
62
7
370
-1
100
AcDbPolyline
90
5
70
0
43
0
10
7.286862
20
42.878132
10
7.286862
20
61.928132
10
10.461862
20
61.928132
10
10.461862
20
42.878132
10
7.286862
20
42.878132
0
LWPOLYLINE
5
A2
100
AcDbEntity
8
0
6
ByLayer
62
7
370
-1
100
AcDbPolyline
90
13
70
0
43
0
10
13.433862
20
-6.651865
10
13.444863
20
-6.466868
10
13.479862
20
-6.285879
10
13.536862
20
-6.109857
10
13.615862
20
-5.941878
10
13.714862
20
-5.785866
10
13.832862
20
-5.64388
10
13.967862
20
-5.51688
10
14.117862
20
-5.407858
10
14.279862
20
-5.318873
10
14.451862
20
-5.250857
10
14.630862
20
-5.204855
10
14.813862
20
-5.181995
0
LWPOLYLINE
5
A3
100
AcDbEntity
8
0
6
ByLayer
62
7
370
-1
100
AcDbPolyline
90
3
70
0
43
0
10
14.813862
20
-5.181882
10
14.999862
20
-5.181882
10
15.182862
20
-5.204742
0
LWPOLYLINE
5
A4
100
AcDbEntity
8
0
6
ByLayer
62
7
370
-1
100
AcDbPolyline
90
24
70
0
43
0
10
15.182862
20
-5.204855
10
15.361862
20
-5.250857
10
15.533862
20
-5.318873
10
15.695862
20
-5.407858
10
15.845862
20
-5.51688
10
15.980862
20
-5.64388
10
16.098862
20
-5.785866
10
16.197862
20
-5.941878
10
16.276862
20
-6.109857
10
16.333862
20
-6.285879
10
16.368862
20
-6.466868
10
16.379863
20
-6.651865
10
16.368861
20
-6.836862
10
16.333862
20
-7.017879
10
16.276862
20
-7.193873
10
16.197862
20
-7.36188
10
16.098862
20
-7.517864
10
15.980862
20
-7.659878
10
15.845862
20
-7.786878
10
15.695862
20
-7.895872
10
15.533862
20
-7.984857
10
15.361862
20
-8.052872
10
15.182862
20
-8.098875
10
14.999862
20
-8.122017
0
LWPOLYLINE
5
A5
100
AcDbEntity
8
0
6
ByLayer
62
7
370
-1
100
AcDbPolyline
90
3
70
0
43
0
10
14.999862
20
-8.121876
10
14.813862
20
-8.121876
10
14.630862
20
-8.098734
0
LWPOLYLINE
5
A6
100
AcDbEntity
8
0
6
ByLayer
62
7
370
-1
100
AcDbPolyline
90
12
70
0
43
0
10
14.630862
20
-8.098875
10
14.451862
20
-8.052872
10
14.279862
20
-7.984857
10
14.117862
20
-7.895872
10
13.967862
20
-7.786878
10
13.832862
20
-7.659878
10
13.714862
20
-7.517864
10
13.615862
20
-7.36188
10
13.536862
20
-7.193873
10
13.479862
20
-7.017879
10
13.444862
20
-6.836862
10
13.433861
20
-6.651865
0
LWPOLYLINE
5
A7
100
AcDbEntity
8
0
6
ByLayer
62
7
370
-1
100
AcDbPolyline
90
51
70
0
43
0
10
13.433862
20
67.008132
10
13.444863
20
67.193132
10
13.479862
20
67.374132
10
13.536862
20
67.550132
10
13.615862
20
67.718133
10
13.714862
20
67.874131
10
13.832862
20
68.016131
10
13.967862
20
68.143131
10
14.117862
20
68.252131
10
14.279862
20
68.341133
10
14.451862
20
68.409131
10
14.630862
20
68.455131
10
14.813862
20
68.478132
10
14.999862
20
68.478132
10
15.182862
20
68.455131
10
15.361862
20
68.409131
10
15.533862
20
68.341133
10
15.695862
20
68.252131
10
15.845862
20
68.143131
10
15.980862
20
68.016131
10
16.098862
20
67.874131
10
16.197862
20
67.718133
10
16.276862
20
67.550132
10
16.333862
20
67.374132
10
16.368862
20
67.193132
10
16.379863
20
67.008132
10
16.368861
20
66.823133
10
16.333862
20
66.642132
10
16.276862
20
66.466133
10
16.197862
20
66.298132
10
16.098862
20
66.142131
10
15.980862
20
66.00013
10
15.845862
20
65.87313
10
15.695862
20
65.764131
10
15.533862
20
65.675132
10
15.361862
20
65.60713
10
15.182862
20
65.561131
10
14.999862
20
65.53813
10
14.813862
20
65.538133
10
14.630862
20
65.561134
10
14.451862
20
65.60713
10
14.279862
20
65.675132
10
14.117862
20
65.764131
10
13.967862
20
65.87313
10
13.832862
20
66.00013
10
13.714862
20
66.142131
10
13.615862
20
66.298132
10
13.536862
20
66.466133
10
13.479862
20
66.642132
10
13.444862
20
66.823133
10
13.433861
20
67.008132
0
LWPOLYLINE
5
A8
100
AcDbEntity
8
0
6
ByLayer
62
7
370
-1
100
AcDbPolyline
90
5
70
0
43
0
10
39.036862
20
-14.271865
10
39.036862
20
-11.096865
10
58.086862
20
-11.096865
10
58.086862
20
-14.271865
10
39.036862
20
-14.271865
0
LWPOLYLINE
5
A9
100
AcDbEntity
8
0
6
ByLayer
62
7
370
-1
100
AcDbPolyline
90
5
70
0
43
0
10
39.036862
20
71.453132
10
39.036862
20
74.628132
10
58.086862
20
74.628132
10
58.086862
20
71.453132
10
39.036862
20
71.453132
0
LWPOLYLINE
5
AA
100
AcDbEntity
8
0
6
ByLayer
62
7
370
-1
100
AcDbPolyline
90
5
70
0
43
0
10
96.186862
20
-14.271865
10
96.186862
20
-11.096865
10
115.236862
20
-11.096865
10
115.236862
20
-14.271865
10
96.186862
20
-14.271865
0
LWPOLYLINE
5
AB
100
AcDbEntity
8
0
6
ByLayer
62
7
370
-1
100
AcDbPolyline
90
5
70
0
43
0
10
96.186862
20
71.453132
10
96.186862
20
74.628132
10
115.236862
20
74.628132
10
115.236862
20
71.453132
10
96.186862
20
71.453132
0
LWPOLYLINE
5
AC
100
AcDbEntity
8
0
6
ByLayer
62
7
370
-1
100
AcDbPolyline
90
5
70
0
43
0
10
153.336862
20
-14.271865
10
153.336862
20
-11.096865
10
172.386862
20
-11.096865
10
172.386862
20
-14.271865
10
153.336862
20
-14.271865
0
LWPOLYLINE
5
AD
100
AcDbEntity
8
0
6
ByLayer
62
7
370
-1
100
AcDbPolyline
90
5
70
0
43
0
10
153.336862
20
71.453132
10
153.336862
20
74.628132
10
172.386862
20
74.628132
10
172.386862
20
71.453132
10
153.336862
20
71.453132
0
LWPOLYLINE
5
AE
100
AcDbEntity
8
0
6
ByLayer
62
7
370
-1
100
AcDbPolyline
90
13
70
0
43
0
10
195.043862
20
-6.651865
10
195.054869
20
-6.466868
10
195.089862
20
-6.285879
10
195.146862
20
-6.109857
10
195.225862
20
-5.941878
10
195.324863
20
-5.785866
10
195.442863
20
-5.64388
10
195.577864
20
-5.51688
10
195.727862
20
-5.407858
10
195.889863
20
-5.318873
10
196.061863
20
-5.250857
10
196.240863
20
-5.204855
10
196.423861
20
-5.181995
0
LWPOLYLINE
5
AF
100
AcDbEntity
8
0
6
ByLayer
62
7
370
-1
100
AcDbPolyline
90
3
70
0
43
0
10
196.423861
20
-5.181882
10
196.609863
20
-5.181882
10
196.792861
20
-5.204742
0
LWPOLYLINE
5
B0
100
AcDbEntity
8
0
6
ByLayer
62
7
370
-1
100
AcDbPolyline
90
24
70
0
43
0
10
196.792861
20
-5.204855
10
196.971864
20
-5.250857
10
197.143861
20
-5.318873
10
197.305862
20
-5.407858
10
197.455863
20
-5.51688
10
197.590862
20
-5.64388
10
197.708861
20
-5.785866
10
197.807862
20
-5.941878
10
197.886862
20
-6.109857
10
197.943862
20
-6.285879
10
197.978863
20
-6.466868
10
197.98987
20
-6.651865
10
197.978855
20
-6.836862
10
197.943862
20
-7.017879
10
197.886862
20
-7.193873
10
197.807862
20
-7.36188
10
197.708861
20
-7.517864
10
197.590862
20
-7.659878
10
197.455863
20
-7.786878
10
197.305862
20
-7.895872
10
197.143861
20
-7.984857
10
196.971864
20
-8.052872
10
196.792861
20
-8.098875
10
196.609863
20
-8.122017
0
LWPOLYLINE
5
B1
100
AcDbEntity
8
0
6
ByLayer
62
7
370
-1
100
AcDbPolyline
90
3
70
0
43
0
10
196.609863
20
-8.121876
10
196.423861
20
-8.121876
10
196.240863
20
-8.098734
0
LWPOLYLINE
5
B2
100
AcDbEntity
8
0
6
ByLayer
62
7
370
-1
100
AcDbPolyline
90
12
70
0
43
0
10
196.240863
20
-8.098875
10
196.061863
20
-8.052872
10
195.889863
20
-7.984857
10
195.727862
20
-7.895872
10
195.577864
20
-7.786878
10
195.442863
20
-7.659878
10
195.324863
20
-7.517864
10
195.225862
20
-7.36188
10
195.146862
20
-7.193873
10
195.089862
20
-7.017879
10
195.054863
20
-6.836862
10
195.043857
20
-6.651865
0
LWPOLYLINE
5
B3
100
AcDbEntity
8
0
6
ByLayer
62
7
370
-1
100
AcDbPolyline
90
51
70
0
43
0
10
195.043862
20
67.008132
10
195.054869
20
67.193132
10
195.089862
20
67.374132
10
195.146862
20
67.550132
10
195.225862
20
67.718133
10
195.324863
20
67.874131
10
195.442863
20
68.016131
10
195.577864
20
68.143131
10
195.727862
20
68.252131
10
195.889863
20
68.341133
10
196.061863
20
68.409131
10
196.240863
20
68.455131
10
196.423861
20
68.478132
10
196.609863
20
68.478132
10
196.792861
20
68.455131
10
196.971864
20
68.409131
10
197.143861
20
68.341133
10
197.305862
20
68.252131
10
197.455863
20
68.143131
10
197.590862
20
68.016131
10
197.708861
20
67.874131
10
197.807862
20
67.718133
10
197.886862
20
67.550132
10
197.943862
20
67.374132
10
197.978863
20
67.193132
10
197.98987
20
67.008132
10
197.978855
20
66.823133
10
197.943862
20
66.642132
10
197.886862
20
66.466133
10
197.807862
20
66.298132
10
197.708861
20
66.142131
10
197.590862
20
66.00013
10
197.455863
20
65.87313
10
197.305862
20
65.764131
10
197.143861
20
65.675132
10
196.971864
20
65.60713
10
196.792861
20
65.561131
10
196.609863
20
65.53813
10
196.423861
20
65.538133
10
196.240863
20
65.561134
10
196.061863
20
65.60713
10
195.889863
20
65.675132
10
195.727862
20
65.764131
10
195.577864
20
65.87313
10
195.442863
20
66.00013
10
195.324863
20
66.142131
10
195.225862
20
66.298132
10
195.146862
20
66.466133
10
195.089862
20
66.642132
10
195.054863
20
66.823133
10
195.043857
20
67.008132
0
LWPOLYLINE
5
B4
100
AcDbEntity
8
0
6
ByLayer
62
7
370
-1
100
AcDbPolyline
90
5
70
0
43
0
10
200.961862
20
-1.571865
10
200.961862
20
17.478135
10
204.136862
20
17.478135
10
204.136862
20
-1.571865
10
200.961862
20
-1.571865
0
LWPOLYLINE
5
B5
100
AcDbEntity
8
0
6
ByLayer
62
7
370
-1
100
AcDbPolyline
90
5
70
0
43
0
10
200.961862
20
42.878132
10
200.961862
20
61.928132
10
204.136862
20
61.928132
10
204.136862
20
42.878132
10
200.961862
20
42.878132
0
ENDSEC
0
SECTION
2
OBJECTS
0
DICTIONARY
5
C
330
0
100
AcDbDictionary
281
1
3
ACAD_GROUP
350
D
0
DICTIONARY
5
D
330
C
100
AcDbDictionary
281
1
0
ENDSEC
0
EOF
